%TF.GenerationSoftware,KiCad,Pcbnew,10.0.1*%
%TF.CreationDate,2026-09-22T08:02:43-04:00*%
%TF.ProjectId,eib-64-cap,6569622d-3634-42d6-9361-702e6b696361,B*%
%TF.SameCoordinates,PX362b300PY93888e0*%
%TF.FileFunction,Soldermask,Bot*%
%TF.FilePolarity,Negative*%
%FSLAX46Y46*%
G04 Gerber Fmt 4.6, Leading zero omitted, Abs format (unit mm)*
G04 Created by KiCad (PCBNEW 10.0.1) date 2026-09-22 08:02:43*
%MOMM*%
%LPD*%
G01*
G04 APERTURE LIST*
%ADD10C,0.000000*%
G04 APERTURE END LIST*
D10*
%TO.C,G\u002A\u002A\u002A*%
G36*
X25092027Y84186315D02*
G01*
X25179166Y84140328D01*
X25254022Y84073644D01*
X25313001Y83987882D01*
X25317590Y83979015D01*
X25333486Y83943243D01*
X25342771Y83907796D01*
X25347133Y83863784D01*
X25348261Y83802317D01*
X25347109Y83739794D01*
X25342400Y83693680D01*
X25332561Y83656013D01*
X25316022Y83617798D01*
X25300551Y83589639D01*
X25244810Y83516612D01*
X25175622Y83455588D01*
X25100555Y83413734D01*
X25092448Y83410675D01*
X25010679Y83392155D01*
X24920108Y83389447D01*
X24831039Y83402081D01*
X24753779Y83429585D01*
X24690886Y83469310D01*
X24619985Y83538476D01*
X24567908Y83621135D01*
X24536497Y83713104D01*
X24527593Y83810200D01*
X24543039Y83908242D01*
X24550913Y83933056D01*
X24596329Y84028208D01*
X24660269Y84104636D01*
X24742292Y84161910D01*
X24841957Y84199600D01*
X24895293Y84209737D01*
X24996204Y84209991D01*
X25092027Y84186315D01*
G37*
G36*
X26592834Y83490529D02*
G01*
X26574414Y83319733D01*
X26542695Y83170876D01*
X26478631Y82973885D01*
X26392524Y82788989D01*
X26285815Y82617549D01*
X26159945Y82460929D01*
X26016355Y82320493D01*
X25856487Y82197605D01*
X25681782Y82093627D01*
X25493680Y82009923D01*
X25293623Y81947856D01*
X25083051Y81908790D01*
X25049522Y81905421D01*
X24958063Y81901771D01*
X24853385Y81903439D01*
X24744185Y81909985D01*
X24639163Y81920969D01*
X24547014Y81935949D01*
X24417640Y81967509D01*
X24222685Y82036353D01*
X24040083Y82127326D01*
X23871196Y82239055D01*
X23717391Y82370168D01*
X23580030Y82519292D01*
X23460478Y82685056D01*
X23360100Y82866087D01*
X23280259Y83061013D01*
X23222320Y83268462D01*
X23211014Y83337248D01*
X23202250Y83432889D01*
X23197731Y83540362D01*
X23197457Y83652127D01*
X23198562Y83682318D01*
X23810619Y83682318D01*
X23810774Y83519057D01*
X23836300Y83355946D01*
X23837353Y83351556D01*
X23888898Y83193074D01*
X23963096Y83045988D01*
X24057932Y82912400D01*
X24171394Y82794411D01*
X24301466Y82694127D01*
X24446135Y82613647D01*
X24603386Y82555077D01*
X24639351Y82546114D01*
X24728006Y82531562D01*
X24828005Y82522773D01*
X24930170Y82520122D01*
X25025321Y82523981D01*
X25104279Y82534724D01*
X25165746Y82549494D01*
X25324713Y82605538D01*
X25471225Y82683585D01*
X25603381Y82781825D01*
X25719281Y82898446D01*
X25817023Y83031640D01*
X25894706Y83179594D01*
X25950429Y83340499D01*
X25964391Y83406198D01*
X25977207Y83521770D01*
X25979083Y83644164D01*
X25970029Y83763099D01*
X25950050Y83868291D01*
X25916787Y83973013D01*
X25848814Y84122984D01*
X25762978Y84256795D01*
X25661471Y84373831D01*
X25546482Y84473475D01*
X25420201Y84555111D01*
X25284818Y84618126D01*
X25142523Y84661902D01*
X24995507Y84685824D01*
X24845959Y84689277D01*
X24696070Y84671644D01*
X24548029Y84632311D01*
X24404027Y84570662D01*
X24266255Y84486080D01*
X24136901Y84377952D01*
X24046821Y84279437D01*
X23953937Y84144289D01*
X23883045Y83997806D01*
X23834991Y83842858D01*
X23810619Y83682318D01*
X23198562Y83682318D01*
X23201430Y83760648D01*
X23209654Y83858386D01*
X23222130Y83937804D01*
X23245427Y84033494D01*
X23312982Y84234840D01*
X23402146Y84423604D01*
X23511594Y84598251D01*
X23640000Y84757244D01*
X23786040Y84899048D01*
X23948387Y85022128D01*
X24125716Y85124948D01*
X24316702Y85205972D01*
X24457315Y85248778D01*
X24659755Y85288352D01*
X24865095Y85304078D01*
X25070154Y85296132D01*
X25271755Y85264690D01*
X25466718Y85209928D01*
X25651863Y85132023D01*
X25771917Y85065663D01*
X25940899Y84948186D01*
X26094957Y84811230D01*
X26232003Y84657235D01*
X26349948Y84488641D01*
X26446704Y84307888D01*
X26520182Y84117417D01*
X26545439Y84026027D01*
X26577753Y83852401D01*
X26593749Y83670993D01*
X26593613Y83644164D01*
X26592834Y83490529D01*
G37*
G36*
X29603615Y81444608D02*
G01*
X29594471Y81293231D01*
X29559625Y81117476D01*
X29498734Y80945960D01*
X29411799Y80778680D01*
X29298816Y80615634D01*
X29159786Y80456820D01*
X29110568Y80407648D01*
X28997232Y80307321D01*
X28880875Y80223940D01*
X28755704Y80154088D01*
X28615929Y80094347D01*
X28455759Y80041298D01*
X28449804Y80039536D01*
X28384765Y80019673D01*
X28326722Y80000905D01*
X28281803Y79985273D01*
X28256138Y79974818D01*
X28244711Y79968262D01*
X28220986Y79946297D01*
X28207982Y79915804D01*
X28205781Y79873703D01*
X28214465Y79816914D01*
X28234115Y79742358D01*
X28264812Y79646954D01*
X28267600Y79638698D01*
X28291583Y79564899D01*
X28313853Y79491871D01*
X28332035Y79427644D01*
X28343752Y79380250D01*
X28355746Y79310786D01*
X28362246Y79173237D01*
X28344562Y79045057D01*
X28303366Y78927240D01*
X28239332Y78820784D01*
X28153132Y78726683D01*
X28045438Y78645933D01*
X27916924Y78579531D01*
X27768263Y78528472D01*
X27728470Y78518350D01*
X27685330Y78509760D01*
X27639489Y78503973D01*
X27585028Y78500466D01*
X27516027Y78498714D01*
X27426565Y78498192D01*
X27326752Y78499264D01*
X27218436Y78504547D01*
X27124018Y78515252D01*
X27036643Y78532494D01*
X26949455Y78557390D01*
X26855597Y78591052D01*
X26837572Y78598124D01*
X26696333Y78662956D01*
X26573615Y78738798D01*
X26464724Y78829495D01*
X26364963Y78938890D01*
X26269637Y79070830D01*
X26248502Y79102128D01*
X26152763Y79226032D01*
X26043207Y79343965D01*
X25925078Y79451069D01*
X25803617Y79542487D01*
X25684069Y79613361D01*
X25677167Y79616819D01*
X25613889Y79645255D01*
X25558217Y79662246D01*
X25508241Y79666332D01*
X25462049Y79656052D01*
X25417732Y79629947D01*
X25373378Y79586557D01*
X25327076Y79524421D01*
X25276916Y79442080D01*
X25220986Y79338075D01*
X25157377Y79210944D01*
X25151191Y79198294D01*
X25104144Y79101503D01*
X25065182Y79019681D01*
X25031891Y78947138D01*
X25001853Y78878181D01*
X24972652Y78807119D01*
X24941872Y78728262D01*
X24907098Y78635918D01*
X24865912Y78524395D01*
X24858276Y78503782D01*
X24815284Y78395309D01*
X24774858Y78308192D01*
X24734811Y78238553D01*
X24692958Y78182512D01*
X24647111Y78136191D01*
X24602869Y78101441D01*
X24522195Y78058583D01*
X24431563Y78035919D01*
X24325785Y78031765D01*
X24267894Y78036238D01*
X24201436Y78049419D01*
X24139511Y78073364D01*
X24077060Y78110685D01*
X24009025Y78163993D01*
X23930347Y78235901D01*
X23804504Y78356446D01*
X23691802Y78248942D01*
X23629788Y78193466D01*
X23529414Y78120712D01*
X23427625Y78069262D01*
X23319675Y78036406D01*
X23284011Y78029826D01*
X23216193Y78021246D01*
X23154190Y78017444D01*
X23123971Y78017716D01*
X22987534Y78034026D01*
X22849184Y78073212D01*
X22711881Y78132887D01*
X22578590Y78210665D01*
X22452272Y78304160D01*
X22335889Y78410985D01*
X22232405Y78528753D01*
X22144781Y78655079D01*
X22075979Y78787577D01*
X22028964Y78923859D01*
X22017777Y78974803D01*
X22003834Y79116503D01*
X22012593Y79261042D01*
X22043354Y79401988D01*
X22095415Y79532909D01*
X22095973Y79534009D01*
X22119991Y79577331D01*
X22154535Y79634646D01*
X22195069Y79698621D01*
X22237057Y79761925D01*
X22282854Y79830533D01*
X22331199Y79908113D01*
X22364997Y79970665D01*
X22385633Y80021177D01*
X22394495Y80062639D01*
X22392968Y80098038D01*
X22388567Y80118013D01*
X22372864Y80163899D01*
X22347111Y80213755D01*
X22308520Y80272556D01*
X22254299Y80345278D01*
X22175932Y80453233D01*
X22064551Y80629967D01*
X21956738Y80828036D01*
X21853568Y81044484D01*
X21756117Y81276355D01*
X21665461Y81520692D01*
X21582676Y81774539D01*
X21508836Y82034940D01*
X21445019Y82298938D01*
X21392298Y82563577D01*
X21351751Y82825901D01*
X21323467Y83092376D01*
X21307046Y83412010D01*
X21308975Y83635364D01*
X21919480Y83635364D01*
X21920941Y83376684D01*
X21939564Y83104820D01*
X21974505Y82823710D01*
X22024919Y82537291D01*
X22089960Y82249500D01*
X22168784Y81964273D01*
X22260546Y81685549D01*
X22364401Y81417264D01*
X22479504Y81163356D01*
X22522681Y81078458D01*
X22650987Y80857975D01*
X22794352Y80655356D01*
X22805828Y80640382D01*
X22894226Y80504860D01*
X22956798Y80366258D01*
X22994005Y80223320D01*
X23006305Y80074785D01*
X23002858Y79989569D01*
X22987861Y79888214D01*
X22959375Y79788686D01*
X22915673Y79686341D01*
X22855029Y79576537D01*
X22775717Y79454629D01*
X22758517Y79429510D01*
X22701233Y79342235D01*
X22659627Y79270461D01*
X22632635Y79210465D01*
X22619188Y79158524D01*
X22618221Y79110916D01*
X22628668Y79063917D01*
X22649463Y79013806D01*
X22678616Y78964194D01*
X22734902Y78892454D01*
X22805075Y78820375D01*
X22883077Y78753507D01*
X22962852Y78697395D01*
X23038344Y78657590D01*
X23046943Y78654299D01*
X23096954Y78641666D01*
X23147570Y78636551D01*
X23148279Y78636551D01*
X23172987Y78637460D01*
X23193844Y78642175D01*
X23215281Y78653738D01*
X23241730Y78675189D01*
X23277621Y78709568D01*
X23327387Y78759914D01*
X23333870Y78766508D01*
X23405242Y78835690D01*
X23466829Y78887337D01*
X23523915Y78924975D01*
X23581785Y78952131D01*
X23645726Y78972332D01*
X23746622Y78989666D01*
X23867685Y78986672D01*
X23987066Y78957602D01*
X24104119Y78902626D01*
X24218202Y78821912D01*
X24297484Y78755933D01*
X24319843Y78824891D01*
X24347135Y78902764D01*
X24386601Y79004141D01*
X24433820Y79117330D01*
X24486658Y79237767D01*
X24542983Y79360889D01*
X24600662Y79482134D01*
X24657563Y79596937D01*
X24711553Y79700736D01*
X24760498Y79788968D01*
X24802268Y79857070D01*
X24871019Y79951228D01*
X24975991Y80064855D01*
X25089732Y80156282D01*
X25210533Y80224196D01*
X25336683Y80267284D01*
X25359336Y80272015D01*
X25456501Y80282364D01*
X25564218Y80281167D01*
X25672314Y80268921D01*
X25770617Y80246122D01*
X25889983Y80200257D01*
X26023842Y80131141D01*
X26161046Y80044128D01*
X26297676Y79942367D01*
X26429813Y79829010D01*
X26553539Y79707205D01*
X26664934Y79580103D01*
X26760078Y79450853D01*
X26768955Y79437588D01*
X26810705Y79378066D01*
X26851050Y79324694D01*
X26885777Y79282868D01*
X26910670Y79257986D01*
X26945096Y79233241D01*
X27040450Y79181846D01*
X27148824Y79142685D01*
X27264631Y79116487D01*
X27382285Y79103984D01*
X27496199Y79105907D01*
X27600786Y79122987D01*
X27690461Y79155955D01*
X27713411Y79168435D01*
X27732861Y79183531D01*
X27743220Y79202548D01*
X27744574Y79229687D01*
X27737008Y79269149D01*
X27720607Y79325137D01*
X27695457Y79401850D01*
X27673501Y79468601D01*
X27644224Y79562398D01*
X27622607Y79640034D01*
X27607369Y79706727D01*
X27597231Y79767695D01*
X27590913Y79828159D01*
X27588663Y79907220D01*
X27604197Y80042943D01*
X27644222Y80170350D01*
X27708085Y80287633D01*
X27795132Y80392984D01*
X27845876Y80440371D01*
X27899960Y80481814D01*
X27960009Y80517509D01*
X28031027Y80550046D01*
X28118019Y80582015D01*
X28225990Y80616008D01*
X28304651Y80640522D01*
X28406230Y80676950D01*
X28490618Y80714849D01*
X28563241Y80757114D01*
X28629526Y80806643D01*
X28694898Y80866332D01*
X28793333Y80973896D01*
X28878535Y81092975D01*
X28940033Y81212561D01*
X28977042Y81331102D01*
X28988775Y81447044D01*
X28988749Y81449245D01*
X28981446Y81531583D01*
X28960674Y81611027D01*
X28924622Y81690908D01*
X28871481Y81774557D01*
X28799443Y81865307D01*
X28706698Y81966489D01*
X28688182Y81985410D01*
X28599201Y82070977D01*
X28492735Y82166435D01*
X28372774Y82268578D01*
X28243310Y82374197D01*
X28108335Y82480085D01*
X27971840Y82583034D01*
X27837815Y82679837D01*
X27710253Y82767286D01*
X27705355Y82770545D01*
X27579120Y82859650D01*
X27473920Y82945844D01*
X27385661Y83033656D01*
X27310250Y83127614D01*
X27243594Y83232244D01*
X27181599Y83352076D01*
X27153824Y83413451D01*
X27128357Y83477331D01*
X27106745Y83542454D01*
X27088440Y83611964D01*
X27072898Y83689003D01*
X27059573Y83776713D01*
X27047919Y83878238D01*
X27037391Y83996719D01*
X27027443Y84135300D01*
X27017529Y84297122D01*
X27017132Y84303952D01*
X27009211Y84419126D01*
X26999592Y84514514D01*
X26987127Y84596380D01*
X26970670Y84670988D01*
X26949075Y84744603D01*
X26921194Y84823489D01*
X26901173Y84873814D01*
X26815631Y85046326D01*
X26705775Y85215916D01*
X26573202Y85381030D01*
X26419508Y85540114D01*
X26246292Y85691613D01*
X26055149Y85833971D01*
X25847678Y85965634D01*
X25625474Y86085047D01*
X25392597Y86187947D01*
X25127343Y86278167D01*
X24855949Y86342946D01*
X24579579Y86382013D01*
X24299396Y86395096D01*
X24167506Y86392156D01*
X23917247Y86369101D01*
X23679928Y86323089D01*
X23455388Y86254053D01*
X23243461Y86161930D01*
X23043984Y86046652D01*
X22856794Y85908155D01*
X22681728Y85746373D01*
X22633556Y85695417D01*
X22483747Y85514078D01*
X22351879Y85316201D01*
X22237724Y85101190D01*
X22141058Y84868451D01*
X22061655Y84617389D01*
X21999290Y84347406D01*
X21953736Y84057908D01*
X21924768Y83748300D01*
X21919480Y83635364D01*
X21308975Y83635364D01*
X21309765Y83726813D01*
X21331219Y84035105D01*
X21371006Y84335204D01*
X21428722Y84625431D01*
X21503964Y84904104D01*
X21596329Y85169542D01*
X21705413Y85420066D01*
X21830813Y85653994D01*
X21972127Y85869645D01*
X22128950Y86065338D01*
X22191192Y86135420D01*
X22113840Y86201571D01*
X22038846Y86269008D01*
X21882528Y86431757D01*
X21736626Y86613877D01*
X21603609Y86811180D01*
X21485944Y87019473D01*
X21386100Y87234567D01*
X21306545Y87452271D01*
X21249749Y87668395D01*
X21244177Y87701416D01*
X21237389Y87771399D01*
X21234141Y87851453D01*
X21234351Y87934322D01*
X21237939Y88012753D01*
X21244822Y88079490D01*
X21254918Y88127278D01*
X21275422Y88190318D01*
X21231050Y88264004D01*
X21194898Y88337159D01*
X21166633Y88441280D01*
X21161475Y88547302D01*
X21178314Y88651505D01*
X21216040Y88750171D01*
X21273543Y88839579D01*
X21349712Y88916011D01*
X21443439Y88975747D01*
X21479709Y88992559D01*
X21513151Y89004172D01*
X21549119Y89010720D01*
X21595564Y89013614D01*
X21660435Y89014265D01*
X21709834Y89013905D01*
X21761953Y89011548D01*
X21801355Y89005845D01*
X21836004Y88995486D01*
X21873863Y88979162D01*
X21969545Y88920787D01*
X22050389Y88842278D01*
X22111491Y88747428D01*
X22139709Y88675834D01*
X22160281Y88567865D01*
X22158264Y88457588D01*
X22133939Y88350752D01*
X22087581Y88253106D01*
X22078599Y88239631D01*
X22040285Y88191940D01*
X21994750Y88145475D01*
X21949239Y88107173D01*
X21910997Y88083974D01*
X21901242Y88079400D01*
X21882727Y88063811D01*
X21869729Y88036614D01*
X21858107Y87990489D01*
X21857403Y87987117D01*
X21847996Y87910534D01*
X21851357Y87828880D01*
X21868119Y87736532D01*
X21898914Y87627867D01*
X21933378Y87529958D01*
X22003049Y87368521D01*
X22086525Y87209930D01*
X22181093Y87058091D01*
X22284038Y86916907D01*
X22392647Y86790284D01*
X22504204Y86682124D01*
X22615997Y86596334D01*
X22680909Y86553467D01*
X22728152Y86581865D01*
X22751958Y86596060D01*
X22973030Y86716414D01*
X23192956Y86814425D01*
X23416224Y86891445D01*
X23647321Y86948822D01*
X23890735Y86987909D01*
X24150954Y87010055D01*
X24325785Y87019199D01*
X24325785Y87122108D01*
X24329238Y87222503D01*
X24346891Y87387843D01*
X24378777Y87568121D01*
X24424070Y87759537D01*
X24481946Y87958294D01*
X24551577Y88160593D01*
X24603250Y88299884D01*
X24580087Y88360192D01*
X24571669Y88386608D01*
X24559344Y88462109D01*
X24557813Y88546741D01*
X24566883Y88630052D01*
X24586362Y88701594D01*
X24630461Y88788584D01*
X24700646Y88876992D01*
X24787610Y88947182D01*
X24888340Y88996211D01*
X24889931Y88996766D01*
X24980460Y89016833D01*
X25080017Y89020195D01*
X25178421Y89007325D01*
X25265494Y88978696D01*
X25294059Y88964119D01*
X25379529Y88904801D01*
X25452858Y88830306D01*
X25506945Y88747434D01*
X25508176Y88744944D01*
X25527039Y88702155D01*
X25538984Y88660914D01*
X25546002Y88611915D01*
X25550085Y88545850D01*
X25550189Y88543368D01*
X25551664Y88477953D01*
X25549033Y88429328D01*
X25541253Y88388359D01*
X25527283Y88345915D01*
X25483148Y88256231D01*
X25413376Y88168211D01*
X25325120Y88097989D01*
X25220441Y88047570D01*
X25158099Y88025428D01*
X25113018Y87899690D01*
X25071244Y87777854D01*
X25013707Y87583232D01*
X24974089Y87406744D01*
X24952252Y87247737D01*
X24948060Y87105554D01*
X24949985Y87059234D01*
X24953010Y87008625D01*
X24956265Y86972942D01*
X24959314Y86957912D01*
X24959487Y86957768D01*
X24975344Y86952341D01*
X25011527Y86942735D01*
X25062835Y86930263D01*
X25124071Y86916241D01*
X25284921Y86875998D01*
X25561775Y86786054D01*
X25836100Y86670806D01*
X26106333Y86530942D01*
X26370913Y86367150D01*
X26422658Y86331798D01*
X26648493Y86162356D01*
X26852709Y85983063D01*
X27034577Y85794803D01*
X27193367Y85598461D01*
X27328350Y85394919D01*
X27438797Y85185062D01*
X27523978Y84969774D01*
X27531623Y84946637D01*
X27549989Y84889305D01*
X27565568Y84836436D01*
X27578786Y84784947D01*
X27590068Y84731758D01*
X27599840Y84673788D01*
X27608528Y84607955D01*
X27616557Y84531179D01*
X27624352Y84440378D01*
X27632339Y84332472D01*
X27640944Y84204379D01*
X27650592Y84053018D01*
X27654702Y83993498D01*
X27664426Y83890805D01*
X27677054Y83806239D01*
X27693736Y83734301D01*
X27715620Y83669488D01*
X27743854Y83606301D01*
X27746762Y83600458D01*
X27781312Y83536610D01*
X27817625Y83482446D01*
X27860001Y83433540D01*
X27912740Y83385463D01*
X27980144Y83333788D01*
X28066513Y83274085D01*
X28093769Y83255699D01*
X28228977Y83161337D01*
X28370493Y83057882D01*
X28514210Y82948618D01*
X28656023Y82836828D01*
X28791825Y82725796D01*
X28917509Y82618805D01*
X29028968Y82519138D01*
X29122097Y82430079D01*
X29181357Y82368944D01*
X29312938Y82216173D01*
X29419190Y82064620D01*
X29500749Y81912987D01*
X29558249Y81759973D01*
X29592326Y81604280D01*
X29603443Y81447044D01*
X29603615Y81444608D01*
G37*
G36*
X54625676Y87966672D02*
G01*
X54716038Y87835922D01*
X54816548Y87690111D01*
X54927667Y87528574D01*
X55049853Y87350645D01*
X55183566Y87155659D01*
X55329266Y86942951D01*
X55487412Y86711853D01*
X55658463Y86461702D01*
X55764714Y86306217D01*
X55842880Y86191831D01*
X56041120Y85901574D01*
X56253645Y85590266D01*
X56480914Y85257242D01*
X56723385Y84901835D01*
X56857617Y84705075D01*
X57052531Y84419431D01*
X57243219Y84140055D01*
X57429078Y83867830D01*
X57609504Y83603637D01*
X57783893Y83348360D01*
X57794043Y83333506D01*
X57951641Y83102878D01*
X58112146Y82868075D01*
X58264803Y82644833D01*
X58409008Y82434033D01*
X58544158Y82236558D01*
X58669650Y82053288D01*
X58784880Y81885107D01*
X58889243Y81732896D01*
X58982137Y81597538D01*
X59062958Y81479913D01*
X59131102Y81380905D01*
X59185966Y81301394D01*
X59226945Y81242263D01*
X59253436Y81204395D01*
X59264837Y81188670D01*
X59288202Y81159323D01*
X59343369Y81069509D01*
X59376457Y80973186D01*
X59390643Y80862105D01*
X59390831Y80775238D01*
X59390831Y80775083D01*
X59378063Y80683165D01*
X59348549Y80595580D01*
X59299599Y80501688D01*
X59291572Y80488425D01*
X59205936Y80371488D01*
X59092840Y80253035D01*
X58952596Y80133313D01*
X58785515Y80012569D01*
X58591912Y79891049D01*
X58372097Y79769000D01*
X58301198Y79732430D01*
X58021541Y79599191D01*
X57719428Y79470991D01*
X57398938Y79348971D01*
X57064149Y79234270D01*
X56719142Y79128031D01*
X56367995Y79031392D01*
X56014788Y78945494D01*
X55663599Y78871477D01*
X55318508Y78810482D01*
X54983595Y78763649D01*
X54662939Y78732119D01*
X54645473Y78730887D01*
X54568156Y78726632D01*
X54475868Y78722929D01*
X54378701Y78720141D01*
X54286746Y78718629D01*
X54158030Y78719215D01*
X53935703Y78729775D01*
X53737695Y78752816D01*
X53563535Y78788505D01*
X53412752Y78837009D01*
X53284876Y78898495D01*
X53179435Y78973129D01*
X53095958Y79061080D01*
X53033975Y79162512D01*
X53024705Y79182397D01*
X53006849Y79226367D01*
X52996756Y79266716D01*
X52992369Y79313926D01*
X52991635Y79378475D01*
X52991764Y79384653D01*
X52993555Y79422086D01*
X52994086Y79430905D01*
X53665309Y79430905D01*
X53725232Y79416120D01*
X53728337Y79415370D01*
X53774086Y79406091D01*
X53834233Y79395963D01*
X53896619Y79387048D01*
X53995882Y79376625D01*
X54201937Y79366930D01*
X54428128Y79370035D01*
X54671753Y79385333D01*
X54930113Y79412220D01*
X55200507Y79450091D01*
X55480236Y79498342D01*
X55766598Y79556367D01*
X56056894Y79623563D01*
X56348423Y79699323D01*
X56638485Y79783044D01*
X56924380Y79874120D01*
X57203408Y79971947D01*
X57472867Y80075919D01*
X57730059Y80185433D01*
X57972282Y80299884D01*
X58009020Y80318450D01*
X58118568Y80376433D01*
X58225182Y80436512D01*
X58326445Y80497014D01*
X58419944Y80556266D01*
X58503263Y80612595D01*
X58573987Y80664330D01*
X58629700Y80709797D01*
X58667989Y80747324D01*
X58686438Y80775238D01*
X58682632Y80791866D01*
X58681201Y80792782D01*
X58642467Y80808190D01*
X58580753Y80822277D01*
X58500669Y80834622D01*
X58406822Y80844804D01*
X58303821Y80852402D01*
X58196274Y80856996D01*
X58088790Y80858164D01*
X57985978Y80855486D01*
X57950671Y80853548D01*
X57892153Y80850336D01*
X57498987Y80815296D01*
X57090607Y80757874D01*
X56667902Y80678236D01*
X56231765Y80576542D01*
X55783086Y80452957D01*
X55606063Y80398594D01*
X55358560Y80316116D01*
X55114453Y80227528D01*
X54877777Y80134496D01*
X54652563Y80038688D01*
X54442845Y79941772D01*
X54252654Y79845414D01*
X54086023Y79751282D01*
X54048219Y79727711D01*
X53982111Y79683834D01*
X53911640Y79634559D01*
X53842369Y79583980D01*
X53779859Y79536187D01*
X53729670Y79495272D01*
X53697366Y79465327D01*
X53665309Y79430905D01*
X52994086Y79430905D01*
X52997343Y79484993D01*
X53003001Y79571614D01*
X53010402Y79680191D01*
X53019418Y79808962D01*
X53029922Y79956169D01*
X53041788Y80120052D01*
X53054722Y80296579D01*
X53712325Y80296579D01*
X53713952Y80296623D01*
X53732861Y80305019D01*
X53767978Y80323735D01*
X53813391Y80349665D01*
X53853461Y80372530D01*
X53954416Y80426496D01*
X54073830Y80486543D01*
X54206487Y80550283D01*
X54347172Y80615328D01*
X54490667Y80679290D01*
X54631759Y80739779D01*
X54765231Y80794407D01*
X54885868Y80840787D01*
X54894839Y80845108D01*
X54896241Y80853548D01*
X54878062Y80866148D01*
X54837102Y80885866D01*
X54818707Y80894135D01*
X54692576Y80947289D01*
X54553233Y81000959D01*
X54412771Y81050648D01*
X54283283Y81091858D01*
X54258840Y81098938D01*
X54189509Y81117860D01*
X54113290Y81137359D01*
X54035017Y81156341D01*
X53959524Y81173715D01*
X53891645Y81188385D01*
X53836216Y81199258D01*
X53798070Y81205241D01*
X53782043Y81205240D01*
X53780970Y81199572D01*
X53777704Y81169862D01*
X53772826Y81117681D01*
X53766622Y81046344D01*
X53759376Y80959164D01*
X53751373Y80859455D01*
X53742900Y80750531D01*
X53737811Y80683498D01*
X53730138Y80579856D01*
X53723539Y80487470D01*
X53718235Y80409644D01*
X53714450Y80349683D01*
X53712405Y80310893D01*
X53712325Y80296579D01*
X53054722Y80296579D01*
X53054888Y80298850D01*
X53069095Y80490804D01*
X53084281Y80694155D01*
X53100321Y80907143D01*
X53117085Y81128007D01*
X53134449Y81354988D01*
X53141253Y81443633D01*
X53158291Y81665852D01*
X53174680Y81879997D01*
X53190296Y82084425D01*
X53205015Y82277495D01*
X53218712Y82457564D01*
X53231264Y82622989D01*
X53242545Y82772128D01*
X53252432Y82903337D01*
X53260800Y83014976D01*
X53267525Y83105400D01*
X53272482Y83172969D01*
X53275548Y83216038D01*
X53276598Y83232966D01*
X53275683Y83237901D01*
X53266001Y83239639D01*
X53243716Y83227002D01*
X53206310Y83198367D01*
X53151267Y83152111D01*
X53147011Y83148459D01*
X52998189Y83029447D01*
X52854945Y82932707D01*
X52712308Y82854872D01*
X52607837Y82807758D01*
X52482239Y82762632D01*
X52359466Y82733799D01*
X52230122Y82719189D01*
X52084810Y82716735D01*
X51913947Y82719940D01*
X51797604Y82629343D01*
X51790741Y82624006D01*
X51701232Y82555662D01*
X51616878Y82493484D01*
X51541763Y82440365D01*
X51479971Y82399200D01*
X51435587Y82372879D01*
X51419804Y82365502D01*
X51345516Y82347778D01*
X51263705Y82350048D01*
X51181983Y82370603D01*
X51107963Y82407731D01*
X51049259Y82459720D01*
X51031270Y82484291D01*
X50995762Y82559944D01*
X50979233Y82643785D01*
X50981766Y82728745D01*
X51003445Y82807754D01*
X51044353Y82873745D01*
X51050181Y82879714D01*
X51078666Y82904772D01*
X51120404Y82938507D01*
X51168586Y82975350D01*
X51268968Y83050001D01*
X51213110Y83109137D01*
X51179471Y83146505D01*
X51089112Y83264887D01*
X51008869Y83396124D01*
X50943614Y83531649D01*
X50898216Y83662896D01*
X50891032Y83693333D01*
X50877498Y83786545D01*
X50872243Y83889354D01*
X50872647Y83903732D01*
X51516898Y83903732D01*
X51525143Y83845590D01*
X51548592Y83776944D01*
X51584853Y83703249D01*
X51631534Y83629962D01*
X51686244Y83562536D01*
X51695267Y83552864D01*
X51730683Y83516694D01*
X51758217Y83491331D01*
X51772536Y83481766D01*
X51774308Y83482257D01*
X51792116Y83496587D01*
X51822962Y83527714D01*
X51863272Y83571526D01*
X51909470Y83623916D01*
X51957981Y83680774D01*
X52005230Y83737990D01*
X52047642Y83791455D01*
X52081641Y83837060D01*
X52099425Y83862847D01*
X52137770Y83922992D01*
X52173551Y83984601D01*
X52204229Y84042720D01*
X52227264Y84092391D01*
X52240117Y84128659D01*
X52240248Y84146567D01*
X52237296Y84148610D01*
X52209873Y84154182D01*
X52162813Y84155265D01*
X52102392Y84152292D01*
X52034886Y84145695D01*
X51966569Y84135906D01*
X51903717Y84123360D01*
X51866661Y84114125D01*
X51761626Y84082720D01*
X51671424Y84047729D01*
X51599280Y84010726D01*
X51548418Y83973287D01*
X51522065Y83936986D01*
X51516898Y83903732D01*
X50872647Y83903732D01*
X50875147Y83992673D01*
X50886087Y84087413D01*
X50904941Y84164487D01*
X50909026Y84175902D01*
X50958905Y84283223D01*
X51026501Y84378576D01*
X51114336Y84464468D01*
X51224928Y84543405D01*
X51360799Y84617894D01*
X51404994Y84638910D01*
X51563220Y84703114D01*
X51725048Y84750272D01*
X51901645Y84783811D01*
X52000075Y84795997D01*
X52175583Y84804257D01*
X52335261Y84793307D01*
X52478089Y84763490D01*
X52603044Y84715149D01*
X52709105Y84648626D01*
X52795249Y84564263D01*
X52860455Y84462404D01*
X52867475Y84447479D01*
X52902279Y84336943D01*
X52913781Y84213986D01*
X52907890Y84146567D01*
X52902147Y84080846D01*
X52867547Y83939761D01*
X52810149Y83792967D01*
X52759750Y83683796D01*
X52824470Y83746495D01*
X52834221Y83756040D01*
X52929545Y83861655D01*
X53979265Y83861655D01*
X53979287Y83847279D01*
X53980164Y83847044D01*
X53999963Y83846735D01*
X54042475Y83847665D01*
X54103475Y83849697D01*
X54178735Y83852693D01*
X54264028Y83856517D01*
X54460236Y83862635D01*
X54863517Y83855229D01*
X55261356Y83820784D01*
X55653098Y83759392D01*
X56038084Y83671144D01*
X56415657Y83556133D01*
X56444581Y83546069D01*
X56542469Y83510584D01*
X56645789Y83471364D01*
X56743892Y83432508D01*
X56826127Y83398118D01*
X56853723Y83386122D01*
X56917508Y83358728D01*
X56960247Y83341412D01*
X56985241Y83333298D01*
X56995789Y83333506D01*
X56995193Y83341159D01*
X56986753Y83355378D01*
X56945302Y83418257D01*
X56882363Y83512364D01*
X56814615Y83612347D01*
X56743916Y83715573D01*
X56672121Y83819408D01*
X56601087Y83921221D01*
X56532669Y84018379D01*
X56468725Y84108250D01*
X56411110Y84188201D01*
X56361682Y84255598D01*
X56322295Y84307811D01*
X56294806Y84342206D01*
X56281073Y84356151D01*
X56265871Y84366615D01*
X56233842Y84396030D01*
X56193613Y84438073D01*
X56150461Y84487439D01*
X55996928Y84654151D01*
X55831858Y84798861D01*
X55658941Y84916951D01*
X55477904Y85008559D01*
X55288475Y85073823D01*
X55090381Y85112881D01*
X54883348Y85125870D01*
X54705553Y85115756D01*
X54505632Y85079809D01*
X54314612Y85018733D01*
X54286003Y85007110D01*
X54215678Y84976480D01*
X54149491Y84945087D01*
X54094747Y84916487D01*
X54058749Y84894232D01*
X54056779Y84881942D01*
X54053033Y84845309D01*
X54047881Y84788050D01*
X54041607Y84713888D01*
X54034492Y84626545D01*
X54026819Y84529745D01*
X54018871Y84427211D01*
X54010931Y84322665D01*
X54003280Y84219832D01*
X53996201Y84122434D01*
X53989978Y84034194D01*
X53984893Y83958836D01*
X53981227Y83900082D01*
X53979265Y83861655D01*
X52929545Y83861655D01*
X52949948Y83884261D01*
X53061521Y84034550D01*
X53165585Y84201561D01*
X53258785Y84379948D01*
X53337766Y84564364D01*
X53342341Y84576431D01*
X53358010Y84619800D01*
X53370107Y84659221D01*
X53379525Y84699987D01*
X53387158Y84747391D01*
X53393896Y84806725D01*
X53400633Y84883283D01*
X53408263Y84982357D01*
X53409560Y84999680D01*
X53416438Y85089908D01*
X53422976Y85173226D01*
X53428751Y85244413D01*
X53433343Y85298249D01*
X53436329Y85329513D01*
X53442749Y85386859D01*
X53300458Y85333304D01*
X53259956Y85318344D01*
X53190070Y85293632D01*
X53126094Y85272230D01*
X53078051Y85257553D01*
X53042223Y85246969D01*
X53013355Y85234531D01*
X53000611Y85219788D01*
X52997630Y85198030D01*
X52997529Y85193762D01*
X52982963Y85130283D01*
X52947654Y85065622D01*
X52897107Y85006327D01*
X52836825Y84958945D01*
X52772313Y84930022D01*
X52732539Y84922607D01*
X52659133Y84920587D01*
X52586358Y84930158D01*
X52526999Y84950265D01*
X52513994Y84957722D01*
X52475932Y84982488D01*
X52427011Y85016651D01*
X52374585Y85055148D01*
X52264318Y85138237D01*
X52097425Y85152729D01*
X51942169Y85170360D01*
X51681898Y85220202D01*
X51434206Y85294645D01*
X51198059Y85394086D01*
X50972421Y85518925D01*
X50756259Y85669560D01*
X50749647Y85674693D01*
X50653593Y85754082D01*
X50556728Y85842303D01*
X50462956Y85935171D01*
X50376182Y86028499D01*
X50300307Y86118100D01*
X50239238Y86199790D01*
X50196878Y86269381D01*
X50187388Y86292173D01*
X50173262Y86355914D01*
X50169194Y86427887D01*
X50175379Y86496765D01*
X50192012Y86551219D01*
X50236426Y86619376D01*
X50305003Y86681110D01*
X50388030Y86719763D01*
X50483016Y86733770D01*
X50542033Y86730813D01*
X50606484Y86714973D01*
X50665288Y86682712D01*
X50723821Y86630897D01*
X50787460Y86556395D01*
X50788477Y86555096D01*
X50929825Y86392787D01*
X51087027Y86244836D01*
X51254806Y86115745D01*
X51427883Y86010017D01*
X51455467Y85995730D01*
X51515724Y85966538D01*
X51577983Y85938519D01*
X51636837Y85913890D01*
X51686881Y85894866D01*
X51722709Y85883665D01*
X51738915Y85882501D01*
X51739507Y85887173D01*
X51734432Y85911690D01*
X51722745Y85948812D01*
X51708960Y85992589D01*
X51683710Y86107797D01*
X51667747Y86236240D01*
X51661653Y86368647D01*
X51662070Y86380812D01*
X52307146Y86380812D01*
X52315213Y86268557D01*
X52344322Y86148868D01*
X52393225Y86026432D01*
X52460678Y85905935D01*
X52479023Y85877557D01*
X52503052Y85843547D01*
X52525379Y85822558D01*
X52551822Y85813013D01*
X52588198Y85813337D01*
X52640325Y85821951D01*
X52714023Y85837279D01*
X52867917Y85875286D01*
X53068598Y85942150D01*
X53276598Y86030946D01*
X53294034Y86039123D01*
X53357883Y86068760D01*
X53412576Y86093679D01*
X53452775Y86111471D01*
X53473139Y86119723D01*
X53474610Y86120243D01*
X53487730Y86134125D01*
X53496805Y86166441D01*
X53503219Y86221893D01*
X53503347Y86223490D01*
X53506651Y86271264D01*
X53508069Y86306217D01*
X53507293Y86320883D01*
X53503308Y86318366D01*
X53487299Y86299388D01*
X53464057Y86267463D01*
X53418263Y86214520D01*
X53350953Y86158895D01*
X53276446Y86113967D01*
X53204790Y86086738D01*
X53159523Y86078240D01*
X53053046Y86077241D01*
X52950157Y86102975D01*
X52851821Y86154705D01*
X52759004Y86231692D01*
X52672674Y86333199D01*
X52593796Y86458490D01*
X52523336Y86606825D01*
X52472745Y86729306D01*
X52422634Y86673840D01*
X52393510Y86639805D01*
X52357415Y86586355D01*
X52333123Y86528235D01*
X52314957Y86453848D01*
X52307146Y86380812D01*
X51662070Y86380812D01*
X51666010Y86495746D01*
X51681398Y86608266D01*
X51688596Y86640451D01*
X51740871Y86799687D01*
X51817890Y86950132D01*
X51917528Y87089158D01*
X52037660Y87214137D01*
X52176161Y87322442D01*
X52330906Y87411444D01*
X52343199Y87417422D01*
X52373531Y87434344D01*
X52390130Y87452622D01*
X52398501Y87481044D01*
X52404150Y87528403D01*
X52406585Y87549539D01*
X52414179Y87587815D01*
X53081534Y87587815D01*
X53083702Y87585534D01*
X53104684Y87578481D01*
X53140750Y87571397D01*
X53203358Y87558627D01*
X53289759Y87532637D01*
X53369656Y87499994D01*
X53432378Y87464605D01*
X53449706Y87451778D01*
X53497044Y87411747D01*
X53536590Y87372195D01*
X53580620Y87321977D01*
X53588531Y87383852D01*
X53589023Y87387795D01*
X53593732Y87432357D01*
X53599264Y87494259D01*
X53605314Y87568991D01*
X53611580Y87652039D01*
X53617756Y87738893D01*
X53623540Y87825040D01*
X53628626Y87905969D01*
X53632712Y87977167D01*
X53635493Y88034123D01*
X53636664Y88072325D01*
X53635923Y88087261D01*
X53630928Y88088655D01*
X53605068Y88082325D01*
X53563524Y88064953D01*
X53511774Y88039186D01*
X53455300Y88007673D01*
X53399583Y87973062D01*
X53295446Y87892138D01*
X53200071Y87790639D01*
X53126555Y87679558D01*
X53126000Y87678516D01*
X53103579Y87635425D01*
X53087616Y87602866D01*
X53081534Y87587815D01*
X52414179Y87587815D01*
X52434092Y87688185D01*
X52480499Y87832624D01*
X52542511Y87973952D01*
X52616835Y88103263D01*
X52638806Y88134542D01*
X52699855Y88210151D01*
X52773951Y88291197D01*
X52854234Y88370733D01*
X52933846Y88441809D01*
X53005929Y88497478D01*
X53041941Y88521042D01*
X53110512Y88562016D01*
X53186568Y88604049D01*
X53259282Y88641005D01*
X53311957Y88665773D01*
X53369277Y88690204D01*
X53415688Y88705443D01*
X53459042Y88713933D01*
X53507188Y88718115D01*
X53516461Y88718525D01*
X53613992Y88710967D01*
X53697001Y88681593D01*
X53763175Y88631188D01*
X53793498Y88598911D01*
X53845059Y88625780D01*
X53857553Y88631861D01*
X53894418Y88643939D01*
X53939910Y88648958D01*
X54003475Y88648258D01*
X54057096Y88644944D01*
X54099870Y88637861D01*
X54133822Y88624522D01*
X54169022Y88602120D01*
X54170082Y88601313D01*
X54179136Y88592295D01*
X54193285Y88575539D01*
X54212988Y88550378D01*
X54238703Y88516148D01*
X54270891Y88472183D01*
X54310011Y88417816D01*
X54356523Y88352383D01*
X54410886Y88275218D01*
X54473559Y88185654D01*
X54545003Y88083028D01*
X54552424Y88072325D01*
X54625676Y87966672D01*
G37*
G36*
X88244155Y52834193D02*
G01*
X88260238Y52714575D01*
X88507240Y52444161D01*
X88514129Y52436625D01*
X88557237Y52389747D01*
X88591162Y52352855D01*
X88681406Y52255471D01*
X88779653Y52150046D01*
X88880700Y52042153D01*
X88979339Y51937366D01*
X89070366Y51841258D01*
X89173143Y51733071D01*
X89310191Y51588414D01*
X89430531Y51460766D01*
X89535553Y51348543D01*
X89626648Y51250160D01*
X89705205Y51164035D01*
X89772616Y51088582D01*
X89830272Y51022217D01*
X89879563Y50963356D01*
X89921879Y50910416D01*
X89958612Y50861811D01*
X89991151Y50815958D01*
X90020888Y50771273D01*
X90049213Y50726170D01*
X90082053Y50668827D01*
X90136605Y50546145D01*
X90167469Y50428566D01*
X90174632Y50317792D01*
X90158087Y50215524D01*
X90117817Y50123466D01*
X90053814Y50043318D01*
X90045376Y50035239D01*
X90008708Y50003054D01*
X89969937Y49974859D01*
X89926773Y49950141D01*
X89876921Y49928390D01*
X89818089Y49909094D01*
X89747985Y49891741D01*
X89664315Y49875821D01*
X89564788Y49860820D01*
X89447109Y49846229D01*
X89308988Y49831535D01*
X89148130Y49816227D01*
X88962242Y49799793D01*
X88893228Y49793808D01*
X88675542Y49774273D01*
X88478813Y49755249D01*
X88299431Y49736040D01*
X88133781Y49715951D01*
X87978252Y49694286D01*
X87829231Y49670349D01*
X87683105Y49643444D01*
X87536261Y49612876D01*
X87385088Y49577948D01*
X87225971Y49537965D01*
X87055299Y49492230D01*
X86869459Y49440049D01*
X86664837Y49380724D01*
X86437823Y49313561D01*
X86416796Y49307302D01*
X86200067Y49243299D01*
X86006250Y49187172D01*
X85832534Y49138240D01*
X85676111Y49095823D01*
X85534169Y49059242D01*
X85403899Y49027815D01*
X85282490Y49000862D01*
X85167132Y48977704D01*
X85055016Y48957659D01*
X84943332Y48940049D01*
X84829268Y48924192D01*
X84808313Y48921875D01*
X84740685Y48917538D01*
X84655893Y48915196D01*
X84559502Y48914712D01*
X84457076Y48915951D01*
X84354180Y48918777D01*
X84256380Y48923053D01*
X84169241Y48928645D01*
X84098327Y48935416D01*
X84049204Y48943231D01*
X83925551Y48974862D01*
X83734947Y49037978D01*
X83548194Y49118229D01*
X83364178Y49216539D01*
X83181787Y49333834D01*
X82999907Y49471038D01*
X82817424Y49629077D01*
X82633225Y49808875D01*
X82446196Y50011357D01*
X82255224Y50237448D01*
X82059195Y50488073D01*
X81856996Y50764157D01*
X81787390Y50862822D01*
X81709166Y50975624D01*
X81635112Y51084389D01*
X81566918Y51186522D01*
X81506275Y51279429D01*
X81454875Y51360514D01*
X81414408Y51427182D01*
X81386565Y51476838D01*
X81373037Y51506886D01*
X81367264Y51525687D01*
X81359872Y51541815D01*
X81347870Y51553671D01*
X81327476Y51562288D01*
X81294906Y51568693D01*
X81246380Y51573918D01*
X81178114Y51578991D01*
X81086327Y51584942D01*
X81054583Y51587014D01*
X80948991Y51594292D01*
X80835289Y51602627D01*
X80717019Y51611715D01*
X80597723Y51621253D01*
X80480940Y51630939D01*
X80370212Y51640470D01*
X80269079Y51649543D01*
X80181082Y51657855D01*
X80109762Y51665102D01*
X80058661Y51670983D01*
X80031317Y51675194D01*
X79978699Y51695764D01*
X79917770Y51733039D01*
X79857680Y51780375D01*
X79806549Y51831361D01*
X79772497Y51879583D01*
X79769440Y51885781D01*
X79756007Y51919456D01*
X79744534Y51961539D01*
X79734599Y52015189D01*
X79725778Y52083566D01*
X79717649Y52169829D01*
X79709791Y52277138D01*
X79701780Y52408652D01*
X79697987Y52527933D01*
X80334437Y52527933D01*
X80336104Y52444470D01*
X80339680Y52382821D01*
X80349292Y52280237D01*
X80454367Y52271297D01*
X80477374Y52269427D01*
X80532183Y52265202D01*
X80607483Y52259563D01*
X80699173Y52252810D01*
X80803153Y52245245D01*
X80915324Y52237168D01*
X81031585Y52228882D01*
X81106200Y52223592D01*
X81221815Y52215397D01*
X81331455Y52207629D01*
X81430854Y52200588D01*
X81515747Y52194578D01*
X81581868Y52189899D01*
X81624953Y52186855D01*
X81746176Y52178304D01*
X81737914Y52258138D01*
X81727466Y52367337D01*
X81710817Y52586656D01*
X81698129Y52819730D01*
X81689436Y53061461D01*
X81684774Y53306748D01*
X81684177Y53550493D01*
X81684870Y53597383D01*
X82318831Y53597383D01*
X82321064Y53216983D01*
X82336790Y52817878D01*
X82366070Y52400785D01*
X82371906Y52334917D01*
X82378733Y52265007D01*
X82384940Y52208737D01*
X82390020Y52170656D01*
X82393465Y52155312D01*
X82393743Y52155120D01*
X82411065Y52152322D01*
X82451065Y52148935D01*
X82509413Y52145238D01*
X82581781Y52141507D01*
X82663840Y52138018D01*
X82687553Y52137207D01*
X82760711Y52135406D01*
X82853454Y52133832D01*
X82962168Y52132490D01*
X83083243Y52131389D01*
X83213066Y52130535D01*
X83348025Y52129935D01*
X83484510Y52129596D01*
X83618907Y52129525D01*
X83747607Y52129729D01*
X83866996Y52130214D01*
X83973463Y52130988D01*
X84063396Y52132058D01*
X84133184Y52133431D01*
X84179214Y52135112D01*
X84392622Y52149623D01*
X84620357Y52169910D01*
X84855295Y52195131D01*
X85091674Y52224522D01*
X85323734Y52257318D01*
X85545711Y52292752D01*
X85751844Y52330061D01*
X85936370Y52368477D01*
X86030755Y52389747D01*
X86021751Y52569140D01*
X86021301Y52577923D01*
X86003776Y52813417D01*
X85975243Y53064706D01*
X85936661Y53323316D01*
X85874376Y53645321D01*
X85781826Y54009064D01*
X85668644Y54356297D01*
X85535080Y54686602D01*
X85381381Y54999561D01*
X85207797Y55294756D01*
X85014576Y55571770D01*
X84801968Y55830184D01*
X84570222Y56069581D01*
X84319586Y56289543D01*
X84125487Y56433785D01*
X85129996Y56433785D01*
X85130723Y56431903D01*
X85144070Y56414440D01*
X85171529Y56381855D01*
X85209924Y56337867D01*
X85256079Y56286193D01*
X85335484Y56195937D01*
X85560967Y55912168D01*
X85766387Y55610209D01*
X85951499Y55290643D01*
X86116060Y54954047D01*
X86259826Y54601002D01*
X86382553Y54232088D01*
X86483999Y53847883D01*
X86563918Y53448969D01*
X86622068Y53035924D01*
X86630920Y52952293D01*
X86639967Y52857826D01*
X86647797Y52767290D01*
X86653351Y52692304D01*
X86663105Y52540280D01*
X86731531Y52559579D01*
X86754492Y52566117D01*
X86835387Y52589884D01*
X86926264Y52617488D01*
X87023507Y52647744D01*
X87123499Y52679468D01*
X87222627Y52711475D01*
X87317275Y52742580D01*
X87403826Y52771599D01*
X87478667Y52797346D01*
X87538181Y52818637D01*
X87578754Y52834288D01*
X87596769Y52843113D01*
X87595832Y52852651D01*
X87590335Y52885135D01*
X87580832Y52936423D01*
X87568137Y53002132D01*
X87553067Y53077877D01*
X87507681Y53283216D01*
X87419136Y53606429D01*
X87310248Y53924088D01*
X87179852Y54238913D01*
X87026786Y54553624D01*
X86849885Y54870940D01*
X86647987Y55193582D01*
X86512913Y55387262D01*
X86337049Y55607055D01*
X86152409Y55802587D01*
X85957421Y55975224D01*
X85750513Y56126330D01*
X85530115Y56257273D01*
X85294653Y56369416D01*
X85285131Y56373442D01*
X85225585Y56398166D01*
X85176655Y56417725D01*
X85143179Y56430229D01*
X85129996Y56433785D01*
X84125487Y56433785D01*
X84050309Y56489652D01*
X84015426Y56513543D01*
X83968975Y56544739D01*
X83929609Y56568346D01*
X83893032Y56585046D01*
X83854948Y56595522D01*
X83811058Y56600456D01*
X83757068Y56600531D01*
X83688679Y56596430D01*
X83601597Y56588835D01*
X83491523Y56578428D01*
X83248604Y56555549D01*
X83145018Y56431135D01*
X83044603Y56304108D01*
X83032367Y56286193D01*
X82881720Y56065623D01*
X82741321Y55814831D01*
X82625638Y55555500D01*
X82585516Y55446795D01*
X82508021Y55193692D01*
X82443666Y54917579D01*
X82392511Y54619175D01*
X82354614Y54299196D01*
X82330035Y53958359D01*
X82318831Y53597383D01*
X81684870Y53597383D01*
X81687682Y53787595D01*
X81695322Y54012956D01*
X81707132Y54221476D01*
X81723149Y54408055D01*
X81762252Y54719805D01*
X81820096Y55051703D01*
X81892364Y55362108D01*
X81978911Y55650492D01*
X82079596Y55916326D01*
X82194278Y56159083D01*
X82215339Y56200430D01*
X82235996Y56244787D01*
X82247672Y56275019D01*
X82248272Y56286193D01*
X82243701Y56285377D01*
X82216577Y56274884D01*
X82172582Y56254374D01*
X82116818Y56226494D01*
X82054383Y56193888D01*
X81990377Y56159201D01*
X81929902Y56125079D01*
X81878056Y56094167D01*
X81876141Y56092978D01*
X81660666Y55944779D01*
X81463677Y55779061D01*
X81284334Y55594770D01*
X81121796Y55390851D01*
X80975221Y55166252D01*
X80843770Y54919918D01*
X80726601Y54650795D01*
X80643403Y54429010D01*
X80548188Y54140649D01*
X80471354Y53860098D01*
X80411405Y53581745D01*
X80366848Y53299977D01*
X80362573Y53262904D01*
X80355424Y53180100D01*
X80349048Y53080770D01*
X80343607Y52970392D01*
X80339263Y52854441D01*
X80336179Y52738396D01*
X80334516Y52627735D01*
X80334437Y52527933D01*
X79697987Y52527933D01*
X79693349Y52673805D01*
X79704065Y53048584D01*
X79741324Y53424885D01*
X79805223Y53803259D01*
X79895862Y54184257D01*
X80013338Y54568428D01*
X80157751Y54956324D01*
X80162794Y54968729D01*
X80281875Y55235537D01*
X80412942Y55480455D01*
X80558286Y55707069D01*
X80720196Y55918965D01*
X80900965Y56119727D01*
X80967666Y56186773D01*
X81168086Y56369434D01*
X81375479Y56529842D01*
X81595093Y56671828D01*
X81832178Y56799222D01*
X81873961Y56819422D01*
X82129080Y56930220D01*
X82389795Y57021463D01*
X82662105Y57095043D01*
X82952011Y57152857D01*
X82987850Y57158952D01*
X83054555Y57170693D01*
X83108729Y57180762D01*
X83145546Y57188244D01*
X83160177Y57192228D01*
X83160505Y57193020D01*
X83160934Y57212129D01*
X83159158Y57252299D01*
X83155467Y57308270D01*
X83150148Y57374784D01*
X83134867Y57552088D01*
X83058307Y57637175D01*
X82981747Y57722261D01*
X82848939Y57722708D01*
X82827822Y57722639D01*
X82792386Y57721588D01*
X82756004Y57718833D01*
X82715471Y57713769D01*
X82667584Y57705788D01*
X82609140Y57694284D01*
X82536936Y57678650D01*
X82447768Y57658279D01*
X82338433Y57632565D01*
X82205728Y57600902D01*
X82003466Y57552844D01*
X81745240Y57492839D01*
X81510079Y57439940D01*
X81296134Y57393772D01*
X81101558Y57353961D01*
X80924504Y57320131D01*
X80763122Y57291907D01*
X80615565Y57268915D01*
X80479985Y57250780D01*
X80419394Y57244254D01*
X80305730Y57235697D01*
X80188286Y57230872D01*
X80073239Y57229793D01*
X79966766Y57232476D01*
X79875044Y57238935D01*
X79804250Y57249185D01*
X79771627Y57256697D01*
X79652817Y57298173D01*
X79552715Y57357370D01*
X79472808Y57433236D01*
X79414588Y57524717D01*
X79398706Y57560512D01*
X79384304Y57605320D01*
X79377430Y57653524D01*
X79375669Y57717046D01*
X79376255Y57757884D01*
X79380755Y57810554D01*
X79391479Y57853384D01*
X79410529Y57897240D01*
X79448293Y57959325D01*
X79507902Y58025349D01*
X79584891Y58083302D01*
X79680878Y58133884D01*
X79797483Y58177796D01*
X79936326Y58215739D01*
X80099026Y58248414D01*
X80287203Y58276521D01*
X80457445Y58295812D01*
X80657746Y58313331D01*
X80883909Y58328595D01*
X81135220Y58341571D01*
X81410958Y58352228D01*
X81710409Y58360534D01*
X82032853Y58366456D01*
X82377575Y58369963D01*
X82881916Y58373208D01*
X82969899Y58537135D01*
X83000313Y58592826D01*
X83041721Y58663475D01*
X83077671Y58716034D01*
X83111590Y58754775D01*
X83146901Y58783965D01*
X83187027Y58807876D01*
X83243081Y58827096D01*
X83316056Y58835890D01*
X83390348Y58832026D01*
X83453891Y58815174D01*
X83454249Y58815015D01*
X83476453Y58800684D01*
X83514615Y58771715D01*
X83564593Y58731640D01*
X83622245Y58683994D01*
X83683428Y58632309D01*
X83744000Y58580118D01*
X83799818Y58530954D01*
X83846740Y58488351D01*
X83880623Y58455842D01*
X83897325Y58436960D01*
X83902969Y58434665D01*
X83931148Y58435701D01*
X83978070Y58443167D01*
X84038777Y58456382D01*
X84240526Y58504774D01*
X84463292Y58557803D01*
X84663666Y58604977D01*
X84843912Y58646799D01*
X85006293Y58683771D01*
X85153076Y58716395D01*
X85286523Y58745173D01*
X85408899Y58770607D01*
X85522469Y58793199D01*
X85629496Y58813452D01*
X85732245Y58831866D01*
X85935630Y58864818D01*
X86150341Y58892841D01*
X86342106Y58909529D01*
X86512059Y58914712D01*
X86661335Y58908223D01*
X86791067Y58889889D01*
X86902391Y58859543D01*
X86996441Y58817014D01*
X87074351Y58762133D01*
X87137255Y58694731D01*
X87186289Y58614638D01*
X87190519Y58605645D01*
X87216739Y58521219D01*
X87226258Y58427804D01*
X87218853Y58335447D01*
X87194301Y58254196D01*
X87173998Y58215416D01*
X87133944Y58159247D01*
X87082581Y58107839D01*
X87018841Y58060999D01*
X86941660Y58018534D01*
X86849969Y57980250D01*
X86742702Y57945954D01*
X86618793Y57915453D01*
X86477176Y57888552D01*
X86316783Y57865059D01*
X86136549Y57844780D01*
X85935407Y57827521D01*
X85712289Y57813089D01*
X85466131Y57801291D01*
X85195864Y57791933D01*
X84900423Y57784822D01*
X84578742Y57779764D01*
X84414798Y57777684D01*
X84270125Y57775642D01*
X84148879Y57773640D01*
X84049058Y57771603D01*
X83968655Y57769456D01*
X83905667Y57767125D01*
X83858088Y57764534D01*
X83823915Y57761610D01*
X83801142Y57758277D01*
X83787765Y57754462D01*
X83781780Y57750088D01*
X83774857Y57733248D01*
X83770797Y57706601D01*
X83769699Y57666759D01*
X83771594Y57610221D01*
X83776511Y57533487D01*
X83784480Y57433056D01*
X83800306Y57244167D01*
X84056737Y57244167D01*
X84254885Y57240383D01*
X84538039Y57220015D01*
X84807383Y57181209D01*
X85067541Y57123055D01*
X85323139Y57044646D01*
X85578802Y56945072D01*
X85851367Y56813318D01*
X86110464Y56657815D01*
X86355603Y56478772D01*
X86586788Y56276185D01*
X86804024Y56050050D01*
X87007316Y55800364D01*
X87061276Y55726685D01*
X87171866Y55565849D01*
X87285887Y55388368D01*
X87399773Y55200378D01*
X87509959Y55008015D01*
X87612880Y54817414D01*
X87704969Y54634711D01*
X87782663Y54466042D01*
X87807454Y54408076D01*
X87927074Y54101126D01*
X88032472Y53783482D01*
X88121730Y53461925D01*
X88192930Y53143236D01*
X88242676Y52843113D01*
X88244155Y52834193D01*
G37*
G36*
X88167747Y27739389D02*
G01*
X88288878Y27607758D01*
X88400770Y27473018D01*
X88509535Y27327663D01*
X88621283Y27164186D01*
X88624722Y27158958D01*
X88771374Y26924098D01*
X88908649Y26681067D01*
X89034607Y26434104D01*
X89147309Y26187447D01*
X89244815Y25945335D01*
X89325186Y25712007D01*
X89386483Y25491702D01*
X89386794Y25490398D01*
X89393950Y25457847D01*
X89405805Y25401100D01*
X89421892Y25322493D01*
X89441745Y25224361D01*
X89464894Y25109039D01*
X89490873Y24978862D01*
X89519215Y24836167D01*
X89549451Y24683287D01*
X89581116Y24522558D01*
X89613740Y24356316D01*
X89814817Y23329710D01*
X90094641Y23237117D01*
X90224148Y23193566D01*
X90516434Y23089933D01*
X90795845Y22983362D01*
X91060820Y22874615D01*
X91309801Y22764457D01*
X91541229Y22653652D01*
X91753545Y22542965D01*
X91945189Y22433159D01*
X92114603Y22324999D01*
X92260226Y22219249D01*
X92263017Y22216869D01*
X92278822Y22203390D01*
X92380501Y22116674D01*
X92397023Y22100942D01*
X92464127Y22030792D01*
X92510793Y21967662D01*
X92539676Y21906218D01*
X92553436Y21841130D01*
X92554728Y21767066D01*
X92551789Y21724039D01*
X92544608Y21679086D01*
X92531189Y21643627D01*
X92508534Y21607294D01*
X92478514Y21569621D01*
X92406202Y21509071D01*
X92320242Y21472015D01*
X92314986Y21470672D01*
X92288198Y21466015D01*
X92253347Y21463414D01*
X92208063Y21463003D01*
X92149979Y21464920D01*
X92076724Y21469299D01*
X91985931Y21476276D01*
X91875231Y21485986D01*
X91742255Y21498566D01*
X91584635Y21514151D01*
X91496037Y21522964D01*
X91323344Y21539512D01*
X91170182Y21553067D01*
X91031471Y21563897D01*
X90902129Y21572274D01*
X90777074Y21578467D01*
X90651225Y21582746D01*
X90519500Y21585382D01*
X90376816Y21586646D01*
X90218093Y21586806D01*
X90170763Y21586688D01*
X90013331Y21585611D01*
X89877381Y21583250D01*
X89758437Y21579240D01*
X89652021Y21573218D01*
X89553657Y21564820D01*
X89458868Y21553684D01*
X89363176Y21539446D01*
X89262105Y21521742D01*
X89151178Y21500209D01*
X89148443Y21499659D01*
X89032411Y21475452D01*
X88911651Y21448472D01*
X88784247Y21418187D01*
X88648284Y21384066D01*
X88501848Y21345576D01*
X88343024Y21302186D01*
X88169897Y21253365D01*
X87980552Y21198580D01*
X87773074Y21137300D01*
X87545549Y21068993D01*
X87296062Y20993128D01*
X87022697Y20909172D01*
X86816460Y20845760D01*
X86570555Y20770767D01*
X86347319Y20703508D01*
X86144982Y20643511D01*
X85961771Y20590303D01*
X85795914Y20543415D01*
X85645637Y20502372D01*
X85509170Y20466705D01*
X85384739Y20435941D01*
X85270572Y20409609D01*
X85164897Y20387236D01*
X85065942Y20368352D01*
X84971935Y20352484D01*
X84881102Y20339160D01*
X84732379Y20324395D01*
X84512336Y20319398D01*
X84277744Y20331795D01*
X84031918Y20361163D01*
X83778174Y20407077D01*
X83519826Y20469111D01*
X83260192Y20546841D01*
X83179464Y20574201D01*
X82830981Y20709767D01*
X82488353Y20871663D01*
X82152062Y21059604D01*
X81822586Y21273307D01*
X81500407Y21512485D01*
X81186003Y21776855D01*
X81080627Y21870862D01*
X80771282Y21861542D01*
X80698326Y21859858D01*
X80574755Y21858706D01*
X80438013Y21859080D01*
X80292587Y21860849D01*
X80142960Y21863882D01*
X79993618Y21868049D01*
X79849044Y21873219D01*
X79713725Y21879261D01*
X79592144Y21886043D01*
X79488786Y21893436D01*
X79408136Y21901308D01*
X79308197Y21915499D01*
X82014472Y21915499D01*
X82162830Y21811595D01*
X82256526Y21747501D01*
X82526452Y21578786D01*
X82804098Y21427627D01*
X83086410Y21295271D01*
X83370333Y21182966D01*
X83652814Y21091959D01*
X83930798Y21023499D01*
X84201231Y20978832D01*
X84225942Y20975870D01*
X84369266Y20961140D01*
X84495115Y20953542D01*
X84611117Y20953265D01*
X84724895Y20960503D01*
X84844075Y20975445D01*
X84976284Y20998283D01*
X85050332Y21012858D01*
X85136349Y21031073D01*
X85226970Y21051706D01*
X85324128Y21075297D01*
X85429759Y21102384D01*
X85545796Y21133506D01*
X85674174Y21169202D01*
X85816828Y21210011D01*
X85975691Y21256471D01*
X86152700Y21309122D01*
X86349787Y21368503D01*
X86568888Y21435151D01*
X86811937Y21509607D01*
X86818312Y21511565D01*
X87088405Y21594248D01*
X87334595Y21669001D01*
X87558781Y21736350D01*
X87762860Y21796821D01*
X87948731Y21850940D01*
X88118290Y21899233D01*
X88273437Y21942226D01*
X88416068Y21980446D01*
X88548082Y22014418D01*
X88671377Y22044669D01*
X88787850Y22071725D01*
X88899399Y22096112D01*
X89007922Y22118355D01*
X89063416Y22129317D01*
X89160437Y22148062D01*
X89246978Y22163833D01*
X89326464Y22176888D01*
X89402320Y22187482D01*
X89477971Y22195874D01*
X89519890Y22199300D01*
X90995552Y22199300D01*
X91006744Y22194325D01*
X91013943Y22195306D01*
X91015809Y22203390D01*
X91013816Y22205017D01*
X90997679Y22203390D01*
X90995552Y22199300D01*
X89519890Y22199300D01*
X89556842Y22202320D01*
X89642357Y22207077D01*
X89737943Y22210402D01*
X89847023Y22212553D01*
X89973023Y22213785D01*
X90119367Y22214357D01*
X90289481Y22214525D01*
X90327376Y22214539D01*
X90459361Y22214640D01*
X90582038Y22214812D01*
X90692853Y22215048D01*
X90789250Y22215338D01*
X90868674Y22215674D01*
X90928569Y22216047D01*
X90966379Y22216448D01*
X90979551Y22216869D01*
X90975645Y22218945D01*
X90951489Y22229813D01*
X90908946Y22248299D01*
X90852288Y22272554D01*
X90785786Y22300731D01*
X90594093Y22379384D01*
X90374957Y22464147D01*
X90141501Y22549164D01*
X89887510Y22636762D01*
X89843861Y22651621D01*
X89758300Y22681710D01*
X89681157Y22710072D01*
X89616795Y22735039D01*
X89569574Y22754946D01*
X89543858Y22768123D01*
X89536768Y22773313D01*
X89499096Y22808961D01*
X89467575Y22849791D01*
X89454965Y22869381D01*
X89435419Y22890429D01*
X89410076Y22899101D01*
X89368254Y22900894D01*
X89354214Y22900829D01*
X89291375Y22899131D01*
X89206457Y22895359D01*
X89103305Y22889777D01*
X88985767Y22882653D01*
X88857689Y22874253D01*
X88722918Y22864843D01*
X88585300Y22854690D01*
X88448682Y22844058D01*
X88316912Y22833216D01*
X88193834Y22822428D01*
X88083297Y22811962D01*
X88006732Y22804106D01*
X87833844Y22784892D01*
X87636951Y22761316D01*
X87417899Y22733650D01*
X87178537Y22702169D01*
X86920710Y22667143D01*
X86905825Y22665066D01*
X86646267Y22628848D01*
X86357055Y22587554D01*
X86054921Y22543536D01*
X85741712Y22497066D01*
X85419277Y22448417D01*
X85089462Y22397861D01*
X84754114Y22345673D01*
X84415081Y22292124D01*
X84074211Y22237488D01*
X83733350Y22182037D01*
X83394346Y22126044D01*
X83059046Y22069783D01*
X83029131Y22064737D01*
X82896015Y22042621D01*
X82762741Y22020980D01*
X82633801Y22000514D01*
X82513686Y21981919D01*
X82406889Y21965892D01*
X82317901Y21953132D01*
X82251213Y21944335D01*
X82014472Y21915499D01*
X79308197Y21915499D01*
X79265084Y21921621D01*
X79131789Y21949051D01*
X79019880Y21982964D01*
X78926512Y22024423D01*
X78848845Y22074486D01*
X78784033Y22134217D01*
X78754919Y22168210D01*
X78715610Y22228225D01*
X78688741Y22295401D01*
X78684820Y22308459D01*
X78668486Y22372286D01*
X78654184Y22445825D01*
X78641814Y22530820D01*
X78631275Y22629019D01*
X78622467Y22742168D01*
X78615290Y22872014D01*
X78609643Y23020302D01*
X78605425Y23188780D01*
X78602537Y23379194D01*
X78600878Y23593290D01*
X78600695Y23676011D01*
X79234396Y23676011D01*
X79234603Y23530048D01*
X79235325Y23392528D01*
X79236585Y23266597D01*
X79238404Y23155398D01*
X79240804Y23062076D01*
X79243807Y22989775D01*
X79244709Y22973362D01*
X79249888Y22883421D01*
X79255115Y22799146D01*
X79260030Y22725912D01*
X79264277Y22669090D01*
X79267497Y22634055D01*
X79275621Y22563882D01*
X79358875Y22548705D01*
X79368877Y22546934D01*
X79427124Y22537730D01*
X79496647Y22528014D01*
X79564507Y22519615D01*
X79598375Y22516857D01*
X79661696Y22513728D01*
X79746348Y22510862D01*
X79849117Y22508279D01*
X79966788Y22506002D01*
X80096146Y22504053D01*
X80233978Y22502455D01*
X80377069Y22501229D01*
X80522204Y22500397D01*
X80666169Y22499982D01*
X80805749Y22500005D01*
X80937730Y22500490D01*
X81058897Y22501458D01*
X81166037Y22502931D01*
X81255934Y22504932D01*
X81325374Y22507482D01*
X81364543Y22509455D01*
X81465242Y22514989D01*
X81569488Y22521256D01*
X81667041Y22527625D01*
X81747663Y22533466D01*
X81761748Y22534558D01*
X81831824Y22539762D01*
X81893489Y22543987D01*
X81940512Y22546822D01*
X81966660Y22547858D01*
X82001323Y22547858D01*
X81982850Y22653238D01*
X81971461Y22721351D01*
X82615639Y22721351D01*
X82619784Y22685711D01*
X82620128Y22683026D01*
X82630697Y22656861D01*
X82655508Y22648022D01*
X82699180Y22654706D01*
X82713990Y22658889D01*
X82721144Y22665066D01*
X82708890Y22674909D01*
X82674639Y22692394D01*
X82615639Y22721351D01*
X81971461Y22721351D01*
X81950715Y22845420D01*
X81903792Y23161417D01*
X81861511Y23490577D01*
X81824375Y23827313D01*
X81792885Y24166039D01*
X81767544Y24501168D01*
X81748852Y24827113D01*
X81737313Y25138289D01*
X81733428Y25429108D01*
X81736072Y25659014D01*
X81745492Y25925002D01*
X81761408Y26184651D01*
X81783477Y26435668D01*
X81811358Y26675759D01*
X81844706Y26902630D01*
X81883179Y27113988D01*
X81926435Y27307541D01*
X81974132Y27480993D01*
X82025925Y27632052D01*
X82081473Y27758425D01*
X82113826Y27822365D01*
X82015344Y27780555D01*
X81862828Y27714140D01*
X81690424Y27635386D01*
X81518580Y27553297D01*
X81350852Y27469723D01*
X81190793Y27386517D01*
X81041955Y27305528D01*
X80907892Y27228609D01*
X80792158Y27157611D01*
X80698305Y27094385D01*
X80682128Y27082531D01*
X80598569Y27015707D01*
X80504628Y26932921D01*
X80405207Y26838924D01*
X80305211Y26738465D01*
X80209542Y26636296D01*
X80123106Y26537166D01*
X80015700Y26404346D01*
X79818092Y26133690D01*
X79639629Y25850672D01*
X79476208Y25549024D01*
X79451737Y25499717D01*
X79386636Y25360389D01*
X79336095Y25237128D01*
X79298651Y25125742D01*
X79272841Y25022039D01*
X79257201Y24921828D01*
X79255887Y24908304D01*
X79252137Y24850840D01*
X79248685Y24770376D01*
X79245552Y24670057D01*
X79242760Y24553028D01*
X79240332Y24422432D01*
X79238288Y24281415D01*
X79236650Y24133120D01*
X79235442Y23980691D01*
X79234683Y23827273D01*
X79234396Y23676011D01*
X78600695Y23676011D01*
X78600347Y23832815D01*
X78600598Y24003433D01*
X78601795Y24215886D01*
X78604041Y24404065D01*
X78607404Y24569653D01*
X78611951Y24714334D01*
X78617752Y24839789D01*
X78624873Y24947702D01*
X78633382Y25039755D01*
X78643348Y25117630D01*
X78654839Y25183011D01*
X78672940Y25258980D01*
X78717305Y25401369D01*
X78777612Y25558504D01*
X78852284Y25727097D01*
X78939742Y25903862D01*
X79038410Y26085512D01*
X79146710Y26268760D01*
X79263065Y26450321D01*
X79338495Y26560699D01*
X79521037Y26807424D01*
X79710127Y27035734D01*
X79903780Y27243442D01*
X80100011Y27428362D01*
X80296833Y27588310D01*
X80416411Y27671861D01*
X80559285Y27761802D01*
X80721612Y27856197D01*
X80900049Y27953484D01*
X81091257Y28052102D01*
X81291891Y28150491D01*
X81498612Y28247087D01*
X81708078Y28340331D01*
X81916946Y28428661D01*
X82121876Y28510516D01*
X82319526Y28584334D01*
X82506553Y28648554D01*
X82679617Y28701615D01*
X82816890Y28740692D01*
X82832421Y28815876D01*
X82839465Y28843536D01*
X82859137Y28897633D01*
X82881827Y28940908D01*
X82890304Y28950958D01*
X82921972Y28980048D01*
X82969873Y29018954D01*
X83029563Y29064511D01*
X83096598Y29113554D01*
X83166536Y29162918D01*
X83234932Y29209440D01*
X83297343Y29249953D01*
X83349325Y29281294D01*
X83386436Y29300298D01*
X83437859Y29315351D01*
X83518633Y29319923D01*
X83600401Y29305991D01*
X83674960Y29275228D01*
X83734105Y29229310D01*
X83768837Y29188233D01*
X83810611Y29131629D01*
X83848762Y29073181D01*
X83878499Y29020300D01*
X83895032Y28980396D01*
X83908103Y28931852D01*
X84387804Y28931576D01*
X84404745Y28931557D01*
X84540271Y28930800D01*
X84669901Y28929039D01*
X84789375Y28926386D01*
X84894433Y28922955D01*
X84980819Y28918857D01*
X85044271Y28914207D01*
X85299647Y28886773D01*
X85674785Y28835402D01*
X86026551Y28772982D01*
X86355943Y28699279D01*
X86663960Y28614063D01*
X86951599Y28517101D01*
X87219860Y28408161D01*
X87222629Y28406930D01*
X87396397Y28325295D01*
X87549666Y28243137D01*
X87688767Y28156176D01*
X87820032Y28060130D01*
X87949794Y27950719D01*
X88084383Y27823661D01*
X88085665Y27822365D01*
X88167747Y27739389D01*
G37*
G36*
X24507494Y28373131D02*
G01*
X24540784Y28366968D01*
X24597705Y28354474D01*
X24675497Y28336319D01*
X24771398Y28313176D01*
X24882645Y28285715D01*
X25006478Y28254609D01*
X25140134Y28220529D01*
X25280851Y28184146D01*
X25331942Y28170846D01*
X25492369Y28129006D01*
X25628211Y28093222D01*
X25741744Y28062612D01*
X25835244Y28036295D01*
X25910990Y28013388D01*
X25971258Y27993008D01*
X26018324Y27974275D01*
X26054468Y27956304D01*
X26081964Y27938216D01*
X26103091Y27919126D01*
X26120125Y27898154D01*
X26135344Y27874417D01*
X26151024Y27847032D01*
X26171749Y27803356D01*
X26183151Y27754828D01*
X26186053Y27691865D01*
X26185978Y27685641D01*
X26171538Y27588562D01*
X26133543Y27504432D01*
X26073945Y27436355D01*
X25994696Y27387439D01*
X25992254Y27386390D01*
X25967417Y27377040D01*
X25941128Y27370470D01*
X25911022Y27367099D01*
X25874734Y27367346D01*
X25829899Y27371629D01*
X25774152Y27380368D01*
X25705129Y27393982D01*
X25620464Y27412890D01*
X25517792Y27437510D01*
X25394748Y27468263D01*
X25248967Y27505566D01*
X25078084Y27549840D01*
X25072907Y27551186D01*
X24896189Y27597435D01*
X24745686Y27637466D01*
X24619992Y27671686D01*
X24517701Y27700498D01*
X24437408Y27724308D01*
X24377706Y27743520D01*
X24337189Y27758541D01*
X24314452Y27769773D01*
X24295368Y27784581D01*
X24255021Y27826190D01*
X24221322Y27872873D01*
X24191782Y27946060D01*
X24179619Y28033369D01*
X24186849Y28121338D01*
X24213716Y28199468D01*
X24262991Y28266515D01*
X24333243Y28322485D01*
X24415267Y28359748D01*
X24501415Y28373673D01*
X24507494Y28373131D01*
G37*
G36*
X30004781Y27167888D02*
G01*
X30083419Y27126847D01*
X30151332Y27062892D01*
X30165534Y27044926D01*
X30203727Y26994841D01*
X30253436Y26928033D01*
X30312901Y26846987D01*
X30380358Y26754187D01*
X30454044Y26652119D01*
X30532198Y26543267D01*
X30613056Y26430118D01*
X30694856Y26315155D01*
X30775836Y26200864D01*
X30854232Y26089729D01*
X30928283Y25984236D01*
X30996225Y25886870D01*
X31056296Y25800115D01*
X31106734Y25726457D01*
X31145776Y25668381D01*
X31171659Y25628371D01*
X31182621Y25608912D01*
X31196444Y25548911D01*
X31194510Y25461280D01*
X31169532Y25376273D01*
X31124190Y25299476D01*
X31061161Y25236474D01*
X30983124Y25192854D01*
X30957673Y25186198D01*
X30906295Y25179906D01*
X30850789Y25178995D01*
X30833297Y25179745D01*
X30803208Y25181613D01*
X30775870Y25185431D01*
X30749788Y25192823D01*
X30723467Y25205409D01*
X30695413Y25224813D01*
X30664130Y25252655D01*
X30628123Y25290558D01*
X30585898Y25340145D01*
X30535960Y25403036D01*
X30476813Y25480855D01*
X30406964Y25575222D01*
X30324916Y25687761D01*
X30229175Y25820093D01*
X30118247Y25973840D01*
X30110256Y25984920D01*
X30018849Y26111999D01*
X29932175Y26233094D01*
X29851733Y26346077D01*
X29779019Y26448816D01*
X29715529Y26539183D01*
X29662759Y26615049D01*
X29622208Y26674284D01*
X29595370Y26714758D01*
X29583744Y26734343D01*
X29570032Y26783490D01*
X29564544Y26859562D01*
X29572613Y26937394D01*
X29593759Y27004107D01*
X29618653Y27047065D01*
X29678945Y27113013D01*
X29752501Y27158576D01*
X29834525Y27183246D01*
X29920217Y27186519D01*
X30004781Y27167888D01*
G37*
G36*
X28542835Y27108354D02*
G01*
X28569830Y27106836D01*
X28595628Y27102473D01*
X28621755Y27093828D01*
X28649736Y27079467D01*
X28681095Y27057957D01*
X28717357Y27027861D01*
X28760048Y26987747D01*
X28810692Y26936178D01*
X28870813Y26871721D01*
X28941937Y26792942D01*
X29025589Y26698404D01*
X29123294Y26586675D01*
X29236575Y26456320D01*
X29366959Y26305903D01*
X29419733Y26244914D01*
X29524535Y26123286D01*
X29623366Y26007915D01*
X29714633Y25900700D01*
X29796746Y25803534D01*
X29868111Y25718316D01*
X29927139Y25646940D01*
X29972235Y25591303D01*
X30001810Y25553302D01*
X30014271Y25534831D01*
X30020031Y25518040D01*
X30030347Y25458769D01*
X30032869Y25389372D01*
X30027586Y25322338D01*
X30014489Y25270159D01*
X29992213Y25227215D01*
X29933663Y25156611D01*
X29859427Y25104997D01*
X29823416Y25090549D01*
X29738524Y25075742D01*
X29648980Y25081268D01*
X29563902Y25106035D01*
X29492410Y25148951D01*
X29487126Y25153824D01*
X29461598Y25180473D01*
X29420747Y25225393D01*
X29366460Y25286376D01*
X29300625Y25361216D01*
X29225133Y25447705D01*
X29141870Y25543635D01*
X29052726Y25646801D01*
X28959589Y25754994D01*
X28864348Y25866008D01*
X28768892Y25977636D01*
X28675109Y26087669D01*
X28584887Y26193902D01*
X28500115Y26294127D01*
X28422682Y26386136D01*
X28354476Y26467723D01*
X28297386Y26536680D01*
X28253301Y26590801D01*
X28224108Y26627878D01*
X28211698Y26645704D01*
X28205198Y26662236D01*
X28190926Y26719558D01*
X28185154Y26778576D01*
X28189862Y26838061D01*
X28217469Y26926351D01*
X28266941Y27000814D01*
X28335009Y27058172D01*
X28418409Y27095147D01*
X28513873Y27108462D01*
X28542835Y27108354D01*
G37*
G36*
X20443435Y25555768D02*
G01*
X20498349Y25544252D01*
X20502129Y25542596D01*
X20530587Y25527194D01*
X20579224Y25498736D01*
X20645088Y25459082D01*
X20725229Y25410090D01*
X20816695Y25353620D01*
X20916536Y25291530D01*
X21021801Y25225681D01*
X21129539Y25157930D01*
X21236799Y25090138D01*
X21340630Y25024163D01*
X21438081Y24961864D01*
X21526202Y24905101D01*
X21602041Y24855732D01*
X21662648Y24815617D01*
X21705071Y24786615D01*
X21726360Y24770585D01*
X21734769Y24762416D01*
X21772126Y24717123D01*
X21800712Y24669748D01*
X21817946Y24616349D01*
X21826813Y24536397D01*
X21821076Y24454753D01*
X21800734Y24384134D01*
X21798652Y24380084D01*
X21786542Y24362806D01*
X21765219Y24338116D01*
X21733469Y24304877D01*
X21690078Y24261950D01*
X21633831Y24208198D01*
X21563515Y24142484D01*
X21477917Y24063668D01*
X21375821Y23970614D01*
X21256013Y23862183D01*
X21117281Y23737237D01*
X20958409Y23594639D01*
X20822613Y23472920D01*
X20679183Y23344413D01*
X20554344Y23232680D01*
X20446693Y23136514D01*
X20354826Y23054707D01*
X20277339Y22986053D01*
X20212829Y22929347D01*
X20159893Y22883380D01*
X20117126Y22846946D01*
X20083125Y22818840D01*
X20056487Y22797854D01*
X20035808Y22782781D01*
X20019684Y22772415D01*
X20006711Y22765549D01*
X19995487Y22760977D01*
X19984608Y22757493D01*
X19925316Y22745488D01*
X19832317Y22747344D01*
X19743340Y22772192D01*
X19664698Y22817966D01*
X19602704Y22882596D01*
X19589394Y22901904D01*
X19577095Y22922029D01*
X19567218Y22943232D01*
X19560011Y22967422D01*
X19555721Y22996511D01*
X19554598Y23032409D01*
X19556889Y23077027D01*
X19562843Y23132275D01*
X19572708Y23200063D01*
X19586733Y23282303D01*
X19605165Y23380904D01*
X19628254Y23497778D01*
X19656247Y23634835D01*
X19689393Y23793986D01*
X19727940Y23977140D01*
X19772136Y24186210D01*
X19772969Y24190145D01*
X19809133Y24360758D01*
X19844017Y24524714D01*
X19877113Y24679661D01*
X19907913Y24823245D01*
X19935907Y24953114D01*
X19960587Y25066915D01*
X19981445Y25162293D01*
X19997971Y25236897D01*
X20009658Y25288374D01*
X20015996Y25314369D01*
X20034856Y25363698D01*
X20085410Y25438640D01*
X20154457Y25498145D01*
X20236163Y25536332D01*
X20296522Y25549877D01*
X20372600Y25557535D01*
X20443435Y25555768D01*
G37*
G36*
X21326535Y27450969D02*
G01*
X21402577Y27449092D01*
X21499826Y27446010D01*
X21616053Y27441829D01*
X21749031Y27436658D01*
X21896534Y27430603D01*
X22056333Y27423772D01*
X22226201Y27416274D01*
X22403911Y27408215D01*
X22587236Y27399703D01*
X22773948Y27390846D01*
X22961820Y27381751D01*
X23148625Y27372526D01*
X23332135Y27363279D01*
X23510122Y27354116D01*
X23680361Y27345146D01*
X23840622Y27336476D01*
X23988680Y27328214D01*
X24122306Y27320467D01*
X24239273Y27313343D01*
X24337354Y27306949D01*
X24414322Y27301394D01*
X24467948Y27296784D01*
X24496007Y27293227D01*
X24532461Y27282686D01*
X24607060Y27242945D01*
X24671290Y27185261D01*
X24716361Y27116679D01*
X24735119Y27060828D01*
X24743756Y26972537D01*
X24731054Y26883855D01*
X24698411Y26802477D01*
X24647224Y26736098D01*
X24637346Y26728831D01*
X24603503Y26707575D01*
X24550072Y26675818D01*
X24480362Y26635399D01*
X24397680Y26588159D01*
X24305333Y26535936D01*
X24206629Y26480571D01*
X24104876Y26423903D01*
X24003380Y26367772D01*
X23905448Y26314017D01*
X23814390Y26264479D01*
X23733512Y26220996D01*
X23666121Y26185409D01*
X23615525Y26159558D01*
X23585031Y26145281D01*
X23574562Y26142656D01*
X23534603Y26138303D01*
X23471771Y26134891D01*
X23389729Y26132382D01*
X23292140Y26130738D01*
X23182667Y26129922D01*
X23064972Y26129896D01*
X22942719Y26130623D01*
X22819571Y26132065D01*
X22699191Y26134185D01*
X22585242Y26136945D01*
X22481386Y26140308D01*
X22391287Y26144237D01*
X22318608Y26148694D01*
X22267012Y26153641D01*
X22240161Y26159041D01*
X22236044Y26161042D01*
X22208229Y26176987D01*
X22160570Y26205914D01*
X22096107Y26245877D01*
X22017882Y26294929D01*
X21928934Y26351121D01*
X21832305Y26412507D01*
X21731034Y26477138D01*
X21628164Y26543068D01*
X21526733Y26608349D01*
X21429784Y26671033D01*
X21340356Y26729173D01*
X21261489Y26780821D01*
X21196226Y26824030D01*
X21147606Y26856853D01*
X21118670Y26877342D01*
X21100348Y26894036D01*
X21065513Y26937402D01*
X21037034Y26986225D01*
X21024931Y27015342D01*
X21004411Y27107866D01*
X21009281Y27198040D01*
X21037640Y27281616D01*
X21087587Y27354344D01*
X21157221Y27411976D01*
X21244640Y27450263D01*
X21246977Y27450673D01*
X21273925Y27451531D01*
X21326535Y27450969D01*
G37*
G36*
X26543669Y26428849D02*
G01*
X26634674Y26396918D01*
X26639615Y26393798D01*
X26666284Y26374098D01*
X26712672Y26338137D01*
X26777198Y26287191D01*
X26858279Y26222532D01*
X26954335Y26145437D01*
X27063783Y26057178D01*
X27185041Y25959032D01*
X27316529Y25852271D01*
X27456663Y25738171D01*
X27603862Y25618006D01*
X27756545Y25493050D01*
X27887665Y25385582D01*
X28050904Y25251679D01*
X28194379Y25133798D01*
X28319411Y25030804D01*
X28427321Y24941559D01*
X28519431Y24864930D01*
X28597061Y24799780D01*
X28661534Y24744973D01*
X28714169Y24699374D01*
X28756287Y24661847D01*
X28789211Y24631257D01*
X28814261Y24606466D01*
X28832759Y24586341D01*
X28846024Y24569745D01*
X28855380Y24555542D01*
X28862145Y24542597D01*
X28862898Y24540971D01*
X28890787Y24449145D01*
X28892366Y24357796D01*
X28869453Y24271303D01*
X28823869Y24194046D01*
X28757433Y24130408D01*
X28671965Y24084767D01*
X28668741Y24083610D01*
X28611468Y24071991D01*
X28547496Y24071384D01*
X28542521Y24072222D01*
X28511625Y24079305D01*
X28456066Y24093079D01*
X28377841Y24113009D01*
X28278951Y24138559D01*
X28161392Y24169197D01*
X28027165Y24204385D01*
X27878267Y24243591D01*
X27716698Y24286279D01*
X27544457Y24331914D01*
X27363542Y24379962D01*
X27175951Y24429889D01*
X26983685Y24481158D01*
X26788741Y24533236D01*
X26593118Y24585588D01*
X26398815Y24637680D01*
X26207831Y24688975D01*
X26022164Y24738941D01*
X25843814Y24787041D01*
X25674779Y24832742D01*
X25517057Y24875508D01*
X25372648Y24914806D01*
X25243551Y24950099D01*
X25131764Y24980854D01*
X25039285Y25006536D01*
X24968114Y25026609D01*
X24920250Y25040540D01*
X24897691Y25047794D01*
X24888337Y25052220D01*
X24851304Y25076366D01*
X24813768Y25108120D01*
X24812319Y25109538D01*
X24757989Y25181272D01*
X24725233Y25264195D01*
X24714088Y25352407D01*
X24724593Y25440008D01*
X24756785Y25521095D01*
X24810702Y25589768D01*
X24815159Y25593314D01*
X24844295Y25611836D01*
X24895145Y25641262D01*
X24964959Y25680159D01*
X25050989Y25727098D01*
X25150488Y25780648D01*
X25260706Y25839376D01*
X25378895Y25901853D01*
X25502307Y25966647D01*
X25628194Y26032327D01*
X25753808Y26097463D01*
X25876399Y26160622D01*
X25993220Y26220375D01*
X26101522Y26275290D01*
X26198557Y26323936D01*
X26281577Y26364883D01*
X26347833Y26396698D01*
X26394577Y26417952D01*
X26419061Y26427212D01*
X26451874Y26432717D01*
X26543669Y26428849D01*
G37*
G36*
X32746372Y24285347D02*
G01*
X32734773Y24215059D01*
X32714484Y24129133D01*
X32685672Y24021792D01*
X32670590Y23967388D01*
X32621284Y23796145D01*
X32575819Y23650136D01*
X32533202Y23527231D01*
X32492440Y23425300D01*
X32452538Y23342213D01*
X32412504Y23275840D01*
X32371343Y23224052D01*
X32328063Y23184717D01*
X32281669Y23155707D01*
X32271803Y23150936D01*
X32238814Y23137291D01*
X32195351Y23122120D01*
X32140580Y23105249D01*
X32073669Y23086505D01*
X31993784Y23065713D01*
X31900092Y23042700D01*
X31791761Y23017293D01*
X31667957Y22989318D01*
X31527847Y22958601D01*
X31370598Y22924968D01*
X31195377Y22888247D01*
X31001350Y22848264D01*
X30787686Y22804844D01*
X30553550Y22757814D01*
X30298109Y22707001D01*
X30020531Y22652231D01*
X29719982Y22593330D01*
X29395630Y22530125D01*
X29046641Y22462442D01*
X28672181Y22390108D01*
X28271419Y22312949D01*
X27843521Y22230790D01*
X27828665Y22227941D01*
X27645880Y22192843D01*
X27465061Y22158049D01*
X27289093Y22124119D01*
X27120863Y22091613D01*
X26963256Y22061089D01*
X26819158Y22033109D01*
X26691455Y22008230D01*
X26583032Y21987012D01*
X26496775Y21970016D01*
X26435570Y21957801D01*
X26375080Y21945846D01*
X26289320Y21930248D01*
X26208268Y21917822D01*
X26129609Y21908803D01*
X26051027Y21903429D01*
X25970210Y21901934D01*
X25884842Y21904557D01*
X25792608Y21911532D01*
X25691195Y21923097D01*
X25578288Y21939487D01*
X25451573Y21960940D01*
X25308734Y21987691D01*
X25147458Y22019977D01*
X24965429Y22058035D01*
X24760334Y22102099D01*
X24529859Y22152408D01*
X24322081Y22197633D01*
X24125810Y22239515D01*
X23954481Y22275078D01*
X23806719Y22304596D01*
X23681149Y22328345D01*
X23576394Y22346598D01*
X23491080Y22359630D01*
X23434843Y22366992D01*
X23393347Y22370017D01*
X23362557Y22367086D01*
X23333451Y22357268D01*
X23297006Y22339634D01*
X23293506Y22337843D01*
X23222824Y22295200D01*
X23141067Y22234278D01*
X23046836Y22153884D01*
X22938730Y22052829D01*
X22815350Y21929922D01*
X22784329Y21898141D01*
X22712346Y21823303D01*
X22644002Y21750352D01*
X22576673Y21676236D01*
X22507734Y21597901D01*
X22434562Y21512295D01*
X22354533Y21416364D01*
X22265022Y21307056D01*
X22163405Y21181319D01*
X22047058Y21036098D01*
X21996896Y20973493D01*
X21926192Y20885929D01*
X21861108Y20806101D01*
X21804049Y20736921D01*
X21757425Y20681302D01*
X21723641Y20642158D01*
X21705107Y20622400D01*
X21665771Y20589233D01*
X21606270Y20548058D01*
X21540291Y20514025D01*
X21463442Y20485597D01*
X21371331Y20461231D01*
X21259566Y20439388D01*
X21123756Y20418528D01*
X21099882Y20416305D01*
X21040865Y20414460D01*
X20963583Y20414750D01*
X20874344Y20416907D01*
X20779456Y20420664D01*
X20685225Y20425751D01*
X20597960Y20431902D01*
X20523968Y20438848D01*
X20469556Y20446322D01*
X20361705Y20468029D01*
X20241922Y20500456D01*
X20138392Y20540964D01*
X20046680Y20592622D01*
X19962350Y20658496D01*
X19880966Y20741655D01*
X19798091Y20845167D01*
X19709290Y20972100D01*
X19677632Y21020384D01*
X19612264Y21124494D01*
X19541555Y21242046D01*
X19467036Y21370126D01*
X19390236Y21505819D01*
X19312686Y21646212D01*
X19235914Y21788390D01*
X19161453Y21929440D01*
X19090830Y22066447D01*
X19025576Y22196498D01*
X18967222Y22316677D01*
X18917296Y22424072D01*
X18877329Y22515768D01*
X18848852Y22588851D01*
X18833393Y22640407D01*
X18826372Y22680359D01*
X18816591Y22780605D01*
X18816383Y22786947D01*
X19474036Y22786947D01*
X19642830Y22452385D01*
X19684120Y22371069D01*
X19773655Y22198188D01*
X19862495Y22031121D01*
X19949351Y21872071D01*
X20032934Y21723242D01*
X20111956Y21586840D01*
X20185127Y21465066D01*
X20251160Y21360126D01*
X20308766Y21274224D01*
X20356657Y21209564D01*
X20393543Y21168350D01*
X20415555Y21153039D01*
X20460591Y21131342D01*
X20512392Y21113396D01*
X20522843Y21110670D01*
X20576159Y21100764D01*
X20646526Y21093394D01*
X20737727Y21088245D01*
X20853543Y21085003D01*
X20856356Y21084951D01*
X20973894Y21083738D01*
X21066782Y21085269D01*
X21138657Y21090121D01*
X21193153Y21098874D01*
X21233905Y21112107D01*
X21264549Y21130399D01*
X21288720Y21154329D01*
X21294159Y21161009D01*
X21319603Y21192726D01*
X21358304Y21241322D01*
X21407095Y21302812D01*
X21462813Y21373210D01*
X21522292Y21448528D01*
X21673956Y21638704D01*
X21862312Y21868235D01*
X22038186Y22074364D01*
X22202374Y22257899D01*
X22355676Y22419648D01*
X22498891Y22560417D01*
X22632818Y22681016D01*
X22758254Y22782252D01*
X22875998Y22864933D01*
X22986850Y22929867D01*
X22999320Y22936365D01*
X23047390Y22960602D01*
X23093300Y22981597D01*
X23138810Y22999180D01*
X23185682Y23013179D01*
X23235675Y23023422D01*
X23290550Y23029739D01*
X23352068Y23031958D01*
X23421990Y23029909D01*
X23502075Y23023420D01*
X23594086Y23012319D01*
X23699781Y22996436D01*
X23820923Y22975600D01*
X23959271Y22949639D01*
X24116587Y22918382D01*
X24294630Y22881658D01*
X24495161Y22839296D01*
X24719942Y22791124D01*
X24970732Y22736972D01*
X25099883Y22709258D01*
X25290305Y22669472D01*
X25456236Y22636382D01*
X25599560Y22609704D01*
X25722163Y22589156D01*
X25825930Y22574452D01*
X25912747Y22565309D01*
X25984499Y22561443D01*
X26043072Y22562571D01*
X26090351Y22568408D01*
X26306392Y22609817D01*
X26843527Y22712923D01*
X27352834Y22810914D01*
X27834419Y22903812D01*
X28288389Y22991637D01*
X28714850Y23074412D01*
X29113907Y23152156D01*
X29485667Y23224892D01*
X29830235Y23292639D01*
X30147718Y23355421D01*
X30438221Y23413256D01*
X30701851Y23466168D01*
X30938713Y23514177D01*
X31148914Y23557303D01*
X31332558Y23595569D01*
X31489754Y23628995D01*
X31620605Y23657602D01*
X31725219Y23681412D01*
X31803701Y23700446D01*
X31856157Y23714725D01*
X31882693Y23724270D01*
X31883892Y23725110D01*
X31896705Y23745755D01*
X31915104Y23788098D01*
X31937454Y23847060D01*
X31962124Y23917565D01*
X31987478Y23994531D01*
X32011885Y24072883D01*
X32033711Y24147539D01*
X32051323Y24213423D01*
X32063088Y24265456D01*
X32067373Y24298558D01*
X32063632Y24312706D01*
X32048369Y24350802D01*
X32022946Y24407870D01*
X31989094Y24480388D01*
X31948543Y24564835D01*
X31903022Y24657691D01*
X31854261Y24755433D01*
X31803991Y24854540D01*
X31753941Y24951492D01*
X31705841Y25042767D01*
X31661421Y25124844D01*
X31632636Y25176840D01*
X31415319Y25551751D01*
X31186956Y25916292D01*
X30950582Y26265949D01*
X30709232Y26596209D01*
X30465939Y26902559D01*
X30415025Y26962260D01*
X30327440Y27060033D01*
X30227976Y27166549D01*
X30120965Y27277467D01*
X30010739Y27388444D01*
X29901630Y27495139D01*
X29797971Y27593208D01*
X29704093Y27678311D01*
X29624329Y27746104D01*
X29396682Y27920173D01*
X29150302Y28084754D01*
X28906700Y28222127D01*
X28665035Y28332761D01*
X28424471Y28417125D01*
X28401366Y28423558D01*
X28333981Y28439923D01*
X28247649Y28458678D01*
X28148636Y28478542D01*
X28043207Y28498237D01*
X27937628Y28516484D01*
X27842911Y28531895D01*
X27221735Y28621436D01*
X26617399Y28688166D01*
X26029763Y28732081D01*
X25458687Y28753175D01*
X24904031Y28751440D01*
X24365655Y28726873D01*
X23843418Y28679466D01*
X23337180Y28609213D01*
X22846802Y28516109D01*
X22372142Y28400148D01*
X21913061Y28261324D01*
X21876738Y28249175D01*
X21623285Y28161254D01*
X21377656Y28070619D01*
X21141833Y27978208D01*
X20917800Y27884953D01*
X20707541Y27791791D01*
X20513040Y27699656D01*
X20336279Y27609483D01*
X20179242Y27522207D01*
X20043913Y27438763D01*
X19932275Y27360087D01*
X19846312Y27287112D01*
X19834001Y27275316D01*
X19809775Y27251744D01*
X19789796Y27229772D01*
X19773736Y27206669D01*
X19761268Y27179706D01*
X19752063Y27146151D01*
X19745793Y27103274D01*
X19742131Y27048345D01*
X19740747Y26978632D01*
X19741316Y26891405D01*
X19743507Y26783934D01*
X19746994Y26653488D01*
X19751448Y26497336D01*
X19752130Y26472903D01*
X19755776Y26324566D01*
X19758780Y26171600D01*
X19761080Y26019515D01*
X19762617Y25873820D01*
X19763330Y25740024D01*
X19763158Y25623635D01*
X19762042Y25530163D01*
X19761906Y25523372D01*
X19759260Y25409077D01*
X19756189Y25317517D01*
X19752239Y25243271D01*
X19746956Y25180918D01*
X19739887Y25125037D01*
X19730577Y25070208D01*
X19718573Y25011009D01*
X19712245Y24980564D01*
X19691435Y24870903D01*
X19668723Y24738852D01*
X19644735Y24588869D01*
X19620096Y24425407D01*
X19595435Y24252924D01*
X19571376Y24075874D01*
X19548545Y23898714D01*
X19527571Y23725898D01*
X19509077Y23561884D01*
X19493692Y23411126D01*
X19492518Y23398332D01*
X19486207Y23311989D01*
X19480895Y23210803D01*
X19477108Y23106336D01*
X19475375Y23010151D01*
X19474036Y22786947D01*
X18816383Y22786947D01*
X18812498Y22905271D01*
X18813893Y23052092D01*
X18820578Y23218803D01*
X18832354Y23403142D01*
X18849021Y23602842D01*
X18870380Y23815640D01*
X18896233Y24039272D01*
X18926380Y24271473D01*
X18960622Y24509979D01*
X18998760Y24752525D01*
X19040595Y24996848D01*
X19052432Y25063256D01*
X19071176Y25170071D01*
X19085649Y25257898D01*
X19096309Y25332629D01*
X19103615Y25400156D01*
X19108025Y25466370D01*
X19109997Y25537162D01*
X19109989Y25618426D01*
X19108461Y25716051D01*
X19105870Y25835930D01*
X19100790Y26063145D01*
X19096176Y26272068D01*
X19092274Y26456132D01*
X19089148Y26617156D01*
X19086858Y26756961D01*
X19085467Y26877366D01*
X19085036Y26980191D01*
X19085627Y27067255D01*
X19087301Y27140379D01*
X19090120Y27201382D01*
X19094146Y27252084D01*
X19099441Y27294305D01*
X19106066Y27329864D01*
X19114082Y27360582D01*
X19123552Y27388277D01*
X19134538Y27414770D01*
X19147100Y27441881D01*
X19161300Y27471428D01*
X19162183Y27473262D01*
X19224617Y27580810D01*
X19307978Y27687346D01*
X19413073Y27793402D01*
X19540710Y27899511D01*
X19691694Y28006203D01*
X19866835Y28114010D01*
X20066938Y28223464D01*
X20292812Y28335096D01*
X20545263Y28449438D01*
X20825099Y28567022D01*
X21050429Y28656806D01*
X21414387Y28793364D01*
X21764891Y28913257D01*
X22107002Y29017690D01*
X22445780Y29107868D01*
X22786284Y29184998D01*
X23133573Y29250284D01*
X23492709Y29304934D01*
X23868750Y29350151D01*
X24266757Y29387143D01*
X24301910Y29389618D01*
X24391258Y29394014D01*
X24503220Y29397706D01*
X24633923Y29400696D01*
X24779496Y29402982D01*
X24936063Y29404565D01*
X25099754Y29405444D01*
X25266693Y29405620D01*
X25433009Y29405093D01*
X25594827Y29403862D01*
X25748276Y29401928D01*
X25889482Y29399291D01*
X26014572Y29395950D01*
X26119673Y29391905D01*
X26200911Y29387157D01*
X26252161Y29383254D01*
X26506647Y29362150D01*
X26760922Y29338318D01*
X27012165Y29312141D01*
X27257556Y29284003D01*
X27494274Y29254289D01*
X27719497Y29223381D01*
X27930403Y29191663D01*
X28124173Y29159519D01*
X28297984Y29127332D01*
X28449016Y29095487D01*
X28574447Y29064366D01*
X28768514Y29004134D01*
X29044017Y28894700D01*
X29319170Y28757560D01*
X29593507Y28593142D01*
X29866562Y28401876D01*
X30137867Y28184193D01*
X30406956Y27940521D01*
X30673362Y27671292D01*
X30936618Y27376934D01*
X31196258Y27057877D01*
X31451815Y26714552D01*
X31702822Y26347388D01*
X31948812Y25956814D01*
X32072400Y25748192D01*
X32207293Y25510748D01*
X32337622Y25271396D01*
X32460154Y25036219D01*
X32571652Y24811299D01*
X32668884Y24602718D01*
X32702527Y24525597D01*
X32727358Y24460120D01*
X32742831Y24402103D01*
X32749114Y24345770D01*
X32746972Y24298558D01*
X32746372Y24285347D01*
G37*
G36*
X115192027Y24886315D02*
G01*
X115279166Y24840328D01*
X115354022Y24773644D01*
X115413001Y24687882D01*
X115417590Y24679015D01*
X115433486Y24643243D01*
X115442771Y24607796D01*
X115447133Y24563784D01*
X115448261Y24502317D01*
X115447109Y24439794D01*
X115442400Y24393680D01*
X115432561Y24356013D01*
X115416022Y24317798D01*
X115400551Y24289639D01*
X115344810Y24216612D01*
X115275622Y24155588D01*
X115200555Y24113734D01*
X115192448Y24110675D01*
X115110679Y24092155D01*
X115020108Y24089447D01*
X114931039Y24102081D01*
X114853779Y24129585D01*
X114790886Y24169310D01*
X114719985Y24238476D01*
X114667908Y24321135D01*
X114636497Y24413104D01*
X114627593Y24510200D01*
X114643039Y24608242D01*
X114650913Y24633056D01*
X114696329Y24728208D01*
X114760269Y24804636D01*
X114842292Y24861910D01*
X114941957Y24899600D01*
X114995293Y24909737D01*
X115096204Y24909991D01*
X115192027Y24886315D01*
G37*
G36*
X116692834Y24190529D02*
G01*
X116674414Y24019733D01*
X116642695Y23870876D01*
X116578631Y23673885D01*
X116492524Y23488989D01*
X116385815Y23317549D01*
X116259945Y23160929D01*
X116116355Y23020493D01*
X115956487Y22897605D01*
X115781782Y22793627D01*
X115593680Y22709923D01*
X115393623Y22647856D01*
X115183051Y22608790D01*
X115149522Y22605421D01*
X115058063Y22601771D01*
X114953385Y22603439D01*
X114844185Y22609985D01*
X114739163Y22620969D01*
X114647014Y22635949D01*
X114517640Y22667509D01*
X114322685Y22736353D01*
X114140083Y22827326D01*
X113971196Y22939055D01*
X113817391Y23070168D01*
X113680030Y23219292D01*
X113560478Y23385056D01*
X113460100Y23566087D01*
X113380259Y23761013D01*
X113322320Y23968462D01*
X113311014Y24037248D01*
X113302250Y24132889D01*
X113297731Y24240362D01*
X113297457Y24352127D01*
X113298562Y24382318D01*
X113910619Y24382318D01*
X113910774Y24219057D01*
X113936300Y24055946D01*
X113937353Y24051556D01*
X113988898Y23893074D01*
X114063096Y23745988D01*
X114157932Y23612400D01*
X114271394Y23494411D01*
X114401466Y23394127D01*
X114546135Y23313647D01*
X114703386Y23255077D01*
X114739351Y23246114D01*
X114828006Y23231562D01*
X114928005Y23222773D01*
X115030170Y23220122D01*
X115125321Y23223981D01*
X115204279Y23234724D01*
X115265746Y23249494D01*
X115424713Y23305538D01*
X115571225Y23383585D01*
X115703381Y23481825D01*
X115819281Y23598446D01*
X115917023Y23731640D01*
X115994706Y23879594D01*
X116050429Y24040499D01*
X116064391Y24106198D01*
X116077207Y24221770D01*
X116079083Y24344164D01*
X116070029Y24463099D01*
X116050050Y24568291D01*
X116016787Y24673013D01*
X115948814Y24822984D01*
X115862978Y24956795D01*
X115761471Y25073831D01*
X115646482Y25173475D01*
X115520201Y25255111D01*
X115384818Y25318126D01*
X115242523Y25361902D01*
X115095507Y25385824D01*
X114945959Y25389277D01*
X114796070Y25371644D01*
X114648029Y25332311D01*
X114504027Y25270662D01*
X114366255Y25186080D01*
X114236901Y25077952D01*
X114146821Y24979437D01*
X114053937Y24844289D01*
X113983045Y24697806D01*
X113934991Y24542858D01*
X113910619Y24382318D01*
X113298562Y24382318D01*
X113301430Y24460648D01*
X113309654Y24558386D01*
X113322130Y24637804D01*
X113345427Y24733494D01*
X113412982Y24934840D01*
X113502146Y25123604D01*
X113611594Y25298251D01*
X113740000Y25457244D01*
X113886040Y25599048D01*
X114048387Y25722128D01*
X114225716Y25824948D01*
X114416702Y25905972D01*
X114557315Y25948778D01*
X114759755Y25988352D01*
X114965095Y26004078D01*
X115170154Y25996132D01*
X115371755Y25964690D01*
X115566718Y25909928D01*
X115751863Y25832023D01*
X115871917Y25765663D01*
X116040899Y25648186D01*
X116194957Y25511230D01*
X116332003Y25357235D01*
X116449948Y25188641D01*
X116546704Y25007888D01*
X116620182Y24817417D01*
X116645439Y24726027D01*
X116677753Y24552401D01*
X116693749Y24370993D01*
X116693613Y24344164D01*
X116692834Y24190529D01*
G37*
G36*
X119703615Y22144608D02*
G01*
X119694471Y21993231D01*
X119659625Y21817476D01*
X119598734Y21645960D01*
X119511799Y21478680D01*
X119398816Y21315634D01*
X119259786Y21156820D01*
X119210568Y21107648D01*
X119097232Y21007321D01*
X118980875Y20923940D01*
X118855704Y20854088D01*
X118715929Y20794347D01*
X118555759Y20741298D01*
X118549804Y20739536D01*
X118484765Y20719673D01*
X118426722Y20700905D01*
X118381803Y20685273D01*
X118356138Y20674818D01*
X118344711Y20668262D01*
X118320986Y20646297D01*
X118307982Y20615804D01*
X118305781Y20573703D01*
X118314465Y20516914D01*
X118334115Y20442358D01*
X118364812Y20346954D01*
X118367600Y20338698D01*
X118391583Y20264899D01*
X118413853Y20191871D01*
X118432035Y20127644D01*
X118443752Y20080250D01*
X118455746Y20010786D01*
X118462246Y19873237D01*
X118444562Y19745057D01*
X118403366Y19627240D01*
X118339332Y19520784D01*
X118253132Y19426683D01*
X118145438Y19345933D01*
X118016924Y19279531D01*
X117868263Y19228472D01*
X117828470Y19218350D01*
X117785330Y19209760D01*
X117739489Y19203973D01*
X117685028Y19200466D01*
X117616027Y19198714D01*
X117526565Y19198192D01*
X117426752Y19199264D01*
X117318436Y19204547D01*
X117224018Y19215252D01*
X117136643Y19232494D01*
X117049455Y19257390D01*
X116955597Y19291052D01*
X116937572Y19298124D01*
X116796333Y19362956D01*
X116673615Y19438798D01*
X116564724Y19529495D01*
X116464963Y19638890D01*
X116369637Y19770830D01*
X116348502Y19802128D01*
X116252763Y19926032D01*
X116143207Y20043965D01*
X116025078Y20151069D01*
X115903617Y20242487D01*
X115784069Y20313361D01*
X115777167Y20316819D01*
X115713889Y20345255D01*
X115658217Y20362246D01*
X115608241Y20366332D01*
X115562049Y20356052D01*
X115517732Y20329947D01*
X115473378Y20286557D01*
X115427076Y20224421D01*
X115376916Y20142080D01*
X115320986Y20038075D01*
X115257377Y19910944D01*
X115251191Y19898294D01*
X115204144Y19801503D01*
X115165182Y19719681D01*
X115131891Y19647138D01*
X115101853Y19578181D01*
X115072652Y19507119D01*
X115041872Y19428262D01*
X115007098Y19335918D01*
X114965912Y19224395D01*
X114958276Y19203782D01*
X114915284Y19095309D01*
X114874858Y19008192D01*
X114834811Y18938553D01*
X114792958Y18882512D01*
X114747111Y18836191D01*
X114702869Y18801441D01*
X114622195Y18758583D01*
X114531563Y18735919D01*
X114425785Y18731765D01*
X114367894Y18736238D01*
X114301436Y18749419D01*
X114239511Y18773364D01*
X114177060Y18810685D01*
X114109025Y18863993D01*
X114030347Y18935901D01*
X113904504Y19056446D01*
X113791802Y18948942D01*
X113729788Y18893466D01*
X113629414Y18820712D01*
X113527625Y18769262D01*
X113419675Y18736406D01*
X113384011Y18729826D01*
X113316193Y18721246D01*
X113254190Y18717444D01*
X113223971Y18717716D01*
X113087534Y18734026D01*
X112949184Y18773212D01*
X112811881Y18832887D01*
X112678590Y18910665D01*
X112552272Y19004160D01*
X112435889Y19110985D01*
X112332405Y19228753D01*
X112244781Y19355079D01*
X112175979Y19487577D01*
X112128964Y19623859D01*
X112117777Y19674803D01*
X112103834Y19816503D01*
X112112593Y19961042D01*
X112143354Y20101988D01*
X112195415Y20232909D01*
X112195973Y20234009D01*
X112219991Y20277331D01*
X112254535Y20334646D01*
X112295069Y20398621D01*
X112337057Y20461925D01*
X112382854Y20530533D01*
X112431199Y20608113D01*
X112464997Y20670665D01*
X112485633Y20721177D01*
X112494495Y20762639D01*
X112492968Y20798038D01*
X112488567Y20818013D01*
X112472864Y20863899D01*
X112447111Y20913755D01*
X112408520Y20972556D01*
X112354299Y21045278D01*
X112275932Y21153233D01*
X112164551Y21329967D01*
X112056738Y21528036D01*
X111953568Y21744484D01*
X111856117Y21976355D01*
X111765461Y22220692D01*
X111682676Y22474539D01*
X111608836Y22734940D01*
X111545019Y22998938D01*
X111492298Y23263577D01*
X111451751Y23525901D01*
X111423467Y23792376D01*
X111407046Y24112010D01*
X111408975Y24335364D01*
X112019480Y24335364D01*
X112020941Y24076684D01*
X112039564Y23804820D01*
X112074505Y23523710D01*
X112124919Y23237291D01*
X112189960Y22949500D01*
X112268784Y22664273D01*
X112360546Y22385549D01*
X112464401Y22117264D01*
X112579504Y21863356D01*
X112622681Y21778458D01*
X112750987Y21557975D01*
X112894352Y21355356D01*
X112905828Y21340382D01*
X112994226Y21204860D01*
X113056798Y21066258D01*
X113094005Y20923320D01*
X113106305Y20774785D01*
X113102858Y20689569D01*
X113087861Y20588214D01*
X113059375Y20488686D01*
X113015673Y20386341D01*
X112955029Y20276537D01*
X112875717Y20154629D01*
X112858517Y20129510D01*
X112801233Y20042235D01*
X112759627Y19970461D01*
X112732635Y19910465D01*
X112719188Y19858524D01*
X112718221Y19810916D01*
X112728668Y19763917D01*
X112749463Y19713806D01*
X112778616Y19664194D01*
X112834902Y19592454D01*
X112905075Y19520375D01*
X112983077Y19453507D01*
X113062852Y19397395D01*
X113138344Y19357590D01*
X113146943Y19354299D01*
X113196954Y19341666D01*
X113247570Y19336551D01*
X113248279Y19336551D01*
X113272987Y19337460D01*
X113293844Y19342175D01*
X113315281Y19353738D01*
X113341730Y19375189D01*
X113377621Y19409568D01*
X113427387Y19459914D01*
X113433870Y19466508D01*
X113505242Y19535690D01*
X113566829Y19587337D01*
X113623915Y19624975D01*
X113681785Y19652131D01*
X113745726Y19672332D01*
X113846622Y19689666D01*
X113967685Y19686672D01*
X114087066Y19657602D01*
X114204119Y19602626D01*
X114318202Y19521912D01*
X114397484Y19455933D01*
X114419843Y19524891D01*
X114447135Y19602764D01*
X114486601Y19704141D01*
X114533820Y19817330D01*
X114586658Y19937767D01*
X114642983Y20060889D01*
X114700662Y20182134D01*
X114757563Y20296937D01*
X114811553Y20400736D01*
X114860498Y20488968D01*
X114902268Y20557070D01*
X114971019Y20651228D01*
X115075991Y20764855D01*
X115189732Y20856282D01*
X115310533Y20924196D01*
X115436683Y20967284D01*
X115459336Y20972015D01*
X115556501Y20982364D01*
X115664218Y20981167D01*
X115772314Y20968921D01*
X115870617Y20946122D01*
X115989983Y20900257D01*
X116123842Y20831141D01*
X116261046Y20744128D01*
X116397676Y20642367D01*
X116529813Y20529010D01*
X116653539Y20407205D01*
X116764934Y20280103D01*
X116860078Y20150853D01*
X116868955Y20137588D01*
X116910705Y20078066D01*
X116951050Y20024694D01*
X116985777Y19982868D01*
X117010670Y19957986D01*
X117045096Y19933241D01*
X117140450Y19881846D01*
X117248824Y19842685D01*
X117364631Y19816487D01*
X117482285Y19803984D01*
X117596199Y19805907D01*
X117700786Y19822987D01*
X117790461Y19855955D01*
X117813411Y19868435D01*
X117832861Y19883531D01*
X117843220Y19902548D01*
X117844574Y19929687D01*
X117837008Y19969149D01*
X117820607Y20025137D01*
X117795457Y20101850D01*
X117773501Y20168601D01*
X117744224Y20262398D01*
X117722607Y20340034D01*
X117707369Y20406727D01*
X117697231Y20467695D01*
X117690913Y20528159D01*
X117688663Y20607220D01*
X117704197Y20742943D01*
X117744222Y20870350D01*
X117808085Y20987633D01*
X117895132Y21092984D01*
X117945876Y21140371D01*
X117999960Y21181814D01*
X118060009Y21217509D01*
X118131027Y21250046D01*
X118218019Y21282015D01*
X118325990Y21316008D01*
X118404651Y21340522D01*
X118506230Y21376950D01*
X118590618Y21414849D01*
X118663241Y21457114D01*
X118729526Y21506643D01*
X118794898Y21566332D01*
X118893333Y21673896D01*
X118978535Y21792975D01*
X119040033Y21912561D01*
X119077042Y22031102D01*
X119088775Y22147044D01*
X119088749Y22149245D01*
X119081446Y22231583D01*
X119060674Y22311027D01*
X119024622Y22390908D01*
X118971481Y22474557D01*
X118899443Y22565307D01*
X118806698Y22666489D01*
X118788182Y22685410D01*
X118699201Y22770977D01*
X118592735Y22866435D01*
X118472774Y22968578D01*
X118343310Y23074197D01*
X118208335Y23180085D01*
X118071840Y23283034D01*
X117937815Y23379837D01*
X117810253Y23467286D01*
X117805355Y23470545D01*
X117679120Y23559650D01*
X117573920Y23645844D01*
X117485661Y23733656D01*
X117410250Y23827614D01*
X117343594Y23932244D01*
X117281599Y24052076D01*
X117253824Y24113451D01*
X117228357Y24177331D01*
X117206745Y24242454D01*
X117188440Y24311964D01*
X117172898Y24389003D01*
X117159573Y24476713D01*
X117147919Y24578238D01*
X117137391Y24696719D01*
X117127443Y24835300D01*
X117117529Y24997122D01*
X117117132Y25003952D01*
X117109211Y25119126D01*
X117099592Y25214514D01*
X117087127Y25296380D01*
X117070670Y25370988D01*
X117049075Y25444603D01*
X117021194Y25523489D01*
X117001173Y25573814D01*
X116915631Y25746326D01*
X116805775Y25915916D01*
X116673202Y26081030D01*
X116519508Y26240114D01*
X116346292Y26391613D01*
X116155149Y26533971D01*
X115947678Y26665634D01*
X115725474Y26785047D01*
X115492597Y26887947D01*
X115227343Y26978167D01*
X114955949Y27042946D01*
X114679579Y27082013D01*
X114399396Y27095096D01*
X114267506Y27092156D01*
X114017247Y27069101D01*
X113779928Y27023089D01*
X113555388Y26954053D01*
X113343461Y26861930D01*
X113143984Y26746652D01*
X112956794Y26608155D01*
X112781728Y26446373D01*
X112733556Y26395417D01*
X112583747Y26214078D01*
X112451879Y26016201D01*
X112337724Y25801190D01*
X112241058Y25568451D01*
X112161655Y25317389D01*
X112099290Y25047406D01*
X112053736Y24757908D01*
X112024768Y24448300D01*
X112019480Y24335364D01*
X111408975Y24335364D01*
X111409765Y24426813D01*
X111431219Y24735105D01*
X111471006Y25035204D01*
X111528722Y25325431D01*
X111603964Y25604104D01*
X111696329Y25869542D01*
X111805413Y26120066D01*
X111930813Y26353994D01*
X112072127Y26569645D01*
X112228950Y26765338D01*
X112291192Y26835420D01*
X112213840Y26901571D01*
X112138846Y26969008D01*
X111982528Y27131757D01*
X111836626Y27313877D01*
X111703609Y27511180D01*
X111585944Y27719473D01*
X111486100Y27934567D01*
X111406545Y28152271D01*
X111349749Y28368395D01*
X111344177Y28401416D01*
X111337389Y28471399D01*
X111334141Y28551453D01*
X111334351Y28634322D01*
X111337939Y28712753D01*
X111344822Y28779490D01*
X111354918Y28827278D01*
X111375422Y28890318D01*
X111331050Y28964004D01*
X111294898Y29037159D01*
X111266633Y29141280D01*
X111261475Y29247302D01*
X111278314Y29351505D01*
X111316040Y29450171D01*
X111373543Y29539579D01*
X111449712Y29616011D01*
X111543439Y29675747D01*
X111579709Y29692559D01*
X111613151Y29704172D01*
X111649119Y29710720D01*
X111695564Y29713614D01*
X111760435Y29714265D01*
X111809834Y29713905D01*
X111861953Y29711548D01*
X111901355Y29705845D01*
X111936004Y29695486D01*
X111973863Y29679162D01*
X112069545Y29620787D01*
X112150389Y29542278D01*
X112211491Y29447428D01*
X112239709Y29375834D01*
X112260281Y29267865D01*
X112258264Y29157588D01*
X112233939Y29050752D01*
X112187581Y28953106D01*
X112178599Y28939631D01*
X112140285Y28891940D01*
X112094750Y28845475D01*
X112049239Y28807173D01*
X112010997Y28783974D01*
X112001242Y28779400D01*
X111982727Y28763811D01*
X111969729Y28736614D01*
X111958107Y28690489D01*
X111957403Y28687117D01*
X111947996Y28610534D01*
X111951357Y28528880D01*
X111968119Y28436532D01*
X111998914Y28327867D01*
X112033378Y28229958D01*
X112103049Y28068521D01*
X112186525Y27909930D01*
X112281093Y27758091D01*
X112384038Y27616907D01*
X112492647Y27490284D01*
X112604204Y27382124D01*
X112715997Y27296334D01*
X112780909Y27253467D01*
X112828152Y27281865D01*
X112851958Y27296060D01*
X113073030Y27416414D01*
X113292956Y27514425D01*
X113516224Y27591445D01*
X113747321Y27648822D01*
X113990735Y27687909D01*
X114250954Y27710055D01*
X114425785Y27719199D01*
X114425785Y27822108D01*
X114429238Y27922503D01*
X114446891Y28087843D01*
X114478777Y28268121D01*
X114524070Y28459537D01*
X114581946Y28658294D01*
X114651577Y28860593D01*
X114703250Y28999884D01*
X114680087Y29060192D01*
X114671669Y29086608D01*
X114659344Y29162109D01*
X114657813Y29246741D01*
X114666883Y29330052D01*
X114686362Y29401594D01*
X114730461Y29488584D01*
X114800646Y29576992D01*
X114887610Y29647182D01*
X114988340Y29696211D01*
X114989931Y29696766D01*
X115080460Y29716833D01*
X115180017Y29720195D01*
X115278421Y29707325D01*
X115365494Y29678696D01*
X115394059Y29664119D01*
X115479529Y29604801D01*
X115552858Y29530306D01*
X115606945Y29447434D01*
X115608176Y29444944D01*
X115627039Y29402155D01*
X115638984Y29360914D01*
X115646002Y29311915D01*
X115650085Y29245850D01*
X115650189Y29243368D01*
X115651664Y29177953D01*
X115649033Y29129328D01*
X115641253Y29088359D01*
X115627283Y29045915D01*
X115583148Y28956231D01*
X115513376Y28868211D01*
X115425120Y28797989D01*
X115320441Y28747570D01*
X115258099Y28725428D01*
X115213018Y28599690D01*
X115171244Y28477854D01*
X115113707Y28283232D01*
X115074089Y28106744D01*
X115052252Y27947737D01*
X115048060Y27805554D01*
X115049985Y27759234D01*
X115053010Y27708625D01*
X115056265Y27672942D01*
X115059314Y27657912D01*
X115059487Y27657768D01*
X115075344Y27652341D01*
X115111527Y27642735D01*
X115162835Y27630263D01*
X115224071Y27616241D01*
X115384921Y27575998D01*
X115661775Y27486054D01*
X115936100Y27370806D01*
X116206333Y27230942D01*
X116470913Y27067150D01*
X116522658Y27031798D01*
X116748493Y26862356D01*
X116952709Y26683063D01*
X117134577Y26494803D01*
X117293367Y26298461D01*
X117428350Y26094919D01*
X117538797Y25885062D01*
X117623978Y25669774D01*
X117631623Y25646637D01*
X117649989Y25589305D01*
X117665568Y25536436D01*
X117678786Y25484947D01*
X117690068Y25431758D01*
X117699840Y25373788D01*
X117708528Y25307955D01*
X117716557Y25231179D01*
X117724352Y25140378D01*
X117732339Y25032472D01*
X117740944Y24904379D01*
X117750592Y24753018D01*
X117754702Y24693498D01*
X117764426Y24590805D01*
X117777054Y24506239D01*
X117793736Y24434301D01*
X117815620Y24369488D01*
X117843854Y24306301D01*
X117846762Y24300458D01*
X117881312Y24236610D01*
X117917625Y24182446D01*
X117960001Y24133540D01*
X118012740Y24085463D01*
X118080144Y24033788D01*
X118166513Y23974085D01*
X118193769Y23955699D01*
X118328977Y23861337D01*
X118470493Y23757882D01*
X118614210Y23648618D01*
X118756023Y23536828D01*
X118891825Y23425796D01*
X119017509Y23318805D01*
X119128968Y23219138D01*
X119222097Y23130079D01*
X119281357Y23068944D01*
X119412938Y22916173D01*
X119519190Y22764620D01*
X119600749Y22612987D01*
X119658249Y22459973D01*
X119692326Y22304280D01*
X119703443Y22147044D01*
X119703615Y22144608D01*
G37*
G36*
X58819581Y27012166D02*
G01*
X58879432Y26843993D01*
X58930984Y26680622D01*
X58972132Y26527268D01*
X59000771Y26389145D01*
X59001722Y26383037D01*
X59006980Y26325874D01*
X59010344Y26242810D01*
X59011875Y26137161D01*
X59011633Y26012245D01*
X59009679Y25871376D01*
X59006071Y25717871D01*
X59000872Y25555047D01*
X58994140Y25386220D01*
X58985937Y25214706D01*
X58976322Y25043822D01*
X58951563Y24636482D01*
X59008645Y24589719D01*
X59041319Y24562286D01*
X59095264Y24515956D01*
X59164680Y24455687D01*
X59246045Y24384580D01*
X59335840Y24305731D01*
X59430544Y24222238D01*
X59526639Y24137200D01*
X59620602Y24053713D01*
X59708915Y23974877D01*
X59788056Y23903789D01*
X59873979Y23825289D01*
X59975250Y23730599D01*
X60078749Y23631830D01*
X60181454Y23532005D01*
X60280341Y23434149D01*
X60305231Y23409038D01*
X60372386Y23341285D01*
X60454566Y23256436D01*
X60523856Y23182627D01*
X60577233Y23122880D01*
X60611672Y23080220D01*
X60619155Y23069802D01*
X60652489Y23020093D01*
X60678932Y22972247D01*
X60700801Y22920012D01*
X60720417Y22857133D01*
X60740098Y22777358D01*
X60762163Y22674432D01*
X60775314Y22609910D01*
X60795662Y22504593D01*
X60810380Y22417112D01*
X60820334Y22340162D01*
X60826388Y22266438D01*
X60829409Y22188635D01*
X60830261Y22099448D01*
X60827440Y21985763D01*
X60803578Y21766821D01*
X60754703Y21562204D01*
X60679960Y21369464D01*
X60578492Y21186148D01*
X60449442Y21009808D01*
X60432779Y20989932D01*
X60303649Y20853252D01*
X60147579Y20713749D01*
X59966765Y20572743D01*
X59763403Y20431551D01*
X59539688Y20291493D01*
X59297817Y20153887D01*
X59039985Y20020052D01*
X58768388Y19891308D01*
X58485222Y19768972D01*
X58192682Y19654364D01*
X58173275Y19647173D01*
X57812392Y19523734D01*
X57438485Y19414248D01*
X57058268Y19320236D01*
X56678455Y19243215D01*
X56305762Y19184707D01*
X55946903Y19146230D01*
X55937659Y19145491D01*
X55856727Y19139001D01*
X55781238Y19132917D01*
X55719271Y19127894D01*
X55678908Y19124583D01*
X55650101Y19122902D01*
X55582257Y19121241D01*
X55492251Y19120790D01*
X55384769Y19121439D01*
X55264495Y19123080D01*
X55136116Y19125603D01*
X55004317Y19128899D01*
X54873786Y19132857D01*
X54749206Y19137368D01*
X54635265Y19142322D01*
X54536648Y19147611D01*
X54458041Y19153125D01*
X54061399Y19191293D01*
X53643286Y19242303D01*
X53227809Y19303733D01*
X52817655Y19374934D01*
X52415512Y19455257D01*
X52024068Y19544051D01*
X51646013Y19640667D01*
X51284034Y19744455D01*
X50940819Y19854765D01*
X50619057Y19970948D01*
X50321436Y20092354D01*
X50050644Y20218333D01*
X49961701Y20263690D01*
X49802887Y20351044D01*
X49666786Y20436196D01*
X49549236Y20522330D01*
X49446074Y20612631D01*
X49353138Y20710283D01*
X49266266Y20818472D01*
X49244717Y20847812D01*
X49096292Y21071752D01*
X48958570Y21317775D01*
X48834128Y21580037D01*
X48725544Y21852696D01*
X48635393Y22129908D01*
X48566253Y22405829D01*
X48564031Y22416406D01*
X48548204Y22497967D01*
X48537420Y22570487D01*
X48530766Y22643662D01*
X48527326Y22727188D01*
X48526187Y22830763D01*
X48526322Y22916064D01*
X48527726Y22987765D01*
X48531048Y23041552D01*
X48536910Y23083655D01*
X48545931Y23120305D01*
X48558731Y23157730D01*
X48578030Y23204154D01*
X48618646Y23280793D01*
X48672093Y23360259D01*
X48739955Y23444119D01*
X48823816Y23533941D01*
X48925261Y23631292D01*
X49022280Y23716917D01*
X50647721Y23716917D01*
X50735117Y23600934D01*
X50798690Y23521611D01*
X50951344Y23361146D01*
X51129132Y23208402D01*
X51329213Y23065159D01*
X51548745Y22933199D01*
X51784886Y22814301D01*
X52034797Y22710248D01*
X52295635Y22622819D01*
X52555396Y22551206D01*
X52893688Y22471693D01*
X53257484Y22400313D01*
X53647611Y22336923D01*
X54064892Y22281376D01*
X54510151Y22233529D01*
X54533931Y22231438D01*
X54618626Y22225810D01*
X54725196Y22220695D01*
X54849337Y22216147D01*
X54986748Y22212219D01*
X55133127Y22208964D01*
X55284170Y22206437D01*
X55435575Y22204690D01*
X55583040Y22203777D01*
X55722263Y22203753D01*
X55848940Y22204670D01*
X55958770Y22206582D01*
X56047451Y22209542D01*
X56110678Y22213605D01*
X56248934Y22227950D01*
X56436424Y22252823D01*
X56603977Y22282721D01*
X56757421Y22318900D01*
X56902585Y22362618D01*
X57045297Y22415131D01*
X57280212Y22513374D01*
X57513830Y22620534D01*
X57730154Y22729840D01*
X57926761Y22839930D01*
X58101227Y22949443D01*
X58251129Y23057020D01*
X58374043Y23161298D01*
X58446918Y23234284D01*
X58498481Y23297880D01*
X58529197Y23354680D01*
X58541408Y23409038D01*
X58537454Y23465309D01*
X58506170Y23586449D01*
X58452997Y23725886D01*
X58377856Y23880411D01*
X58347722Y23937258D01*
X58312831Y24003152D01*
X58283379Y24058849D01*
X58263626Y24096296D01*
X58263291Y24096934D01*
X58253810Y24116399D01*
X58246253Y24136891D01*
X58240636Y24161278D01*
X58236969Y24192427D01*
X58235268Y24233206D01*
X58235546Y24286484D01*
X58237814Y24355128D01*
X58242088Y24442007D01*
X58248379Y24549988D01*
X58256702Y24681939D01*
X58267069Y24840728D01*
X58269529Y24878343D01*
X58283949Y25109470D01*
X58296183Y25324990D01*
X58306172Y25523148D01*
X58313856Y25702186D01*
X58319173Y25860349D01*
X58322063Y25995879D01*
X58322466Y26107021D01*
X58320321Y26192019D01*
X58315568Y26249115D01*
X58308269Y26296099D01*
X58295521Y26364024D01*
X58282455Y26419647D01*
X58270482Y26457230D01*
X58261014Y26471033D01*
X58259609Y26470719D01*
X58239028Y26461976D01*
X58200404Y26443664D01*
X58150695Y26419061D01*
X58025391Y26360282D01*
X57835377Y26283323D01*
X57623118Y26209103D01*
X57392914Y26138829D01*
X57149067Y26073710D01*
X56895878Y26014952D01*
X56637646Y25963765D01*
X56378674Y25921356D01*
X56041220Y25879090D01*
X55582108Y25844006D01*
X55127988Y25835081D01*
X54680184Y25852054D01*
X54240021Y25894663D01*
X53808823Y25962645D01*
X53387913Y26055740D01*
X52978615Y26173685D01*
X52582255Y26316219D01*
X52200156Y26483080D01*
X51833642Y26674007D01*
X51484037Y26888737D01*
X51479046Y26892054D01*
X51421535Y26929989D01*
X51374619Y26960432D01*
X51343012Y26980355D01*
X51331429Y26986731D01*
X51331427Y26986691D01*
X51328709Y26970963D01*
X51321406Y26930683D01*
X51310362Y26870451D01*
X51296421Y26794868D01*
X51280425Y26708532D01*
X51271774Y26661170D01*
X51252793Y26553627D01*
X51231522Y26429353D01*
X51209356Y26296660D01*
X51187693Y26163860D01*
X51167930Y26039262D01*
X51162489Y26005367D01*
X51145947Y25909576D01*
X51124953Y25795522D01*
X51100112Y25665996D01*
X51072026Y25523792D01*
X51041300Y25371702D01*
X51008537Y25212517D01*
X50974341Y25049030D01*
X50939316Y24884033D01*
X50904066Y24720318D01*
X50869193Y24560678D01*
X50835303Y24407905D01*
X50802998Y24264791D01*
X50772883Y24134129D01*
X50745560Y24018709D01*
X50721634Y23921326D01*
X50701709Y23844770D01*
X50686388Y23791835D01*
X50676275Y23765312D01*
X50647721Y23716917D01*
X49022280Y23716917D01*
X49045874Y23737740D01*
X49187239Y23854854D01*
X49350941Y23984200D01*
X49538563Y24127347D01*
X49560270Y24143664D01*
X49672137Y24227029D01*
X49764197Y24293985D01*
X49839413Y24346364D01*
X49900751Y24385997D01*
X49951172Y24414718D01*
X49993641Y24434357D01*
X50031122Y24446746D01*
X50066577Y24453717D01*
X50092950Y24458074D01*
X50127011Y24466729D01*
X50140338Y24474833D01*
X50142026Y24484174D01*
X50149439Y24519982D01*
X50162162Y24579690D01*
X50179548Y24660313D01*
X50200950Y24758867D01*
X50225721Y24872365D01*
X50253215Y24997824D01*
X50282785Y25132258D01*
X50292317Y25175740D01*
X50324938Y25327781D01*
X50357178Y25482656D01*
X50387993Y25635056D01*
X50416337Y25779670D01*
X50441163Y25911190D01*
X50461426Y26024305D01*
X50476081Y26113706D01*
X50492195Y26218485D01*
X50537937Y26501327D01*
X50584079Y26765754D01*
X50630308Y27010356D01*
X50676310Y27233721D01*
X50721770Y27434438D01*
X50766375Y27611097D01*
X50793544Y27705664D01*
X51537061Y27705664D01*
X51602997Y27655317D01*
X51608710Y27651009D01*
X51650085Y27621147D01*
X51708075Y27580673D01*
X51775791Y27534355D01*
X51846342Y27486959D01*
X52149591Y27298896D01*
X52494766Y27116105D01*
X52853179Y26958176D01*
X53226027Y26824686D01*
X53614507Y26715209D01*
X54019817Y26629322D01*
X54443152Y26566600D01*
X54481272Y26562835D01*
X54560005Y26557310D01*
X54659323Y26552130D01*
X54774193Y26547405D01*
X54899583Y26543250D01*
X55030461Y26539777D01*
X55161793Y26537099D01*
X55288546Y26535329D01*
X55405690Y26534579D01*
X55508190Y26534962D01*
X55591015Y26536591D01*
X55649131Y26539579D01*
X55916559Y26564925D01*
X56237987Y26604299D01*
X56538122Y26652039D01*
X56821276Y26708936D01*
X57091758Y26775785D01*
X57353879Y26853378D01*
X57379740Y26861792D01*
X57489537Y26899790D01*
X57601395Y26941731D01*
X57710241Y26985453D01*
X57811003Y27028792D01*
X57898608Y27069585D01*
X57967983Y27105670D01*
X58014058Y27134884D01*
X58013121Y27142297D01*
X58000728Y27169799D01*
X57978677Y27211103D01*
X57950841Y27259533D01*
X57921091Y27308416D01*
X57893300Y27351080D01*
X57871341Y27380849D01*
X57858321Y27393845D01*
X57815034Y27427649D01*
X57750671Y27471456D01*
X57668910Y27523153D01*
X57573432Y27580625D01*
X57467913Y27641759D01*
X57356033Y27704441D01*
X57241471Y27766557D01*
X57127905Y27825994D01*
X57019014Y27880636D01*
X56918476Y27928372D01*
X56748800Y28003083D01*
X56403706Y28136205D01*
X56056598Y28244399D01*
X55705369Y28327901D01*
X55347914Y28386948D01*
X54982125Y28421776D01*
X54605896Y28432621D01*
X54217120Y28419719D01*
X53813692Y28383307D01*
X53393504Y28323620D01*
X53358652Y28317740D01*
X53128678Y28274292D01*
X52899026Y28223240D01*
X52673371Y28165760D01*
X52455389Y28103031D01*
X52248754Y28036229D01*
X52057142Y27966533D01*
X51884226Y27895119D01*
X51733683Y27823167D01*
X51609186Y27751852D01*
X51537061Y27705664D01*
X50793544Y27705664D01*
X50809811Y27762286D01*
X50851764Y27886595D01*
X50891919Y27982613D01*
X50934660Y28061291D01*
X51000465Y28150793D01*
X51083169Y28231258D01*
X51189022Y28309564D01*
X51205466Y28320387D01*
X51383091Y28424946D01*
X51587115Y28525249D01*
X51814649Y28620514D01*
X52062802Y28709957D01*
X52328685Y28792796D01*
X52609407Y28868248D01*
X52902077Y28935530D01*
X53203807Y28993859D01*
X53511705Y29042453D01*
X53822882Y29080529D01*
X54134447Y29107304D01*
X54203074Y29111182D01*
X54328274Y29115624D01*
X54468187Y29118023D01*
X54617254Y29118474D01*
X54769919Y29117073D01*
X54920623Y29113916D01*
X55063809Y29109099D01*
X55193919Y29102716D01*
X55305394Y29094865D01*
X55392677Y29085640D01*
X55502050Y29070053D01*
X55866645Y29004966D01*
X56220817Y28920449D01*
X56568251Y28815177D01*
X56912633Y28687821D01*
X57257647Y28537058D01*
X57606979Y28361559D01*
X57964313Y28159998D01*
X58006044Y28135211D01*
X58103078Y28076963D01*
X58179737Y28029333D01*
X58239987Y27989221D01*
X58287793Y27953527D01*
X58327123Y27919151D01*
X58361941Y27882994D01*
X58396213Y27841954D01*
X58433905Y27792933D01*
X58469545Y27742552D01*
X58539304Y27628587D01*
X58611292Y27493351D01*
X58683405Y27342060D01*
X58753536Y27179926D01*
X58771268Y27134884D01*
X58819581Y27012166D01*
G37*
G36*
X123367005Y55544710D02*
G01*
X123349883Y55477243D01*
X123323638Y55428736D01*
X123272014Y55367129D01*
X123212004Y55322917D01*
X123195920Y55315778D01*
X123154737Y55298267D01*
X123090333Y55271197D01*
X123004340Y55235245D01*
X122898391Y55191089D01*
X122774117Y55139406D01*
X122633150Y55080875D01*
X122477122Y55016172D01*
X122307665Y54945976D01*
X122126411Y54870963D01*
X121934991Y54791811D01*
X121735038Y54709198D01*
X121528184Y54623801D01*
X121343154Y54547443D01*
X121140243Y54463702D01*
X120944880Y54383072D01*
X120758777Y54306260D01*
X120583648Y54233973D01*
X120421202Y54166917D01*
X120273154Y54105800D01*
X120141214Y54051328D01*
X120027096Y54004209D01*
X119932510Y53965148D01*
X119859170Y53934852D01*
X119808787Y53914029D01*
X119783074Y53903385D01*
X119683035Y53861844D01*
X119683186Y53151837D01*
X119683111Y53079370D01*
X119683005Y52976752D01*
X119682203Y52811561D01*
X119680600Y52668602D01*
X119678021Y52544601D01*
X119674290Y52436279D01*
X119669231Y52340360D01*
X119662670Y52253567D01*
X119654431Y52172624D01*
X119644339Y52094253D01*
X119632217Y52015177D01*
X119617891Y51932120D01*
X119605706Y51868979D01*
X119566145Y51707271D01*
X119518223Y51563049D01*
X119463240Y51439880D01*
X119402498Y51341333D01*
X119347202Y51267526D01*
X119276857Y51174946D01*
X119203182Y51079133D01*
X119130246Y50985318D01*
X119062119Y50898729D01*
X119002867Y50824596D01*
X118956559Y50768148D01*
X118825157Y50620204D01*
X118602071Y50403414D01*
X118361852Y50209066D01*
X118105348Y50037604D01*
X117833407Y49889471D01*
X117546876Y49765111D01*
X117246604Y49664968D01*
X116933437Y49589485D01*
X116608224Y49539106D01*
X116578095Y49535662D01*
X116515339Y49528403D01*
X116462922Y49522230D01*
X116429853Y49518201D01*
X116427331Y49517999D01*
X116400176Y49517267D01*
X116347055Y49516632D01*
X116270015Y49516096D01*
X116171107Y49515663D01*
X116052379Y49515337D01*
X115915881Y49515121D01*
X115763662Y49515019D01*
X115597771Y49515034D01*
X115420258Y49515170D01*
X115233172Y49515430D01*
X115038561Y49515818D01*
X114988637Y49515934D01*
X114761516Y49516530D01*
X114560586Y49517197D01*
X114383900Y49517970D01*
X114229509Y49518883D01*
X114095465Y49519970D01*
X113979818Y49521266D01*
X113880622Y49522805D01*
X113795926Y49524622D01*
X113723784Y49526751D01*
X113662245Y49529227D01*
X113609363Y49532083D01*
X113563188Y49535355D01*
X113521773Y49539076D01*
X113483168Y49543281D01*
X113460695Y49545979D01*
X113218280Y49582481D01*
X113000290Y49630457D01*
X112804588Y49691308D01*
X112629037Y49766437D01*
X112471499Y49857245D01*
X112329839Y49965135D01*
X112201918Y50091509D01*
X112085601Y50237768D01*
X111978749Y50405314D01*
X111879226Y50595550D01*
X111848777Y50661150D01*
X111756195Y50886997D01*
X111672025Y51135439D01*
X111595725Y51408185D01*
X111526752Y51706943D01*
X111526282Y51709193D01*
X111516027Y51761526D01*
X111508336Y51810572D01*
X111502883Y51861634D01*
X111499342Y51920015D01*
X111498332Y51956662D01*
X112152687Y51956662D01*
X112197428Y51758859D01*
X112209652Y51705725D01*
X112276790Y51443488D01*
X112349034Y51208932D01*
X112426515Y51001701D01*
X112509363Y50821437D01*
X112597709Y50667784D01*
X112624499Y50628451D01*
X112699996Y50536208D01*
X112786290Y50456959D01*
X112885843Y50389614D01*
X113001118Y50333081D01*
X113134576Y50286269D01*
X113288680Y50248087D01*
X113465892Y50217444D01*
X113668674Y50193251D01*
X113669402Y50193180D01*
X113712735Y50190401D01*
X113781740Y50187763D01*
X113873706Y50185279D01*
X113985924Y50182959D01*
X114115682Y50180818D01*
X114260271Y50178867D01*
X114416979Y50177119D01*
X114583097Y50175585D01*
X114755914Y50174280D01*
X114932720Y50173214D01*
X115110803Y50172401D01*
X115287455Y50171853D01*
X115459963Y50171582D01*
X115625619Y50171601D01*
X115781710Y50171922D01*
X115925528Y50172557D01*
X116054361Y50173520D01*
X116165499Y50174822D01*
X116256232Y50176475D01*
X116323849Y50178493D01*
X116365640Y50180888D01*
X116458361Y50190422D01*
X116763610Y50236561D01*
X117050152Y50303837D01*
X117318747Y50392614D01*
X117570152Y50503258D01*
X117805126Y50636136D01*
X118024426Y50791614D01*
X118228810Y50970057D01*
X118419038Y51171831D01*
X118458385Y51218583D01*
X118514238Y51287030D01*
X118575693Y51364067D01*
X118639371Y51445308D01*
X118701894Y51526367D01*
X118759885Y51602858D01*
X118809964Y51670396D01*
X118848755Y51724594D01*
X118872879Y51761068D01*
X118885772Y51785502D01*
X118913399Y51856622D01*
X118939840Y51949119D01*
X118963798Y52058108D01*
X118983972Y52178709D01*
X118984374Y52181541D01*
X118994518Y52269885D01*
X119003691Y52380917D01*
X119011696Y52509006D01*
X119018335Y52648525D01*
X119023410Y52793844D01*
X119026723Y52939335D01*
X119028076Y53079370D01*
X119027271Y53208319D01*
X119024110Y53320554D01*
X119012662Y53585682D01*
X116686707Y52625271D01*
X116453932Y52529164D01*
X116182897Y52417296D01*
X115936104Y52315492D01*
X115712365Y52223280D01*
X115510490Y52140186D01*
X115329293Y52065737D01*
X115167585Y51999461D01*
X115024177Y51940885D01*
X114897883Y51889536D01*
X114787513Y51844941D01*
X114691881Y51806627D01*
X114609796Y51774122D01*
X114540073Y51746952D01*
X114481522Y51724645D01*
X114432955Y51706727D01*
X114393185Y51692727D01*
X114361022Y51682170D01*
X114335280Y51674584D01*
X114314770Y51669497D01*
X114298304Y51666435D01*
X114284694Y51664926D01*
X114272752Y51664497D01*
X114270188Y51664479D01*
X114252827Y51664134D01*
X114237273Y51664037D01*
X114221876Y51665075D01*
X114204984Y51668135D01*
X114184945Y51674103D01*
X114160108Y51683868D01*
X114128822Y51698316D01*
X114089434Y51718335D01*
X114040293Y51744810D01*
X113979748Y51778629D01*
X113906148Y51820680D01*
X113817840Y51871849D01*
X113713173Y51933023D01*
X113590496Y52005089D01*
X113448157Y52088935D01*
X113284504Y52185447D01*
X113097887Y52295513D01*
X112191764Y52829825D01*
X112182172Y52771390D01*
X112179594Y52746488D01*
X112176260Y52695234D01*
X112172695Y52623926D01*
X112169101Y52537076D01*
X112165680Y52439199D01*
X112162633Y52334808D01*
X112152687Y51956662D01*
X111498332Y51956662D01*
X111497386Y51991020D01*
X111496689Y52079951D01*
X111496926Y52192112D01*
X111496949Y52196510D01*
X111498613Y52319572D01*
X111502133Y52459528D01*
X111507130Y52605263D01*
X111513225Y52745664D01*
X111520038Y52869615D01*
X111522717Y52912794D01*
X111528658Y53016095D01*
X111532276Y53094850D01*
X111533604Y53151930D01*
X111532677Y53190207D01*
X111529527Y53212556D01*
X111524190Y53221847D01*
X111515881Y53226727D01*
X111484819Y53245036D01*
X111433553Y53275283D01*
X111364667Y53315942D01*
X111280743Y53365489D01*
X111184364Y53422399D01*
X111078113Y53485148D01*
X110964573Y53552210D01*
X110875994Y53604495D01*
X110761209Y53672035D01*
X110667359Y53726836D01*
X110592291Y53770026D01*
X110533853Y53802735D01*
X110489891Y53826092D01*
X110458254Y53841225D01*
X110436788Y53849265D01*
X110423342Y53851340D01*
X110415763Y53848580D01*
X110411898Y53842113D01*
X110405145Y53818526D01*
X110392509Y53762944D01*
X110377202Y53686042D01*
X110359895Y53591956D01*
X110341257Y53484824D01*
X110321958Y53368785D01*
X110302667Y53247975D01*
X110284056Y53126532D01*
X110266792Y53008594D01*
X110251548Y52898298D01*
X110238991Y52799782D01*
X110229792Y52717184D01*
X110223783Y52622518D01*
X110229045Y52496659D01*
X110252100Y52378775D01*
X110294557Y52264850D01*
X110358027Y52150864D01*
X110444119Y52032799D01*
X110554441Y51906638D01*
X110615020Y51840147D01*
X110660925Y51784135D01*
X110691573Y51736860D01*
X110709864Y51692854D01*
X110718699Y51646652D01*
X110720980Y51592786D01*
X110720842Y51582307D01*
X110705751Y51485500D01*
X110667039Y51402009D01*
X110606577Y51334777D01*
X110526239Y51286745D01*
X110474131Y51272084D01*
X110396494Y51265545D01*
X110317688Y51272001D01*
X110251089Y51291233D01*
X110224962Y51307211D01*
X110178672Y51344431D01*
X110122399Y51396215D01*
X110060512Y51458153D01*
X109997377Y51525840D01*
X109937364Y51594866D01*
X109884840Y51660823D01*
X109819129Y51748237D01*
X109810362Y51704402D01*
X109804504Y51663069D01*
X109801595Y51613825D01*
X109799672Y51578044D01*
X109791597Y51510979D01*
X109778617Y51430113D01*
X109762253Y51343365D01*
X109744026Y51258659D01*
X109725461Y51183916D01*
X109708077Y51127056D01*
X109690421Y51081595D01*
X109643128Y50990412D01*
X109587105Y50923410D01*
X109519627Y50877806D01*
X109437972Y50850816D01*
X109349539Y50843900D01*
X109256676Y50861624D01*
X109173330Y50904499D01*
X109117475Y50953488D01*
X109070880Y51022990D01*
X109042469Y51110629D01*
X109035551Y51148396D01*
X109033655Y51180987D01*
X109038073Y51215634D01*
X109049881Y51260616D01*
X109070150Y51324216D01*
X109086855Y51380433D01*
X109112992Y51494772D01*
X109130028Y51607881D01*
X109134367Y51649142D01*
X109141595Y51717571D01*
X109147854Y51776493D01*
X109152146Y51816468D01*
X109158622Y51876049D01*
X109098395Y51841369D01*
X109038078Y51812229D01*
X108943298Y51778739D01*
X108833551Y51749811D01*
X108716334Y51727099D01*
X108599144Y51712258D01*
X108489478Y51706943D01*
X108377588Y51712964D01*
X108281291Y51733314D01*
X108204567Y51769453D01*
X108144419Y51822819D01*
X108097846Y51894852D01*
X108076604Y51947888D01*
X108061731Y52039546D01*
X108072078Y52129310D01*
X108106108Y52212344D01*
X108162283Y52283815D01*
X108239067Y52338888D01*
X108244148Y52341480D01*
X108278114Y52355130D01*
X108318906Y52364055D01*
X108373752Y52369403D01*
X108449881Y52372319D01*
X108499360Y52373807D01*
X108558978Y52376558D01*
X108604318Y52379781D01*
X108628251Y52383048D01*
X108634720Y52384881D01*
X108669248Y52394236D01*
X108712518Y52405584D01*
X108744947Y52415984D01*
X108771465Y52434953D01*
X108786939Y52467079D01*
X108786952Y52467120D01*
X108798195Y52507010D01*
X108807760Y52552815D01*
X108815848Y52607361D01*
X108822662Y52673479D01*
X108828402Y52753995D01*
X108833271Y52851737D01*
X108837470Y52969534D01*
X108841201Y53110215D01*
X108844666Y53276606D01*
X108847159Y53407340D01*
X108849629Y53528063D01*
X108852001Y53626285D01*
X108854500Y53705183D01*
X108857348Y53767928D01*
X108860768Y53817696D01*
X108864982Y53857659D01*
X108870214Y53890993D01*
X108876685Y53920871D01*
X108884620Y53950467D01*
X108894240Y53982955D01*
X108899837Y54000900D01*
X108943728Y54117141D01*
X108947836Y54125887D01*
X109739567Y54125887D01*
X109759187Y54114277D01*
X109763914Y54113205D01*
X109784468Y54117601D01*
X109795712Y54144809D01*
X109802549Y54173952D01*
X109810536Y54203334D01*
X109810801Y54209565D01*
X109800283Y54206976D01*
X109781227Y54191626D01*
X109760142Y54169161D01*
X109743536Y54145223D01*
X109739567Y54125887D01*
X108947836Y54125887D01*
X109000798Y54238650D01*
X109065389Y54354241D01*
X109131846Y54452730D01*
X109158665Y54488051D01*
X109189940Y54529594D01*
X109208497Y54555302D01*
X109217153Y54569435D01*
X109218726Y54576254D01*
X109216034Y54580019D01*
X109215619Y54580314D01*
X109199117Y54590347D01*
X109159988Y54613655D01*
X109099961Y54649219D01*
X109020766Y54696021D01*
X108924132Y54753039D01*
X108811789Y54819256D01*
X108685467Y54893651D01*
X108546893Y54975206D01*
X108397799Y55062900D01*
X108239914Y55155714D01*
X108074966Y55252629D01*
X107944971Y55329058D01*
X107742642Y55448352D01*
X107563803Y55554276D01*
X107407641Y55647325D01*
X107273343Y55727994D01*
X107160095Y55796780D01*
X107067085Y55854177D01*
X106993499Y55900680D01*
X106938524Y55936785D01*
X106901347Y55962988D01*
X106881153Y55979783D01*
X106839779Y56031131D01*
X106823164Y56067822D01*
X108047143Y56067822D01*
X108053934Y56058886D01*
X108069366Y56045678D01*
X108095038Y56027186D01*
X108132551Y56002396D01*
X108183506Y55970298D01*
X108249503Y55929879D01*
X108332142Y55880126D01*
X108433023Y55820028D01*
X108553746Y55748572D01*
X108695913Y55664747D01*
X108861123Y55567539D01*
X108948782Y55515988D01*
X109087812Y55434199D01*
X109218834Y55357089D01*
X109339773Y55285881D01*
X109448554Y55221798D01*
X109543103Y55166062D01*
X109621346Y55119896D01*
X109681208Y55084522D01*
X109720614Y55061164D01*
X109737490Y55051044D01*
X109744079Y55047355D01*
X109761588Y55043498D01*
X109784930Y55049227D01*
X109820089Y55066603D01*
X109873051Y55097684D01*
X109934229Y55133182D01*
X110028543Y55184564D01*
X110136201Y55240528D01*
X110250008Y55297487D01*
X110362769Y55351851D01*
X110467288Y55400034D01*
X110556371Y55438446D01*
X110614516Y55462090D01*
X110719627Y55503582D01*
X110814877Y55538842D01*
X110905033Y55569139D01*
X110994860Y55595740D01*
X111089125Y55619914D01*
X111192595Y55642929D01*
X111310035Y55666053D01*
X111446212Y55690556D01*
X111605892Y55717703D01*
X111934882Y55772996D01*
X112247659Y55826352D01*
X112535197Y55876296D01*
X112799032Y55923115D01*
X113040697Y55967098D01*
X113261726Y56008532D01*
X113463653Y56047705D01*
X113648014Y56084905D01*
X113816341Y56120419D01*
X113970170Y56154535D01*
X114111033Y56187541D01*
X114179174Y56203865D01*
X114309778Y56234192D01*
X114419218Y56257868D01*
X114511826Y56275611D01*
X114591934Y56288135D01*
X114663874Y56296158D01*
X114731977Y56300395D01*
X114800577Y56301564D01*
X114892586Y56297411D01*
X115032566Y56273125D01*
X115155384Y56227625D01*
X115259992Y56161485D01*
X115345339Y56075275D01*
X115410374Y55969568D01*
X115442694Y55877727D01*
X115453952Y55780094D01*
X115441637Y55687650D01*
X115406383Y55604855D01*
X115348823Y55536169D01*
X115326016Y55517639D01*
X115261847Y55481549D01*
X115187713Y55463815D01*
X115096160Y55462259D01*
X115083597Y55463039D01*
X115025803Y55470057D01*
X114981997Y55484137D01*
X114939922Y55508944D01*
X114921810Y55522498D01*
X114883029Y55557803D01*
X114856803Y55590183D01*
X114856280Y55591063D01*
X114834893Y55620673D01*
X114816410Y55636634D01*
X114809812Y55638291D01*
X114771667Y55638739D01*
X114710033Y55632148D01*
X114627950Y55619042D01*
X114528457Y55599945D01*
X114414596Y55575379D01*
X114289404Y55545869D01*
X114195237Y55523185D01*
X114061621Y55492278D01*
X113920311Y55461089D01*
X113769254Y55429226D01*
X113606396Y55396299D01*
X113429682Y55361918D01*
X113237060Y55325691D01*
X113026476Y55287227D01*
X112795877Y55246136D01*
X112543208Y55202026D01*
X112266417Y55154508D01*
X111963449Y55103189D01*
X111871056Y55087590D01*
X111715944Y55061102D01*
X111583928Y55037937D01*
X111471680Y55017310D01*
X111375872Y54998439D01*
X111293178Y54980543D01*
X111220271Y54962838D01*
X111153824Y54944542D01*
X111090509Y54924873D01*
X111027000Y54903048D01*
X110959969Y54878284D01*
X110886089Y54849799D01*
X110847231Y54834509D01*
X110788800Y54810269D01*
X110748657Y54790505D01*
X110721162Y54771724D01*
X110700674Y54750433D01*
X110681554Y54723140D01*
X110657654Y54682754D01*
X110633464Y54635473D01*
X110614034Y54591405D01*
X110602510Y54557731D01*
X110602039Y54541633D01*
X110609437Y54536512D01*
X110640600Y54517064D01*
X110692146Y54485983D01*
X110761261Y54444900D01*
X110845135Y54395445D01*
X110940954Y54339247D01*
X111045906Y54277935D01*
X111157179Y54213141D01*
X111163338Y54209565D01*
X111271961Y54146493D01*
X111387440Y54079621D01*
X111500802Y54014155D01*
X111609237Y53951725D01*
X111709930Y53893960D01*
X111800071Y53842491D01*
X111876847Y53798946D01*
X111937446Y53764956D01*
X111979055Y53742151D01*
X111998861Y53732160D01*
X112012097Y53726669D01*
X112066659Y53697736D01*
X112114483Y53664378D01*
X112124134Y53657460D01*
X112158477Y53635321D01*
X112214342Y53600617D01*
X112289815Y53554498D01*
X112382982Y53498113D01*
X112491928Y53432613D01*
X112614741Y53359145D01*
X112749506Y53278861D01*
X112894309Y53192909D01*
X113047236Y53102439D01*
X113206374Y53008601D01*
X113310596Y52947252D01*
X113464844Y52856491D01*
X113611219Y52770404D01*
X113747862Y52690080D01*
X113872917Y52616611D01*
X113984526Y52551085D01*
X114080832Y52494595D01*
X114159978Y52448229D01*
X114220106Y52413079D01*
X114259359Y52390234D01*
X114275879Y52380784D01*
X114279173Y52380320D01*
X114289527Y52381982D01*
X114307084Y52386793D01*
X114332678Y52395091D01*
X114367141Y52407213D01*
X114411307Y52423498D01*
X114466009Y52444283D01*
X114532081Y52469907D01*
X114610355Y52500707D01*
X114701664Y52537021D01*
X114806843Y52579188D01*
X114926723Y52627545D01*
X115062139Y52682430D01*
X115213923Y52744182D01*
X115382909Y52813137D01*
X115569930Y52889634D01*
X115775819Y52974012D01*
X116001410Y53066607D01*
X116247534Y53167758D01*
X116515027Y53277803D01*
X116804720Y53397079D01*
X117117448Y53525925D01*
X117454043Y53664679D01*
X117815338Y53813678D01*
X118202167Y53973261D01*
X118512037Y54101127D01*
X118824186Y54229964D01*
X119128429Y54355566D01*
X119423738Y54477511D01*
X119709087Y54595372D01*
X119983450Y54708725D01*
X120245800Y54817146D01*
X120495111Y54920209D01*
X120730355Y55017490D01*
X120950507Y55108564D01*
X121154540Y55193006D01*
X121341427Y55270392D01*
X121510142Y55340297D01*
X121659658Y55402296D01*
X121788950Y55455964D01*
X121896989Y55500876D01*
X121982750Y55536608D01*
X122045207Y55562736D01*
X122083332Y55578833D01*
X122096099Y55584476D01*
X122096074Y55584492D01*
X122081619Y55589706D01*
X122041400Y55603846D01*
X121976582Y55626507D01*
X121888330Y55657283D01*
X121777809Y55695772D01*
X121646181Y55741568D01*
X121494613Y55794267D01*
X121324267Y55853464D01*
X121136310Y55918756D01*
X120931904Y55989738D01*
X120712215Y56066004D01*
X120478407Y56147152D01*
X120231644Y56232777D01*
X119973091Y56322473D01*
X119703911Y56415838D01*
X119425271Y56512465D01*
X119138333Y56611951D01*
X118844262Y56713892D01*
X115595497Y57839989D01*
X111845934Y56964458D01*
X111825732Y56959741D01*
X111504713Y56884776D01*
X111190799Y56811456D01*
X110885138Y56740052D01*
X110588879Y56670831D01*
X110303173Y56604064D01*
X110029167Y56540018D01*
X109768013Y56478964D01*
X109520859Y56421169D01*
X109288854Y56366902D01*
X109073148Y56316433D01*
X108874891Y56270031D01*
X108695231Y56227964D01*
X108535317Y56190501D01*
X108396300Y56157911D01*
X108279329Y56130464D01*
X108185553Y56108427D01*
X108116120Y56092071D01*
X108072182Y56081663D01*
X108054887Y56077473D01*
X108053082Y56076925D01*
X108047393Y56073498D01*
X108047143Y56067822D01*
X106823164Y56067822D01*
X106802043Y56114465D01*
X106790931Y56207373D01*
X106806657Y56308910D01*
X106809921Y56319339D01*
X106843882Y56382192D01*
X106897388Y56441384D01*
X106963033Y56489986D01*
X107033412Y56521071D01*
X107035715Y56521717D01*
X107070185Y56530640D01*
X107130329Y56545476D01*
X107214842Y56565924D01*
X107322421Y56591680D01*
X107451763Y56622442D01*
X107601562Y56657908D01*
X107770515Y56697774D01*
X107957318Y56741738D01*
X108160666Y56789497D01*
X108379257Y56840749D01*
X108611786Y56895190D01*
X108856948Y56952519D01*
X109113440Y57012433D01*
X109379958Y57074628D01*
X109655198Y57138803D01*
X109937856Y57204654D01*
X110226627Y57271880D01*
X110520209Y57340176D01*
X110817296Y57409241D01*
X111116585Y57478772D01*
X111416771Y57548467D01*
X111716552Y57618022D01*
X112014622Y57687134D01*
X112309678Y57755503D01*
X112600416Y57822823D01*
X112885532Y57888794D01*
X113163721Y57953112D01*
X113433680Y58015475D01*
X113694105Y58075579D01*
X113943691Y58133123D01*
X114181136Y58187804D01*
X114405134Y58239318D01*
X114614381Y58287364D01*
X114807575Y58331639D01*
X114983410Y58371839D01*
X115140583Y58407663D01*
X115277789Y58438807D01*
X115393726Y58464969D01*
X115487087Y58485847D01*
X115556571Y58501137D01*
X115600872Y58510537D01*
X115618687Y58513744D01*
X115619987Y58513705D01*
X115633511Y58511505D01*
X115656881Y58505723D01*
X115690909Y58496085D01*
X115736411Y58482313D01*
X115794201Y58464129D01*
X115865093Y58441258D01*
X115949902Y58413422D01*
X116049443Y58380343D01*
X116164529Y58341745D01*
X116295975Y58297350D01*
X116444596Y58246883D01*
X116611205Y58190064D01*
X116796618Y58126618D01*
X117001648Y58056267D01*
X117227111Y57978734D01*
X117473820Y57893742D01*
X117742590Y57801015D01*
X118034235Y57700274D01*
X118349570Y57591243D01*
X118689410Y57473645D01*
X119054567Y57347202D01*
X119445858Y57211638D01*
X119529874Y57182525D01*
X119905626Y57052340D01*
X120255554Y56931118D01*
X120580587Y56818512D01*
X120881654Y56714175D01*
X121159683Y56617759D01*
X121415604Y56528917D01*
X121650344Y56447301D01*
X121864834Y56372565D01*
X122060002Y56304360D01*
X122236776Y56242339D01*
X122396086Y56186155D01*
X122538860Y56135461D01*
X122666027Y56089908D01*
X122778516Y56049150D01*
X122877256Y56012839D01*
X122963176Y55980628D01*
X123037204Y55952169D01*
X123100269Y55927115D01*
X123153301Y55905119D01*
X123197227Y55885832D01*
X123232977Y55868909D01*
X123261480Y55854000D01*
X123283665Y55840760D01*
X123300459Y55828840D01*
X123312793Y55817893D01*
X123321594Y55807571D01*
X123327793Y55797528D01*
X123332317Y55787416D01*
X123336095Y55776887D01*
X123340056Y55765594D01*
X123345130Y55753189D01*
X123361492Y55701768D01*
X123370799Y55623986D01*
X123368908Y55584476D01*
X123367005Y55544710D01*
G37*
G36*
X119546995Y82294172D02*
G01*
X119655073Y82294161D01*
X119679644Y82293639D01*
X119758655Y82284323D01*
X119816549Y82265234D01*
X119855720Y82243781D01*
X119950612Y82190598D01*
X120064723Y82125461D01*
X120193038Y82051331D01*
X120330545Y81971168D01*
X120472231Y81887935D01*
X120613083Y81804590D01*
X120748087Y81724096D01*
X120872231Y81649414D01*
X120980501Y81583503D01*
X121067885Y81529326D01*
X121129369Y81489842D01*
X121149004Y81476695D01*
X121297348Y81370766D01*
X121429254Y81264793D01*
X121540709Y81162426D01*
X121627702Y81067317D01*
X121686220Y80983117D01*
X121704791Y80948205D01*
X121723080Y80904880D01*
X121733366Y80859720D01*
X121737893Y80801479D01*
X121738297Y80768470D01*
X121738904Y80718909D01*
X121738471Y80658422D01*
X121735255Y80593961D01*
X121726963Y80546006D01*
X121711351Y80503308D01*
X121686173Y80454615D01*
X121637432Y80379674D01*
X121570938Y80304184D01*
X121487555Y80232556D01*
X121385236Y80163877D01*
X121261931Y80097235D01*
X121115589Y80031717D01*
X120944163Y79966411D01*
X120745602Y79900404D01*
X120517856Y79832784D01*
X120258877Y79762639D01*
X119966616Y79689057D01*
X119852208Y79661612D01*
X119710730Y79628718D01*
X119569210Y79596770D01*
X119439166Y79568363D01*
X119332116Y79546091D01*
X119189447Y79518430D01*
X118926205Y79470943D01*
X118638020Y79422764D01*
X118331522Y79374825D01*
X118013337Y79328060D01*
X117690096Y79283401D01*
X117368426Y79241781D01*
X117054955Y79204134D01*
X116756313Y79171393D01*
X116479128Y79144490D01*
X116435189Y79140902D01*
X116294155Y79132629D01*
X116130819Y79126885D01*
X115954883Y79123950D01*
X115776045Y79124107D01*
X115736748Y79124511D01*
X115610036Y79126057D01*
X115510829Y79128119D01*
X115432743Y79131311D01*
X115369389Y79136249D01*
X115314381Y79143548D01*
X115261332Y79153821D01*
X115203855Y79167684D01*
X115135564Y79185751D01*
X115090192Y79198145D01*
X114941638Y79241162D01*
X114773408Y79293323D01*
X114583298Y79355372D01*
X114369106Y79428052D01*
X114128627Y79512107D01*
X113859659Y79608279D01*
X113559997Y79717313D01*
X113552738Y79719974D01*
X113245194Y79832479D01*
X112968612Y79933141D01*
X112720691Y80022644D01*
X112499130Y80101673D01*
X112301625Y80170911D01*
X112125877Y80231042D01*
X111969581Y80282752D01*
X111830437Y80326724D01*
X111706143Y80363643D01*
X111594397Y80394192D01*
X111492897Y80419056D01*
X111399341Y80438920D01*
X111311428Y80454467D01*
X111226854Y80466382D01*
X111143320Y80475350D01*
X111058521Y80482053D01*
X110970158Y80487178D01*
X110542431Y80519411D01*
X110093500Y80573995D01*
X109639966Y80648832D01*
X109192809Y80742109D01*
X108763010Y80852011D01*
X108715734Y80865544D01*
X108528519Y80925306D01*
X112704147Y80925306D01*
X112706188Y80913339D01*
X112728415Y80904538D01*
X112752692Y80896101D01*
X112806946Y80876659D01*
X112887728Y80847466D01*
X112991591Y80809774D01*
X113115086Y80764836D01*
X113254768Y80713906D01*
X113407187Y80658236D01*
X113568897Y80599080D01*
X113577789Y80595824D01*
X113865197Y80490995D01*
X114121959Y80398162D01*
X114350545Y80316473D01*
X114553427Y80245074D01*
X114733076Y80183114D01*
X114891962Y80129739D01*
X115032556Y80084099D01*
X115157331Y80045338D01*
X115268757Y80012606D01*
X115330769Y79995294D01*
X115412691Y79974514D01*
X115483942Y79960674D01*
X115556091Y79952130D01*
X115640703Y79947240D01*
X115749345Y79944362D01*
X115779495Y79943830D01*
X115875916Y79942822D01*
X115962053Y79942911D01*
X116029472Y79944048D01*
X116069738Y79946185D01*
X116076271Y79946869D01*
X116123843Y79951238D01*
X116196286Y79957359D01*
X116284961Y79964515D01*
X116381230Y79971990D01*
X116512443Y79982826D01*
X116754874Y80006274D01*
X117021570Y80035678D01*
X117305944Y80070109D01*
X117601407Y80108642D01*
X117901369Y80150348D01*
X118199242Y80194301D01*
X118488436Y80239572D01*
X118762364Y80285236D01*
X119014436Y80330364D01*
X119238063Y80374030D01*
X119340997Y80395932D01*
X119477987Y80426831D01*
X119623798Y80461316D01*
X119774478Y80498320D01*
X119926074Y80536775D01*
X120074636Y80575612D01*
X120216210Y80613763D01*
X120346846Y80650161D01*
X120462590Y80683738D01*
X120559492Y80713425D01*
X120633598Y80738155D01*
X120680957Y80756859D01*
X120697618Y80768470D01*
X120684849Y80781361D01*
X120643013Y80810883D01*
X120574095Y80855289D01*
X120480191Y80913302D01*
X120363398Y80983646D01*
X120225812Y81065047D01*
X120069529Y81156226D01*
X119896647Y81255910D01*
X119513956Y81475391D01*
X119461263Y81426839D01*
X119402688Y81383598D01*
X119300475Y81341538D01*
X119187713Y81327281D01*
X119073517Y81342803D01*
X119058156Y81346823D01*
X119017462Y81351828D01*
X118979080Y81342130D01*
X118927376Y81314726D01*
X118909947Y81306415D01*
X118851819Y81285905D01*
X118762992Y81259616D01*
X118646241Y81228213D01*
X118504338Y81192358D01*
X118340060Y81152715D01*
X118156178Y81109947D01*
X117955468Y81064717D01*
X117740704Y81017688D01*
X117514660Y80969525D01*
X117280109Y80920889D01*
X117242702Y80913286D01*
X117065487Y80879151D01*
X116917064Y80854964D01*
X116792812Y80841062D01*
X116688108Y80837781D01*
X116598330Y80845455D01*
X116518856Y80864423D01*
X116445064Y80895019D01*
X116372333Y80937580D01*
X116296039Y80992442D01*
X116210848Y81057848D01*
X116133506Y81012522D01*
X116111728Y81000838D01*
X116071999Y80984662D01*
X116020747Y80970257D01*
X115951997Y80956289D01*
X115859776Y80941427D01*
X115738109Y80924336D01*
X115576157Y80902726D01*
X115396451Y80879523D01*
X115242842Y80860870D01*
X115110228Y80846298D01*
X114993505Y80835338D01*
X114887571Y80827522D01*
X114787323Y80822381D01*
X114687658Y80819446D01*
X114583473Y80818247D01*
X114553471Y80818116D01*
X114446588Y80817930D01*
X114367369Y80818890D01*
X114309397Y80821730D01*
X114266255Y80827188D01*
X114231525Y80835999D01*
X114198791Y80848899D01*
X114161634Y80866624D01*
X114147970Y80873593D01*
X114048885Y80944139D01*
X113977471Y81035039D01*
X113936191Y81143270D01*
X113935687Y81145620D01*
X113926932Y81197378D01*
X113916620Y81274000D01*
X113905998Y81365537D01*
X113896309Y81462041D01*
X113874597Y81697886D01*
X113757346Y81697725D01*
X113744628Y81697646D01*
X113680271Y81696247D01*
X113596474Y81693355D01*
X113499352Y81689294D01*
X113395015Y81684388D01*
X113289576Y81678962D01*
X113189148Y81673340D01*
X113099841Y81667847D01*
X113027769Y81662807D01*
X112979043Y81658544D01*
X112959775Y81655384D01*
X112958829Y81653187D01*
X112952840Y81625090D01*
X112943471Y81570246D01*
X112931810Y81495272D01*
X112918943Y81406784D01*
X112918775Y81405662D01*
X112907691Y81331627D01*
X112887116Y81221861D01*
X112863734Y81137515D01*
X112835041Y81072078D01*
X112798536Y81019040D01*
X112751713Y80971893D01*
X112724898Y80947970D01*
X112704147Y80925306D01*
X108528519Y80925306D01*
X108480175Y80940738D01*
X108277689Y81020236D01*
X108106223Y81105542D01*
X107963720Y81198159D01*
X107848123Y81299590D01*
X107757379Y81411340D01*
X107689431Y81534911D01*
X107642222Y81671809D01*
X107624670Y81764592D01*
X107619937Y81907700D01*
X108452769Y81907700D01*
X108452770Y81899847D01*
X108458169Y81875609D01*
X108476952Y81854245D01*
X108515592Y81830190D01*
X108580565Y81797881D01*
X108665908Y81760809D01*
X108811154Y81707980D01*
X108984836Y81654071D01*
X109182876Y81600174D01*
X109401195Y81547381D01*
X109635717Y81496783D01*
X109882362Y81449471D01*
X109962220Y81435129D01*
X110051456Y81419245D01*
X110123269Y81406625D01*
X110171791Y81398298D01*
X110191153Y81395293D01*
X110193706Y81405662D01*
X110193315Y81442806D01*
X110189098Y81497641D01*
X110188328Y81505422D01*
X110181741Y81577660D01*
X110174392Y81665719D01*
X110167732Y81752301D01*
X110156639Y81904614D01*
X109679319Y82020437D01*
X109202000Y82136259D01*
X109142701Y82046686D01*
X109110089Y82003108D01*
X109023821Y81927199D01*
X108920064Y81882277D01*
X108799077Y81868477D01*
X108691561Y81882327D01*
X108591968Y81921286D01*
X108514456Y81981946D01*
X108492694Y82004410D01*
X108477873Y82008767D01*
X108466759Y81988290D01*
X108458441Y81957023D01*
X108452769Y81907700D01*
X107619937Y81907700D01*
X107619323Y81926282D01*
X107640763Y82099902D01*
X107687774Y82279896D01*
X107759138Y82460707D01*
X107853637Y82636781D01*
X107877036Y82673571D01*
X107920222Y82730627D01*
X107965642Y82771303D01*
X108024328Y82806573D01*
X108055030Y82822148D01*
X108110702Y82844266D01*
X108164614Y82852594D01*
X108235188Y82851013D01*
X108348152Y82844053D01*
X108338149Y82907304D01*
X108336249Y82924622D01*
X108332581Y82978570D01*
X108328517Y83058727D01*
X108324318Y83159221D01*
X108320242Y83274184D01*
X108316546Y83397746D01*
X108316290Y83407573D01*
X109153563Y83407573D01*
X109153823Y83274591D01*
X109154794Y83155006D01*
X109156508Y83053254D01*
X109158996Y82973776D01*
X109162291Y82921009D01*
X109166426Y82899392D01*
X109184891Y82897180D01*
X109219593Y82909699D01*
X109231264Y82915384D01*
X109263949Y82925944D01*
X109304779Y82931162D01*
X109357029Y82930537D01*
X109423976Y82923568D01*
X109508895Y82909754D01*
X109615060Y82888594D01*
X109745749Y82859587D01*
X109904236Y82822232D01*
X110093797Y82776030D01*
X110266505Y82733277D01*
X110417318Y82695067D01*
X110540083Y82662296D01*
X110638172Y82633515D01*
X110714955Y82607273D01*
X110773802Y82582122D01*
X110818084Y82556611D01*
X110851170Y82529292D01*
X110876432Y82498714D01*
X110897239Y82463428D01*
X110916962Y82421984D01*
X110926967Y82398068D01*
X110943736Y82344910D01*
X110956873Y82279237D01*
X110967743Y82193355D01*
X110977711Y82079570D01*
X110979948Y82050143D01*
X110986593Y81960369D01*
X110991960Y81884244D01*
X110995549Y81829047D01*
X110996857Y81802060D01*
X110999655Y81795197D01*
X111012616Y81787944D01*
X111039470Y81781557D01*
X111083830Y81775666D01*
X111149308Y81769901D01*
X111239520Y81763894D01*
X111358078Y81757272D01*
X111508595Y81749668D01*
X111530651Y81748589D01*
X111663528Y81742193D01*
X111786214Y81736455D01*
X111893637Y81731600D01*
X111980722Y81727853D01*
X112042399Y81725440D01*
X112073594Y81724585D01*
X112126854Y81724585D01*
X112155512Y81938846D01*
X112167365Y82020942D01*
X112181404Y82105624D01*
X112194747Y82174629D01*
X112205628Y82218124D01*
X112235443Y82279052D01*
X112297679Y82353672D01*
X112377023Y82414769D01*
X112463124Y82452906D01*
X112477034Y82455826D01*
X112530682Y82462772D01*
X112612736Y82470338D01*
X112718934Y82478337D01*
X112845013Y82486579D01*
X112986712Y82494879D01*
X113139767Y82503048D01*
X113299915Y82510899D01*
X113462895Y82518244D01*
X113624444Y82524896D01*
X113780299Y82530666D01*
X113926198Y82535368D01*
X114057878Y82538813D01*
X114171077Y82540814D01*
X114261532Y82541183D01*
X114324980Y82539734D01*
X114357160Y82536277D01*
X114387947Y82525797D01*
X114490857Y82469628D01*
X114573220Y82389998D01*
X114628506Y82292767D01*
X114631177Y82283959D01*
X114640221Y82238877D01*
X114651004Y82168942D01*
X114662398Y82081892D01*
X114673276Y81985467D01*
X114677200Y81948147D01*
X114687349Y81855387D01*
X114696631Y81775527D01*
X114704152Y81716074D01*
X114709023Y81684536D01*
X114713024Y81670742D01*
X114732712Y81650379D01*
X114775157Y81646259D01*
X114810007Y81648455D01*
X114876624Y81654626D01*
X114964935Y81664015D01*
X115069753Y81675962D01*
X115185890Y81689806D01*
X115308158Y81704886D01*
X115431371Y81720542D01*
X115550340Y81736111D01*
X115659879Y81750935D01*
X115754799Y81764351D01*
X115829914Y81775699D01*
X115880035Y81784318D01*
X115899976Y81789548D01*
X115904480Y81805655D01*
X115909845Y81853823D01*
X115914900Y81928615D01*
X115919528Y82025074D01*
X115923617Y82138246D01*
X115927051Y82263174D01*
X115929717Y82394904D01*
X115931499Y82528480D01*
X115932284Y82658947D01*
X115931957Y82781350D01*
X115930403Y82890734D01*
X115927509Y82982142D01*
X115921677Y83100405D01*
X115889112Y83541968D01*
X115840665Y83953356D01*
X115776005Y84336071D01*
X115694800Y84691617D01*
X115596719Y85021498D01*
X115481432Y85327215D01*
X115348607Y85610273D01*
X115311422Y85679723D01*
X115233046Y85812219D01*
X115148171Y85935412D01*
X115051093Y86056676D01*
X114936108Y86183386D01*
X114797512Y86322920D01*
X114589277Y86515823D01*
X114294314Y86755472D01*
X113994225Y86960312D01*
X113688181Y87130690D01*
X113375351Y87266953D01*
X113054903Y87369450D01*
X112726009Y87438528D01*
X112387837Y87474534D01*
X112039558Y87477817D01*
X111958430Y87474329D01*
X111849149Y87466821D01*
X111755569Y87455566D01*
X111665423Y87438944D01*
X111566444Y87415335D01*
X111493014Y87395447D01*
X111405846Y87369425D01*
X111331806Y87344772D01*
X111281651Y87324904D01*
X111262201Y87314552D01*
X111204115Y87277783D01*
X111125447Y87223021D01*
X111030628Y87153645D01*
X110924088Y87073032D01*
X110810261Y86984560D01*
X110693576Y86891606D01*
X110578466Y86797548D01*
X110469361Y86705763D01*
X110435564Y86676533D01*
X110320973Y86573633D01*
X110199069Y86459250D01*
X110075598Y86339137D01*
X109956303Y86219043D01*
X109846929Y86104719D01*
X109753218Y86001917D01*
X109680916Y85916386D01*
X109567807Y85755860D01*
X109458859Y85555323D01*
X109365969Y85328593D01*
X109288558Y85074007D01*
X109226045Y84789903D01*
X109177850Y84474620D01*
X109173195Y84421056D01*
X109168931Y84340694D01*
X109165119Y84238220D01*
X109161792Y84118072D01*
X109158983Y83984688D01*
X109156723Y83842508D01*
X109155045Y83695970D01*
X109153981Y83549512D01*
X109153563Y83407573D01*
X108316290Y83407573D01*
X108315882Y83423205D01*
X108313792Y83861181D01*
X108330291Y84269630D01*
X108365585Y84649464D01*
X108419876Y85001594D01*
X108493370Y85326934D01*
X108586270Y85626394D01*
X108698780Y85900888D01*
X108831105Y86151328D01*
X108983448Y86378625D01*
X109080948Y86501097D01*
X109203201Y86642088D01*
X109339650Y86789364D01*
X109483083Y86935150D01*
X109626290Y87071672D01*
X109664974Y87107628D01*
X109732513Y87172484D01*
X109788371Y87228812D01*
X109827594Y87271547D01*
X109845229Y87295622D01*
X109856887Y87320785D01*
X109910741Y87400697D01*
X109991868Y87489979D01*
X110096181Y87585308D01*
X110219593Y87683362D01*
X110358015Y87780819D01*
X110507361Y87874358D01*
X110663543Y87960656D01*
X110715530Y87988844D01*
X110802375Y88039117D01*
X110903276Y88100089D01*
X111009560Y88166496D01*
X111112555Y88233078D01*
X111153360Y88259852D01*
X111389521Y88409600D01*
X111615754Y88544228D01*
X111828768Y88661980D01*
X112025273Y88761099D01*
X112201977Y88839830D01*
X112355589Y88896416D01*
X112421961Y88915438D01*
X112528498Y88941626D01*
X112656837Y88969947D01*
X112799599Y88998964D01*
X112949405Y89027242D01*
X113098877Y89053344D01*
X113240637Y89075836D01*
X113367307Y89093281D01*
X113522467Y89109199D01*
X113814952Y89121510D01*
X114099173Y89110684D01*
X114368555Y89077100D01*
X114616524Y89021137D01*
X114619723Y89020219D01*
X114699680Y88994744D01*
X114791306Y88961727D01*
X114887035Y88924330D01*
X114979304Y88885713D01*
X115060549Y88849038D01*
X115123206Y88817465D01*
X115159710Y88794155D01*
X115162093Y88792319D01*
X115201474Y88778077D01*
X115273492Y88766367D01*
X115375554Y88757628D01*
X115537132Y88741597D01*
X115810608Y88687951D01*
X116087779Y88601889D01*
X116366202Y88484887D01*
X116643438Y88338421D01*
X116917046Y88163965D01*
X117184583Y87962995D01*
X117443611Y87736986D01*
X117691687Y87487415D01*
X117926370Y87215755D01*
X117978111Y87150576D01*
X118198318Y86850559D01*
X118400128Y86535944D01*
X118584208Y86204830D01*
X118751226Y85855317D01*
X118901849Y85485502D01*
X119036743Y85093483D01*
X119156576Y84677360D01*
X119262015Y84235230D01*
X119353727Y83765193D01*
X119432379Y83265346D01*
X119498638Y82733788D01*
X119506870Y82658947D01*
X119546995Y82294172D01*
G37*
G36*
X87567747Y87339389D02*
G01*
X87688878Y87207758D01*
X87800770Y87073018D01*
X87909535Y86927663D01*
X88021283Y86764186D01*
X88024722Y86758958D01*
X88171374Y86524098D01*
X88308649Y86281067D01*
X88434607Y86034104D01*
X88547309Y85787447D01*
X88644815Y85545335D01*
X88725186Y85312007D01*
X88786483Y85091702D01*
X88786794Y85090398D01*
X88793950Y85057847D01*
X88805805Y85001100D01*
X88821892Y84922493D01*
X88841745Y84824361D01*
X88864894Y84709039D01*
X88890873Y84578862D01*
X88919215Y84436167D01*
X88949451Y84283287D01*
X88981116Y84122558D01*
X89013740Y83956316D01*
X89214817Y82929710D01*
X89494641Y82837117D01*
X89624148Y82793566D01*
X89916434Y82689933D01*
X90195845Y82583362D01*
X90460820Y82474615D01*
X90709801Y82364457D01*
X90941229Y82253652D01*
X91153545Y82142965D01*
X91345189Y82033159D01*
X91514603Y81924999D01*
X91660226Y81819249D01*
X91663017Y81816869D01*
X91678822Y81803390D01*
X91780501Y81716674D01*
X91797023Y81700942D01*
X91864127Y81630792D01*
X91910793Y81567662D01*
X91939676Y81506218D01*
X91953436Y81441130D01*
X91954728Y81367066D01*
X91951789Y81324039D01*
X91944608Y81279086D01*
X91931189Y81243627D01*
X91908534Y81207294D01*
X91878514Y81169621D01*
X91806202Y81109071D01*
X91720242Y81072015D01*
X91714986Y81070672D01*
X91688198Y81066015D01*
X91653347Y81063414D01*
X91608063Y81063003D01*
X91549979Y81064920D01*
X91476724Y81069299D01*
X91385931Y81076276D01*
X91275231Y81085986D01*
X91142255Y81098566D01*
X90984635Y81114151D01*
X90896037Y81122964D01*
X90723344Y81139512D01*
X90570182Y81153067D01*
X90431471Y81163897D01*
X90302129Y81172274D01*
X90177074Y81178467D01*
X90051225Y81182746D01*
X89919500Y81185382D01*
X89776816Y81186646D01*
X89618093Y81186806D01*
X89570763Y81186688D01*
X89413331Y81185611D01*
X89277381Y81183250D01*
X89158437Y81179240D01*
X89052021Y81173218D01*
X88953657Y81164820D01*
X88858868Y81153684D01*
X88763176Y81139446D01*
X88662105Y81121742D01*
X88551178Y81100209D01*
X88548443Y81099659D01*
X88432411Y81075452D01*
X88311651Y81048472D01*
X88184247Y81018187D01*
X88048284Y80984066D01*
X87901848Y80945576D01*
X87743024Y80902186D01*
X87569897Y80853365D01*
X87380552Y80798580D01*
X87173074Y80737300D01*
X86945549Y80668993D01*
X86696062Y80593128D01*
X86422697Y80509172D01*
X86216460Y80445760D01*
X85970555Y80370767D01*
X85747319Y80303508D01*
X85544982Y80243511D01*
X85361771Y80190303D01*
X85195914Y80143415D01*
X85045637Y80102372D01*
X84909170Y80066705D01*
X84784739Y80035941D01*
X84670572Y80009609D01*
X84564897Y79987236D01*
X84465942Y79968352D01*
X84371935Y79952484D01*
X84281102Y79939160D01*
X84132379Y79924395D01*
X83912336Y79919398D01*
X83677744Y79931795D01*
X83431918Y79961163D01*
X83178174Y80007077D01*
X82919826Y80069111D01*
X82660192Y80146841D01*
X82579464Y80174201D01*
X82230981Y80309767D01*
X81888353Y80471663D01*
X81552062Y80659604D01*
X81222586Y80873307D01*
X80900407Y81112485D01*
X80586003Y81376855D01*
X80480627Y81470862D01*
X80171282Y81461542D01*
X80098326Y81459858D01*
X79974755Y81458706D01*
X79838013Y81459080D01*
X79692587Y81460849D01*
X79542960Y81463882D01*
X79393618Y81468049D01*
X79249044Y81473219D01*
X79113725Y81479261D01*
X78992144Y81486043D01*
X78888786Y81493436D01*
X78808136Y81501308D01*
X78708197Y81515499D01*
X81414472Y81515499D01*
X81562830Y81411595D01*
X81656526Y81347501D01*
X81926452Y81178786D01*
X82204098Y81027627D01*
X82486410Y80895271D01*
X82770333Y80782966D01*
X83052814Y80691959D01*
X83330798Y80623499D01*
X83601231Y80578832D01*
X83625942Y80575870D01*
X83769266Y80561140D01*
X83895115Y80553542D01*
X84011117Y80553265D01*
X84124895Y80560503D01*
X84244075Y80575445D01*
X84376284Y80598283D01*
X84450332Y80612858D01*
X84536349Y80631073D01*
X84626970Y80651706D01*
X84724128Y80675297D01*
X84829759Y80702384D01*
X84945796Y80733506D01*
X85074174Y80769202D01*
X85216828Y80810011D01*
X85375691Y80856471D01*
X85552700Y80909122D01*
X85749787Y80968503D01*
X85968888Y81035151D01*
X86211937Y81109607D01*
X86218312Y81111565D01*
X86488405Y81194248D01*
X86734595Y81269001D01*
X86958781Y81336350D01*
X87162860Y81396821D01*
X87348731Y81450940D01*
X87518290Y81499233D01*
X87673437Y81542226D01*
X87816068Y81580446D01*
X87948082Y81614418D01*
X88071377Y81644669D01*
X88187850Y81671725D01*
X88299399Y81696112D01*
X88407922Y81718355D01*
X88463416Y81729317D01*
X88560437Y81748062D01*
X88646978Y81763833D01*
X88726464Y81776888D01*
X88802320Y81787482D01*
X88877971Y81795874D01*
X88919890Y81799300D01*
X90395552Y81799300D01*
X90406744Y81794325D01*
X90413943Y81795306D01*
X90415809Y81803390D01*
X90413816Y81805017D01*
X90397679Y81803390D01*
X90395552Y81799300D01*
X88919890Y81799300D01*
X88956842Y81802320D01*
X89042357Y81807077D01*
X89137943Y81810402D01*
X89247023Y81812553D01*
X89373023Y81813785D01*
X89519367Y81814357D01*
X89689481Y81814525D01*
X89727376Y81814539D01*
X89859361Y81814640D01*
X89982038Y81814812D01*
X90092853Y81815048D01*
X90189250Y81815338D01*
X90268674Y81815674D01*
X90328569Y81816047D01*
X90366379Y81816448D01*
X90379551Y81816869D01*
X90375645Y81818945D01*
X90351489Y81829813D01*
X90308946Y81848299D01*
X90252288Y81872554D01*
X90185786Y81900731D01*
X89994093Y81979384D01*
X89774957Y82064147D01*
X89541501Y82149164D01*
X89287510Y82236762D01*
X89243861Y82251621D01*
X89158300Y82281710D01*
X89081157Y82310072D01*
X89016795Y82335039D01*
X88969574Y82354946D01*
X88943858Y82368123D01*
X88936768Y82373313D01*
X88899096Y82408961D01*
X88867575Y82449791D01*
X88854965Y82469381D01*
X88835419Y82490429D01*
X88810076Y82499101D01*
X88768254Y82500894D01*
X88754214Y82500829D01*
X88691375Y82499131D01*
X88606457Y82495359D01*
X88503305Y82489777D01*
X88385767Y82482653D01*
X88257689Y82474253D01*
X88122918Y82464843D01*
X87985300Y82454690D01*
X87848682Y82444058D01*
X87716912Y82433216D01*
X87593834Y82422428D01*
X87483297Y82411962D01*
X87406732Y82404106D01*
X87233844Y82384892D01*
X87036951Y82361316D01*
X86817899Y82333650D01*
X86578537Y82302169D01*
X86320710Y82267143D01*
X86305825Y82265066D01*
X86046267Y82228848D01*
X85757055Y82187554D01*
X85454921Y82143536D01*
X85141712Y82097066D01*
X84819277Y82048417D01*
X84489462Y81997861D01*
X84154114Y81945673D01*
X83815081Y81892124D01*
X83474211Y81837488D01*
X83133350Y81782037D01*
X82794346Y81726044D01*
X82459046Y81669783D01*
X82429131Y81664737D01*
X82296015Y81642621D01*
X82162741Y81620980D01*
X82033801Y81600514D01*
X81913686Y81581919D01*
X81806889Y81565892D01*
X81717901Y81553132D01*
X81651213Y81544335D01*
X81414472Y81515499D01*
X78708197Y81515499D01*
X78665084Y81521621D01*
X78531789Y81549051D01*
X78419880Y81582964D01*
X78326512Y81624423D01*
X78248845Y81674486D01*
X78184033Y81734217D01*
X78154919Y81768210D01*
X78115610Y81828225D01*
X78088741Y81895401D01*
X78084820Y81908459D01*
X78068486Y81972286D01*
X78054184Y82045825D01*
X78041814Y82130820D01*
X78031275Y82229019D01*
X78022467Y82342168D01*
X78015290Y82472014D01*
X78009643Y82620302D01*
X78005425Y82788780D01*
X78002537Y82979194D01*
X78000878Y83193290D01*
X78000695Y83276011D01*
X78634396Y83276011D01*
X78634603Y83130048D01*
X78635325Y82992528D01*
X78636585Y82866597D01*
X78638404Y82755398D01*
X78640804Y82662076D01*
X78643807Y82589775D01*
X78644709Y82573362D01*
X78649888Y82483421D01*
X78655115Y82399146D01*
X78660030Y82325912D01*
X78664277Y82269090D01*
X78667497Y82234055D01*
X78675621Y82163882D01*
X78758875Y82148705D01*
X78768877Y82146934D01*
X78827124Y82137730D01*
X78896647Y82128014D01*
X78964507Y82119615D01*
X78998375Y82116857D01*
X79061696Y82113728D01*
X79146348Y82110862D01*
X79249117Y82108279D01*
X79366788Y82106002D01*
X79496146Y82104053D01*
X79633978Y82102455D01*
X79777069Y82101229D01*
X79922204Y82100397D01*
X80066169Y82099982D01*
X80205749Y82100005D01*
X80337730Y82100490D01*
X80458897Y82101458D01*
X80566037Y82102931D01*
X80655934Y82104932D01*
X80725374Y82107482D01*
X80764543Y82109455D01*
X80865242Y82114989D01*
X80969488Y82121256D01*
X81067041Y82127625D01*
X81147663Y82133466D01*
X81161748Y82134558D01*
X81231824Y82139762D01*
X81293489Y82143987D01*
X81340512Y82146822D01*
X81366660Y82147858D01*
X81401323Y82147858D01*
X81382850Y82253238D01*
X81371461Y82321351D01*
X82015639Y82321351D01*
X82019784Y82285711D01*
X82020128Y82283026D01*
X82030697Y82256861D01*
X82055508Y82248022D01*
X82099180Y82254706D01*
X82113990Y82258889D01*
X82121144Y82265066D01*
X82108890Y82274909D01*
X82074639Y82292394D01*
X82015639Y82321351D01*
X81371461Y82321351D01*
X81350715Y82445420D01*
X81303792Y82761417D01*
X81261511Y83090577D01*
X81224375Y83427313D01*
X81192885Y83766039D01*
X81167544Y84101168D01*
X81148852Y84427113D01*
X81137313Y84738289D01*
X81133428Y85029108D01*
X81136072Y85259014D01*
X81145492Y85525002D01*
X81161408Y85784651D01*
X81183477Y86035668D01*
X81211358Y86275759D01*
X81244706Y86502630D01*
X81283179Y86713988D01*
X81326435Y86907541D01*
X81374132Y87080993D01*
X81425925Y87232052D01*
X81481473Y87358425D01*
X81513826Y87422365D01*
X81415344Y87380555D01*
X81262828Y87314140D01*
X81090424Y87235386D01*
X80918580Y87153297D01*
X80750852Y87069723D01*
X80590793Y86986517D01*
X80441955Y86905528D01*
X80307892Y86828609D01*
X80192158Y86757611D01*
X80098305Y86694385D01*
X80082128Y86682531D01*
X79998569Y86615707D01*
X79904628Y86532921D01*
X79805207Y86438924D01*
X79705211Y86338465D01*
X79609542Y86236296D01*
X79523106Y86137166D01*
X79415700Y86004346D01*
X79218092Y85733690D01*
X79039629Y85450672D01*
X78876208Y85149024D01*
X78851737Y85099717D01*
X78786636Y84960389D01*
X78736095Y84837128D01*
X78698651Y84725742D01*
X78672841Y84622039D01*
X78657201Y84521828D01*
X78655887Y84508304D01*
X78652137Y84450840D01*
X78648685Y84370376D01*
X78645552Y84270057D01*
X78642760Y84153028D01*
X78640332Y84022432D01*
X78638288Y83881415D01*
X78636650Y83733120D01*
X78635442Y83580691D01*
X78634683Y83427273D01*
X78634396Y83276011D01*
X78000695Y83276011D01*
X78000347Y83432815D01*
X78000598Y83603433D01*
X78001795Y83815886D01*
X78004041Y84004065D01*
X78007404Y84169653D01*
X78011951Y84314334D01*
X78017752Y84439789D01*
X78024873Y84547702D01*
X78033382Y84639755D01*
X78043348Y84717630D01*
X78054839Y84783011D01*
X78072940Y84858980D01*
X78117305Y85001369D01*
X78177612Y85158504D01*
X78252284Y85327097D01*
X78339742Y85503862D01*
X78438410Y85685512D01*
X78546710Y85868760D01*
X78663065Y86050321D01*
X78738495Y86160699D01*
X78921037Y86407424D01*
X79110127Y86635734D01*
X79303780Y86843442D01*
X79500011Y87028362D01*
X79696833Y87188310D01*
X79816411Y87271861D01*
X79959285Y87361802D01*
X80121612Y87456197D01*
X80300049Y87553484D01*
X80491257Y87652102D01*
X80691891Y87750491D01*
X80898612Y87847087D01*
X81108078Y87940331D01*
X81316946Y88028661D01*
X81521876Y88110516D01*
X81719526Y88184334D01*
X81906553Y88248554D01*
X82079617Y88301615D01*
X82216890Y88340692D01*
X82232421Y88415876D01*
X82239465Y88443536D01*
X82259137Y88497633D01*
X82281827Y88540908D01*
X82290304Y88550958D01*
X82321972Y88580048D01*
X82369873Y88618954D01*
X82429563Y88664511D01*
X82496598Y88713554D01*
X82566536Y88762918D01*
X82634932Y88809440D01*
X82697343Y88849953D01*
X82749325Y88881294D01*
X82786436Y88900298D01*
X82837859Y88915351D01*
X82918633Y88919923D01*
X83000401Y88905991D01*
X83074960Y88875228D01*
X83134105Y88829310D01*
X83168837Y88788233D01*
X83210611Y88731629D01*
X83248762Y88673181D01*
X83278499Y88620300D01*
X83295032Y88580396D01*
X83308103Y88531852D01*
X83787804Y88531576D01*
X83804745Y88531557D01*
X83940271Y88530800D01*
X84069901Y88529039D01*
X84189375Y88526386D01*
X84294433Y88522955D01*
X84380819Y88518857D01*
X84444271Y88514207D01*
X84699647Y88486773D01*
X85074785Y88435402D01*
X85426551Y88372982D01*
X85755943Y88299279D01*
X86063960Y88214063D01*
X86351599Y88117101D01*
X86619860Y88008161D01*
X86622629Y88006930D01*
X86796397Y87925295D01*
X86949666Y87843137D01*
X87088767Y87756176D01*
X87220032Y87660130D01*
X87349794Y87550719D01*
X87484383Y87423661D01*
X87485665Y87422365D01*
X87567747Y87339389D01*
G37*
G36*
X29507710Y57842257D02*
G01*
X29489550Y57756669D01*
X29470131Y57687547D01*
X29450908Y57596144D01*
X29432096Y57484094D01*
X29413812Y57352763D01*
X29405289Y57280620D01*
X29396179Y57203512D01*
X29379316Y57037706D01*
X29363343Y56856707D01*
X29348382Y56661880D01*
X29334551Y56454588D01*
X29321971Y56236194D01*
X29310763Y56008061D01*
X29301047Y55771554D01*
X29292943Y55528035D01*
X29285119Y55262235D01*
X29311903Y55262235D01*
X29340463Y55259554D01*
X29378507Y55248440D01*
X29421569Y55227640D01*
X29471126Y55196024D01*
X29528655Y55152458D01*
X29595634Y55095810D01*
X29673541Y55024949D01*
X29763852Y54938743D01*
X29868044Y54836058D01*
X29873843Y54830272D01*
X30000634Y54700834D01*
X30112019Y54580713D01*
X30211432Y54465788D01*
X30302310Y54351933D01*
X30388087Y54235026D01*
X30472200Y54110943D01*
X30524717Y54027958D01*
X30649264Y53804709D01*
X30753175Y53576295D01*
X30835549Y53344839D01*
X30895488Y53112465D01*
X30917615Y52975980D01*
X30931403Y52812012D01*
X30934699Y52650965D01*
X30935057Y52633480D01*
X30928841Y52443620D01*
X30913019Y52245665D01*
X30887854Y52042848D01*
X30853610Y51838406D01*
X30810551Y51635571D01*
X30758941Y51437578D01*
X30742024Y51380122D01*
X30649773Y51109510D01*
X30541713Y50856093D01*
X30417848Y50619877D01*
X30278182Y50400867D01*
X30122719Y50199068D01*
X29951465Y50014486D01*
X29764423Y49847126D01*
X29561599Y49696993D01*
X29342996Y49564094D01*
X29224721Y49505727D01*
X29196669Y49491884D01*
X29108618Y49448432D01*
X28924193Y49369837D01*
X28574823Y49236992D01*
X28228847Y49126593D01*
X27886636Y49038742D01*
X27548561Y48973541D01*
X27214994Y48931090D01*
X27203555Y48930164D01*
X27157723Y48927686D01*
X27093848Y48925380D01*
X27015832Y48923338D01*
X26927578Y48921652D01*
X26832990Y48920416D01*
X26735970Y48919722D01*
X26509505Y48921425D01*
X26266295Y48930261D01*
X26035470Y48947040D01*
X25811704Y48972380D01*
X25589669Y49006898D01*
X25364038Y49051213D01*
X25129484Y49105940D01*
X25095977Y49114404D01*
X24736759Y49216833D01*
X24372644Y49341814D01*
X24004002Y49489159D01*
X23631206Y49658679D01*
X23254625Y49850188D01*
X22874632Y50063496D01*
X22491598Y50298416D01*
X22105895Y50554761D01*
X21717892Y50832342D01*
X21692537Y50851190D01*
X21367886Y51105583D01*
X21063035Y51369858D01*
X20775891Y51646021D01*
X20504357Y51936080D01*
X20246338Y52242042D01*
X20240967Y52248761D01*
X20147569Y52369887D01*
X20057452Y52494543D01*
X19972425Y52619786D01*
X19894300Y52742670D01*
X19824886Y52860254D01*
X19765992Y52969592D01*
X19719428Y53067742D01*
X19687006Y53151759D01*
X19672075Y53203571D01*
X19650728Y53303709D01*
X19633958Y53416846D01*
X19622110Y53536839D01*
X20166922Y53536839D01*
X20169008Y53516278D01*
X20173948Y53480449D01*
X20181037Y53434673D01*
X20190068Y53389824D01*
X20212954Y53314117D01*
X20247227Y53231780D01*
X20294113Y53140282D01*
X20354837Y53037095D01*
X20430627Y52919686D01*
X20538225Y52764457D01*
X20659006Y52603450D01*
X20788498Y52444304D01*
X20929579Y52283626D01*
X21085126Y52118024D01*
X21258016Y51944104D01*
X21418419Y51790588D01*
X21613109Y51615760D01*
X21811699Y51450587D01*
X22021664Y51288652D01*
X22085805Y51241176D01*
X22439806Y50989558D01*
X22793339Y50755743D01*
X23145512Y50540170D01*
X23495430Y50343279D01*
X23842199Y50165510D01*
X24184925Y50007303D01*
X24522714Y49869097D01*
X24854671Y49751333D01*
X25179903Y49654450D01*
X25497515Y49578888D01*
X25512183Y49575872D01*
X25623564Y49554064D01*
X25729624Y49535561D01*
X25837528Y49519270D01*
X25954442Y49504099D01*
X26087533Y49488956D01*
X26155190Y49482643D01*
X26253203Y49475782D01*
X26363332Y49470011D01*
X26481150Y49465423D01*
X26602230Y49462109D01*
X26722146Y49460161D01*
X26836472Y49459672D01*
X26940782Y49460733D01*
X27030649Y49463436D01*
X27101647Y49467874D01*
X27141973Y49471516D01*
X27215234Y49478611D01*
X27265462Y49484335D01*
X27292612Y49488742D01*
X27296640Y49491884D01*
X27277501Y49493815D01*
X27235150Y49494587D01*
X27169542Y49494255D01*
X27080634Y49492870D01*
X26932729Y49491484D01*
X26773726Y49494097D01*
X26625297Y49501904D01*
X26583313Y49505934D01*
X27402870Y49505934D01*
X27419456Y49504098D01*
X27435528Y49505727D01*
X27434061Y49509991D01*
X27428772Y49511534D01*
X27404852Y49509991D01*
X27402870Y49505934D01*
X26583313Y49505934D01*
X26482905Y49515572D01*
X26342012Y49535766D01*
X26198082Y49563153D01*
X26046578Y49598399D01*
X25882961Y49642170D01*
X25702695Y49695131D01*
X25526817Y49750928D01*
X25300234Y49828980D01*
X25066973Y49915607D01*
X24829713Y50009557D01*
X24591134Y50109580D01*
X24353912Y50214423D01*
X24120726Y50322836D01*
X23894254Y50433567D01*
X23853158Y50454732D01*
X25189577Y50454732D01*
X25192090Y50453348D01*
X25212357Y50444886D01*
X25250023Y50430238D01*
X25301827Y50410645D01*
X25364508Y50387345D01*
X25434803Y50361578D01*
X25565259Y50315149D01*
X25755225Y50251487D01*
X25937040Y50195278D01*
X26108202Y50147210D01*
X26266207Y50107974D01*
X26408552Y50078262D01*
X26532733Y50058763D01*
X26607402Y50050481D01*
X26844323Y50035746D01*
X27091793Y50036398D01*
X27344991Y50051916D01*
X27599094Y50081776D01*
X27849281Y50125456D01*
X28090731Y50182435D01*
X28318621Y50252190D01*
X28426840Y50292882D01*
X28620326Y50380795D01*
X28820260Y50490245D01*
X29026006Y50620845D01*
X29236928Y50772207D01*
X29452391Y50943943D01*
X29617917Y51087258D01*
X29783928Y51243555D01*
X29927782Y51393973D01*
X30049411Y51538426D01*
X30148744Y51676833D01*
X30225713Y51809110D01*
X30280248Y51935175D01*
X30287401Y51955210D01*
X30305396Y52003507D01*
X30321479Y52044003D01*
X30332847Y52069536D01*
X30334644Y52073403D01*
X30344533Y52107123D01*
X30354408Y52159605D01*
X30363877Y52226963D01*
X30372549Y52305314D01*
X30380032Y52390774D01*
X30385935Y52479458D01*
X30389867Y52567484D01*
X30391436Y52650965D01*
X30391041Y52734628D01*
X30388845Y52804335D01*
X30384328Y52863824D01*
X30376978Y52919749D01*
X30366286Y52978769D01*
X30352073Y53044417D01*
X30292452Y53251503D01*
X30210632Y53456631D01*
X30106323Y53660392D01*
X29979233Y53863375D01*
X29829070Y54066169D01*
X29745836Y54166789D01*
X29653461Y54271972D01*
X29557551Y54375645D01*
X29463623Y54471844D01*
X29377197Y54554603D01*
X29263260Y54658977D01*
X29266369Y53590712D01*
X29266489Y53549203D01*
X29266998Y53360071D01*
X29267322Y53192410D01*
X29267384Y53044649D01*
X29267106Y52915215D01*
X29266413Y52802534D01*
X29265227Y52705035D01*
X29263471Y52621144D01*
X29261068Y52549288D01*
X29257943Y52487895D01*
X29254017Y52435392D01*
X29249214Y52390206D01*
X29243458Y52350764D01*
X29236671Y52315494D01*
X29228776Y52282823D01*
X29219697Y52251178D01*
X29209357Y52218986D01*
X29197679Y52184675D01*
X29196417Y52181038D01*
X29164969Y52103908D01*
X29125196Y52031981D01*
X29073336Y51959285D01*
X29005628Y51879852D01*
X28981924Y51852948D01*
X28937538Y51800051D01*
X28890789Y51741942D01*
X28848565Y51687074D01*
X28789640Y51610928D01*
X28621383Y51419577D01*
X28436615Y51244632D01*
X28249238Y51097055D01*
X28235760Y51086440D01*
X28211989Y51070950D01*
X28019243Y50945348D01*
X27787487Y50821700D01*
X27757255Y50807358D01*
X27586093Y50732680D01*
X27413344Y50668926D01*
X27235499Y50615238D01*
X27049050Y50570761D01*
X26850487Y50534640D01*
X26636303Y50506019D01*
X26402989Y50484043D01*
X26401107Y50483897D01*
X26310484Y50477698D01*
X26205905Y50471875D01*
X26091512Y50466549D01*
X25971447Y50461843D01*
X25849851Y50457878D01*
X25730867Y50454777D01*
X25618636Y50452661D01*
X25517300Y50451652D01*
X25431001Y50451873D01*
X25363881Y50453446D01*
X25327058Y50454823D01*
X25270971Y50456378D01*
X25226829Y50456900D01*
X25198432Y50456361D01*
X25189577Y50454732D01*
X23853158Y50454732D01*
X23677175Y50545366D01*
X23472166Y50656980D01*
X23281906Y50767160D01*
X23109074Y50874652D01*
X22956347Y50978207D01*
X22952782Y50980752D01*
X22818598Y51079530D01*
X23838453Y51079530D01*
X23847712Y51072656D01*
X23871273Y51068025D01*
X23877145Y51068142D01*
X23888688Y51070950D01*
X23879346Y51079530D01*
X23875565Y51081823D01*
X23854202Y51089927D01*
X23839306Y51089163D01*
X23838453Y51079530D01*
X22818598Y51079530D01*
X22794791Y51097055D01*
X23809245Y51097055D01*
X23815086Y51091214D01*
X23820928Y51097055D01*
X23815086Y51102897D01*
X23809245Y51097055D01*
X22794791Y51097055D01*
X22794735Y51097096D01*
X22623852Y51229106D01*
X22442406Y51374714D01*
X22252665Y51531849D01*
X22056899Y51698444D01*
X21857378Y51872429D01*
X21656371Y52051735D01*
X21456149Y52234293D01*
X21258981Y52418035D01*
X21067137Y52600891D01*
X20882886Y52780792D01*
X20708498Y52955670D01*
X20546243Y53123455D01*
X20398392Y53282079D01*
X20267212Y53429472D01*
X20261554Y53436002D01*
X20225467Y53477193D01*
X20195733Y53510371D01*
X20175301Y53532291D01*
X20167116Y53539705D01*
X20166922Y53536839D01*
X19622110Y53536839D01*
X19622004Y53537908D01*
X19615107Y53661822D01*
X19613506Y53783514D01*
X19617442Y53897912D01*
X19627154Y53999942D01*
X19642882Y54084532D01*
X19666309Y54164434D01*
X19689884Y54223457D01*
X20342347Y54223457D01*
X20351293Y54205493D01*
X20352035Y54204289D01*
X20373586Y54172791D01*
X20407475Y54127179D01*
X20450958Y54070884D01*
X20501291Y54007335D01*
X20555731Y53939964D01*
X20611533Y53872200D01*
X20665953Y53807475D01*
X20716249Y53749217D01*
X20744257Y53717759D01*
X20787837Y53669898D01*
X20837296Y53616497D01*
X20890454Y53559819D01*
X20945130Y53502129D01*
X20999144Y53445690D01*
X21050315Y53392767D01*
X21096464Y53345623D01*
X21135410Y53306524D01*
X21164973Y53277733D01*
X21182972Y53261515D01*
X21187227Y53260133D01*
X21181496Y53274930D01*
X21170702Y53317982D01*
X21160045Y53378206D01*
X21150108Y53451599D01*
X21141471Y53534158D01*
X21134716Y53621881D01*
X21131799Y53665807D01*
X21126314Y53732361D01*
X21119775Y53785584D01*
X21111088Y53831981D01*
X21099162Y53878056D01*
X21082902Y53930312D01*
X21064336Y53991543D01*
X21040428Y54085849D01*
X21021729Y54179140D01*
X21009548Y54264585D01*
X21005197Y54335354D01*
X21005197Y54397456D01*
X20862073Y54390983D01*
X20769501Y54386225D01*
X20672600Y54379228D01*
X20593938Y54370441D01*
X20530671Y54359192D01*
X20479955Y54344812D01*
X20438944Y54326631D01*
X20404794Y54303979D01*
X20374660Y54276186D01*
X20357958Y54258165D01*
X20343767Y54238588D01*
X20342347Y54223457D01*
X19689884Y54223457D01*
X19701923Y54253597D01*
X19749051Y54342539D01*
X19811157Y54438546D01*
X19833699Y54470667D01*
X19909236Y54571735D01*
X19982160Y54656835D01*
X20055332Y54727374D01*
X20131612Y54784754D01*
X20213859Y54830382D01*
X20304935Y54865661D01*
X20407699Y54891996D01*
X20525011Y54910793D01*
X20659733Y54923454D01*
X20814723Y54931386D01*
X21015648Y54938687D01*
X21024822Y55004072D01*
X21025907Y55014405D01*
X21028070Y55053130D01*
X21029916Y55111844D01*
X21031451Y55188220D01*
X21032681Y55279935D01*
X21033614Y55384663D01*
X21034257Y55500080D01*
X21034616Y55623861D01*
X21034697Y55753682D01*
X21034509Y55887218D01*
X21034057Y56022144D01*
X21033348Y56156135D01*
X21032389Y56286867D01*
X21031187Y56412015D01*
X21029749Y56529254D01*
X21028081Y56636260D01*
X21026191Y56730708D01*
X21024084Y56810272D01*
X21021768Y56872630D01*
X21019249Y56915455D01*
X21004213Y57084953D01*
X20985456Y57258291D01*
X20985454Y57258306D01*
X21533837Y57258306D01*
X21536564Y57229449D01*
X21547171Y57139218D01*
X21556982Y57023780D01*
X21565391Y56889833D01*
X21572391Y56739849D01*
X21577977Y56576298D01*
X21582139Y56401652D01*
X21584872Y56218380D01*
X21586169Y56028955D01*
X21586022Y55835847D01*
X21584426Y55641527D01*
X21581371Y55448466D01*
X21576853Y55259136D01*
X21570863Y55076006D01*
X21563396Y54901548D01*
X21554443Y54738233D01*
X21543998Y54588532D01*
X21541987Y54557909D01*
X21543506Y54403863D01*
X21563551Y54251320D01*
X21601167Y54105560D01*
X21655403Y53971860D01*
X21682744Y53917729D01*
X21710688Y53866761D01*
X21739303Y53820945D01*
X21773413Y53772630D01*
X21817840Y53714167D01*
X21833476Y53694342D01*
X21910732Y53605771D01*
X21999248Y53519143D01*
X22101747Y53432113D01*
X22220951Y53342334D01*
X22341067Y53260133D01*
X22359583Y53247462D01*
X22520287Y53147202D01*
X22785909Y53003449D01*
X23065846Y52877712D01*
X23360248Y52769944D01*
X23669265Y52680099D01*
X23993047Y52608129D01*
X24331745Y52553986D01*
X24685510Y52517624D01*
X24770502Y52511803D01*
X24946691Y52503404D01*
X25127254Y52499267D01*
X25307618Y52499310D01*
X25483212Y52503453D01*
X25649463Y52511616D01*
X25801799Y52523717D01*
X25935648Y52539676D01*
X25957149Y52542855D01*
X26173758Y52580850D01*
X26401724Y52630853D01*
X26637890Y52691693D01*
X26879102Y52762197D01*
X27122205Y52841195D01*
X27364044Y52927514D01*
X27601462Y53019982D01*
X27831306Y53117428D01*
X28050420Y53218680D01*
X28255649Y53322567D01*
X28443838Y53427916D01*
X28611832Y53533555D01*
X28711797Y53600729D01*
X28726151Y54475295D01*
X28729814Y54688884D01*
X28734747Y54946793D01*
X28739970Y55185246D01*
X28745572Y55406452D01*
X28751644Y55612619D01*
X28758274Y55805956D01*
X28765551Y55988671D01*
X28773566Y56162971D01*
X28782408Y56331067D01*
X28792165Y56495164D01*
X28802929Y56657473D01*
X28814787Y56820201D01*
X28827830Y56985556D01*
X28832741Y57044286D01*
X28838624Y57111187D01*
X28844015Y57168961D01*
X28848471Y57212887D01*
X28851549Y57238240D01*
X28858100Y57280620D01*
X28684983Y57230599D01*
X28560163Y57196348D01*
X28319409Y57139043D01*
X28056735Y57086889D01*
X27772717Y57039962D01*
X27467933Y56998338D01*
X27142957Y56962092D01*
X26798367Y56931298D01*
X26434738Y56906033D01*
X26052647Y56886372D01*
X26042906Y56885964D01*
X25948874Y56882829D01*
X25835453Y56880219D01*
X25706192Y56878134D01*
X25564642Y56876575D01*
X25414352Y56875542D01*
X25258871Y56875035D01*
X25101749Y56875055D01*
X24946535Y56875601D01*
X24796778Y56876674D01*
X24656029Y56878275D01*
X24527837Y56880403D01*
X24415750Y56883059D01*
X24323320Y56886243D01*
X24102244Y56896726D01*
X23713001Y56920956D01*
X23341561Y56951739D01*
X22989506Y56988935D01*
X22658417Y57032406D01*
X22491844Y57057680D01*
X22332908Y57084380D01*
X22183086Y57112717D01*
X22036182Y57144011D01*
X21886002Y57179588D01*
X21726350Y57220768D01*
X21551030Y57268876D01*
X21538012Y57269666D01*
X21533837Y57258306D01*
X20985454Y57258306D01*
X20964990Y57409654D01*
X20942704Y57539760D01*
X20918488Y57649328D01*
X20892231Y57739076D01*
X20874803Y57803689D01*
X20865326Y57898636D01*
X21470416Y57898636D01*
X21503281Y57881417D01*
X21579171Y57845278D01*
X21703112Y57797013D01*
X21848341Y57750736D01*
X22013686Y57706623D01*
X22197978Y57664853D01*
X22400047Y57625605D01*
X22618721Y57589054D01*
X22852832Y57555380D01*
X23101207Y57524760D01*
X23362677Y57497372D01*
X23636072Y57473394D01*
X23920220Y57453003D01*
X24213953Y57436378D01*
X24516098Y57423696D01*
X24772360Y57416587D01*
X25072662Y57412699D01*
X25373260Y57413403D01*
X25672587Y57418550D01*
X25969071Y57427991D01*
X26261143Y57441580D01*
X26547233Y57459166D01*
X26825773Y57480602D01*
X27095192Y57505740D01*
X27353921Y57534431D01*
X27600391Y57566527D01*
X27833030Y57601879D01*
X28050271Y57640339D01*
X28250544Y57681759D01*
X28432278Y57725991D01*
X28593904Y57772886D01*
X28733854Y57822296D01*
X28756420Y57831170D01*
X28817191Y57855309D01*
X28858374Y57873113D01*
X28881538Y57886503D01*
X28888251Y57897398D01*
X28880080Y57907716D01*
X28858595Y57919379D01*
X28825364Y57934305D01*
X28807096Y57942298D01*
X28678709Y57991766D01*
X28528563Y58039408D01*
X28358004Y58084958D01*
X28168378Y58128149D01*
X27961029Y58168715D01*
X27737303Y58206389D01*
X27498547Y58240904D01*
X27246105Y58271996D01*
X26981324Y58299396D01*
X26761818Y58318520D01*
X26460119Y58340056D01*
X26154052Y58356718D01*
X25845068Y58368603D01*
X25534615Y58375810D01*
X25224143Y58378434D01*
X24915101Y58376575D01*
X24608939Y58370328D01*
X24307106Y58359793D01*
X24011051Y58345065D01*
X23722224Y58326243D01*
X23442074Y58303423D01*
X23172051Y58276704D01*
X22913604Y58246183D01*
X22668181Y58211958D01*
X22437234Y58174125D01*
X22222210Y58132782D01*
X22024559Y58088027D01*
X21845731Y58039956D01*
X21687176Y57988669D01*
X21550341Y57934261D01*
X21470416Y57898636D01*
X20865326Y57898636D01*
X20865019Y57901713D01*
X20874995Y57996090D01*
X20904563Y58082149D01*
X20942878Y58147189D01*
X21007271Y58224041D01*
X21090522Y58296013D01*
X21193361Y58363517D01*
X21316519Y58426968D01*
X21460728Y58486779D01*
X21626718Y58543363D01*
X21815220Y58597134D01*
X21933387Y58626673D01*
X22170014Y58678235D01*
X22427892Y58725366D01*
X22705894Y58767927D01*
X23002896Y58805782D01*
X23317770Y58838794D01*
X23649392Y58866823D01*
X23996634Y58889735D01*
X24358371Y58907390D01*
X24373412Y58907981D01*
X24478831Y58911286D01*
X24602771Y58913980D01*
X24741427Y58916065D01*
X24890990Y58917539D01*
X25047653Y58918404D01*
X25207608Y58918659D01*
X25367049Y58918304D01*
X25522168Y58917339D01*
X25669157Y58915765D01*
X25804210Y58913580D01*
X25923518Y58910786D01*
X26023274Y58907382D01*
X26204305Y58899108D01*
X26550479Y58879129D01*
X26881185Y58854411D01*
X27195660Y58825071D01*
X27493142Y58791229D01*
X27772866Y58753004D01*
X28034072Y58710514D01*
X28275996Y58663878D01*
X28497875Y58613214D01*
X28698947Y58558642D01*
X28878449Y58500281D01*
X29035619Y58438249D01*
X29132777Y58391475D01*
X29247957Y58322121D01*
X29343518Y58246593D01*
X29418287Y58165852D01*
X29471093Y58080860D01*
X29492703Y58022926D01*
X29508600Y57933834D01*
X29508246Y57897398D01*
X29507710Y57842257D01*
G37*
G36*
X57419988Y58490530D02*
G01*
X57471355Y58400106D01*
X57533467Y58286768D01*
X57608252Y58147385D01*
X57612615Y58139156D01*
X57624682Y58116400D01*
X57705859Y57959398D01*
X57790446Y57790029D01*
X57875715Y57614146D01*
X57958937Y57437603D01*
X58037384Y57266253D01*
X58108327Y57105950D01*
X58169038Y56962547D01*
X58216788Y56841898D01*
X58247987Y56758937D01*
X58415964Y56766408D01*
X58603965Y56767326D01*
X58872416Y56746112D01*
X59152093Y56700543D01*
X59439629Y56632322D01*
X59731655Y56543152D01*
X60024804Y56434736D01*
X60315710Y56308777D01*
X60601004Y56166977D01*
X60877318Y56011041D01*
X61141287Y55842671D01*
X61389541Y55663570D01*
X61618713Y55475441D01*
X61825436Y55279988D01*
X62006343Y55078913D01*
X62158066Y54873919D01*
X62240498Y54739591D01*
X62360317Y54507913D01*
X62468572Y54253170D01*
X62563901Y53980354D01*
X62644946Y53694458D01*
X62710348Y53400473D01*
X62758746Y53103391D01*
X62788782Y52808205D01*
X62797950Y52551948D01*
X62799096Y52519907D01*
X62798804Y52464815D01*
X62790347Y52240788D01*
X62769445Y52043231D01*
X62735075Y51868739D01*
X62686214Y51713908D01*
X62621839Y51575335D01*
X62540927Y51449617D01*
X62442454Y51333348D01*
X62427544Y51317871D01*
X62242631Y51144333D01*
X62028367Y50973059D01*
X61787754Y50805604D01*
X61523796Y50643524D01*
X61239496Y50488373D01*
X60937858Y50341706D01*
X60621883Y50205077D01*
X60294576Y50080043D01*
X59958941Y49968157D01*
X59617979Y49870975D01*
X59603280Y49867154D01*
X59429921Y49823827D01*
X59259036Y49784639D01*
X59087701Y49749243D01*
X58912990Y49717297D01*
X58731978Y49688456D01*
X58541739Y49662375D01*
X58339350Y49638711D01*
X58121884Y49617118D01*
X57886417Y49597253D01*
X57630023Y49578771D01*
X57349778Y49561327D01*
X57042756Y49544579D01*
X56706033Y49528180D01*
X56698579Y49527842D01*
X56600626Y49524337D01*
X56478153Y49521314D01*
X56335243Y49518775D01*
X56175976Y49516723D01*
X56004436Y49515160D01*
X55824702Y49514089D01*
X55640857Y49513511D01*
X55456982Y49513430D01*
X55277159Y49513846D01*
X55105470Y49514763D01*
X54945995Y49516183D01*
X54802817Y49518109D01*
X54680017Y49520542D01*
X54581677Y49523484D01*
X54511877Y49526939D01*
X54232403Y49549759D01*
X53918197Y49585811D01*
X53634378Y49630871D01*
X53380387Y49685032D01*
X53155664Y49748383D01*
X53136138Y49754780D01*
X53020519Y49795087D01*
X52878660Y49847841D01*
X52713309Y49911858D01*
X52527216Y49985952D01*
X52323130Y50068939D01*
X52103799Y50159632D01*
X51871973Y50256848D01*
X51630401Y50359400D01*
X51381832Y50466104D01*
X51129015Y50575774D01*
X50874698Y50687226D01*
X50621632Y50799275D01*
X50372564Y50910734D01*
X50130244Y51020420D01*
X49897421Y51127147D01*
X49676845Y51229729D01*
X49471263Y51326983D01*
X49283425Y51417722D01*
X49222523Y51447548D01*
X49051721Y51531871D01*
X48929698Y51593436D01*
X52413234Y51593436D01*
X52423280Y51581464D01*
X52454959Y51553219D01*
X52503971Y51512131D01*
X52566018Y51461631D01*
X52636802Y51405149D01*
X52712022Y51346116D01*
X52787381Y51287962D01*
X52858579Y51234118D01*
X52921319Y51188015D01*
X52938915Y51175412D01*
X53031508Y51110479D01*
X53145417Y51032356D01*
X53275522Y50944466D01*
X53416702Y50850231D01*
X53563835Y50753074D01*
X53711802Y50656417D01*
X53855480Y50563681D01*
X53925786Y50517771D01*
X54002696Y50465519D01*
X54067711Y50419150D01*
X54115559Y50382441D01*
X54140965Y50359170D01*
X54143871Y50355626D01*
X54159932Y50338636D01*
X54179221Y50326253D01*
X54207597Y50317035D01*
X54250920Y50309540D01*
X54315048Y50302325D01*
X54405840Y50293947D01*
X54440804Y50291447D01*
X54518603Y50287685D01*
X54621853Y50284056D01*
X54746213Y50280616D01*
X54887341Y50277417D01*
X55040895Y50274515D01*
X55202532Y50271963D01*
X55367910Y50269816D01*
X55532687Y50268128D01*
X55692522Y50266954D01*
X55843071Y50266348D01*
X55979992Y50266364D01*
X56098944Y50267056D01*
X56195584Y50268479D01*
X56265570Y50270687D01*
X56286982Y50271691D01*
X56350536Y50274621D01*
X56437102Y50278570D01*
X56540320Y50283250D01*
X56653835Y50288372D01*
X56771287Y50293648D01*
X57007662Y50304867D01*
X57243514Y50317309D01*
X57469375Y50330463D01*
X57680720Y50344038D01*
X57873022Y50357742D01*
X58041756Y50371284D01*
X58182398Y50384375D01*
X58316280Y50399207D01*
X58727458Y50459228D01*
X59133766Y50539953D01*
X59532000Y50640244D01*
X59918957Y50758962D01*
X60291435Y50894968D01*
X60646229Y51047125D01*
X60980137Y51214294D01*
X61289955Y51395336D01*
X61572480Y51589114D01*
X61618386Y51623760D01*
X61743191Y51723209D01*
X61840813Y51810000D01*
X61910578Y51883505D01*
X61951811Y51943094D01*
X61957137Y51953864D01*
X61998813Y52069185D01*
X62026916Y52209794D01*
X62041920Y52371959D01*
X62044302Y52551948D01*
X62034538Y52746030D01*
X62013102Y52950472D01*
X61980471Y53161542D01*
X61937119Y53375509D01*
X61883523Y53588640D01*
X61820159Y53797203D01*
X61747501Y53997467D01*
X61666025Y54185700D01*
X61626914Y54265703D01*
X61557809Y54391952D01*
X61484944Y54502794D01*
X61401081Y54608772D01*
X61298982Y54720430D01*
X61295981Y54723542D01*
X61092496Y54915677D01*
X60861835Y55100581D01*
X60609053Y55275610D01*
X60339203Y55438120D01*
X60057338Y55585465D01*
X59768512Y55715001D01*
X59477779Y55824084D01*
X59190191Y55910067D01*
X58910802Y55970307D01*
X58894403Y55973000D01*
X58816707Y55983776D01*
X58733759Y55992685D01*
X58651830Y55999362D01*
X58577191Y56003444D01*
X58516113Y56004567D01*
X58474868Y56002367D01*
X58459726Y55996481D01*
X58461674Y55984316D01*
X58468777Y55943833D01*
X58480335Y55879247D01*
X58495561Y55794929D01*
X58513671Y55695246D01*
X58533876Y55584567D01*
X58547225Y55510932D01*
X58570866Y55378328D01*
X58597719Y55225642D01*
X58626520Y55060141D01*
X58656008Y54889092D01*
X58684920Y54719760D01*
X58711992Y54559413D01*
X58720234Y54510228D01*
X58760103Y54270645D01*
X58794483Y54060159D01*
X58823597Y53876239D01*
X58847671Y53716351D01*
X58866929Y53577962D01*
X58881594Y53458537D01*
X58891891Y53355544D01*
X58898044Y53266450D01*
X58899959Y53199856D01*
X58900279Y53188720D01*
X58898818Y53119822D01*
X58893886Y53057221D01*
X58885708Y52998386D01*
X58874508Y52940781D01*
X58860510Y52881875D01*
X58840357Y52810013D01*
X58761830Y52608794D01*
X58655429Y52422756D01*
X58522610Y52253366D01*
X58364833Y52102090D01*
X58183555Y51970394D01*
X57980235Y51859745D01*
X57756330Y51771607D01*
X57661992Y51744129D01*
X57517164Y51710016D01*
X57345378Y51676404D01*
X57149783Y51643556D01*
X56933530Y51611731D01*
X56699767Y51581190D01*
X56451644Y51552193D01*
X56192310Y51525002D01*
X55924914Y51499876D01*
X55652606Y51477076D01*
X55378536Y51456862D01*
X55105853Y51439496D01*
X54837705Y51425237D01*
X54577243Y51414347D01*
X54327616Y51407085D01*
X54091973Y51403713D01*
X53873464Y51404490D01*
X53675239Y51409678D01*
X53500445Y51419537D01*
X53408389Y51427423D01*
X53285288Y51441005D01*
X53155211Y51459034D01*
X53012011Y51482460D01*
X52849541Y51512236D01*
X52661651Y51549313D01*
X52616176Y51558415D01*
X52537251Y51573648D01*
X52473367Y51585234D01*
X52430159Y51592173D01*
X52413259Y51593463D01*
X52413234Y51593436D01*
X48929698Y51593436D01*
X48904742Y51606027D01*
X48777244Y51672764D01*
X48664885Y51734827D01*
X48563324Y51794965D01*
X48468218Y51855922D01*
X48375227Y51920446D01*
X48280007Y51991284D01*
X48178219Y52071183D01*
X48065520Y52162888D01*
X47937568Y52269146D01*
X47902609Y52298407D01*
X47686674Y52481833D01*
X47476869Y52664582D01*
X47275172Y52844736D01*
X47083560Y53020380D01*
X46904008Y53189597D01*
X46738495Y53350470D01*
X46588997Y53501083D01*
X46552368Y53539642D01*
X49859441Y53539642D01*
X49859807Y53521233D01*
X49861517Y53519802D01*
X49883339Y53502850D01*
X49927553Y53469029D01*
X49991305Y53420509D01*
X50071739Y53359457D01*
X50166000Y53288041D01*
X50271232Y53208429D01*
X50384581Y53122788D01*
X50898454Y52734778D01*
X51110529Y52681375D01*
X51198502Y52659422D01*
X51384938Y52614027D01*
X51581932Y52567394D01*
X51785962Y52520272D01*
X51993507Y52473409D01*
X52201047Y52427553D01*
X52405060Y52383453D01*
X52602025Y52341855D01*
X52788421Y52303508D01*
X52960726Y52269161D01*
X53115421Y52239562D01*
X53248983Y52215458D01*
X53357892Y52197598D01*
X53438627Y52186730D01*
X53451527Y52185539D01*
X53510469Y52182212D01*
X53595349Y52179330D01*
X53701139Y52176916D01*
X53822814Y52174995D01*
X53955344Y52173591D01*
X54093704Y52172729D01*
X54232864Y52172433D01*
X54367800Y52172727D01*
X54493482Y52173636D01*
X54604883Y52175185D01*
X54696977Y52177397D01*
X54764736Y52180297D01*
X54795991Y52182170D01*
X54859607Y52185959D01*
X54942950Y52190907D01*
X55038802Y52196587D01*
X55139944Y52202569D01*
X55219071Y52207417D01*
X55443260Y52222891D01*
X55672123Y52241046D01*
X55902274Y52261478D01*
X56130325Y52283783D01*
X56352890Y52307556D01*
X56566583Y52332394D01*
X56768016Y52357891D01*
X56953804Y52383644D01*
X57120559Y52409247D01*
X57264895Y52434297D01*
X57383426Y52458389D01*
X57472764Y52481119D01*
X57473608Y52481370D01*
X57642456Y52545119D01*
X57790698Y52628506D01*
X57916209Y52729487D01*
X58016861Y52846019D01*
X58090528Y52976060D01*
X58135085Y53117565D01*
X58135847Y53121441D01*
X58141592Y53159167D01*
X58143812Y53199856D01*
X58142132Y53249349D01*
X58136178Y53313490D01*
X58125574Y53398122D01*
X58109944Y53509087D01*
X58099029Y53583317D01*
X58075191Y53739798D01*
X58048021Y53912082D01*
X58018086Y54096969D01*
X57985952Y54291257D01*
X57952187Y54491745D01*
X57917357Y54695231D01*
X57882028Y54898515D01*
X57846768Y55098396D01*
X57812144Y55291671D01*
X57778721Y55475140D01*
X57747068Y55645601D01*
X57717750Y55799854D01*
X57691334Y55934697D01*
X57668388Y56046929D01*
X57649477Y56133349D01*
X57635170Y56190755D01*
X57599083Y56305526D01*
X57548583Y56446067D01*
X57486217Y56605865D01*
X57414010Y56780257D01*
X57333987Y56964580D01*
X57248175Y57154169D01*
X57158598Y57344362D01*
X57067281Y57530494D01*
X56976251Y57707903D01*
X56972901Y57714268D01*
X56925393Y57803429D01*
X56889559Y57867511D01*
X56862720Y57910414D01*
X56842200Y57936042D01*
X56825321Y57948295D01*
X56809407Y57951077D01*
X56788739Y57948079D01*
X56739184Y57938644D01*
X56666598Y57923750D01*
X56575684Y57904384D01*
X56471145Y57881534D01*
X56357681Y57856187D01*
X56249478Y57832017D01*
X56086637Y57797093D01*
X55946610Y57769560D01*
X55823916Y57748735D01*
X55713074Y57733929D01*
X55608603Y57724459D01*
X55505022Y57719638D01*
X55396851Y57718781D01*
X55278608Y57721202D01*
X55131018Y57727645D01*
X54972986Y57740661D01*
X54823436Y57761163D01*
X54669558Y57790970D01*
X54498540Y57831899D01*
X54428477Y57849755D01*
X54367755Y57865044D01*
X54325820Y57875390D01*
X54309075Y57879194D01*
X54306929Y57875024D01*
X54300824Y57847567D01*
X54293784Y57802926D01*
X54293164Y57798988D01*
X54280420Y57754945D01*
X54253504Y57688582D01*
X54211766Y57598483D01*
X54154553Y57483234D01*
X54081213Y57341418D01*
X54017135Y57220056D01*
X53872035Y56951780D01*
X53736169Y56710700D01*
X53607966Y56494455D01*
X53485852Y56300685D01*
X53368256Y56127033D01*
X53253605Y55971137D01*
X53140326Y55830638D01*
X53026847Y55703178D01*
X52911596Y55586397D01*
X52902402Y55577587D01*
X52756550Y55448107D01*
X52613315Y55342576D01*
X52467069Y55258615D01*
X52312181Y55193842D01*
X52143021Y55145878D01*
X51953959Y55112344D01*
X51739367Y55090858D01*
X51662169Y55086455D01*
X51416107Y55085903D01*
X51171990Y55104836D01*
X50938502Y55142341D01*
X50724329Y55197507D01*
X50660355Y55218788D01*
X50544079Y55262092D01*
X50430411Y55309620D01*
X50329010Y55357236D01*
X50249535Y55400806D01*
X50213789Y55421357D01*
X50179214Y55434747D01*
X50164672Y55428235D01*
X50164096Y55426465D01*
X50154945Y55389714D01*
X50141937Y55326419D01*
X50125625Y55240032D01*
X50106561Y55134007D01*
X50085297Y55011796D01*
X50062385Y54876852D01*
X50038376Y54732628D01*
X50013823Y54582578D01*
X49989278Y54430153D01*
X49965293Y54278807D01*
X49942420Y54131993D01*
X49921211Y53993164D01*
X49902217Y53865773D01*
X49885991Y53753272D01*
X49873085Y53659115D01*
X49864051Y53586754D01*
X49859441Y53539642D01*
X46552368Y53539642D01*
X46457490Y53639520D01*
X46345953Y53763864D01*
X46256361Y53872198D01*
X46190692Y53962606D01*
X46158213Y54014215D01*
X46071885Y54179984D01*
X46011197Y54346105D01*
X45975943Y54509769D01*
X45965920Y54668171D01*
X45980922Y54818505D01*
X46020744Y54957963D01*
X46085181Y55083740D01*
X46174029Y55193028D01*
X46287083Y55283021D01*
X46287714Y55283421D01*
X46382505Y55333162D01*
X46484305Y55365528D01*
X46595425Y55380148D01*
X46718178Y55376651D01*
X46854876Y55354666D01*
X47007833Y55313822D01*
X47179361Y55253748D01*
X47371772Y55174073D01*
X47587379Y55074426D01*
X47954735Y54886505D01*
X48297265Y54687696D01*
X48616367Y54476738D01*
X48916288Y54251001D01*
X48917624Y54249929D01*
X48991993Y54191103D01*
X49057086Y54141135D01*
X49108905Y54102969D01*
X49143453Y54079553D01*
X49156731Y54073832D01*
X49157527Y54077490D01*
X49162971Y54107584D01*
X49172765Y54164256D01*
X49186224Y54243463D01*
X49202664Y54341164D01*
X49221401Y54453318D01*
X49241749Y54575882D01*
X49270370Y54746835D01*
X49309377Y54974380D01*
X49349797Y55204632D01*
X49390968Y55434099D01*
X49432227Y55659290D01*
X49472913Y55876713D01*
X49512362Y56082876D01*
X49541008Y56228894D01*
X50319623Y56228894D01*
X50320046Y56223961D01*
X50337768Y56203986D01*
X50384161Y56190826D01*
X50384194Y56190820D01*
X50430881Y56176183D01*
X50490939Y56148364D01*
X50551373Y56113381D01*
X50606025Y56079422D01*
X50797554Y55982804D01*
X51005247Y55911361D01*
X51232879Y55863708D01*
X51256828Y55860240D01*
X51496259Y55842214D01*
X51744826Y55852218D01*
X51996058Y55890030D01*
X52045432Y55904605D01*
X52136622Y55948186D01*
X52236235Y56012990D01*
X52338583Y56095146D01*
X52437979Y56190783D01*
X52543881Y56309182D01*
X52655339Y56448598D01*
X52770055Y56607257D01*
X52889261Y56787091D01*
X53014187Y56990033D01*
X53146066Y57218018D01*
X53286128Y57472977D01*
X53435606Y57756844D01*
X53442215Y57769610D01*
X53490109Y57861316D01*
X53534474Y57944931D01*
X53572479Y58015213D01*
X53601295Y58066923D01*
X53618093Y58094821D01*
X53648738Y58139156D01*
X53586827Y58165695D01*
X53479543Y58210459D01*
X53240858Y58299747D01*
X53011979Y58369201D01*
X52783610Y58421086D01*
X52546453Y58457666D01*
X52291211Y58481204D01*
X52018670Y58488363D01*
X51746402Y58471374D01*
X51491368Y58429442D01*
X51255135Y58362829D01*
X51039267Y58271797D01*
X50995960Y58249071D01*
X50923082Y58202762D01*
X50866526Y58150675D01*
X50817941Y58084257D01*
X50768977Y57994956D01*
X50764863Y57986701D01*
X50729679Y57911276D01*
X50697036Y57831104D01*
X50665807Y57742266D01*
X50634862Y57640842D01*
X50603073Y57522912D01*
X50569310Y57384558D01*
X50532445Y57221859D01*
X50491350Y57030896D01*
X50489751Y57023326D01*
X50464108Y56902938D01*
X50437190Y56778129D01*
X50410977Y56657990D01*
X50387453Y56551611D01*
X50368601Y56468083D01*
X50365068Y56452624D01*
X50347377Y56373033D01*
X50332971Y56304648D01*
X50323252Y56254319D01*
X50319623Y56228894D01*
X49541008Y56228894D01*
X49549913Y56274288D01*
X49584904Y56447459D01*
X49616672Y56598895D01*
X49644555Y56725106D01*
X49667891Y56822600D01*
X49670782Y56834211D01*
X49685211Y56895909D01*
X49704115Y56980816D01*
X49725986Y57081989D01*
X49749319Y57192483D01*
X49772607Y57305355D01*
X49800663Y57438919D01*
X49855838Y57676514D01*
X49912540Y57885884D01*
X49971969Y58069941D01*
X50035322Y58231596D01*
X50103799Y58373760D01*
X50178598Y58499344D01*
X50260917Y58611257D01*
X50351955Y58712412D01*
X50357406Y58717853D01*
X54238750Y58717853D01*
X54238880Y58717735D01*
X54257557Y58709397D01*
X54300711Y58693188D01*
X54362055Y58671396D01*
X54435302Y58646310D01*
X54499565Y58625360D01*
X54729565Y58560991D01*
X54957717Y58512822D01*
X55172571Y58483386D01*
X55230476Y58478351D01*
X55306454Y58472957D01*
X55369203Y58469865D01*
X55409116Y58469634D01*
X55441474Y58471426D01*
X55502809Y58474862D01*
X55568172Y58478556D01*
X55616545Y58482859D01*
X55655279Y58489724D01*
X55670131Y58497255D01*
X55659306Y58504851D01*
X55621339Y58519969D01*
X55560714Y58540329D01*
X55482293Y58564441D01*
X55390939Y58590820D01*
X55291515Y58617979D01*
X55188885Y58644429D01*
X55116438Y58661797D01*
X54944281Y58697704D01*
X54777986Y58725234D01*
X54625699Y58743145D01*
X54495564Y58750192D01*
X54494156Y58750206D01*
X54405172Y58749267D01*
X54330586Y58744989D01*
X54274952Y58737945D01*
X54242823Y58728709D01*
X54238750Y58717853D01*
X50357406Y58717853D01*
X50380935Y58741341D01*
X50446671Y58802699D01*
X50506770Y58849996D01*
X50572156Y58891273D01*
X50653753Y58934571D01*
X50728914Y58971227D01*
X50952213Y59065578D01*
X51178849Y59138529D01*
X51415195Y59191611D01*
X51667625Y59226356D01*
X51942513Y59244296D01*
X52122866Y59246872D01*
X52479144Y59230630D01*
X52827591Y59186657D01*
X52994878Y59158399D01*
X53045163Y59210279D01*
X53053689Y59218643D01*
X53103982Y59258532D01*
X53155204Y59288060D01*
X53169224Y59292786D01*
X53216239Y59304946D01*
X53288511Y59321425D01*
X53381710Y59341309D01*
X53491502Y59363684D01*
X53613556Y59387635D01*
X53743538Y59412248D01*
X53764040Y59416052D01*
X53953398Y59450078D01*
X54117078Y59476650D01*
X54260599Y59495831D01*
X54389481Y59507683D01*
X54509242Y59512269D01*
X54625402Y59509653D01*
X54743480Y59499896D01*
X54868995Y59483062D01*
X55007467Y59459214D01*
X55164414Y59428413D01*
X55212050Y59418542D01*
X55329612Y59392587D01*
X55445074Y59364436D01*
X55562477Y59332825D01*
X55685859Y59296489D01*
X55819260Y59254163D01*
X55966719Y59204584D01*
X56132275Y59146486D01*
X56319967Y59078605D01*
X56533834Y58999676D01*
X56612032Y58970535D01*
X56782072Y58906537D01*
X56923743Y58852165D01*
X57038799Y58806702D01*
X57128996Y58769431D01*
X57196089Y58739633D01*
X57241833Y58716592D01*
X57267984Y58699590D01*
X57283381Y58685700D01*
X57311062Y58655624D01*
X57341771Y58615158D01*
X57377437Y58561170D01*
X57415937Y58497255D01*
X57419988Y58490530D01*
G37*
%TD*%
M02*
