%TF.GenerationSoftware,KiCad,Pcbnew,10.0.1*%
%TF.CreationDate,2026-09-22T08:02:43-04:00*%
%TF.ProjectId,eib-64-cap,6569622d-3634-42d6-9361-702e6b696361,B*%
%TF.SameCoordinates,PX362b300PY93888e0*%
%TF.FileFunction,Soldermask,Top*%
%TF.FilePolarity,Negative*%
%FSLAX46Y46*%
G04 Gerber Fmt 4.6, Leading zero omitted, Abs format (unit mm)*
G04 Created by KiCad (PCBNEW 10.0.1) date 2026-09-22 08:02:43*
%MOMM*%
%LPD*%
G01*
G04 APERTURE LIST*
%ADD10C,0.000000*%
%ADD11R,0.230000X0.660000*%
%ADD12R,0.350000X0.660000*%
G04 APERTURE END LIST*
D10*
%TO.C,G\u002A\u002A\u002A*%
G36*
X51057548Y63303707D02*
G01*
X51100505Y63279542D01*
X51132413Y63243403D01*
X51136035Y63236777D01*
X51142146Y63222878D01*
X51155559Y63191054D01*
X51175792Y63142481D01*
X51202362Y63078334D01*
X51234785Y62999789D01*
X51272579Y62908020D01*
X51315261Y62804202D01*
X51362346Y62689511D01*
X51413353Y62565122D01*
X51467798Y62432210D01*
X51525198Y62291950D01*
X51585070Y62145517D01*
X51646932Y61994086D01*
X51653240Y61978637D01*
X51715354Y61826553D01*
X51775571Y61679206D01*
X51833403Y61537783D01*
X51888362Y61403473D01*
X51939962Y61277464D01*
X51987715Y61160944D01*
X52031134Y61055100D01*
X52069731Y60961121D01*
X52103019Y60880195D01*
X52130510Y60813509D01*
X52151718Y60762252D01*
X52166154Y60727612D01*
X52173332Y60710777D01*
X52173602Y60710184D01*
X52192382Y60651059D01*
X52191690Y60595915D01*
X52181639Y60562898D01*
X52176155Y60546948D01*
X52165408Y60513147D01*
X52149986Y60463423D01*
X52130474Y60399705D01*
X52107459Y60323919D01*
X52081528Y60237995D01*
X52053266Y60143860D01*
X52023260Y60043441D01*
X52005308Y59983144D01*
X51974643Y59880139D01*
X51945478Y59782428D01*
X51918390Y59691919D01*
X51893953Y59610522D01*
X51872740Y59540144D01*
X51855328Y59482693D01*
X51842290Y59440079D01*
X51834202Y59414210D01*
X51831989Y59407587D01*
X51806877Y59367583D01*
X51768264Y59339393D01*
X51720324Y59324203D01*
X51667231Y59323197D01*
X51613160Y59337561D01*
X51602482Y59342438D01*
X51587465Y59349146D01*
X51554607Y59363321D01*
X51505083Y59384472D01*
X51440062Y59412105D01*
X51360719Y59445730D01*
X51268226Y59484853D01*
X51163753Y59528982D01*
X51048475Y59577624D01*
X50923563Y59630287D01*
X50790189Y59686479D01*
X50649526Y59745708D01*
X50502746Y59807480D01*
X50351021Y59871304D01*
X50195523Y59936687D01*
X50037426Y60003137D01*
X49877900Y60070161D01*
X49718119Y60137268D01*
X49559254Y60203963D01*
X49402478Y60269756D01*
X49248964Y60334154D01*
X49099883Y60396664D01*
X48956407Y60456794D01*
X48819709Y60514052D01*
X48690962Y60567945D01*
X48571337Y60617981D01*
X48462007Y60663667D01*
X48364144Y60704511D01*
X48312822Y60725895D01*
X49134522Y60725895D01*
X49134992Y60725334D01*
X49145465Y60720190D01*
X49173399Y60707787D01*
X49217309Y60688746D01*
X49275711Y60663690D01*
X49347120Y60633241D01*
X49430052Y60598021D01*
X49523023Y60558654D01*
X49624550Y60515760D01*
X49733147Y60469963D01*
X49847330Y60421885D01*
X49965616Y60372148D01*
X50086519Y60321374D01*
X50208556Y60270186D01*
X50330243Y60219207D01*
X50450096Y60169058D01*
X50566629Y60120361D01*
X50678359Y60073740D01*
X50783802Y60029816D01*
X50881474Y59989212D01*
X50969890Y59952551D01*
X51047566Y59920453D01*
X51113017Y59893543D01*
X51164761Y59872442D01*
X51201312Y59857772D01*
X51221185Y59850156D01*
X51224480Y59849207D01*
X51219469Y59858107D01*
X51203575Y59881996D01*
X51178007Y59919151D01*
X51143972Y59967850D01*
X51102677Y60026370D01*
X51055332Y60092991D01*
X51003142Y60165989D01*
X50967440Y60215701D01*
X50911957Y60292345D01*
X50859529Y60363857D01*
X50811502Y60428469D01*
X50769220Y60484415D01*
X50734025Y60529926D01*
X50716945Y60551185D01*
X51115414Y60551185D01*
X51120490Y60542586D01*
X51136019Y60519613D01*
X51160367Y60484605D01*
X51191898Y60439898D01*
X51228980Y60387831D01*
X51254634Y60352054D01*
X51294619Y60296801D01*
X51330550Y60247853D01*
X51360725Y60207475D01*
X51383437Y60177930D01*
X51396984Y60161484D01*
X51400053Y60158874D01*
X51399484Y60169732D01*
X51395543Y60197519D01*
X51388771Y60238913D01*
X51379707Y60290591D01*
X51370434Y60341034D01*
X51359222Y60399310D01*
X51348837Y60450462D01*
X51340019Y60491067D01*
X51337750Y60500344D01*
X51662490Y60500344D01*
X51662610Y60489083D01*
X51666132Y60461346D01*
X51672491Y60420899D01*
X51681125Y60371508D01*
X51684571Y60352852D01*
X51697441Y60284230D01*
X51707086Y60233330D01*
X51714058Y60197596D01*
X51718912Y60174475D01*
X51722201Y60161411D01*
X51724477Y60155851D01*
X51726295Y60155239D01*
X51727204Y60155991D01*
X51731456Y60166801D01*
X51740464Y60193907D01*
X51753118Y60233831D01*
X51768308Y60283095D01*
X51777666Y60313996D01*
X51793617Y60367678D01*
X51807208Y60414716D01*
X51817405Y60451426D01*
X51823174Y60474124D01*
X51824084Y60479306D01*
X51814838Y60484777D01*
X51790986Y60490640D01*
X51758514Y60496116D01*
X51723408Y60500426D01*
X51691654Y60502790D01*
X51669237Y60502429D01*
X51662490Y60500344D01*
X51337750Y60500344D01*
X51333505Y60517703D01*
X51330336Y60526800D01*
X51318683Y60530156D01*
X51291989Y60534604D01*
X51255613Y60539535D01*
X51214914Y60544342D01*
X51175254Y60548416D01*
X51141990Y60551149D01*
X51120483Y60551934D01*
X51115414Y60551185D01*
X50716945Y60551185D01*
X50707263Y60563235D01*
X50690277Y60582575D01*
X50685287Y60586758D01*
X50671717Y60589007D01*
X50639281Y60592818D01*
X50589666Y60598029D01*
X50524559Y60604483D01*
X50445648Y60612020D01*
X50354620Y60620480D01*
X50253162Y60629705D01*
X50142962Y60639535D01*
X50025707Y60649811D01*
X49926681Y60658355D01*
X49804643Y60668855D01*
X49688062Y60678971D01*
X49578652Y60688547D01*
X49478131Y60697430D01*
X49388214Y60705466D01*
X49310617Y60712500D01*
X49247057Y60718379D01*
X49199249Y60722948D01*
X49168911Y60726053D01*
X49158390Y60727376D01*
X49139340Y60729230D01*
X49134522Y60725895D01*
X48312822Y60725895D01*
X48278920Y60740021D01*
X48207508Y60769704D01*
X48151080Y60793068D01*
X48110808Y60809621D01*
X48087865Y60818869D01*
X48083608Y60820481D01*
X48038727Y60844908D01*
X48001309Y60881586D01*
X47976759Y60924602D01*
X47971612Y60942992D01*
X47968993Y60956352D01*
X47967027Y60968552D01*
X47966540Y60980463D01*
X47968361Y60992954D01*
X47973317Y61006893D01*
X47982237Y61023151D01*
X47995949Y61042597D01*
X48015279Y61066099D01*
X48041056Y61094528D01*
X48048396Y61102128D01*
X48503538Y61102128D01*
X48513310Y61099488D01*
X48540590Y61095578D01*
X48582323Y61090747D01*
X48635457Y61085342D01*
X48696936Y61079709D01*
X48712369Y61078381D01*
X48763887Y61073995D01*
X48813434Y61069753D01*
X48862799Y61065497D01*
X48913772Y61061068D01*
X48968142Y61056307D01*
X49027699Y61051056D01*
X49094231Y61045155D01*
X49169528Y61038445D01*
X49255379Y61030768D01*
X49353574Y61021964D01*
X49465902Y61011875D01*
X49594152Y61000341D01*
X49740114Y60987204D01*
X49833867Y60978763D01*
X49962335Y60967201D01*
X50071764Y60957389D01*
X50163654Y60949224D01*
X50239507Y60942603D01*
X50300826Y60937425D01*
X50349112Y60933586D01*
X50385866Y60930984D01*
X50412592Y60929516D01*
X50430790Y60929081D01*
X50441962Y60929575D01*
X50447610Y60930895D01*
X50449236Y60932941D01*
X50448341Y60935607D01*
X50447591Y60936863D01*
X50435685Y60954697D01*
X50413433Y60986602D01*
X50382022Y61030947D01*
X50342637Y61086101D01*
X50296465Y61150433D01*
X50244693Y61222310D01*
X50188506Y61300103D01*
X50129092Y61382179D01*
X50067636Y61466908D01*
X50005324Y61552657D01*
X49943344Y61637797D01*
X49925979Y61661606D01*
X50316283Y61661606D01*
X50324356Y61646919D01*
X50340772Y61622851D01*
X50354952Y61603145D01*
X50379632Y61568818D01*
X50413279Y61522005D01*
X50454360Y61464837D01*
X50501342Y61399448D01*
X50552694Y61327970D01*
X50606883Y61252536D01*
X50622373Y61230972D01*
X50866823Y60890655D01*
X51033557Y60873968D01*
X51093081Y60868156D01*
X51148148Y60863047D01*
X51194255Y60859038D01*
X51226899Y60856527D01*
X51237703Y60855921D01*
X51275116Y60854561D01*
X51260557Y60924171D01*
X51250637Y60962009D01*
X51238871Y60993175D01*
X51228301Y61010295D01*
X51216672Y61019334D01*
X51189876Y61039136D01*
X51149555Y61068516D01*
X51097353Y61106287D01*
X51034913Y61151266D01*
X50963879Y61202266D01*
X50885894Y61258102D01*
X50802603Y61317589D01*
X50772316Y61339184D01*
X50687679Y61399517D01*
X50607847Y61456447D01*
X50534448Y61508811D01*
X50469112Y61555444D01*
X50413469Y61595183D01*
X50369147Y61626865D01*
X50337777Y61649326D01*
X50320988Y61661404D01*
X50318825Y61662987D01*
X50316283Y61661606D01*
X49925979Y61661606D01*
X49882882Y61720695D01*
X49825123Y61799720D01*
X49771254Y61873241D01*
X49722462Y61939627D01*
X49679933Y61997247D01*
X49644852Y62044468D01*
X49618408Y62079660D01*
X49601785Y62101192D01*
X49596219Y62107545D01*
X49587332Y62100755D01*
X49564822Y62081289D01*
X49530158Y62050498D01*
X49484813Y62009737D01*
X49430255Y61960359D01*
X49367957Y61903716D01*
X49299388Y61841162D01*
X49226019Y61774051D01*
X49149321Y61703735D01*
X49070764Y61631567D01*
X48991820Y61558901D01*
X48913958Y61487090D01*
X48838650Y61417488D01*
X48767365Y61351446D01*
X48701576Y61290320D01*
X48642751Y61235461D01*
X48592363Y61188223D01*
X48551882Y61149959D01*
X48522777Y61122022D01*
X48506521Y61105766D01*
X48503538Y61102128D01*
X48048396Y61102128D01*
X48074108Y61128753D01*
X48115262Y61169642D01*
X48165347Y61218065D01*
X48225189Y61274892D01*
X48295617Y61340992D01*
X48377458Y61417234D01*
X48471541Y61504487D01*
X48578693Y61603621D01*
X48699742Y61715506D01*
X48762198Y61773229D01*
X48869687Y61872459D01*
X48973282Y61967852D01*
X49071935Y62058457D01*
X49164599Y62143322D01*
X49250226Y62221497D01*
X49327768Y62292029D01*
X49396179Y62353968D01*
X49454410Y62406362D01*
X49501415Y62448260D01*
X49536145Y62478710D01*
X49557553Y62496761D01*
X49564110Y62501538D01*
X49614594Y62513626D01*
X49665825Y62506088D01*
X49686903Y62496830D01*
X49700229Y62488180D01*
X49729011Y62468400D01*
X49771962Y62438403D01*
X49827794Y62399104D01*
X49895219Y62351416D01*
X49972950Y62296251D01*
X50059699Y62234524D01*
X50154178Y62167148D01*
X50255100Y62095037D01*
X50361176Y62019103D01*
X50437503Y61964383D01*
X50545563Y61886937D01*
X50648756Y61813118D01*
X50745866Y61743790D01*
X50835672Y61679816D01*
X50916957Y61622060D01*
X50988503Y61571385D01*
X51049090Y61528655D01*
X51097500Y61494732D01*
X51132515Y61470481D01*
X51152916Y61456764D01*
X51157892Y61453908D01*
X51156537Y61464406D01*
X51151623Y61493672D01*
X51143427Y61540205D01*
X51132223Y61602508D01*
X51124336Y61645838D01*
X51446717Y61645838D01*
X51447604Y61635214D01*
X51451895Y61607237D01*
X51459090Y61564807D01*
X51468689Y61510823D01*
X51480195Y61448186D01*
X51486862Y61412645D01*
X51530294Y61182738D01*
X51597326Y61132745D01*
X51638338Y61103141D01*
X51664785Y61086510D01*
X51677684Y61082314D01*
X51678108Y61089873D01*
X51628372Y61211829D01*
X51585871Y61315857D01*
X51550111Y61403151D01*
X51520594Y61474904D01*
X51496823Y61532309D01*
X51478303Y61576560D01*
X51464536Y61608849D01*
X51455026Y61630370D01*
X51449276Y61642315D01*
X51446790Y61645879D01*
X51446717Y61645838D01*
X51124336Y61645838D01*
X51118285Y61679082D01*
X51101888Y61768427D01*
X51083307Y61869044D01*
X51062816Y61979435D01*
X51040691Y62098102D01*
X51017205Y62223544D01*
X51003160Y62298328D01*
X50978886Y62427792D01*
X50955741Y62551926D01*
X50934012Y62669165D01*
X50913982Y62777942D01*
X50895934Y62876691D01*
X50880154Y62963847D01*
X50866926Y63037844D01*
X50856533Y63097116D01*
X50849260Y63140097D01*
X50845391Y63165221D01*
X50844817Y63170799D01*
X50852820Y63206995D01*
X50874631Y63246165D01*
X50906005Y63281312D01*
X50917586Y63290726D01*
X50960568Y63310662D01*
X51009062Y63314535D01*
X51057548Y63303707D01*
G37*
G36*
X111157548Y63303707D02*
G01*
X111200505Y63279542D01*
X111232413Y63243403D01*
X111236035Y63236777D01*
X111242146Y63222878D01*
X111255559Y63191054D01*
X111275792Y63142481D01*
X111302362Y63078334D01*
X111334785Y62999789D01*
X111372579Y62908020D01*
X111415261Y62804202D01*
X111462346Y62689511D01*
X111513353Y62565122D01*
X111567798Y62432210D01*
X111625198Y62291950D01*
X111685070Y62145517D01*
X111746932Y61994086D01*
X111753240Y61978637D01*
X111815354Y61826553D01*
X111875571Y61679206D01*
X111933403Y61537783D01*
X111988362Y61403473D01*
X112039962Y61277464D01*
X112087715Y61160944D01*
X112131134Y61055100D01*
X112169731Y60961121D01*
X112203019Y60880195D01*
X112230510Y60813509D01*
X112251718Y60762252D01*
X112266154Y60727612D01*
X112273332Y60710777D01*
X112273602Y60710184D01*
X112292382Y60651059D01*
X112291690Y60595915D01*
X112281639Y60562898D01*
X112276155Y60546948D01*
X112265408Y60513147D01*
X112249986Y60463423D01*
X112230474Y60399705D01*
X112207459Y60323919D01*
X112181528Y60237995D01*
X112153266Y60143860D01*
X112123260Y60043441D01*
X112105308Y59983144D01*
X112074643Y59880139D01*
X112045478Y59782428D01*
X112018390Y59691919D01*
X111993953Y59610522D01*
X111972740Y59540144D01*
X111955328Y59482693D01*
X111942290Y59440079D01*
X111934202Y59414210D01*
X111931989Y59407587D01*
X111906877Y59367583D01*
X111868264Y59339393D01*
X111820324Y59324203D01*
X111767231Y59323197D01*
X111713160Y59337561D01*
X111702482Y59342438D01*
X111687465Y59349146D01*
X111654607Y59363321D01*
X111605083Y59384472D01*
X111540062Y59412105D01*
X111460719Y59445730D01*
X111368226Y59484853D01*
X111263753Y59528982D01*
X111148475Y59577624D01*
X111023563Y59630287D01*
X110890189Y59686479D01*
X110749526Y59745708D01*
X110602746Y59807480D01*
X110451021Y59871304D01*
X110295523Y59936687D01*
X110137426Y60003137D01*
X109977900Y60070161D01*
X109818119Y60137268D01*
X109659254Y60203963D01*
X109502478Y60269756D01*
X109348964Y60334154D01*
X109199883Y60396664D01*
X109056407Y60456794D01*
X108919709Y60514052D01*
X108790962Y60567945D01*
X108671337Y60617981D01*
X108562007Y60663667D01*
X108464144Y60704511D01*
X108412822Y60725895D01*
X109234522Y60725895D01*
X109234992Y60725334D01*
X109245465Y60720190D01*
X109273399Y60707787D01*
X109317309Y60688746D01*
X109375711Y60663690D01*
X109447120Y60633241D01*
X109530052Y60598021D01*
X109623023Y60558654D01*
X109724550Y60515760D01*
X109833147Y60469963D01*
X109947330Y60421885D01*
X110065616Y60372148D01*
X110186519Y60321374D01*
X110308556Y60270186D01*
X110430243Y60219207D01*
X110550096Y60169058D01*
X110666629Y60120361D01*
X110778359Y60073740D01*
X110883802Y60029816D01*
X110981474Y59989212D01*
X111069890Y59952551D01*
X111147566Y59920453D01*
X111213017Y59893543D01*
X111264761Y59872442D01*
X111301312Y59857772D01*
X111321185Y59850156D01*
X111324480Y59849207D01*
X111319469Y59858107D01*
X111303575Y59881996D01*
X111278007Y59919151D01*
X111243972Y59967850D01*
X111202677Y60026370D01*
X111155332Y60092991D01*
X111103142Y60165989D01*
X111067440Y60215701D01*
X111011957Y60292345D01*
X110959529Y60363857D01*
X110911502Y60428469D01*
X110869220Y60484415D01*
X110834025Y60529926D01*
X110816945Y60551185D01*
X111215414Y60551185D01*
X111220490Y60542586D01*
X111236019Y60519613D01*
X111260367Y60484605D01*
X111291898Y60439898D01*
X111328980Y60387831D01*
X111354634Y60352054D01*
X111394619Y60296801D01*
X111430550Y60247853D01*
X111460725Y60207475D01*
X111483437Y60177930D01*
X111496984Y60161484D01*
X111500053Y60158874D01*
X111499484Y60169732D01*
X111495543Y60197519D01*
X111488771Y60238913D01*
X111479707Y60290591D01*
X111470434Y60341034D01*
X111459222Y60399310D01*
X111448837Y60450462D01*
X111440019Y60491067D01*
X111437750Y60500344D01*
X111762490Y60500344D01*
X111762610Y60489083D01*
X111766132Y60461346D01*
X111772491Y60420899D01*
X111781125Y60371508D01*
X111784571Y60352852D01*
X111797441Y60284230D01*
X111807086Y60233330D01*
X111814058Y60197596D01*
X111818912Y60174475D01*
X111822201Y60161411D01*
X111824477Y60155851D01*
X111826295Y60155239D01*
X111827204Y60155991D01*
X111831456Y60166801D01*
X111840464Y60193907D01*
X111853118Y60233831D01*
X111868308Y60283095D01*
X111877666Y60313996D01*
X111893617Y60367678D01*
X111907208Y60414716D01*
X111917405Y60451426D01*
X111923174Y60474124D01*
X111924084Y60479306D01*
X111914838Y60484777D01*
X111890986Y60490640D01*
X111858514Y60496116D01*
X111823408Y60500426D01*
X111791654Y60502790D01*
X111769237Y60502429D01*
X111762490Y60500344D01*
X111437750Y60500344D01*
X111433505Y60517703D01*
X111430336Y60526800D01*
X111418683Y60530156D01*
X111391989Y60534604D01*
X111355613Y60539535D01*
X111314914Y60544342D01*
X111275254Y60548416D01*
X111241990Y60551149D01*
X111220483Y60551934D01*
X111215414Y60551185D01*
X110816945Y60551185D01*
X110807263Y60563235D01*
X110790277Y60582575D01*
X110785287Y60586758D01*
X110771717Y60589007D01*
X110739281Y60592818D01*
X110689666Y60598029D01*
X110624559Y60604483D01*
X110545648Y60612020D01*
X110454620Y60620480D01*
X110353162Y60629705D01*
X110242962Y60639535D01*
X110125707Y60649811D01*
X110026681Y60658355D01*
X109904643Y60668855D01*
X109788062Y60678971D01*
X109678652Y60688547D01*
X109578131Y60697430D01*
X109488214Y60705466D01*
X109410617Y60712500D01*
X109347057Y60718379D01*
X109299249Y60722948D01*
X109268911Y60726053D01*
X109258390Y60727376D01*
X109239340Y60729230D01*
X109234522Y60725895D01*
X108412822Y60725895D01*
X108378920Y60740021D01*
X108307508Y60769704D01*
X108251080Y60793068D01*
X108210808Y60809621D01*
X108187865Y60818869D01*
X108183608Y60820481D01*
X108138727Y60844908D01*
X108101309Y60881586D01*
X108076759Y60924602D01*
X108071612Y60942992D01*
X108068993Y60956352D01*
X108067027Y60968552D01*
X108066540Y60980463D01*
X108068361Y60992954D01*
X108073317Y61006893D01*
X108082237Y61023151D01*
X108095949Y61042597D01*
X108115279Y61066099D01*
X108141056Y61094528D01*
X108148396Y61102128D01*
X108603538Y61102128D01*
X108613310Y61099488D01*
X108640590Y61095578D01*
X108682323Y61090747D01*
X108735457Y61085342D01*
X108796936Y61079709D01*
X108812369Y61078381D01*
X108863887Y61073995D01*
X108913434Y61069753D01*
X108962799Y61065497D01*
X109013772Y61061068D01*
X109068142Y61056307D01*
X109127699Y61051056D01*
X109194231Y61045155D01*
X109269528Y61038445D01*
X109355379Y61030768D01*
X109453574Y61021964D01*
X109565902Y61011875D01*
X109694152Y61000341D01*
X109840114Y60987204D01*
X109933867Y60978763D01*
X110062335Y60967201D01*
X110171764Y60957389D01*
X110263654Y60949224D01*
X110339507Y60942603D01*
X110400826Y60937425D01*
X110449112Y60933586D01*
X110485866Y60930984D01*
X110512592Y60929516D01*
X110530790Y60929081D01*
X110541962Y60929575D01*
X110547610Y60930895D01*
X110549236Y60932941D01*
X110548341Y60935607D01*
X110547591Y60936863D01*
X110535685Y60954697D01*
X110513433Y60986602D01*
X110482022Y61030947D01*
X110442637Y61086101D01*
X110396465Y61150433D01*
X110344693Y61222310D01*
X110288506Y61300103D01*
X110229092Y61382179D01*
X110167636Y61466908D01*
X110105324Y61552657D01*
X110043344Y61637797D01*
X110025979Y61661606D01*
X110416283Y61661606D01*
X110424356Y61646919D01*
X110440772Y61622851D01*
X110454952Y61603145D01*
X110479632Y61568818D01*
X110513279Y61522005D01*
X110554360Y61464837D01*
X110601342Y61399448D01*
X110652694Y61327970D01*
X110706883Y61252536D01*
X110722373Y61230972D01*
X110966823Y60890655D01*
X111133557Y60873968D01*
X111193081Y60868156D01*
X111248148Y60863047D01*
X111294255Y60859038D01*
X111326899Y60856527D01*
X111337703Y60855921D01*
X111375116Y60854561D01*
X111360557Y60924171D01*
X111350637Y60962009D01*
X111338871Y60993175D01*
X111328301Y61010295D01*
X111316672Y61019334D01*
X111289876Y61039136D01*
X111249555Y61068516D01*
X111197353Y61106287D01*
X111134913Y61151266D01*
X111063879Y61202266D01*
X110985894Y61258102D01*
X110902603Y61317589D01*
X110872316Y61339184D01*
X110787679Y61399517D01*
X110707847Y61456447D01*
X110634448Y61508811D01*
X110569112Y61555444D01*
X110513469Y61595183D01*
X110469147Y61626865D01*
X110437777Y61649326D01*
X110420988Y61661404D01*
X110418825Y61662987D01*
X110416283Y61661606D01*
X110025979Y61661606D01*
X109982882Y61720695D01*
X109925123Y61799720D01*
X109871254Y61873241D01*
X109822462Y61939627D01*
X109779933Y61997247D01*
X109744852Y62044468D01*
X109718408Y62079660D01*
X109701785Y62101192D01*
X109696219Y62107545D01*
X109687332Y62100755D01*
X109664822Y62081289D01*
X109630158Y62050498D01*
X109584813Y62009737D01*
X109530255Y61960359D01*
X109467957Y61903716D01*
X109399388Y61841162D01*
X109326019Y61774051D01*
X109249321Y61703735D01*
X109170764Y61631567D01*
X109091820Y61558901D01*
X109013958Y61487090D01*
X108938650Y61417488D01*
X108867365Y61351446D01*
X108801576Y61290320D01*
X108742751Y61235461D01*
X108692363Y61188223D01*
X108651882Y61149959D01*
X108622777Y61122022D01*
X108606521Y61105766D01*
X108603538Y61102128D01*
X108148396Y61102128D01*
X108174108Y61128753D01*
X108215262Y61169642D01*
X108265347Y61218065D01*
X108325189Y61274892D01*
X108395617Y61340992D01*
X108477458Y61417234D01*
X108571541Y61504487D01*
X108678693Y61603621D01*
X108799742Y61715506D01*
X108862198Y61773229D01*
X108969687Y61872459D01*
X109073282Y61967852D01*
X109171935Y62058457D01*
X109264599Y62143322D01*
X109350226Y62221497D01*
X109427768Y62292029D01*
X109496179Y62353968D01*
X109554410Y62406362D01*
X109601415Y62448260D01*
X109636145Y62478710D01*
X109657553Y62496761D01*
X109664110Y62501538D01*
X109714594Y62513626D01*
X109765825Y62506088D01*
X109786903Y62496830D01*
X109800229Y62488180D01*
X109829011Y62468400D01*
X109871962Y62438403D01*
X109927794Y62399104D01*
X109995219Y62351416D01*
X110072950Y62296251D01*
X110159699Y62234524D01*
X110254178Y62167148D01*
X110355100Y62095037D01*
X110461176Y62019103D01*
X110537503Y61964383D01*
X110645563Y61886937D01*
X110748756Y61813118D01*
X110845866Y61743790D01*
X110935672Y61679816D01*
X111016957Y61622060D01*
X111088503Y61571385D01*
X111149090Y61528655D01*
X111197500Y61494732D01*
X111232515Y61470481D01*
X111252916Y61456764D01*
X111257892Y61453908D01*
X111256537Y61464406D01*
X111251623Y61493672D01*
X111243427Y61540205D01*
X111232223Y61602508D01*
X111224336Y61645838D01*
X111546717Y61645838D01*
X111547604Y61635214D01*
X111551895Y61607237D01*
X111559090Y61564807D01*
X111568689Y61510823D01*
X111580195Y61448186D01*
X111586862Y61412645D01*
X111630294Y61182738D01*
X111697326Y61132745D01*
X111738338Y61103141D01*
X111764785Y61086510D01*
X111777684Y61082314D01*
X111778108Y61089873D01*
X111728372Y61211829D01*
X111685871Y61315857D01*
X111650111Y61403151D01*
X111620594Y61474904D01*
X111596823Y61532309D01*
X111578303Y61576560D01*
X111564536Y61608849D01*
X111555026Y61630370D01*
X111549276Y61642315D01*
X111546790Y61645879D01*
X111546717Y61645838D01*
X111224336Y61645838D01*
X111218285Y61679082D01*
X111201888Y61768427D01*
X111183307Y61869044D01*
X111162816Y61979435D01*
X111140691Y62098102D01*
X111117205Y62223544D01*
X111103160Y62298328D01*
X111078886Y62427792D01*
X111055741Y62551926D01*
X111034012Y62669165D01*
X111013982Y62777942D01*
X110995934Y62876691D01*
X110980154Y62963847D01*
X110966926Y63037844D01*
X110956533Y63097116D01*
X110949260Y63140097D01*
X110945391Y63165221D01*
X110944817Y63170799D01*
X110952820Y63206995D01*
X110974631Y63246165D01*
X111006005Y63281312D01*
X111017586Y63290726D01*
X111060568Y63310662D01*
X111109062Y63314535D01*
X111157548Y63303707D01*
G37*
G36*
X81257548Y33603707D02*
G01*
X81300505Y33579542D01*
X81332413Y33543403D01*
X81336035Y33536777D01*
X81342146Y33522878D01*
X81355559Y33491054D01*
X81375792Y33442481D01*
X81402362Y33378334D01*
X81434785Y33299789D01*
X81472579Y33208020D01*
X81515261Y33104202D01*
X81562346Y32989511D01*
X81613353Y32865122D01*
X81667798Y32732210D01*
X81725198Y32591950D01*
X81785070Y32445517D01*
X81846932Y32294086D01*
X81853240Y32278637D01*
X81915354Y32126553D01*
X81975571Y31979206D01*
X82033403Y31837783D01*
X82088362Y31703473D01*
X82139962Y31577464D01*
X82187715Y31460944D01*
X82231134Y31355100D01*
X82269731Y31261121D01*
X82303019Y31180195D01*
X82330510Y31113509D01*
X82351718Y31062252D01*
X82366154Y31027612D01*
X82373332Y31010777D01*
X82373602Y31010184D01*
X82392382Y30951059D01*
X82391690Y30895915D01*
X82381639Y30862898D01*
X82376155Y30846948D01*
X82365408Y30813147D01*
X82349986Y30763423D01*
X82330474Y30699705D01*
X82307459Y30623919D01*
X82281528Y30537995D01*
X82253266Y30443860D01*
X82223260Y30343441D01*
X82205308Y30283144D01*
X82174643Y30180139D01*
X82145478Y30082428D01*
X82118390Y29991919D01*
X82093953Y29910522D01*
X82072740Y29840144D01*
X82055328Y29782693D01*
X82042290Y29740079D01*
X82034202Y29714210D01*
X82031989Y29707587D01*
X82006877Y29667583D01*
X81968264Y29639393D01*
X81920324Y29624203D01*
X81867231Y29623197D01*
X81813160Y29637561D01*
X81802482Y29642438D01*
X81787465Y29649146D01*
X81754607Y29663321D01*
X81705083Y29684472D01*
X81640062Y29712105D01*
X81560719Y29745730D01*
X81468226Y29784853D01*
X81363753Y29828982D01*
X81248475Y29877624D01*
X81123563Y29930287D01*
X80990189Y29986479D01*
X80849526Y30045708D01*
X80702746Y30107480D01*
X80551021Y30171304D01*
X80395523Y30236687D01*
X80237426Y30303137D01*
X80077900Y30370161D01*
X79918119Y30437268D01*
X79759254Y30503963D01*
X79602478Y30569756D01*
X79448964Y30634154D01*
X79299883Y30696664D01*
X79156407Y30756794D01*
X79019709Y30814052D01*
X78890962Y30867945D01*
X78771337Y30917981D01*
X78662007Y30963667D01*
X78564144Y31004511D01*
X78512822Y31025895D01*
X79334522Y31025895D01*
X79334992Y31025334D01*
X79345465Y31020190D01*
X79373399Y31007787D01*
X79417309Y30988746D01*
X79475711Y30963690D01*
X79547120Y30933241D01*
X79630052Y30898021D01*
X79723023Y30858654D01*
X79824550Y30815760D01*
X79933147Y30769963D01*
X80047330Y30721885D01*
X80165616Y30672148D01*
X80286519Y30621374D01*
X80408556Y30570186D01*
X80530243Y30519207D01*
X80650096Y30469058D01*
X80766629Y30420361D01*
X80878359Y30373740D01*
X80983802Y30329816D01*
X81081474Y30289212D01*
X81169890Y30252551D01*
X81247566Y30220453D01*
X81313017Y30193543D01*
X81364761Y30172442D01*
X81401312Y30157772D01*
X81421185Y30150156D01*
X81424480Y30149207D01*
X81419469Y30158107D01*
X81403575Y30181996D01*
X81378007Y30219151D01*
X81343972Y30267850D01*
X81302677Y30326370D01*
X81255332Y30392991D01*
X81203142Y30465989D01*
X81167440Y30515701D01*
X81111957Y30592345D01*
X81059529Y30663857D01*
X81011502Y30728469D01*
X80969220Y30784415D01*
X80934025Y30829926D01*
X80916945Y30851185D01*
X81315414Y30851185D01*
X81320490Y30842586D01*
X81336019Y30819613D01*
X81360367Y30784605D01*
X81391898Y30739898D01*
X81428980Y30687831D01*
X81454634Y30652054D01*
X81494619Y30596801D01*
X81530550Y30547853D01*
X81560725Y30507475D01*
X81583437Y30477930D01*
X81596984Y30461484D01*
X81600053Y30458874D01*
X81599484Y30469732D01*
X81595543Y30497519D01*
X81588771Y30538913D01*
X81579707Y30590591D01*
X81570434Y30641034D01*
X81559222Y30699310D01*
X81548837Y30750462D01*
X81540019Y30791067D01*
X81537750Y30800344D01*
X81862490Y30800344D01*
X81862610Y30789083D01*
X81866132Y30761346D01*
X81872491Y30720899D01*
X81881125Y30671508D01*
X81884571Y30652852D01*
X81897441Y30584230D01*
X81907086Y30533330D01*
X81914058Y30497596D01*
X81918912Y30474475D01*
X81922201Y30461411D01*
X81924477Y30455851D01*
X81926295Y30455239D01*
X81927204Y30455991D01*
X81931456Y30466801D01*
X81940464Y30493907D01*
X81953118Y30533831D01*
X81968308Y30583095D01*
X81977666Y30613996D01*
X81993617Y30667678D01*
X82007208Y30714716D01*
X82017405Y30751426D01*
X82023174Y30774124D01*
X82024084Y30779306D01*
X82014838Y30784777D01*
X81990986Y30790640D01*
X81958514Y30796116D01*
X81923408Y30800426D01*
X81891654Y30802790D01*
X81869237Y30802429D01*
X81862490Y30800344D01*
X81537750Y30800344D01*
X81533505Y30817703D01*
X81530336Y30826800D01*
X81518683Y30830156D01*
X81491989Y30834604D01*
X81455613Y30839535D01*
X81414914Y30844342D01*
X81375254Y30848416D01*
X81341990Y30851149D01*
X81320483Y30851934D01*
X81315414Y30851185D01*
X80916945Y30851185D01*
X80907263Y30863235D01*
X80890277Y30882575D01*
X80885287Y30886758D01*
X80871717Y30889007D01*
X80839281Y30892818D01*
X80789666Y30898029D01*
X80724559Y30904483D01*
X80645648Y30912020D01*
X80554620Y30920480D01*
X80453162Y30929705D01*
X80342962Y30939535D01*
X80225707Y30949811D01*
X80126681Y30958355D01*
X80004643Y30968855D01*
X79888062Y30978971D01*
X79778652Y30988547D01*
X79678131Y30997430D01*
X79588214Y31005466D01*
X79510617Y31012500D01*
X79447057Y31018379D01*
X79399249Y31022948D01*
X79368911Y31026053D01*
X79358390Y31027376D01*
X79339340Y31029230D01*
X79334522Y31025895D01*
X78512822Y31025895D01*
X78478920Y31040021D01*
X78407508Y31069704D01*
X78351080Y31093068D01*
X78310808Y31109621D01*
X78287865Y31118869D01*
X78283608Y31120481D01*
X78238727Y31144908D01*
X78201309Y31181586D01*
X78176759Y31224602D01*
X78171612Y31242992D01*
X78168993Y31256352D01*
X78167027Y31268552D01*
X78166540Y31280463D01*
X78168361Y31292954D01*
X78173317Y31306893D01*
X78182237Y31323151D01*
X78195949Y31342597D01*
X78215279Y31366099D01*
X78241056Y31394528D01*
X78248396Y31402128D01*
X78703538Y31402128D01*
X78713310Y31399488D01*
X78740590Y31395578D01*
X78782323Y31390747D01*
X78835457Y31385342D01*
X78896936Y31379709D01*
X78912369Y31378381D01*
X78963887Y31373995D01*
X79013434Y31369753D01*
X79062799Y31365497D01*
X79113772Y31361068D01*
X79168142Y31356307D01*
X79227699Y31351056D01*
X79294231Y31345155D01*
X79369528Y31338445D01*
X79455379Y31330768D01*
X79553574Y31321964D01*
X79665902Y31311875D01*
X79794152Y31300341D01*
X79940114Y31287204D01*
X80033867Y31278763D01*
X80162335Y31267201D01*
X80271764Y31257389D01*
X80363654Y31249224D01*
X80439507Y31242603D01*
X80500826Y31237425D01*
X80549112Y31233586D01*
X80585866Y31230984D01*
X80612592Y31229516D01*
X80630790Y31229081D01*
X80641962Y31229575D01*
X80647610Y31230895D01*
X80649236Y31232941D01*
X80648341Y31235607D01*
X80647591Y31236863D01*
X80635685Y31254697D01*
X80613433Y31286602D01*
X80582022Y31330947D01*
X80542637Y31386101D01*
X80496465Y31450433D01*
X80444693Y31522310D01*
X80388506Y31600103D01*
X80329092Y31682179D01*
X80267636Y31766908D01*
X80205324Y31852657D01*
X80143344Y31937797D01*
X80125979Y31961606D01*
X80516283Y31961606D01*
X80524356Y31946919D01*
X80540772Y31922851D01*
X80554952Y31903145D01*
X80579632Y31868818D01*
X80613279Y31822005D01*
X80654360Y31764837D01*
X80701342Y31699448D01*
X80752694Y31627970D01*
X80806883Y31552536D01*
X80822373Y31530972D01*
X81066823Y31190655D01*
X81233557Y31173968D01*
X81293081Y31168156D01*
X81348148Y31163047D01*
X81394255Y31159038D01*
X81426899Y31156527D01*
X81437703Y31155921D01*
X81475116Y31154561D01*
X81460557Y31224171D01*
X81450637Y31262009D01*
X81438871Y31293175D01*
X81428301Y31310295D01*
X81416672Y31319334D01*
X81389876Y31339136D01*
X81349555Y31368516D01*
X81297353Y31406287D01*
X81234913Y31451266D01*
X81163879Y31502266D01*
X81085894Y31558102D01*
X81002603Y31617589D01*
X80972316Y31639184D01*
X80887679Y31699517D01*
X80807847Y31756447D01*
X80734448Y31808811D01*
X80669112Y31855444D01*
X80613469Y31895183D01*
X80569147Y31926865D01*
X80537777Y31949326D01*
X80520988Y31961404D01*
X80518825Y31962987D01*
X80516283Y31961606D01*
X80125979Y31961606D01*
X80082882Y32020695D01*
X80025123Y32099720D01*
X79971254Y32173241D01*
X79922462Y32239627D01*
X79879933Y32297247D01*
X79844852Y32344468D01*
X79818408Y32379660D01*
X79801785Y32401192D01*
X79796219Y32407545D01*
X79787332Y32400755D01*
X79764822Y32381289D01*
X79730158Y32350498D01*
X79684813Y32309737D01*
X79630255Y32260359D01*
X79567957Y32203716D01*
X79499388Y32141162D01*
X79426019Y32074051D01*
X79349321Y32003735D01*
X79270764Y31931567D01*
X79191820Y31858901D01*
X79113958Y31787090D01*
X79038650Y31717488D01*
X78967365Y31651446D01*
X78901576Y31590320D01*
X78842751Y31535461D01*
X78792363Y31488223D01*
X78751882Y31449959D01*
X78722777Y31422022D01*
X78706521Y31405766D01*
X78703538Y31402128D01*
X78248396Y31402128D01*
X78274108Y31428753D01*
X78315262Y31469642D01*
X78365347Y31518065D01*
X78425189Y31574892D01*
X78495617Y31640992D01*
X78577458Y31717234D01*
X78671541Y31804487D01*
X78778693Y31903621D01*
X78899742Y32015506D01*
X78962198Y32073229D01*
X79069687Y32172459D01*
X79173282Y32267852D01*
X79271935Y32358457D01*
X79364599Y32443322D01*
X79450226Y32521497D01*
X79527768Y32592029D01*
X79596179Y32653968D01*
X79654410Y32706362D01*
X79701415Y32748260D01*
X79736145Y32778710D01*
X79757553Y32796761D01*
X79764110Y32801538D01*
X79814594Y32813626D01*
X79865825Y32806088D01*
X79886903Y32796830D01*
X79900229Y32788180D01*
X79929011Y32768400D01*
X79971962Y32738403D01*
X80027794Y32699104D01*
X80095219Y32651416D01*
X80172950Y32596251D01*
X80259699Y32534524D01*
X80354178Y32467148D01*
X80455100Y32395037D01*
X80561176Y32319103D01*
X80637503Y32264383D01*
X80745563Y32186937D01*
X80848756Y32113118D01*
X80945866Y32043790D01*
X81035672Y31979816D01*
X81116957Y31922060D01*
X81188503Y31871385D01*
X81249090Y31828655D01*
X81297500Y31794732D01*
X81332515Y31770481D01*
X81352916Y31756764D01*
X81357892Y31753908D01*
X81356537Y31764406D01*
X81351623Y31793672D01*
X81343427Y31840205D01*
X81332223Y31902508D01*
X81324336Y31945838D01*
X81646717Y31945838D01*
X81647604Y31935214D01*
X81651895Y31907237D01*
X81659090Y31864807D01*
X81668689Y31810823D01*
X81680195Y31748186D01*
X81686862Y31712645D01*
X81730294Y31482738D01*
X81797326Y31432745D01*
X81838338Y31403141D01*
X81864785Y31386510D01*
X81877684Y31382314D01*
X81878108Y31389873D01*
X81828372Y31511829D01*
X81785871Y31615857D01*
X81750111Y31703151D01*
X81720594Y31774904D01*
X81696823Y31832309D01*
X81678303Y31876560D01*
X81664536Y31908849D01*
X81655026Y31930370D01*
X81649276Y31942315D01*
X81646790Y31945879D01*
X81646717Y31945838D01*
X81324336Y31945838D01*
X81318285Y31979082D01*
X81301888Y32068427D01*
X81283307Y32169044D01*
X81262816Y32279435D01*
X81240691Y32398102D01*
X81217205Y32523544D01*
X81203160Y32598328D01*
X81178886Y32727792D01*
X81155741Y32851926D01*
X81134012Y32969165D01*
X81113982Y33077942D01*
X81095934Y33176691D01*
X81080154Y33263847D01*
X81066926Y33337844D01*
X81056533Y33397116D01*
X81049260Y33440097D01*
X81045391Y33465221D01*
X81044817Y33470799D01*
X81052820Y33506995D01*
X81074631Y33546165D01*
X81106005Y33581312D01*
X81117586Y33590726D01*
X81160568Y33610662D01*
X81209062Y33614535D01*
X81257548Y33603707D01*
G37*
G36*
X51157548Y93403707D02*
G01*
X51200505Y93379542D01*
X51232413Y93343403D01*
X51236035Y93336777D01*
X51242146Y93322878D01*
X51255559Y93291054D01*
X51275792Y93242481D01*
X51302362Y93178334D01*
X51334785Y93099789D01*
X51372579Y93008020D01*
X51415261Y92904202D01*
X51462346Y92789511D01*
X51513353Y92665122D01*
X51567798Y92532210D01*
X51625198Y92391950D01*
X51685070Y92245517D01*
X51746932Y92094086D01*
X51753240Y92078637D01*
X51815354Y91926553D01*
X51875571Y91779206D01*
X51933403Y91637783D01*
X51988362Y91503473D01*
X52039962Y91377464D01*
X52087715Y91260944D01*
X52131134Y91155100D01*
X52169731Y91061121D01*
X52203019Y90980195D01*
X52230510Y90913509D01*
X52251718Y90862252D01*
X52266154Y90827612D01*
X52273332Y90810777D01*
X52273602Y90810184D01*
X52292382Y90751059D01*
X52291690Y90695915D01*
X52281639Y90662898D01*
X52276155Y90646948D01*
X52265408Y90613147D01*
X52249986Y90563423D01*
X52230474Y90499705D01*
X52207459Y90423919D01*
X52181528Y90337995D01*
X52153266Y90243860D01*
X52123260Y90143441D01*
X52105308Y90083144D01*
X52074643Y89980139D01*
X52045478Y89882428D01*
X52018390Y89791919D01*
X51993953Y89710522D01*
X51972740Y89640144D01*
X51955328Y89582693D01*
X51942290Y89540079D01*
X51934202Y89514210D01*
X51931989Y89507587D01*
X51906877Y89467583D01*
X51868264Y89439393D01*
X51820324Y89424203D01*
X51767231Y89423197D01*
X51713160Y89437561D01*
X51702482Y89442438D01*
X51687465Y89449146D01*
X51654607Y89463321D01*
X51605083Y89484472D01*
X51540062Y89512105D01*
X51460719Y89545730D01*
X51368226Y89584853D01*
X51263753Y89628982D01*
X51148475Y89677624D01*
X51023563Y89730287D01*
X50890189Y89786479D01*
X50749526Y89845708D01*
X50602746Y89907480D01*
X50451021Y89971304D01*
X50295523Y90036687D01*
X50137426Y90103137D01*
X49977900Y90170161D01*
X49818119Y90237268D01*
X49659254Y90303963D01*
X49502478Y90369756D01*
X49348964Y90434154D01*
X49199883Y90496664D01*
X49056407Y90556794D01*
X48919709Y90614052D01*
X48790962Y90667945D01*
X48671337Y90717981D01*
X48562007Y90763667D01*
X48464144Y90804511D01*
X48412822Y90825895D01*
X49234522Y90825895D01*
X49234992Y90825334D01*
X49245465Y90820190D01*
X49273399Y90807787D01*
X49317309Y90788746D01*
X49375711Y90763690D01*
X49447120Y90733241D01*
X49530052Y90698021D01*
X49623023Y90658654D01*
X49724550Y90615760D01*
X49833147Y90569963D01*
X49947330Y90521885D01*
X50065616Y90472148D01*
X50186519Y90421374D01*
X50308556Y90370186D01*
X50430243Y90319207D01*
X50550096Y90269058D01*
X50666629Y90220361D01*
X50778359Y90173740D01*
X50883802Y90129816D01*
X50981474Y90089212D01*
X51069890Y90052551D01*
X51147566Y90020453D01*
X51213017Y89993543D01*
X51264761Y89972442D01*
X51301312Y89957772D01*
X51321185Y89950156D01*
X51324480Y89949207D01*
X51319469Y89958107D01*
X51303575Y89981996D01*
X51278007Y90019151D01*
X51243972Y90067850D01*
X51202677Y90126370D01*
X51155332Y90192991D01*
X51103142Y90265989D01*
X51067440Y90315701D01*
X51011957Y90392345D01*
X50959529Y90463857D01*
X50911502Y90528469D01*
X50869220Y90584415D01*
X50834025Y90629926D01*
X50816945Y90651185D01*
X51215414Y90651185D01*
X51220490Y90642586D01*
X51236019Y90619613D01*
X51260367Y90584605D01*
X51291898Y90539898D01*
X51328980Y90487831D01*
X51354634Y90452054D01*
X51394619Y90396801D01*
X51430550Y90347853D01*
X51460725Y90307475D01*
X51483437Y90277930D01*
X51496984Y90261484D01*
X51500053Y90258874D01*
X51499484Y90269732D01*
X51495543Y90297519D01*
X51488771Y90338913D01*
X51479707Y90390591D01*
X51470434Y90441034D01*
X51459222Y90499310D01*
X51448837Y90550462D01*
X51440019Y90591067D01*
X51437750Y90600344D01*
X51762490Y90600344D01*
X51762610Y90589083D01*
X51766132Y90561346D01*
X51772491Y90520899D01*
X51781125Y90471508D01*
X51784571Y90452852D01*
X51797441Y90384230D01*
X51807086Y90333330D01*
X51814058Y90297596D01*
X51818912Y90274475D01*
X51822201Y90261411D01*
X51824477Y90255851D01*
X51826295Y90255239D01*
X51827204Y90255991D01*
X51831456Y90266801D01*
X51840464Y90293907D01*
X51853118Y90333831D01*
X51868308Y90383095D01*
X51877666Y90413996D01*
X51893617Y90467678D01*
X51907208Y90514716D01*
X51917405Y90551426D01*
X51923174Y90574124D01*
X51924084Y90579306D01*
X51914838Y90584777D01*
X51890986Y90590640D01*
X51858514Y90596116D01*
X51823408Y90600426D01*
X51791654Y90602790D01*
X51769237Y90602429D01*
X51762490Y90600344D01*
X51437750Y90600344D01*
X51433505Y90617703D01*
X51430336Y90626800D01*
X51418683Y90630156D01*
X51391989Y90634604D01*
X51355613Y90639535D01*
X51314914Y90644342D01*
X51275254Y90648416D01*
X51241990Y90651149D01*
X51220483Y90651934D01*
X51215414Y90651185D01*
X50816945Y90651185D01*
X50807263Y90663235D01*
X50790277Y90682575D01*
X50785287Y90686758D01*
X50771717Y90689007D01*
X50739281Y90692818D01*
X50689666Y90698029D01*
X50624559Y90704483D01*
X50545648Y90712020D01*
X50454620Y90720480D01*
X50353162Y90729705D01*
X50242962Y90739535D01*
X50125707Y90749811D01*
X50026681Y90758355D01*
X49904643Y90768855D01*
X49788062Y90778971D01*
X49678652Y90788547D01*
X49578131Y90797430D01*
X49488214Y90805466D01*
X49410617Y90812500D01*
X49347057Y90818379D01*
X49299249Y90822948D01*
X49268911Y90826053D01*
X49258390Y90827376D01*
X49239340Y90829230D01*
X49234522Y90825895D01*
X48412822Y90825895D01*
X48378920Y90840021D01*
X48307508Y90869704D01*
X48251080Y90893068D01*
X48210808Y90909621D01*
X48187865Y90918869D01*
X48183608Y90920481D01*
X48138727Y90944908D01*
X48101309Y90981586D01*
X48076759Y91024602D01*
X48071612Y91042992D01*
X48068993Y91056352D01*
X48067027Y91068552D01*
X48066540Y91080463D01*
X48068361Y91092954D01*
X48073317Y91106893D01*
X48082237Y91123151D01*
X48095949Y91142597D01*
X48115279Y91166099D01*
X48141056Y91194528D01*
X48148396Y91202128D01*
X48603538Y91202128D01*
X48613310Y91199488D01*
X48640590Y91195578D01*
X48682323Y91190747D01*
X48735457Y91185342D01*
X48796936Y91179709D01*
X48812369Y91178381D01*
X48863887Y91173995D01*
X48913434Y91169753D01*
X48962799Y91165497D01*
X49013772Y91161068D01*
X49068142Y91156307D01*
X49127699Y91151056D01*
X49194231Y91145155D01*
X49269528Y91138445D01*
X49355379Y91130768D01*
X49453574Y91121964D01*
X49565902Y91111875D01*
X49694152Y91100341D01*
X49840114Y91087204D01*
X49933867Y91078763D01*
X50062335Y91067201D01*
X50171764Y91057389D01*
X50263654Y91049224D01*
X50339507Y91042603D01*
X50400826Y91037425D01*
X50449112Y91033586D01*
X50485866Y91030984D01*
X50512592Y91029516D01*
X50530790Y91029081D01*
X50541962Y91029575D01*
X50547610Y91030895D01*
X50549236Y91032941D01*
X50548341Y91035607D01*
X50547591Y91036863D01*
X50535685Y91054697D01*
X50513433Y91086602D01*
X50482022Y91130947D01*
X50442637Y91186101D01*
X50396465Y91250433D01*
X50344693Y91322310D01*
X50288506Y91400103D01*
X50229092Y91482179D01*
X50167636Y91566908D01*
X50105324Y91652657D01*
X50043344Y91737797D01*
X50025979Y91761606D01*
X50416283Y91761606D01*
X50424356Y91746919D01*
X50440772Y91722851D01*
X50454952Y91703145D01*
X50479632Y91668818D01*
X50513279Y91622005D01*
X50554360Y91564837D01*
X50601342Y91499448D01*
X50652694Y91427970D01*
X50706883Y91352536D01*
X50722373Y91330972D01*
X50966823Y90990655D01*
X51133557Y90973968D01*
X51193081Y90968156D01*
X51248148Y90963047D01*
X51294255Y90959038D01*
X51326899Y90956527D01*
X51337703Y90955921D01*
X51375116Y90954561D01*
X51360557Y91024171D01*
X51350637Y91062009D01*
X51338871Y91093175D01*
X51328301Y91110295D01*
X51316672Y91119334D01*
X51289876Y91139136D01*
X51249555Y91168516D01*
X51197353Y91206287D01*
X51134913Y91251266D01*
X51063879Y91302266D01*
X50985894Y91358102D01*
X50902603Y91417589D01*
X50872316Y91439184D01*
X50787679Y91499517D01*
X50707847Y91556447D01*
X50634448Y91608811D01*
X50569112Y91655444D01*
X50513469Y91695183D01*
X50469147Y91726865D01*
X50437777Y91749326D01*
X50420988Y91761404D01*
X50418825Y91762987D01*
X50416283Y91761606D01*
X50025979Y91761606D01*
X49982882Y91820695D01*
X49925123Y91899720D01*
X49871254Y91973241D01*
X49822462Y92039627D01*
X49779933Y92097247D01*
X49744852Y92144468D01*
X49718408Y92179660D01*
X49701785Y92201192D01*
X49696219Y92207545D01*
X49687332Y92200755D01*
X49664822Y92181289D01*
X49630158Y92150498D01*
X49584813Y92109737D01*
X49530255Y92060359D01*
X49467957Y92003716D01*
X49399388Y91941162D01*
X49326019Y91874051D01*
X49249321Y91803735D01*
X49170764Y91731567D01*
X49091820Y91658901D01*
X49013958Y91587090D01*
X48938650Y91517488D01*
X48867365Y91451446D01*
X48801576Y91390320D01*
X48742751Y91335461D01*
X48692363Y91288223D01*
X48651882Y91249959D01*
X48622777Y91222022D01*
X48606521Y91205766D01*
X48603538Y91202128D01*
X48148396Y91202128D01*
X48174108Y91228753D01*
X48215262Y91269642D01*
X48265347Y91318065D01*
X48325189Y91374892D01*
X48395617Y91440992D01*
X48477458Y91517234D01*
X48571541Y91604487D01*
X48678693Y91703621D01*
X48799742Y91815506D01*
X48862198Y91873229D01*
X48969687Y91972459D01*
X49073282Y92067852D01*
X49171935Y92158457D01*
X49264599Y92243322D01*
X49350226Y92321497D01*
X49427768Y92392029D01*
X49496179Y92453968D01*
X49554410Y92506362D01*
X49601415Y92548260D01*
X49636145Y92578710D01*
X49657553Y92596761D01*
X49664110Y92601538D01*
X49714594Y92613626D01*
X49765825Y92606088D01*
X49786903Y92596830D01*
X49800229Y92588180D01*
X49829011Y92568400D01*
X49871962Y92538403D01*
X49927794Y92499104D01*
X49995219Y92451416D01*
X50072950Y92396251D01*
X50159699Y92334524D01*
X50254178Y92267148D01*
X50355100Y92195037D01*
X50461176Y92119103D01*
X50537503Y92064383D01*
X50645563Y91986937D01*
X50748756Y91913118D01*
X50845866Y91843790D01*
X50935672Y91779816D01*
X51016957Y91722060D01*
X51088503Y91671385D01*
X51149090Y91628655D01*
X51197500Y91594732D01*
X51232515Y91570481D01*
X51252916Y91556764D01*
X51257892Y91553908D01*
X51256537Y91564406D01*
X51251623Y91593672D01*
X51243427Y91640205D01*
X51232223Y91702508D01*
X51224336Y91745838D01*
X51546717Y91745838D01*
X51547604Y91735214D01*
X51551895Y91707237D01*
X51559090Y91664807D01*
X51568689Y91610823D01*
X51580195Y91548186D01*
X51586862Y91512645D01*
X51630294Y91282738D01*
X51697326Y91232745D01*
X51738338Y91203141D01*
X51764785Y91186510D01*
X51777684Y91182314D01*
X51778108Y91189873D01*
X51728372Y91311829D01*
X51685871Y91415857D01*
X51650111Y91503151D01*
X51620594Y91574904D01*
X51596823Y91632309D01*
X51578303Y91676560D01*
X51564536Y91708849D01*
X51555026Y91730370D01*
X51549276Y91742315D01*
X51546790Y91745879D01*
X51546717Y91745838D01*
X51224336Y91745838D01*
X51218285Y91779082D01*
X51201888Y91868427D01*
X51183307Y91969044D01*
X51162816Y92079435D01*
X51140691Y92198102D01*
X51117205Y92323544D01*
X51103160Y92398328D01*
X51078886Y92527792D01*
X51055741Y92651926D01*
X51034012Y92769165D01*
X51013982Y92877942D01*
X50995934Y92976691D01*
X50980154Y93063847D01*
X50966926Y93137844D01*
X50956533Y93197116D01*
X50949260Y93240097D01*
X50945391Y93265221D01*
X50944817Y93270799D01*
X50952820Y93306995D01*
X50974631Y93346165D01*
X51006005Y93381312D01*
X51017586Y93390726D01*
X51060568Y93410662D01*
X51109062Y93414535D01*
X51157548Y93403707D01*
G37*
G36*
X21857548Y33803707D02*
G01*
X21900505Y33779542D01*
X21932413Y33743403D01*
X21936035Y33736777D01*
X21942146Y33722878D01*
X21955559Y33691054D01*
X21975792Y33642481D01*
X22002362Y33578334D01*
X22034785Y33499789D01*
X22072579Y33408020D01*
X22115261Y33304202D01*
X22162346Y33189511D01*
X22213353Y33065122D01*
X22267798Y32932210D01*
X22325198Y32791950D01*
X22385070Y32645517D01*
X22446932Y32494086D01*
X22453240Y32478637D01*
X22515354Y32326553D01*
X22575571Y32179206D01*
X22633403Y32037783D01*
X22688362Y31903473D01*
X22739962Y31777464D01*
X22787715Y31660944D01*
X22831134Y31555100D01*
X22869731Y31461121D01*
X22903019Y31380195D01*
X22930510Y31313509D01*
X22951718Y31262252D01*
X22966154Y31227612D01*
X22973332Y31210777D01*
X22973602Y31210184D01*
X22992382Y31151059D01*
X22991690Y31095915D01*
X22981639Y31062898D01*
X22976155Y31046948D01*
X22965408Y31013147D01*
X22949986Y30963423D01*
X22930474Y30899705D01*
X22907459Y30823919D01*
X22881528Y30737995D01*
X22853266Y30643860D01*
X22823260Y30543441D01*
X22805308Y30483144D01*
X22774643Y30380139D01*
X22745478Y30282428D01*
X22718390Y30191919D01*
X22693953Y30110522D01*
X22672740Y30040144D01*
X22655328Y29982693D01*
X22642290Y29940079D01*
X22634202Y29914210D01*
X22631989Y29907587D01*
X22606877Y29867583D01*
X22568264Y29839393D01*
X22520324Y29824203D01*
X22467231Y29823197D01*
X22413160Y29837561D01*
X22402482Y29842438D01*
X22387465Y29849146D01*
X22354607Y29863321D01*
X22305083Y29884472D01*
X22240062Y29912105D01*
X22160719Y29945730D01*
X22068226Y29984853D01*
X21963753Y30028982D01*
X21848475Y30077624D01*
X21723563Y30130287D01*
X21590189Y30186479D01*
X21449526Y30245708D01*
X21302746Y30307480D01*
X21151021Y30371304D01*
X20995523Y30436687D01*
X20837426Y30503137D01*
X20677900Y30570161D01*
X20518119Y30637268D01*
X20359254Y30703963D01*
X20202478Y30769756D01*
X20048964Y30834154D01*
X19899883Y30896664D01*
X19756407Y30956794D01*
X19619709Y31014052D01*
X19490962Y31067945D01*
X19371337Y31117981D01*
X19262007Y31163667D01*
X19164144Y31204511D01*
X19112822Y31225895D01*
X19934522Y31225895D01*
X19934992Y31225334D01*
X19945465Y31220190D01*
X19973399Y31207787D01*
X20017309Y31188746D01*
X20075711Y31163690D01*
X20147120Y31133241D01*
X20230052Y31098021D01*
X20323023Y31058654D01*
X20424550Y31015760D01*
X20533147Y30969963D01*
X20647330Y30921885D01*
X20765616Y30872148D01*
X20886519Y30821374D01*
X21008556Y30770186D01*
X21130243Y30719207D01*
X21250096Y30669058D01*
X21366629Y30620361D01*
X21478359Y30573740D01*
X21583802Y30529816D01*
X21681474Y30489212D01*
X21769890Y30452551D01*
X21847566Y30420453D01*
X21913017Y30393543D01*
X21964761Y30372442D01*
X22001312Y30357772D01*
X22021185Y30350156D01*
X22024480Y30349207D01*
X22019469Y30358107D01*
X22003575Y30381996D01*
X21978007Y30419151D01*
X21943972Y30467850D01*
X21902677Y30526370D01*
X21855332Y30592991D01*
X21803142Y30665989D01*
X21767440Y30715701D01*
X21711957Y30792345D01*
X21659529Y30863857D01*
X21611502Y30928469D01*
X21569220Y30984415D01*
X21534025Y31029926D01*
X21516945Y31051185D01*
X21915414Y31051185D01*
X21920490Y31042586D01*
X21936019Y31019613D01*
X21960367Y30984605D01*
X21991898Y30939898D01*
X22028980Y30887831D01*
X22054634Y30852054D01*
X22094619Y30796801D01*
X22130550Y30747853D01*
X22160725Y30707475D01*
X22183437Y30677930D01*
X22196984Y30661484D01*
X22200053Y30658874D01*
X22199484Y30669732D01*
X22195543Y30697519D01*
X22188771Y30738913D01*
X22179707Y30790591D01*
X22170434Y30841034D01*
X22159222Y30899310D01*
X22148837Y30950462D01*
X22140019Y30991067D01*
X22137750Y31000344D01*
X22462490Y31000344D01*
X22462610Y30989083D01*
X22466132Y30961346D01*
X22472491Y30920899D01*
X22481125Y30871508D01*
X22484571Y30852852D01*
X22497441Y30784230D01*
X22507086Y30733330D01*
X22514058Y30697596D01*
X22518912Y30674475D01*
X22522201Y30661411D01*
X22524477Y30655851D01*
X22526295Y30655239D01*
X22527204Y30655991D01*
X22531456Y30666801D01*
X22540464Y30693907D01*
X22553118Y30733831D01*
X22568308Y30783095D01*
X22577666Y30813996D01*
X22593617Y30867678D01*
X22607208Y30914716D01*
X22617405Y30951426D01*
X22623174Y30974124D01*
X22624084Y30979306D01*
X22614838Y30984777D01*
X22590986Y30990640D01*
X22558514Y30996116D01*
X22523408Y31000426D01*
X22491654Y31002790D01*
X22469237Y31002429D01*
X22462490Y31000344D01*
X22137750Y31000344D01*
X22133505Y31017703D01*
X22130336Y31026800D01*
X22118683Y31030156D01*
X22091989Y31034604D01*
X22055613Y31039535D01*
X22014914Y31044342D01*
X21975254Y31048416D01*
X21941990Y31051149D01*
X21920483Y31051934D01*
X21915414Y31051185D01*
X21516945Y31051185D01*
X21507263Y31063235D01*
X21490277Y31082575D01*
X21485287Y31086758D01*
X21471717Y31089007D01*
X21439281Y31092818D01*
X21389666Y31098029D01*
X21324559Y31104483D01*
X21245648Y31112020D01*
X21154620Y31120480D01*
X21053162Y31129705D01*
X20942962Y31139535D01*
X20825707Y31149811D01*
X20726681Y31158355D01*
X20604643Y31168855D01*
X20488062Y31178971D01*
X20378652Y31188547D01*
X20278131Y31197430D01*
X20188214Y31205466D01*
X20110617Y31212500D01*
X20047057Y31218379D01*
X19999249Y31222948D01*
X19968911Y31226053D01*
X19958390Y31227376D01*
X19939340Y31229230D01*
X19934522Y31225895D01*
X19112822Y31225895D01*
X19078920Y31240021D01*
X19007508Y31269704D01*
X18951080Y31293068D01*
X18910808Y31309621D01*
X18887865Y31318869D01*
X18883608Y31320481D01*
X18838727Y31344908D01*
X18801309Y31381586D01*
X18776759Y31424602D01*
X18771612Y31442992D01*
X18768993Y31456352D01*
X18767027Y31468552D01*
X18766540Y31480463D01*
X18768361Y31492954D01*
X18773317Y31506893D01*
X18782237Y31523151D01*
X18795949Y31542597D01*
X18815279Y31566099D01*
X18841056Y31594528D01*
X18848396Y31602128D01*
X19303538Y31602128D01*
X19313310Y31599488D01*
X19340590Y31595578D01*
X19382323Y31590747D01*
X19435457Y31585342D01*
X19496936Y31579709D01*
X19512369Y31578381D01*
X19563887Y31573995D01*
X19613434Y31569753D01*
X19662799Y31565497D01*
X19713772Y31561068D01*
X19768142Y31556307D01*
X19827699Y31551056D01*
X19894231Y31545155D01*
X19969528Y31538445D01*
X20055379Y31530768D01*
X20153574Y31521964D01*
X20265902Y31511875D01*
X20394152Y31500341D01*
X20540114Y31487204D01*
X20633867Y31478763D01*
X20762335Y31467201D01*
X20871764Y31457389D01*
X20963654Y31449224D01*
X21039507Y31442603D01*
X21100826Y31437425D01*
X21149112Y31433586D01*
X21185866Y31430984D01*
X21212592Y31429516D01*
X21230790Y31429081D01*
X21241962Y31429575D01*
X21247610Y31430895D01*
X21249236Y31432941D01*
X21248341Y31435607D01*
X21247591Y31436863D01*
X21235685Y31454697D01*
X21213433Y31486602D01*
X21182022Y31530947D01*
X21142637Y31586101D01*
X21096465Y31650433D01*
X21044693Y31722310D01*
X20988506Y31800103D01*
X20929092Y31882179D01*
X20867636Y31966908D01*
X20805324Y32052657D01*
X20743344Y32137797D01*
X20725979Y32161606D01*
X21116283Y32161606D01*
X21124356Y32146919D01*
X21140772Y32122851D01*
X21154952Y32103145D01*
X21179632Y32068818D01*
X21213279Y32022005D01*
X21254360Y31964837D01*
X21301342Y31899448D01*
X21352694Y31827970D01*
X21406883Y31752536D01*
X21422373Y31730972D01*
X21666823Y31390655D01*
X21833557Y31373968D01*
X21893081Y31368156D01*
X21948148Y31363047D01*
X21994255Y31359038D01*
X22026899Y31356527D01*
X22037703Y31355921D01*
X22075116Y31354561D01*
X22060557Y31424171D01*
X22050637Y31462009D01*
X22038871Y31493175D01*
X22028301Y31510295D01*
X22016672Y31519334D01*
X21989876Y31539136D01*
X21949555Y31568516D01*
X21897353Y31606287D01*
X21834913Y31651266D01*
X21763879Y31702266D01*
X21685894Y31758102D01*
X21602603Y31817589D01*
X21572316Y31839184D01*
X21487679Y31899517D01*
X21407847Y31956447D01*
X21334448Y32008811D01*
X21269112Y32055444D01*
X21213469Y32095183D01*
X21169147Y32126865D01*
X21137777Y32149326D01*
X21120988Y32161404D01*
X21118825Y32162987D01*
X21116283Y32161606D01*
X20725979Y32161606D01*
X20682882Y32220695D01*
X20625123Y32299720D01*
X20571254Y32373241D01*
X20522462Y32439627D01*
X20479933Y32497247D01*
X20444852Y32544468D01*
X20418408Y32579660D01*
X20401785Y32601192D01*
X20396219Y32607545D01*
X20387332Y32600755D01*
X20364822Y32581289D01*
X20330158Y32550498D01*
X20284813Y32509737D01*
X20230255Y32460359D01*
X20167957Y32403716D01*
X20099388Y32341162D01*
X20026019Y32274051D01*
X19949321Y32203735D01*
X19870764Y32131567D01*
X19791820Y32058901D01*
X19713958Y31987090D01*
X19638650Y31917488D01*
X19567365Y31851446D01*
X19501576Y31790320D01*
X19442751Y31735461D01*
X19392363Y31688223D01*
X19351882Y31649959D01*
X19322777Y31622022D01*
X19306521Y31605766D01*
X19303538Y31602128D01*
X18848396Y31602128D01*
X18874108Y31628753D01*
X18915262Y31669642D01*
X18965347Y31718065D01*
X19025189Y31774892D01*
X19095617Y31840992D01*
X19177458Y31917234D01*
X19271541Y32004487D01*
X19378693Y32103621D01*
X19499742Y32215506D01*
X19562198Y32273229D01*
X19669687Y32372459D01*
X19773282Y32467852D01*
X19871935Y32558457D01*
X19964599Y32643322D01*
X20050226Y32721497D01*
X20127768Y32792029D01*
X20196179Y32853968D01*
X20254410Y32906362D01*
X20301415Y32948260D01*
X20336145Y32978710D01*
X20357553Y32996761D01*
X20364110Y33001538D01*
X20414594Y33013626D01*
X20465825Y33006088D01*
X20486903Y32996830D01*
X20500229Y32988180D01*
X20529011Y32968400D01*
X20571962Y32938403D01*
X20627794Y32899104D01*
X20695219Y32851416D01*
X20772950Y32796251D01*
X20859699Y32734524D01*
X20954178Y32667148D01*
X21055100Y32595037D01*
X21161176Y32519103D01*
X21237503Y32464383D01*
X21345563Y32386937D01*
X21448756Y32313118D01*
X21545866Y32243790D01*
X21635672Y32179816D01*
X21716957Y32122060D01*
X21788503Y32071385D01*
X21849090Y32028655D01*
X21897500Y31994732D01*
X21932515Y31970481D01*
X21952916Y31956764D01*
X21957892Y31953908D01*
X21956537Y31964406D01*
X21951623Y31993672D01*
X21943427Y32040205D01*
X21932223Y32102508D01*
X21924336Y32145838D01*
X22246717Y32145838D01*
X22247604Y32135214D01*
X22251895Y32107237D01*
X22259090Y32064807D01*
X22268689Y32010823D01*
X22280195Y31948186D01*
X22286862Y31912645D01*
X22330294Y31682738D01*
X22397326Y31632745D01*
X22438338Y31603141D01*
X22464785Y31586510D01*
X22477684Y31582314D01*
X22478108Y31589873D01*
X22428372Y31711829D01*
X22385871Y31815857D01*
X22350111Y31903151D01*
X22320594Y31974904D01*
X22296823Y32032309D01*
X22278303Y32076560D01*
X22264536Y32108849D01*
X22255026Y32130370D01*
X22249276Y32142315D01*
X22246790Y32145879D01*
X22246717Y32145838D01*
X21924336Y32145838D01*
X21918285Y32179082D01*
X21901888Y32268427D01*
X21883307Y32369044D01*
X21862816Y32479435D01*
X21840691Y32598102D01*
X21817205Y32723544D01*
X21803160Y32798328D01*
X21778886Y32927792D01*
X21755741Y33051926D01*
X21734012Y33169165D01*
X21713982Y33277942D01*
X21695934Y33376691D01*
X21680154Y33463847D01*
X21666926Y33537844D01*
X21656533Y33597116D01*
X21649260Y33640097D01*
X21645391Y33665221D01*
X21644817Y33670799D01*
X21652820Y33706995D01*
X21674631Y33746165D01*
X21706005Y33781312D01*
X21717586Y33790726D01*
X21760568Y33810662D01*
X21809062Y33814535D01*
X21857548Y33803707D01*
G37*
G36*
X81157548Y63203707D02*
G01*
X81200505Y63179542D01*
X81232413Y63143403D01*
X81236035Y63136777D01*
X81242146Y63122878D01*
X81255559Y63091054D01*
X81275792Y63042481D01*
X81302362Y62978334D01*
X81334785Y62899789D01*
X81372579Y62808020D01*
X81415261Y62704202D01*
X81462346Y62589511D01*
X81513353Y62465122D01*
X81567798Y62332210D01*
X81625198Y62191950D01*
X81685070Y62045517D01*
X81746932Y61894086D01*
X81753240Y61878637D01*
X81815354Y61726553D01*
X81875571Y61579206D01*
X81933403Y61437783D01*
X81988362Y61303473D01*
X82039962Y61177464D01*
X82087715Y61060944D01*
X82131134Y60955100D01*
X82169731Y60861121D01*
X82203019Y60780195D01*
X82230510Y60713509D01*
X82251718Y60662252D01*
X82266154Y60627612D01*
X82273332Y60610777D01*
X82273602Y60610184D01*
X82292382Y60551059D01*
X82291690Y60495915D01*
X82281639Y60462898D01*
X82276155Y60446948D01*
X82265408Y60413147D01*
X82249986Y60363423D01*
X82230474Y60299705D01*
X82207459Y60223919D01*
X82181528Y60137995D01*
X82153266Y60043860D01*
X82123260Y59943441D01*
X82105308Y59883144D01*
X82074643Y59780139D01*
X82045478Y59682428D01*
X82018390Y59591919D01*
X81993953Y59510522D01*
X81972740Y59440144D01*
X81955328Y59382693D01*
X81942290Y59340079D01*
X81934202Y59314210D01*
X81931989Y59307587D01*
X81906877Y59267583D01*
X81868264Y59239393D01*
X81820324Y59224203D01*
X81767231Y59223197D01*
X81713160Y59237561D01*
X81702482Y59242438D01*
X81687465Y59249146D01*
X81654607Y59263321D01*
X81605083Y59284472D01*
X81540062Y59312105D01*
X81460719Y59345730D01*
X81368226Y59384853D01*
X81263753Y59428982D01*
X81148475Y59477624D01*
X81023563Y59530287D01*
X80890189Y59586479D01*
X80749526Y59645708D01*
X80602746Y59707480D01*
X80451021Y59771304D01*
X80295523Y59836687D01*
X80137426Y59903137D01*
X79977900Y59970161D01*
X79818119Y60037268D01*
X79659254Y60103963D01*
X79502478Y60169756D01*
X79348964Y60234154D01*
X79199883Y60296664D01*
X79056407Y60356794D01*
X78919709Y60414052D01*
X78790962Y60467945D01*
X78671337Y60517981D01*
X78562007Y60563667D01*
X78464144Y60604511D01*
X78412822Y60625895D01*
X79234522Y60625895D01*
X79234992Y60625334D01*
X79245465Y60620190D01*
X79273399Y60607787D01*
X79317309Y60588746D01*
X79375711Y60563690D01*
X79447120Y60533241D01*
X79530052Y60498021D01*
X79623023Y60458654D01*
X79724550Y60415760D01*
X79833147Y60369963D01*
X79947330Y60321885D01*
X80065616Y60272148D01*
X80186519Y60221374D01*
X80308556Y60170186D01*
X80430243Y60119207D01*
X80550096Y60069058D01*
X80666629Y60020361D01*
X80778359Y59973740D01*
X80883802Y59929816D01*
X80981474Y59889212D01*
X81069890Y59852551D01*
X81147566Y59820453D01*
X81213017Y59793543D01*
X81264761Y59772442D01*
X81301312Y59757772D01*
X81321185Y59750156D01*
X81324480Y59749207D01*
X81319469Y59758107D01*
X81303575Y59781996D01*
X81278007Y59819151D01*
X81243972Y59867850D01*
X81202677Y59926370D01*
X81155332Y59992991D01*
X81103142Y60065989D01*
X81067440Y60115701D01*
X81011957Y60192345D01*
X80959529Y60263857D01*
X80911502Y60328469D01*
X80869220Y60384415D01*
X80834025Y60429926D01*
X80816945Y60451185D01*
X81215414Y60451185D01*
X81220490Y60442586D01*
X81236019Y60419613D01*
X81260367Y60384605D01*
X81291898Y60339898D01*
X81328980Y60287831D01*
X81354634Y60252054D01*
X81394619Y60196801D01*
X81430550Y60147853D01*
X81460725Y60107475D01*
X81483437Y60077930D01*
X81496984Y60061484D01*
X81500053Y60058874D01*
X81499484Y60069732D01*
X81495543Y60097519D01*
X81488771Y60138913D01*
X81479707Y60190591D01*
X81470434Y60241034D01*
X81459222Y60299310D01*
X81448837Y60350462D01*
X81440019Y60391067D01*
X81437750Y60400344D01*
X81762490Y60400344D01*
X81762610Y60389083D01*
X81766132Y60361346D01*
X81772491Y60320899D01*
X81781125Y60271508D01*
X81784571Y60252852D01*
X81797441Y60184230D01*
X81807086Y60133330D01*
X81814058Y60097596D01*
X81818912Y60074475D01*
X81822201Y60061411D01*
X81824477Y60055851D01*
X81826295Y60055239D01*
X81827204Y60055991D01*
X81831456Y60066801D01*
X81840464Y60093907D01*
X81853118Y60133831D01*
X81868308Y60183095D01*
X81877666Y60213996D01*
X81893617Y60267678D01*
X81907208Y60314716D01*
X81917405Y60351426D01*
X81923174Y60374124D01*
X81924084Y60379306D01*
X81914838Y60384777D01*
X81890986Y60390640D01*
X81858514Y60396116D01*
X81823408Y60400426D01*
X81791654Y60402790D01*
X81769237Y60402429D01*
X81762490Y60400344D01*
X81437750Y60400344D01*
X81433505Y60417703D01*
X81430336Y60426800D01*
X81418683Y60430156D01*
X81391989Y60434604D01*
X81355613Y60439535D01*
X81314914Y60444342D01*
X81275254Y60448416D01*
X81241990Y60451149D01*
X81220483Y60451934D01*
X81215414Y60451185D01*
X80816945Y60451185D01*
X80807263Y60463235D01*
X80790277Y60482575D01*
X80785287Y60486758D01*
X80771717Y60489007D01*
X80739281Y60492818D01*
X80689666Y60498029D01*
X80624559Y60504483D01*
X80545648Y60512020D01*
X80454620Y60520480D01*
X80353162Y60529705D01*
X80242962Y60539535D01*
X80125707Y60549811D01*
X80026681Y60558355D01*
X79904643Y60568855D01*
X79788062Y60578971D01*
X79678652Y60588547D01*
X79578131Y60597430D01*
X79488214Y60605466D01*
X79410617Y60612500D01*
X79347057Y60618379D01*
X79299249Y60622948D01*
X79268911Y60626053D01*
X79258390Y60627376D01*
X79239340Y60629230D01*
X79234522Y60625895D01*
X78412822Y60625895D01*
X78378920Y60640021D01*
X78307508Y60669704D01*
X78251080Y60693068D01*
X78210808Y60709621D01*
X78187865Y60718869D01*
X78183608Y60720481D01*
X78138727Y60744908D01*
X78101309Y60781586D01*
X78076759Y60824602D01*
X78071612Y60842992D01*
X78068993Y60856352D01*
X78067027Y60868552D01*
X78066540Y60880463D01*
X78068361Y60892954D01*
X78073317Y60906893D01*
X78082237Y60923151D01*
X78095949Y60942597D01*
X78115279Y60966099D01*
X78141056Y60994528D01*
X78148396Y61002128D01*
X78603538Y61002128D01*
X78613310Y60999488D01*
X78640590Y60995578D01*
X78682323Y60990747D01*
X78735457Y60985342D01*
X78796936Y60979709D01*
X78812369Y60978381D01*
X78863887Y60973995D01*
X78913434Y60969753D01*
X78962799Y60965497D01*
X79013772Y60961068D01*
X79068142Y60956307D01*
X79127699Y60951056D01*
X79194231Y60945155D01*
X79269528Y60938445D01*
X79355379Y60930768D01*
X79453574Y60921964D01*
X79565902Y60911875D01*
X79694152Y60900341D01*
X79840114Y60887204D01*
X79933867Y60878763D01*
X80062335Y60867201D01*
X80171764Y60857389D01*
X80263654Y60849224D01*
X80339507Y60842603D01*
X80400826Y60837425D01*
X80449112Y60833586D01*
X80485866Y60830984D01*
X80512592Y60829516D01*
X80530790Y60829081D01*
X80541962Y60829575D01*
X80547610Y60830895D01*
X80549236Y60832941D01*
X80548341Y60835607D01*
X80547591Y60836863D01*
X80535685Y60854697D01*
X80513433Y60886602D01*
X80482022Y60930947D01*
X80442637Y60986101D01*
X80396465Y61050433D01*
X80344693Y61122310D01*
X80288506Y61200103D01*
X80229092Y61282179D01*
X80167636Y61366908D01*
X80105324Y61452657D01*
X80043344Y61537797D01*
X80025979Y61561606D01*
X80416283Y61561606D01*
X80424356Y61546919D01*
X80440772Y61522851D01*
X80454952Y61503145D01*
X80479632Y61468818D01*
X80513279Y61422005D01*
X80554360Y61364837D01*
X80601342Y61299448D01*
X80652694Y61227970D01*
X80706883Y61152536D01*
X80722373Y61130972D01*
X80966823Y60790655D01*
X81133557Y60773968D01*
X81193081Y60768156D01*
X81248148Y60763047D01*
X81294255Y60759038D01*
X81326899Y60756527D01*
X81337703Y60755921D01*
X81375116Y60754561D01*
X81360557Y60824171D01*
X81350637Y60862009D01*
X81338871Y60893175D01*
X81328301Y60910295D01*
X81316672Y60919334D01*
X81289876Y60939136D01*
X81249555Y60968516D01*
X81197353Y61006287D01*
X81134913Y61051266D01*
X81063879Y61102266D01*
X80985894Y61158102D01*
X80902603Y61217589D01*
X80872316Y61239184D01*
X80787679Y61299517D01*
X80707847Y61356447D01*
X80634448Y61408811D01*
X80569112Y61455444D01*
X80513469Y61495183D01*
X80469147Y61526865D01*
X80437777Y61549326D01*
X80420988Y61561404D01*
X80418825Y61562987D01*
X80416283Y61561606D01*
X80025979Y61561606D01*
X79982882Y61620695D01*
X79925123Y61699720D01*
X79871254Y61773241D01*
X79822462Y61839627D01*
X79779933Y61897247D01*
X79744852Y61944468D01*
X79718408Y61979660D01*
X79701785Y62001192D01*
X79696219Y62007545D01*
X79687332Y62000755D01*
X79664822Y61981289D01*
X79630158Y61950498D01*
X79584813Y61909737D01*
X79530255Y61860359D01*
X79467957Y61803716D01*
X79399388Y61741162D01*
X79326019Y61674051D01*
X79249321Y61603735D01*
X79170764Y61531567D01*
X79091820Y61458901D01*
X79013958Y61387090D01*
X78938650Y61317488D01*
X78867365Y61251446D01*
X78801576Y61190320D01*
X78742751Y61135461D01*
X78692363Y61088223D01*
X78651882Y61049959D01*
X78622777Y61022022D01*
X78606521Y61005766D01*
X78603538Y61002128D01*
X78148396Y61002128D01*
X78174108Y61028753D01*
X78215262Y61069642D01*
X78265347Y61118065D01*
X78325189Y61174892D01*
X78395617Y61240992D01*
X78477458Y61317234D01*
X78571541Y61404487D01*
X78678693Y61503621D01*
X78799742Y61615506D01*
X78862198Y61673229D01*
X78969687Y61772459D01*
X79073282Y61867852D01*
X79171935Y61958457D01*
X79264599Y62043322D01*
X79350226Y62121497D01*
X79427768Y62192029D01*
X79496179Y62253968D01*
X79554410Y62306362D01*
X79601415Y62348260D01*
X79636145Y62378710D01*
X79657553Y62396761D01*
X79664110Y62401538D01*
X79714594Y62413626D01*
X79765825Y62406088D01*
X79786903Y62396830D01*
X79800229Y62388180D01*
X79829011Y62368400D01*
X79871962Y62338403D01*
X79927794Y62299104D01*
X79995219Y62251416D01*
X80072950Y62196251D01*
X80159699Y62134524D01*
X80254178Y62067148D01*
X80355100Y61995037D01*
X80461176Y61919103D01*
X80537503Y61864383D01*
X80645563Y61786937D01*
X80748756Y61713118D01*
X80845866Y61643790D01*
X80935672Y61579816D01*
X81016957Y61522060D01*
X81088503Y61471385D01*
X81149090Y61428655D01*
X81197500Y61394732D01*
X81232515Y61370481D01*
X81252916Y61356764D01*
X81257892Y61353908D01*
X81256537Y61364406D01*
X81251623Y61393672D01*
X81243427Y61440205D01*
X81232223Y61502508D01*
X81224336Y61545838D01*
X81546717Y61545838D01*
X81547604Y61535214D01*
X81551895Y61507237D01*
X81559090Y61464807D01*
X81568689Y61410823D01*
X81580195Y61348186D01*
X81586862Y61312645D01*
X81630294Y61082738D01*
X81697326Y61032745D01*
X81738338Y61003141D01*
X81764785Y60986510D01*
X81777684Y60982314D01*
X81778108Y60989873D01*
X81728372Y61111829D01*
X81685871Y61215857D01*
X81650111Y61303151D01*
X81620594Y61374904D01*
X81596823Y61432309D01*
X81578303Y61476560D01*
X81564536Y61508849D01*
X81555026Y61530370D01*
X81549276Y61542315D01*
X81546790Y61545879D01*
X81546717Y61545838D01*
X81224336Y61545838D01*
X81218285Y61579082D01*
X81201888Y61668427D01*
X81183307Y61769044D01*
X81162816Y61879435D01*
X81140691Y61998102D01*
X81117205Y62123544D01*
X81103160Y62198328D01*
X81078886Y62327792D01*
X81055741Y62451926D01*
X81034012Y62569165D01*
X81013982Y62677942D01*
X80995934Y62776691D01*
X80980154Y62863847D01*
X80966926Y62937844D01*
X80956533Y62997116D01*
X80949260Y63040097D01*
X80945391Y63065221D01*
X80944817Y63070799D01*
X80952820Y63106995D01*
X80974631Y63146165D01*
X81006005Y63181312D01*
X81017586Y63190726D01*
X81060568Y63210662D01*
X81109062Y63214535D01*
X81157548Y63203707D01*
G37*
G36*
X21857548Y63403707D02*
G01*
X21900505Y63379542D01*
X21932413Y63343403D01*
X21936035Y63336777D01*
X21942146Y63322878D01*
X21955559Y63291054D01*
X21975792Y63242481D01*
X22002362Y63178334D01*
X22034785Y63099789D01*
X22072579Y63008020D01*
X22115261Y62904202D01*
X22162346Y62789511D01*
X22213353Y62665122D01*
X22267798Y62532210D01*
X22325198Y62391950D01*
X22385070Y62245517D01*
X22446932Y62094086D01*
X22453240Y62078637D01*
X22515354Y61926553D01*
X22575571Y61779206D01*
X22633403Y61637783D01*
X22688362Y61503473D01*
X22739962Y61377464D01*
X22787715Y61260944D01*
X22831134Y61155100D01*
X22869731Y61061121D01*
X22903019Y60980195D01*
X22930510Y60913509D01*
X22951718Y60862252D01*
X22966154Y60827612D01*
X22973332Y60810777D01*
X22973602Y60810184D01*
X22992382Y60751059D01*
X22991690Y60695915D01*
X22981639Y60662898D01*
X22976155Y60646948D01*
X22965408Y60613147D01*
X22949986Y60563423D01*
X22930474Y60499705D01*
X22907459Y60423919D01*
X22881528Y60337995D01*
X22853266Y60243860D01*
X22823260Y60143441D01*
X22805308Y60083144D01*
X22774643Y59980139D01*
X22745478Y59882428D01*
X22718390Y59791919D01*
X22693953Y59710522D01*
X22672740Y59640144D01*
X22655328Y59582693D01*
X22642290Y59540079D01*
X22634202Y59514210D01*
X22631989Y59507587D01*
X22606877Y59467583D01*
X22568264Y59439393D01*
X22520324Y59424203D01*
X22467231Y59423197D01*
X22413160Y59437561D01*
X22402482Y59442438D01*
X22387465Y59449146D01*
X22354607Y59463321D01*
X22305083Y59484472D01*
X22240062Y59512105D01*
X22160719Y59545730D01*
X22068226Y59584853D01*
X21963753Y59628982D01*
X21848475Y59677624D01*
X21723563Y59730287D01*
X21590189Y59786479D01*
X21449526Y59845708D01*
X21302746Y59907480D01*
X21151021Y59971304D01*
X20995523Y60036687D01*
X20837426Y60103137D01*
X20677900Y60170161D01*
X20518119Y60237268D01*
X20359254Y60303963D01*
X20202478Y60369756D01*
X20048964Y60434154D01*
X19899883Y60496664D01*
X19756407Y60556794D01*
X19619709Y60614052D01*
X19490962Y60667945D01*
X19371337Y60717981D01*
X19262007Y60763667D01*
X19164144Y60804511D01*
X19112822Y60825895D01*
X19934522Y60825895D01*
X19934992Y60825334D01*
X19945465Y60820190D01*
X19973399Y60807787D01*
X20017309Y60788746D01*
X20075711Y60763690D01*
X20147120Y60733241D01*
X20230052Y60698021D01*
X20323023Y60658654D01*
X20424550Y60615760D01*
X20533147Y60569963D01*
X20647330Y60521885D01*
X20765616Y60472148D01*
X20886519Y60421374D01*
X21008556Y60370186D01*
X21130243Y60319207D01*
X21250096Y60269058D01*
X21366629Y60220361D01*
X21478359Y60173740D01*
X21583802Y60129816D01*
X21681474Y60089212D01*
X21769890Y60052551D01*
X21847566Y60020453D01*
X21913017Y59993543D01*
X21964761Y59972442D01*
X22001312Y59957772D01*
X22021185Y59950156D01*
X22024480Y59949207D01*
X22019469Y59958107D01*
X22003575Y59981996D01*
X21978007Y60019151D01*
X21943972Y60067850D01*
X21902677Y60126370D01*
X21855332Y60192991D01*
X21803142Y60265989D01*
X21767440Y60315701D01*
X21711957Y60392345D01*
X21659529Y60463857D01*
X21611502Y60528469D01*
X21569220Y60584415D01*
X21534025Y60629926D01*
X21516945Y60651185D01*
X21915414Y60651185D01*
X21920490Y60642586D01*
X21936019Y60619613D01*
X21960367Y60584605D01*
X21991898Y60539898D01*
X22028980Y60487831D01*
X22054634Y60452054D01*
X22094619Y60396801D01*
X22130550Y60347853D01*
X22160725Y60307475D01*
X22183437Y60277930D01*
X22196984Y60261484D01*
X22200053Y60258874D01*
X22199484Y60269732D01*
X22195543Y60297519D01*
X22188771Y60338913D01*
X22179707Y60390591D01*
X22170434Y60441034D01*
X22159222Y60499310D01*
X22148837Y60550462D01*
X22140019Y60591067D01*
X22137750Y60600344D01*
X22462490Y60600344D01*
X22462610Y60589083D01*
X22466132Y60561346D01*
X22472491Y60520899D01*
X22481125Y60471508D01*
X22484571Y60452852D01*
X22497441Y60384230D01*
X22507086Y60333330D01*
X22514058Y60297596D01*
X22518912Y60274475D01*
X22522201Y60261411D01*
X22524477Y60255851D01*
X22526295Y60255239D01*
X22527204Y60255991D01*
X22531456Y60266801D01*
X22540464Y60293907D01*
X22553118Y60333831D01*
X22568308Y60383095D01*
X22577666Y60413996D01*
X22593617Y60467678D01*
X22607208Y60514716D01*
X22617405Y60551426D01*
X22623174Y60574124D01*
X22624084Y60579306D01*
X22614838Y60584777D01*
X22590986Y60590640D01*
X22558514Y60596116D01*
X22523408Y60600426D01*
X22491654Y60602790D01*
X22469237Y60602429D01*
X22462490Y60600344D01*
X22137750Y60600344D01*
X22133505Y60617703D01*
X22130336Y60626800D01*
X22118683Y60630156D01*
X22091989Y60634604D01*
X22055613Y60639535D01*
X22014914Y60644342D01*
X21975254Y60648416D01*
X21941990Y60651149D01*
X21920483Y60651934D01*
X21915414Y60651185D01*
X21516945Y60651185D01*
X21507263Y60663235D01*
X21490277Y60682575D01*
X21485287Y60686758D01*
X21471717Y60689007D01*
X21439281Y60692818D01*
X21389666Y60698029D01*
X21324559Y60704483D01*
X21245648Y60712020D01*
X21154620Y60720480D01*
X21053162Y60729705D01*
X20942962Y60739535D01*
X20825707Y60749811D01*
X20726681Y60758355D01*
X20604643Y60768855D01*
X20488062Y60778971D01*
X20378652Y60788547D01*
X20278131Y60797430D01*
X20188214Y60805466D01*
X20110617Y60812500D01*
X20047057Y60818379D01*
X19999249Y60822948D01*
X19968911Y60826053D01*
X19958390Y60827376D01*
X19939340Y60829230D01*
X19934522Y60825895D01*
X19112822Y60825895D01*
X19078920Y60840021D01*
X19007508Y60869704D01*
X18951080Y60893068D01*
X18910808Y60909621D01*
X18887865Y60918869D01*
X18883608Y60920481D01*
X18838727Y60944908D01*
X18801309Y60981586D01*
X18776759Y61024602D01*
X18771612Y61042992D01*
X18768993Y61056352D01*
X18767027Y61068552D01*
X18766540Y61080463D01*
X18768361Y61092954D01*
X18773317Y61106893D01*
X18782237Y61123151D01*
X18795949Y61142597D01*
X18815279Y61166099D01*
X18841056Y61194528D01*
X18848396Y61202128D01*
X19303538Y61202128D01*
X19313310Y61199488D01*
X19340590Y61195578D01*
X19382323Y61190747D01*
X19435457Y61185342D01*
X19496936Y61179709D01*
X19512369Y61178381D01*
X19563887Y61173995D01*
X19613434Y61169753D01*
X19662799Y61165497D01*
X19713772Y61161068D01*
X19768142Y61156307D01*
X19827699Y61151056D01*
X19894231Y61145155D01*
X19969528Y61138445D01*
X20055379Y61130768D01*
X20153574Y61121964D01*
X20265902Y61111875D01*
X20394152Y61100341D01*
X20540114Y61087204D01*
X20633867Y61078763D01*
X20762335Y61067201D01*
X20871764Y61057389D01*
X20963654Y61049224D01*
X21039507Y61042603D01*
X21100826Y61037425D01*
X21149112Y61033586D01*
X21185866Y61030984D01*
X21212592Y61029516D01*
X21230790Y61029081D01*
X21241962Y61029575D01*
X21247610Y61030895D01*
X21249236Y61032941D01*
X21248341Y61035607D01*
X21247591Y61036863D01*
X21235685Y61054697D01*
X21213433Y61086602D01*
X21182022Y61130947D01*
X21142637Y61186101D01*
X21096465Y61250433D01*
X21044693Y61322310D01*
X20988506Y61400103D01*
X20929092Y61482179D01*
X20867636Y61566908D01*
X20805324Y61652657D01*
X20743344Y61737797D01*
X20725979Y61761606D01*
X21116283Y61761606D01*
X21124356Y61746919D01*
X21140772Y61722851D01*
X21154952Y61703145D01*
X21179632Y61668818D01*
X21213279Y61622005D01*
X21254360Y61564837D01*
X21301342Y61499448D01*
X21352694Y61427970D01*
X21406883Y61352536D01*
X21422373Y61330972D01*
X21666823Y60990655D01*
X21833557Y60973968D01*
X21893081Y60968156D01*
X21948148Y60963047D01*
X21994255Y60959038D01*
X22026899Y60956527D01*
X22037703Y60955921D01*
X22075116Y60954561D01*
X22060557Y61024171D01*
X22050637Y61062009D01*
X22038871Y61093175D01*
X22028301Y61110295D01*
X22016672Y61119334D01*
X21989876Y61139136D01*
X21949555Y61168516D01*
X21897353Y61206287D01*
X21834913Y61251266D01*
X21763879Y61302266D01*
X21685894Y61358102D01*
X21602603Y61417589D01*
X21572316Y61439184D01*
X21487679Y61499517D01*
X21407847Y61556447D01*
X21334448Y61608811D01*
X21269112Y61655444D01*
X21213469Y61695183D01*
X21169147Y61726865D01*
X21137777Y61749326D01*
X21120988Y61761404D01*
X21118825Y61762987D01*
X21116283Y61761606D01*
X20725979Y61761606D01*
X20682882Y61820695D01*
X20625123Y61899720D01*
X20571254Y61973241D01*
X20522462Y62039627D01*
X20479933Y62097247D01*
X20444852Y62144468D01*
X20418408Y62179660D01*
X20401785Y62201192D01*
X20396219Y62207545D01*
X20387332Y62200755D01*
X20364822Y62181289D01*
X20330158Y62150498D01*
X20284813Y62109737D01*
X20230255Y62060359D01*
X20167957Y62003716D01*
X20099388Y61941162D01*
X20026019Y61874051D01*
X19949321Y61803735D01*
X19870764Y61731567D01*
X19791820Y61658901D01*
X19713958Y61587090D01*
X19638650Y61517488D01*
X19567365Y61451446D01*
X19501576Y61390320D01*
X19442751Y61335461D01*
X19392363Y61288223D01*
X19351882Y61249959D01*
X19322777Y61222022D01*
X19306521Y61205766D01*
X19303538Y61202128D01*
X18848396Y61202128D01*
X18874108Y61228753D01*
X18915262Y61269642D01*
X18965347Y61318065D01*
X19025189Y61374892D01*
X19095617Y61440992D01*
X19177458Y61517234D01*
X19271541Y61604487D01*
X19378693Y61703621D01*
X19499742Y61815506D01*
X19562198Y61873229D01*
X19669687Y61972459D01*
X19773282Y62067852D01*
X19871935Y62158457D01*
X19964599Y62243322D01*
X20050226Y62321497D01*
X20127768Y62392029D01*
X20196179Y62453968D01*
X20254410Y62506362D01*
X20301415Y62548260D01*
X20336145Y62578710D01*
X20357553Y62596761D01*
X20364110Y62601538D01*
X20414594Y62613626D01*
X20465825Y62606088D01*
X20486903Y62596830D01*
X20500229Y62588180D01*
X20529011Y62568400D01*
X20571962Y62538403D01*
X20627794Y62499104D01*
X20695219Y62451416D01*
X20772950Y62396251D01*
X20859699Y62334524D01*
X20954178Y62267148D01*
X21055100Y62195037D01*
X21161176Y62119103D01*
X21237503Y62064383D01*
X21345563Y61986937D01*
X21448756Y61913118D01*
X21545866Y61843790D01*
X21635672Y61779816D01*
X21716957Y61722060D01*
X21788503Y61671385D01*
X21849090Y61628655D01*
X21897500Y61594732D01*
X21932515Y61570481D01*
X21952916Y61556764D01*
X21957892Y61553908D01*
X21956537Y61564406D01*
X21951623Y61593672D01*
X21943427Y61640205D01*
X21932223Y61702508D01*
X21924336Y61745838D01*
X22246717Y61745838D01*
X22247604Y61735214D01*
X22251895Y61707237D01*
X22259090Y61664807D01*
X22268689Y61610823D01*
X22280195Y61548186D01*
X22286862Y61512645D01*
X22330294Y61282738D01*
X22397326Y61232745D01*
X22438338Y61203141D01*
X22464785Y61186510D01*
X22477684Y61182314D01*
X22478108Y61189873D01*
X22428372Y61311829D01*
X22385871Y61415857D01*
X22350111Y61503151D01*
X22320594Y61574904D01*
X22296823Y61632309D01*
X22278303Y61676560D01*
X22264536Y61708849D01*
X22255026Y61730370D01*
X22249276Y61742315D01*
X22246790Y61745879D01*
X22246717Y61745838D01*
X21924336Y61745838D01*
X21918285Y61779082D01*
X21901888Y61868427D01*
X21883307Y61969044D01*
X21862816Y62079435D01*
X21840691Y62198102D01*
X21817205Y62323544D01*
X21803160Y62398328D01*
X21778886Y62527792D01*
X21755741Y62651926D01*
X21734012Y62769165D01*
X21713982Y62877942D01*
X21695934Y62976691D01*
X21680154Y63063847D01*
X21666926Y63137844D01*
X21656533Y63197116D01*
X21649260Y63240097D01*
X21645391Y63265221D01*
X21644817Y63270799D01*
X21652820Y63306995D01*
X21674631Y63346165D01*
X21706005Y63381312D01*
X21717586Y63390726D01*
X21760568Y63410662D01*
X21809062Y63414535D01*
X21857548Y63403707D01*
G37*
G36*
X51157548Y33803707D02*
G01*
X51200505Y33779542D01*
X51232413Y33743403D01*
X51236035Y33736777D01*
X51242146Y33722878D01*
X51255559Y33691054D01*
X51275792Y33642481D01*
X51302362Y33578334D01*
X51334785Y33499789D01*
X51372579Y33408020D01*
X51415261Y33304202D01*
X51462346Y33189511D01*
X51513353Y33065122D01*
X51567798Y32932210D01*
X51625198Y32791950D01*
X51685070Y32645517D01*
X51746932Y32494086D01*
X51753240Y32478637D01*
X51815354Y32326553D01*
X51875571Y32179206D01*
X51933403Y32037783D01*
X51988362Y31903473D01*
X52039962Y31777464D01*
X52087715Y31660944D01*
X52131134Y31555100D01*
X52169731Y31461121D01*
X52203019Y31380195D01*
X52230510Y31313509D01*
X52251718Y31262252D01*
X52266154Y31227612D01*
X52273332Y31210777D01*
X52273602Y31210184D01*
X52292382Y31151059D01*
X52291690Y31095915D01*
X52281639Y31062898D01*
X52276155Y31046948D01*
X52265408Y31013147D01*
X52249986Y30963423D01*
X52230474Y30899705D01*
X52207459Y30823919D01*
X52181528Y30737995D01*
X52153266Y30643860D01*
X52123260Y30543441D01*
X52105308Y30483144D01*
X52074643Y30380139D01*
X52045478Y30282428D01*
X52018390Y30191919D01*
X51993953Y30110522D01*
X51972740Y30040144D01*
X51955328Y29982693D01*
X51942290Y29940079D01*
X51934202Y29914210D01*
X51931989Y29907587D01*
X51906877Y29867583D01*
X51868264Y29839393D01*
X51820324Y29824203D01*
X51767231Y29823197D01*
X51713160Y29837561D01*
X51702482Y29842438D01*
X51687465Y29849146D01*
X51654607Y29863321D01*
X51605083Y29884472D01*
X51540062Y29912105D01*
X51460719Y29945730D01*
X51368226Y29984853D01*
X51263753Y30028982D01*
X51148475Y30077624D01*
X51023563Y30130287D01*
X50890189Y30186479D01*
X50749526Y30245708D01*
X50602746Y30307480D01*
X50451021Y30371304D01*
X50295523Y30436687D01*
X50137426Y30503137D01*
X49977900Y30570161D01*
X49818119Y30637268D01*
X49659254Y30703963D01*
X49502478Y30769756D01*
X49348964Y30834154D01*
X49199883Y30896664D01*
X49056407Y30956794D01*
X48919709Y31014052D01*
X48790962Y31067945D01*
X48671337Y31117981D01*
X48562007Y31163667D01*
X48464144Y31204511D01*
X48412822Y31225895D01*
X49234522Y31225895D01*
X49234992Y31225334D01*
X49245465Y31220190D01*
X49273399Y31207787D01*
X49317309Y31188746D01*
X49375711Y31163690D01*
X49447120Y31133241D01*
X49530052Y31098021D01*
X49623023Y31058654D01*
X49724550Y31015760D01*
X49833147Y30969963D01*
X49947330Y30921885D01*
X50065616Y30872148D01*
X50186519Y30821374D01*
X50308556Y30770186D01*
X50430243Y30719207D01*
X50550096Y30669058D01*
X50666629Y30620361D01*
X50778359Y30573740D01*
X50883802Y30529816D01*
X50981474Y30489212D01*
X51069890Y30452551D01*
X51147566Y30420453D01*
X51213017Y30393543D01*
X51264761Y30372442D01*
X51301312Y30357772D01*
X51321185Y30350156D01*
X51324480Y30349207D01*
X51319469Y30358107D01*
X51303575Y30381996D01*
X51278007Y30419151D01*
X51243972Y30467850D01*
X51202677Y30526370D01*
X51155332Y30592991D01*
X51103142Y30665989D01*
X51067440Y30715701D01*
X51011957Y30792345D01*
X50959529Y30863857D01*
X50911502Y30928469D01*
X50869220Y30984415D01*
X50834025Y31029926D01*
X50816945Y31051185D01*
X51215414Y31051185D01*
X51220490Y31042586D01*
X51236019Y31019613D01*
X51260367Y30984605D01*
X51291898Y30939898D01*
X51328980Y30887831D01*
X51354634Y30852054D01*
X51394619Y30796801D01*
X51430550Y30747853D01*
X51460725Y30707475D01*
X51483437Y30677930D01*
X51496984Y30661484D01*
X51500053Y30658874D01*
X51499484Y30669732D01*
X51495543Y30697519D01*
X51488771Y30738913D01*
X51479707Y30790591D01*
X51470434Y30841034D01*
X51459222Y30899310D01*
X51448837Y30950462D01*
X51440019Y30991067D01*
X51437750Y31000344D01*
X51762490Y31000344D01*
X51762610Y30989083D01*
X51766132Y30961346D01*
X51772491Y30920899D01*
X51781125Y30871508D01*
X51784571Y30852852D01*
X51797441Y30784230D01*
X51807086Y30733330D01*
X51814058Y30697596D01*
X51818912Y30674475D01*
X51822201Y30661411D01*
X51824477Y30655851D01*
X51826295Y30655239D01*
X51827204Y30655991D01*
X51831456Y30666801D01*
X51840464Y30693907D01*
X51853118Y30733831D01*
X51868308Y30783095D01*
X51877666Y30813996D01*
X51893617Y30867678D01*
X51907208Y30914716D01*
X51917405Y30951426D01*
X51923174Y30974124D01*
X51924084Y30979306D01*
X51914838Y30984777D01*
X51890986Y30990640D01*
X51858514Y30996116D01*
X51823408Y31000426D01*
X51791654Y31002790D01*
X51769237Y31002429D01*
X51762490Y31000344D01*
X51437750Y31000344D01*
X51433505Y31017703D01*
X51430336Y31026800D01*
X51418683Y31030156D01*
X51391989Y31034604D01*
X51355613Y31039535D01*
X51314914Y31044342D01*
X51275254Y31048416D01*
X51241990Y31051149D01*
X51220483Y31051934D01*
X51215414Y31051185D01*
X50816945Y31051185D01*
X50807263Y31063235D01*
X50790277Y31082575D01*
X50785287Y31086758D01*
X50771717Y31089007D01*
X50739281Y31092818D01*
X50689666Y31098029D01*
X50624559Y31104483D01*
X50545648Y31112020D01*
X50454620Y31120480D01*
X50353162Y31129705D01*
X50242962Y31139535D01*
X50125707Y31149811D01*
X50026681Y31158355D01*
X49904643Y31168855D01*
X49788062Y31178971D01*
X49678652Y31188547D01*
X49578131Y31197430D01*
X49488214Y31205466D01*
X49410617Y31212500D01*
X49347057Y31218379D01*
X49299249Y31222948D01*
X49268911Y31226053D01*
X49258390Y31227376D01*
X49239340Y31229230D01*
X49234522Y31225895D01*
X48412822Y31225895D01*
X48378920Y31240021D01*
X48307508Y31269704D01*
X48251080Y31293068D01*
X48210808Y31309621D01*
X48187865Y31318869D01*
X48183608Y31320481D01*
X48138727Y31344908D01*
X48101309Y31381586D01*
X48076759Y31424602D01*
X48071612Y31442992D01*
X48068993Y31456352D01*
X48067027Y31468552D01*
X48066540Y31480463D01*
X48068361Y31492954D01*
X48073317Y31506893D01*
X48082237Y31523151D01*
X48095949Y31542597D01*
X48115279Y31566099D01*
X48141056Y31594528D01*
X48148396Y31602128D01*
X48603538Y31602128D01*
X48613310Y31599488D01*
X48640590Y31595578D01*
X48682323Y31590747D01*
X48735457Y31585342D01*
X48796936Y31579709D01*
X48812369Y31578381D01*
X48863887Y31573995D01*
X48913434Y31569753D01*
X48962799Y31565497D01*
X49013772Y31561068D01*
X49068142Y31556307D01*
X49127699Y31551056D01*
X49194231Y31545155D01*
X49269528Y31538445D01*
X49355379Y31530768D01*
X49453574Y31521964D01*
X49565902Y31511875D01*
X49694152Y31500341D01*
X49840114Y31487204D01*
X49933867Y31478763D01*
X50062335Y31467201D01*
X50171764Y31457389D01*
X50263654Y31449224D01*
X50339507Y31442603D01*
X50400826Y31437425D01*
X50449112Y31433586D01*
X50485866Y31430984D01*
X50512592Y31429516D01*
X50530790Y31429081D01*
X50541962Y31429575D01*
X50547610Y31430895D01*
X50549236Y31432941D01*
X50548341Y31435607D01*
X50547591Y31436863D01*
X50535685Y31454697D01*
X50513433Y31486602D01*
X50482022Y31530947D01*
X50442637Y31586101D01*
X50396465Y31650433D01*
X50344693Y31722310D01*
X50288506Y31800103D01*
X50229092Y31882179D01*
X50167636Y31966908D01*
X50105324Y32052657D01*
X50043344Y32137797D01*
X50025979Y32161606D01*
X50416283Y32161606D01*
X50424356Y32146919D01*
X50440772Y32122851D01*
X50454952Y32103145D01*
X50479632Y32068818D01*
X50513279Y32022005D01*
X50554360Y31964837D01*
X50601342Y31899448D01*
X50652694Y31827970D01*
X50706883Y31752536D01*
X50722373Y31730972D01*
X50966823Y31390655D01*
X51133557Y31373968D01*
X51193081Y31368156D01*
X51248148Y31363047D01*
X51294255Y31359038D01*
X51326899Y31356527D01*
X51337703Y31355921D01*
X51375116Y31354561D01*
X51360557Y31424171D01*
X51350637Y31462009D01*
X51338871Y31493175D01*
X51328301Y31510295D01*
X51316672Y31519334D01*
X51289876Y31539136D01*
X51249555Y31568516D01*
X51197353Y31606287D01*
X51134913Y31651266D01*
X51063879Y31702266D01*
X50985894Y31758102D01*
X50902603Y31817589D01*
X50872316Y31839184D01*
X50787679Y31899517D01*
X50707847Y31956447D01*
X50634448Y32008811D01*
X50569112Y32055444D01*
X50513469Y32095183D01*
X50469147Y32126865D01*
X50437777Y32149326D01*
X50420988Y32161404D01*
X50418825Y32162987D01*
X50416283Y32161606D01*
X50025979Y32161606D01*
X49982882Y32220695D01*
X49925123Y32299720D01*
X49871254Y32373241D01*
X49822462Y32439627D01*
X49779933Y32497247D01*
X49744852Y32544468D01*
X49718408Y32579660D01*
X49701785Y32601192D01*
X49696219Y32607545D01*
X49687332Y32600755D01*
X49664822Y32581289D01*
X49630158Y32550498D01*
X49584813Y32509737D01*
X49530255Y32460359D01*
X49467957Y32403716D01*
X49399388Y32341162D01*
X49326019Y32274051D01*
X49249321Y32203735D01*
X49170764Y32131567D01*
X49091820Y32058901D01*
X49013958Y31987090D01*
X48938650Y31917488D01*
X48867365Y31851446D01*
X48801576Y31790320D01*
X48742751Y31735461D01*
X48692363Y31688223D01*
X48651882Y31649959D01*
X48622777Y31622022D01*
X48606521Y31605766D01*
X48603538Y31602128D01*
X48148396Y31602128D01*
X48174108Y31628753D01*
X48215262Y31669642D01*
X48265347Y31718065D01*
X48325189Y31774892D01*
X48395617Y31840992D01*
X48477458Y31917234D01*
X48571541Y32004487D01*
X48678693Y32103621D01*
X48799742Y32215506D01*
X48862198Y32273229D01*
X48969687Y32372459D01*
X49073282Y32467852D01*
X49171935Y32558457D01*
X49264599Y32643322D01*
X49350226Y32721497D01*
X49427768Y32792029D01*
X49496179Y32853968D01*
X49554410Y32906362D01*
X49601415Y32948260D01*
X49636145Y32978710D01*
X49657553Y32996761D01*
X49664110Y33001538D01*
X49714594Y33013626D01*
X49765825Y33006088D01*
X49786903Y32996830D01*
X49800229Y32988180D01*
X49829011Y32968400D01*
X49871962Y32938403D01*
X49927794Y32899104D01*
X49995219Y32851416D01*
X50072950Y32796251D01*
X50159699Y32734524D01*
X50254178Y32667148D01*
X50355100Y32595037D01*
X50461176Y32519103D01*
X50537503Y32464383D01*
X50645563Y32386937D01*
X50748756Y32313118D01*
X50845866Y32243790D01*
X50935672Y32179816D01*
X51016957Y32122060D01*
X51088503Y32071385D01*
X51149090Y32028655D01*
X51197500Y31994732D01*
X51232515Y31970481D01*
X51252916Y31956764D01*
X51257892Y31953908D01*
X51256537Y31964406D01*
X51251623Y31993672D01*
X51243427Y32040205D01*
X51232223Y32102508D01*
X51224336Y32145838D01*
X51546717Y32145838D01*
X51547604Y32135214D01*
X51551895Y32107237D01*
X51559090Y32064807D01*
X51568689Y32010823D01*
X51580195Y31948186D01*
X51586862Y31912645D01*
X51630294Y31682738D01*
X51697326Y31632745D01*
X51738338Y31603141D01*
X51764785Y31586510D01*
X51777684Y31582314D01*
X51778108Y31589873D01*
X51728372Y31711829D01*
X51685871Y31815857D01*
X51650111Y31903151D01*
X51620594Y31974904D01*
X51596823Y32032309D01*
X51578303Y32076560D01*
X51564536Y32108849D01*
X51555026Y32130370D01*
X51549276Y32142315D01*
X51546790Y32145879D01*
X51546717Y32145838D01*
X51224336Y32145838D01*
X51218285Y32179082D01*
X51201888Y32268427D01*
X51183307Y32369044D01*
X51162816Y32479435D01*
X51140691Y32598102D01*
X51117205Y32723544D01*
X51103160Y32798328D01*
X51078886Y32927792D01*
X51055741Y33051926D01*
X51034012Y33169165D01*
X51013982Y33277942D01*
X50995934Y33376691D01*
X50980154Y33463847D01*
X50966926Y33537844D01*
X50956533Y33597116D01*
X50949260Y33640097D01*
X50945391Y33665221D01*
X50944817Y33670799D01*
X50952820Y33706995D01*
X50974631Y33746165D01*
X51006005Y33781312D01*
X51017586Y33790726D01*
X51060568Y33810662D01*
X51109062Y33814535D01*
X51157548Y33803707D01*
G37*
G36*
X21857548Y93403707D02*
G01*
X21900505Y93379542D01*
X21932413Y93343403D01*
X21936035Y93336777D01*
X21942146Y93322878D01*
X21955559Y93291054D01*
X21975792Y93242481D01*
X22002362Y93178334D01*
X22034785Y93099789D01*
X22072579Y93008020D01*
X22115261Y92904202D01*
X22162346Y92789511D01*
X22213353Y92665122D01*
X22267798Y92532210D01*
X22325198Y92391950D01*
X22385070Y92245517D01*
X22446932Y92094086D01*
X22453240Y92078637D01*
X22515354Y91926553D01*
X22575571Y91779206D01*
X22633403Y91637783D01*
X22688362Y91503473D01*
X22739962Y91377464D01*
X22787715Y91260944D01*
X22831134Y91155100D01*
X22869731Y91061121D01*
X22903019Y90980195D01*
X22930510Y90913509D01*
X22951718Y90862252D01*
X22966154Y90827612D01*
X22973332Y90810777D01*
X22973602Y90810184D01*
X22992382Y90751059D01*
X22991690Y90695915D01*
X22981639Y90662898D01*
X22976155Y90646948D01*
X22965408Y90613147D01*
X22949986Y90563423D01*
X22930474Y90499705D01*
X22907459Y90423919D01*
X22881528Y90337995D01*
X22853266Y90243860D01*
X22823260Y90143441D01*
X22805308Y90083144D01*
X22774643Y89980139D01*
X22745478Y89882428D01*
X22718390Y89791919D01*
X22693953Y89710522D01*
X22672740Y89640144D01*
X22655328Y89582693D01*
X22642290Y89540079D01*
X22634202Y89514210D01*
X22631989Y89507587D01*
X22606877Y89467583D01*
X22568264Y89439393D01*
X22520324Y89424203D01*
X22467231Y89423197D01*
X22413160Y89437561D01*
X22402482Y89442438D01*
X22387465Y89449146D01*
X22354607Y89463321D01*
X22305083Y89484472D01*
X22240062Y89512105D01*
X22160719Y89545730D01*
X22068226Y89584853D01*
X21963753Y89628982D01*
X21848475Y89677624D01*
X21723563Y89730287D01*
X21590189Y89786479D01*
X21449526Y89845708D01*
X21302746Y89907480D01*
X21151021Y89971304D01*
X20995523Y90036687D01*
X20837426Y90103137D01*
X20677900Y90170161D01*
X20518119Y90237268D01*
X20359254Y90303963D01*
X20202478Y90369756D01*
X20048964Y90434154D01*
X19899883Y90496664D01*
X19756407Y90556794D01*
X19619709Y90614052D01*
X19490962Y90667945D01*
X19371337Y90717981D01*
X19262007Y90763667D01*
X19164144Y90804511D01*
X19112822Y90825895D01*
X19934522Y90825895D01*
X19934992Y90825334D01*
X19945465Y90820190D01*
X19973399Y90807787D01*
X20017309Y90788746D01*
X20075711Y90763690D01*
X20147120Y90733241D01*
X20230052Y90698021D01*
X20323023Y90658654D01*
X20424550Y90615760D01*
X20533147Y90569963D01*
X20647330Y90521885D01*
X20765616Y90472148D01*
X20886519Y90421374D01*
X21008556Y90370186D01*
X21130243Y90319207D01*
X21250096Y90269058D01*
X21366629Y90220361D01*
X21478359Y90173740D01*
X21583802Y90129816D01*
X21681474Y90089212D01*
X21769890Y90052551D01*
X21847566Y90020453D01*
X21913017Y89993543D01*
X21964761Y89972442D01*
X22001312Y89957772D01*
X22021185Y89950156D01*
X22024480Y89949207D01*
X22019469Y89958107D01*
X22003575Y89981996D01*
X21978007Y90019151D01*
X21943972Y90067850D01*
X21902677Y90126370D01*
X21855332Y90192991D01*
X21803142Y90265989D01*
X21767440Y90315701D01*
X21711957Y90392345D01*
X21659529Y90463857D01*
X21611502Y90528469D01*
X21569220Y90584415D01*
X21534025Y90629926D01*
X21516945Y90651185D01*
X21915414Y90651185D01*
X21920490Y90642586D01*
X21936019Y90619613D01*
X21960367Y90584605D01*
X21991898Y90539898D01*
X22028980Y90487831D01*
X22054634Y90452054D01*
X22094619Y90396801D01*
X22130550Y90347853D01*
X22160725Y90307475D01*
X22183437Y90277930D01*
X22196984Y90261484D01*
X22200053Y90258874D01*
X22199484Y90269732D01*
X22195543Y90297519D01*
X22188771Y90338913D01*
X22179707Y90390591D01*
X22170434Y90441034D01*
X22159222Y90499310D01*
X22148837Y90550462D01*
X22140019Y90591067D01*
X22137750Y90600344D01*
X22462490Y90600344D01*
X22462610Y90589083D01*
X22466132Y90561346D01*
X22472491Y90520899D01*
X22481125Y90471508D01*
X22484571Y90452852D01*
X22497441Y90384230D01*
X22507086Y90333330D01*
X22514058Y90297596D01*
X22518912Y90274475D01*
X22522201Y90261411D01*
X22524477Y90255851D01*
X22526295Y90255239D01*
X22527204Y90255991D01*
X22531456Y90266801D01*
X22540464Y90293907D01*
X22553118Y90333831D01*
X22568308Y90383095D01*
X22577666Y90413996D01*
X22593617Y90467678D01*
X22607208Y90514716D01*
X22617405Y90551426D01*
X22623174Y90574124D01*
X22624084Y90579306D01*
X22614838Y90584777D01*
X22590986Y90590640D01*
X22558514Y90596116D01*
X22523408Y90600426D01*
X22491654Y90602790D01*
X22469237Y90602429D01*
X22462490Y90600344D01*
X22137750Y90600344D01*
X22133505Y90617703D01*
X22130336Y90626800D01*
X22118683Y90630156D01*
X22091989Y90634604D01*
X22055613Y90639535D01*
X22014914Y90644342D01*
X21975254Y90648416D01*
X21941990Y90651149D01*
X21920483Y90651934D01*
X21915414Y90651185D01*
X21516945Y90651185D01*
X21507263Y90663235D01*
X21490277Y90682575D01*
X21485287Y90686758D01*
X21471717Y90689007D01*
X21439281Y90692818D01*
X21389666Y90698029D01*
X21324559Y90704483D01*
X21245648Y90712020D01*
X21154620Y90720480D01*
X21053162Y90729705D01*
X20942962Y90739535D01*
X20825707Y90749811D01*
X20726681Y90758355D01*
X20604643Y90768855D01*
X20488062Y90778971D01*
X20378652Y90788547D01*
X20278131Y90797430D01*
X20188214Y90805466D01*
X20110617Y90812500D01*
X20047057Y90818379D01*
X19999249Y90822948D01*
X19968911Y90826053D01*
X19958390Y90827376D01*
X19939340Y90829230D01*
X19934522Y90825895D01*
X19112822Y90825895D01*
X19078920Y90840021D01*
X19007508Y90869704D01*
X18951080Y90893068D01*
X18910808Y90909621D01*
X18887865Y90918869D01*
X18883608Y90920481D01*
X18838727Y90944908D01*
X18801309Y90981586D01*
X18776759Y91024602D01*
X18771612Y91042992D01*
X18768993Y91056352D01*
X18767027Y91068552D01*
X18766540Y91080463D01*
X18768361Y91092954D01*
X18773317Y91106893D01*
X18782237Y91123151D01*
X18795949Y91142597D01*
X18815279Y91166099D01*
X18841056Y91194528D01*
X18848396Y91202128D01*
X19303538Y91202128D01*
X19313310Y91199488D01*
X19340590Y91195578D01*
X19382323Y91190747D01*
X19435457Y91185342D01*
X19496936Y91179709D01*
X19512369Y91178381D01*
X19563887Y91173995D01*
X19613434Y91169753D01*
X19662799Y91165497D01*
X19713772Y91161068D01*
X19768142Y91156307D01*
X19827699Y91151056D01*
X19894231Y91145155D01*
X19969528Y91138445D01*
X20055379Y91130768D01*
X20153574Y91121964D01*
X20265902Y91111875D01*
X20394152Y91100341D01*
X20540114Y91087204D01*
X20633867Y91078763D01*
X20762335Y91067201D01*
X20871764Y91057389D01*
X20963654Y91049224D01*
X21039507Y91042603D01*
X21100826Y91037425D01*
X21149112Y91033586D01*
X21185866Y91030984D01*
X21212592Y91029516D01*
X21230790Y91029081D01*
X21241962Y91029575D01*
X21247610Y91030895D01*
X21249236Y91032941D01*
X21248341Y91035607D01*
X21247591Y91036863D01*
X21235685Y91054697D01*
X21213433Y91086602D01*
X21182022Y91130947D01*
X21142637Y91186101D01*
X21096465Y91250433D01*
X21044693Y91322310D01*
X20988506Y91400103D01*
X20929092Y91482179D01*
X20867636Y91566908D01*
X20805324Y91652657D01*
X20743344Y91737797D01*
X20725979Y91761606D01*
X21116283Y91761606D01*
X21124356Y91746919D01*
X21140772Y91722851D01*
X21154952Y91703145D01*
X21179632Y91668818D01*
X21213279Y91622005D01*
X21254360Y91564837D01*
X21301342Y91499448D01*
X21352694Y91427970D01*
X21406883Y91352536D01*
X21422373Y91330972D01*
X21666823Y90990655D01*
X21833557Y90973968D01*
X21893081Y90968156D01*
X21948148Y90963047D01*
X21994255Y90959038D01*
X22026899Y90956527D01*
X22037703Y90955921D01*
X22075116Y90954561D01*
X22060557Y91024171D01*
X22050637Y91062009D01*
X22038871Y91093175D01*
X22028301Y91110295D01*
X22016672Y91119334D01*
X21989876Y91139136D01*
X21949555Y91168516D01*
X21897353Y91206287D01*
X21834913Y91251266D01*
X21763879Y91302266D01*
X21685894Y91358102D01*
X21602603Y91417589D01*
X21572316Y91439184D01*
X21487679Y91499517D01*
X21407847Y91556447D01*
X21334448Y91608811D01*
X21269112Y91655444D01*
X21213469Y91695183D01*
X21169147Y91726865D01*
X21137777Y91749326D01*
X21120988Y91761404D01*
X21118825Y91762987D01*
X21116283Y91761606D01*
X20725979Y91761606D01*
X20682882Y91820695D01*
X20625123Y91899720D01*
X20571254Y91973241D01*
X20522462Y92039627D01*
X20479933Y92097247D01*
X20444852Y92144468D01*
X20418408Y92179660D01*
X20401785Y92201192D01*
X20396219Y92207545D01*
X20387332Y92200755D01*
X20364822Y92181289D01*
X20330158Y92150498D01*
X20284813Y92109737D01*
X20230255Y92060359D01*
X20167957Y92003716D01*
X20099388Y91941162D01*
X20026019Y91874051D01*
X19949321Y91803735D01*
X19870764Y91731567D01*
X19791820Y91658901D01*
X19713958Y91587090D01*
X19638650Y91517488D01*
X19567365Y91451446D01*
X19501576Y91390320D01*
X19442751Y91335461D01*
X19392363Y91288223D01*
X19351882Y91249959D01*
X19322777Y91222022D01*
X19306521Y91205766D01*
X19303538Y91202128D01*
X18848396Y91202128D01*
X18874108Y91228753D01*
X18915262Y91269642D01*
X18965347Y91318065D01*
X19025189Y91374892D01*
X19095617Y91440992D01*
X19177458Y91517234D01*
X19271541Y91604487D01*
X19378693Y91703621D01*
X19499742Y91815506D01*
X19562198Y91873229D01*
X19669687Y91972459D01*
X19773282Y92067852D01*
X19871935Y92158457D01*
X19964599Y92243322D01*
X20050226Y92321497D01*
X20127768Y92392029D01*
X20196179Y92453968D01*
X20254410Y92506362D01*
X20301415Y92548260D01*
X20336145Y92578710D01*
X20357553Y92596761D01*
X20364110Y92601538D01*
X20414594Y92613626D01*
X20465825Y92606088D01*
X20486903Y92596830D01*
X20500229Y92588180D01*
X20529011Y92568400D01*
X20571962Y92538403D01*
X20627794Y92499104D01*
X20695219Y92451416D01*
X20772950Y92396251D01*
X20859699Y92334524D01*
X20954178Y92267148D01*
X21055100Y92195037D01*
X21161176Y92119103D01*
X21237503Y92064383D01*
X21345563Y91986937D01*
X21448756Y91913118D01*
X21545866Y91843790D01*
X21635672Y91779816D01*
X21716957Y91722060D01*
X21788503Y91671385D01*
X21849090Y91628655D01*
X21897500Y91594732D01*
X21932515Y91570481D01*
X21952916Y91556764D01*
X21957892Y91553908D01*
X21956537Y91564406D01*
X21951623Y91593672D01*
X21943427Y91640205D01*
X21932223Y91702508D01*
X21924336Y91745838D01*
X22246717Y91745838D01*
X22247604Y91735214D01*
X22251895Y91707237D01*
X22259090Y91664807D01*
X22268689Y91610823D01*
X22280195Y91548186D01*
X22286862Y91512645D01*
X22330294Y91282738D01*
X22397326Y91232745D01*
X22438338Y91203141D01*
X22464785Y91186510D01*
X22477684Y91182314D01*
X22478108Y91189873D01*
X22428372Y91311829D01*
X22385871Y91415857D01*
X22350111Y91503151D01*
X22320594Y91574904D01*
X22296823Y91632309D01*
X22278303Y91676560D01*
X22264536Y91708849D01*
X22255026Y91730370D01*
X22249276Y91742315D01*
X22246790Y91745879D01*
X22246717Y91745838D01*
X21924336Y91745838D01*
X21918285Y91779082D01*
X21901888Y91868427D01*
X21883307Y91969044D01*
X21862816Y92079435D01*
X21840691Y92198102D01*
X21817205Y92323544D01*
X21803160Y92398328D01*
X21778886Y92527792D01*
X21755741Y92651926D01*
X21734012Y92769165D01*
X21713982Y92877942D01*
X21695934Y92976691D01*
X21680154Y93063847D01*
X21666926Y93137844D01*
X21656533Y93197116D01*
X21649260Y93240097D01*
X21645391Y93265221D01*
X21644817Y93270799D01*
X21652820Y93306995D01*
X21674631Y93346165D01*
X21706005Y93381312D01*
X21717586Y93390726D01*
X21760568Y93410662D01*
X21809062Y93414535D01*
X21857548Y93403707D01*
G37*
G36*
X111157548Y93303707D02*
G01*
X111200505Y93279542D01*
X111232413Y93243403D01*
X111236035Y93236777D01*
X111242146Y93222878D01*
X111255559Y93191054D01*
X111275792Y93142481D01*
X111302362Y93078334D01*
X111334785Y92999789D01*
X111372579Y92908020D01*
X111415261Y92804202D01*
X111462346Y92689511D01*
X111513353Y92565122D01*
X111567798Y92432210D01*
X111625198Y92291950D01*
X111685070Y92145517D01*
X111746932Y91994086D01*
X111753240Y91978637D01*
X111815354Y91826553D01*
X111875571Y91679206D01*
X111933403Y91537783D01*
X111988362Y91403473D01*
X112039962Y91277464D01*
X112087715Y91160944D01*
X112131134Y91055100D01*
X112169731Y90961121D01*
X112203019Y90880195D01*
X112230510Y90813509D01*
X112251718Y90762252D01*
X112266154Y90727612D01*
X112273332Y90710777D01*
X112273602Y90710184D01*
X112292382Y90651059D01*
X112291690Y90595915D01*
X112281639Y90562898D01*
X112276155Y90546948D01*
X112265408Y90513147D01*
X112249986Y90463423D01*
X112230474Y90399705D01*
X112207459Y90323919D01*
X112181528Y90237995D01*
X112153266Y90143860D01*
X112123260Y90043441D01*
X112105308Y89983144D01*
X112074643Y89880139D01*
X112045478Y89782428D01*
X112018390Y89691919D01*
X111993953Y89610522D01*
X111972740Y89540144D01*
X111955328Y89482693D01*
X111942290Y89440079D01*
X111934202Y89414210D01*
X111931989Y89407587D01*
X111906877Y89367583D01*
X111868264Y89339393D01*
X111820324Y89324203D01*
X111767231Y89323197D01*
X111713160Y89337561D01*
X111702482Y89342438D01*
X111687465Y89349146D01*
X111654607Y89363321D01*
X111605083Y89384472D01*
X111540062Y89412105D01*
X111460719Y89445730D01*
X111368226Y89484853D01*
X111263753Y89528982D01*
X111148475Y89577624D01*
X111023563Y89630287D01*
X110890189Y89686479D01*
X110749526Y89745708D01*
X110602746Y89807480D01*
X110451021Y89871304D01*
X110295523Y89936687D01*
X110137426Y90003137D01*
X109977900Y90070161D01*
X109818119Y90137268D01*
X109659254Y90203963D01*
X109502478Y90269756D01*
X109348964Y90334154D01*
X109199883Y90396664D01*
X109056407Y90456794D01*
X108919709Y90514052D01*
X108790962Y90567945D01*
X108671337Y90617981D01*
X108562007Y90663667D01*
X108464144Y90704511D01*
X108412822Y90725895D01*
X109234522Y90725895D01*
X109234992Y90725334D01*
X109245465Y90720190D01*
X109273399Y90707787D01*
X109317309Y90688746D01*
X109375711Y90663690D01*
X109447120Y90633241D01*
X109530052Y90598021D01*
X109623023Y90558654D01*
X109724550Y90515760D01*
X109833147Y90469963D01*
X109947330Y90421885D01*
X110065616Y90372148D01*
X110186519Y90321374D01*
X110308556Y90270186D01*
X110430243Y90219207D01*
X110550096Y90169058D01*
X110666629Y90120361D01*
X110778359Y90073740D01*
X110883802Y90029816D01*
X110981474Y89989212D01*
X111069890Y89952551D01*
X111147566Y89920453D01*
X111213017Y89893543D01*
X111264761Y89872442D01*
X111301312Y89857772D01*
X111321185Y89850156D01*
X111324480Y89849207D01*
X111319469Y89858107D01*
X111303575Y89881996D01*
X111278007Y89919151D01*
X111243972Y89967850D01*
X111202677Y90026370D01*
X111155332Y90092991D01*
X111103142Y90165989D01*
X111067440Y90215701D01*
X111011957Y90292345D01*
X110959529Y90363857D01*
X110911502Y90428469D01*
X110869220Y90484415D01*
X110834025Y90529926D01*
X110816945Y90551185D01*
X111215414Y90551185D01*
X111220490Y90542586D01*
X111236019Y90519613D01*
X111260367Y90484605D01*
X111291898Y90439898D01*
X111328980Y90387831D01*
X111354634Y90352054D01*
X111394619Y90296801D01*
X111430550Y90247853D01*
X111460725Y90207475D01*
X111483437Y90177930D01*
X111496984Y90161484D01*
X111500053Y90158874D01*
X111499484Y90169732D01*
X111495543Y90197519D01*
X111488771Y90238913D01*
X111479707Y90290591D01*
X111470434Y90341034D01*
X111459222Y90399310D01*
X111448837Y90450462D01*
X111440019Y90491067D01*
X111437750Y90500344D01*
X111762490Y90500344D01*
X111762610Y90489083D01*
X111766132Y90461346D01*
X111772491Y90420899D01*
X111781125Y90371508D01*
X111784571Y90352852D01*
X111797441Y90284230D01*
X111807086Y90233330D01*
X111814058Y90197596D01*
X111818912Y90174475D01*
X111822201Y90161411D01*
X111824477Y90155851D01*
X111826295Y90155239D01*
X111827204Y90155991D01*
X111831456Y90166801D01*
X111840464Y90193907D01*
X111853118Y90233831D01*
X111868308Y90283095D01*
X111877666Y90313996D01*
X111893617Y90367678D01*
X111907208Y90414716D01*
X111917405Y90451426D01*
X111923174Y90474124D01*
X111924084Y90479306D01*
X111914838Y90484777D01*
X111890986Y90490640D01*
X111858514Y90496116D01*
X111823408Y90500426D01*
X111791654Y90502790D01*
X111769237Y90502429D01*
X111762490Y90500344D01*
X111437750Y90500344D01*
X111433505Y90517703D01*
X111430336Y90526800D01*
X111418683Y90530156D01*
X111391989Y90534604D01*
X111355613Y90539535D01*
X111314914Y90544342D01*
X111275254Y90548416D01*
X111241990Y90551149D01*
X111220483Y90551934D01*
X111215414Y90551185D01*
X110816945Y90551185D01*
X110807263Y90563235D01*
X110790277Y90582575D01*
X110785287Y90586758D01*
X110771717Y90589007D01*
X110739281Y90592818D01*
X110689666Y90598029D01*
X110624559Y90604483D01*
X110545648Y90612020D01*
X110454620Y90620480D01*
X110353162Y90629705D01*
X110242962Y90639535D01*
X110125707Y90649811D01*
X110026681Y90658355D01*
X109904643Y90668855D01*
X109788062Y90678971D01*
X109678652Y90688547D01*
X109578131Y90697430D01*
X109488214Y90705466D01*
X109410617Y90712500D01*
X109347057Y90718379D01*
X109299249Y90722948D01*
X109268911Y90726053D01*
X109258390Y90727376D01*
X109239340Y90729230D01*
X109234522Y90725895D01*
X108412822Y90725895D01*
X108378920Y90740021D01*
X108307508Y90769704D01*
X108251080Y90793068D01*
X108210808Y90809621D01*
X108187865Y90818869D01*
X108183608Y90820481D01*
X108138727Y90844908D01*
X108101309Y90881586D01*
X108076759Y90924602D01*
X108071612Y90942992D01*
X108068993Y90956352D01*
X108067027Y90968552D01*
X108066540Y90980463D01*
X108068361Y90992954D01*
X108073317Y91006893D01*
X108082237Y91023151D01*
X108095949Y91042597D01*
X108115279Y91066099D01*
X108141056Y91094528D01*
X108148396Y91102128D01*
X108603538Y91102128D01*
X108613310Y91099488D01*
X108640590Y91095578D01*
X108682323Y91090747D01*
X108735457Y91085342D01*
X108796936Y91079709D01*
X108812369Y91078381D01*
X108863887Y91073995D01*
X108913434Y91069753D01*
X108962799Y91065497D01*
X109013772Y91061068D01*
X109068142Y91056307D01*
X109127699Y91051056D01*
X109194231Y91045155D01*
X109269528Y91038445D01*
X109355379Y91030768D01*
X109453574Y91021964D01*
X109565902Y91011875D01*
X109694152Y91000341D01*
X109840114Y90987204D01*
X109933867Y90978763D01*
X110062335Y90967201D01*
X110171764Y90957389D01*
X110263654Y90949224D01*
X110339507Y90942603D01*
X110400826Y90937425D01*
X110449112Y90933586D01*
X110485866Y90930984D01*
X110512592Y90929516D01*
X110530790Y90929081D01*
X110541962Y90929575D01*
X110547610Y90930895D01*
X110549236Y90932941D01*
X110548341Y90935607D01*
X110547591Y90936863D01*
X110535685Y90954697D01*
X110513433Y90986602D01*
X110482022Y91030947D01*
X110442637Y91086101D01*
X110396465Y91150433D01*
X110344693Y91222310D01*
X110288506Y91300103D01*
X110229092Y91382179D01*
X110167636Y91466908D01*
X110105324Y91552657D01*
X110043344Y91637797D01*
X110025979Y91661606D01*
X110416283Y91661606D01*
X110424356Y91646919D01*
X110440772Y91622851D01*
X110454952Y91603145D01*
X110479632Y91568818D01*
X110513279Y91522005D01*
X110554360Y91464837D01*
X110601342Y91399448D01*
X110652694Y91327970D01*
X110706883Y91252536D01*
X110722373Y91230972D01*
X110966823Y90890655D01*
X111133557Y90873968D01*
X111193081Y90868156D01*
X111248148Y90863047D01*
X111294255Y90859038D01*
X111326899Y90856527D01*
X111337703Y90855921D01*
X111375116Y90854561D01*
X111360557Y90924171D01*
X111350637Y90962009D01*
X111338871Y90993175D01*
X111328301Y91010295D01*
X111316672Y91019334D01*
X111289876Y91039136D01*
X111249555Y91068516D01*
X111197353Y91106287D01*
X111134913Y91151266D01*
X111063879Y91202266D01*
X110985894Y91258102D01*
X110902603Y91317589D01*
X110872316Y91339184D01*
X110787679Y91399517D01*
X110707847Y91456447D01*
X110634448Y91508811D01*
X110569112Y91555444D01*
X110513469Y91595183D01*
X110469147Y91626865D01*
X110437777Y91649326D01*
X110420988Y91661404D01*
X110418825Y91662987D01*
X110416283Y91661606D01*
X110025979Y91661606D01*
X109982882Y91720695D01*
X109925123Y91799720D01*
X109871254Y91873241D01*
X109822462Y91939627D01*
X109779933Y91997247D01*
X109744852Y92044468D01*
X109718408Y92079660D01*
X109701785Y92101192D01*
X109696219Y92107545D01*
X109687332Y92100755D01*
X109664822Y92081289D01*
X109630158Y92050498D01*
X109584813Y92009737D01*
X109530255Y91960359D01*
X109467957Y91903716D01*
X109399388Y91841162D01*
X109326019Y91774051D01*
X109249321Y91703735D01*
X109170764Y91631567D01*
X109091820Y91558901D01*
X109013958Y91487090D01*
X108938650Y91417488D01*
X108867365Y91351446D01*
X108801576Y91290320D01*
X108742751Y91235461D01*
X108692363Y91188223D01*
X108651882Y91149959D01*
X108622777Y91122022D01*
X108606521Y91105766D01*
X108603538Y91102128D01*
X108148396Y91102128D01*
X108174108Y91128753D01*
X108215262Y91169642D01*
X108265347Y91218065D01*
X108325189Y91274892D01*
X108395617Y91340992D01*
X108477458Y91417234D01*
X108571541Y91504487D01*
X108678693Y91603621D01*
X108799742Y91715506D01*
X108862198Y91773229D01*
X108969687Y91872459D01*
X109073282Y91967852D01*
X109171935Y92058457D01*
X109264599Y92143322D01*
X109350226Y92221497D01*
X109427768Y92292029D01*
X109496179Y92353968D01*
X109554410Y92406362D01*
X109601415Y92448260D01*
X109636145Y92478710D01*
X109657553Y92496761D01*
X109664110Y92501538D01*
X109714594Y92513626D01*
X109765825Y92506088D01*
X109786903Y92496830D01*
X109800229Y92488180D01*
X109829011Y92468400D01*
X109871962Y92438403D01*
X109927794Y92399104D01*
X109995219Y92351416D01*
X110072950Y92296251D01*
X110159699Y92234524D01*
X110254178Y92167148D01*
X110355100Y92095037D01*
X110461176Y92019103D01*
X110537503Y91964383D01*
X110645563Y91886937D01*
X110748756Y91813118D01*
X110845866Y91743790D01*
X110935672Y91679816D01*
X111016957Y91622060D01*
X111088503Y91571385D01*
X111149090Y91528655D01*
X111197500Y91494732D01*
X111232515Y91470481D01*
X111252916Y91456764D01*
X111257892Y91453908D01*
X111256537Y91464406D01*
X111251623Y91493672D01*
X111243427Y91540205D01*
X111232223Y91602508D01*
X111224336Y91645838D01*
X111546717Y91645838D01*
X111547604Y91635214D01*
X111551895Y91607237D01*
X111559090Y91564807D01*
X111568689Y91510823D01*
X111580195Y91448186D01*
X111586862Y91412645D01*
X111630294Y91182738D01*
X111697326Y91132745D01*
X111738338Y91103141D01*
X111764785Y91086510D01*
X111777684Y91082314D01*
X111778108Y91089873D01*
X111728372Y91211829D01*
X111685871Y91315857D01*
X111650111Y91403151D01*
X111620594Y91474904D01*
X111596823Y91532309D01*
X111578303Y91576560D01*
X111564536Y91608849D01*
X111555026Y91630370D01*
X111549276Y91642315D01*
X111546790Y91645879D01*
X111546717Y91645838D01*
X111224336Y91645838D01*
X111218285Y91679082D01*
X111201888Y91768427D01*
X111183307Y91869044D01*
X111162816Y91979435D01*
X111140691Y92098102D01*
X111117205Y92223544D01*
X111103160Y92298328D01*
X111078886Y92427792D01*
X111055741Y92551926D01*
X111034012Y92669165D01*
X111013982Y92777942D01*
X110995934Y92876691D01*
X110980154Y92963847D01*
X110966926Y93037844D01*
X110956533Y93097116D01*
X110949260Y93140097D01*
X110945391Y93165221D01*
X110944817Y93170799D01*
X110952820Y93206995D01*
X110974631Y93246165D01*
X111006005Y93281312D01*
X111017586Y93290726D01*
X111060568Y93310662D01*
X111109062Y93314535D01*
X111157548Y93303707D01*
G37*
G36*
X81157548Y93303707D02*
G01*
X81200505Y93279542D01*
X81232413Y93243403D01*
X81236035Y93236777D01*
X81242146Y93222878D01*
X81255559Y93191054D01*
X81275792Y93142481D01*
X81302362Y93078334D01*
X81334785Y92999789D01*
X81372579Y92908020D01*
X81415261Y92804202D01*
X81462346Y92689511D01*
X81513353Y92565122D01*
X81567798Y92432210D01*
X81625198Y92291950D01*
X81685070Y92145517D01*
X81746932Y91994086D01*
X81753240Y91978637D01*
X81815354Y91826553D01*
X81875571Y91679206D01*
X81933403Y91537783D01*
X81988362Y91403473D01*
X82039962Y91277464D01*
X82087715Y91160944D01*
X82131134Y91055100D01*
X82169731Y90961121D01*
X82203019Y90880195D01*
X82230510Y90813509D01*
X82251718Y90762252D01*
X82266154Y90727612D01*
X82273332Y90710777D01*
X82273602Y90710184D01*
X82292382Y90651059D01*
X82291690Y90595915D01*
X82281639Y90562898D01*
X82276155Y90546948D01*
X82265408Y90513147D01*
X82249986Y90463423D01*
X82230474Y90399705D01*
X82207459Y90323919D01*
X82181528Y90237995D01*
X82153266Y90143860D01*
X82123260Y90043441D01*
X82105308Y89983144D01*
X82074643Y89880139D01*
X82045478Y89782428D01*
X82018390Y89691919D01*
X81993953Y89610522D01*
X81972740Y89540144D01*
X81955328Y89482693D01*
X81942290Y89440079D01*
X81934202Y89414210D01*
X81931989Y89407587D01*
X81906877Y89367583D01*
X81868264Y89339393D01*
X81820324Y89324203D01*
X81767231Y89323197D01*
X81713160Y89337561D01*
X81702482Y89342438D01*
X81687465Y89349146D01*
X81654607Y89363321D01*
X81605083Y89384472D01*
X81540062Y89412105D01*
X81460719Y89445730D01*
X81368226Y89484853D01*
X81263753Y89528982D01*
X81148475Y89577624D01*
X81023563Y89630287D01*
X80890189Y89686479D01*
X80749526Y89745708D01*
X80602746Y89807480D01*
X80451021Y89871304D01*
X80295523Y89936687D01*
X80137426Y90003137D01*
X79977900Y90070161D01*
X79818119Y90137268D01*
X79659254Y90203963D01*
X79502478Y90269756D01*
X79348964Y90334154D01*
X79199883Y90396664D01*
X79056407Y90456794D01*
X78919709Y90514052D01*
X78790962Y90567945D01*
X78671337Y90617981D01*
X78562007Y90663667D01*
X78464144Y90704511D01*
X78412822Y90725895D01*
X79234522Y90725895D01*
X79234992Y90725334D01*
X79245465Y90720190D01*
X79273399Y90707787D01*
X79317309Y90688746D01*
X79375711Y90663690D01*
X79447120Y90633241D01*
X79530052Y90598021D01*
X79623023Y90558654D01*
X79724550Y90515760D01*
X79833147Y90469963D01*
X79947330Y90421885D01*
X80065616Y90372148D01*
X80186519Y90321374D01*
X80308556Y90270186D01*
X80430243Y90219207D01*
X80550096Y90169058D01*
X80666629Y90120361D01*
X80778359Y90073740D01*
X80883802Y90029816D01*
X80981474Y89989212D01*
X81069890Y89952551D01*
X81147566Y89920453D01*
X81213017Y89893543D01*
X81264761Y89872442D01*
X81301312Y89857772D01*
X81321185Y89850156D01*
X81324480Y89849207D01*
X81319469Y89858107D01*
X81303575Y89881996D01*
X81278007Y89919151D01*
X81243972Y89967850D01*
X81202677Y90026370D01*
X81155332Y90092991D01*
X81103142Y90165989D01*
X81067440Y90215701D01*
X81011957Y90292345D01*
X80959529Y90363857D01*
X80911502Y90428469D01*
X80869220Y90484415D01*
X80834025Y90529926D01*
X80816945Y90551185D01*
X81215414Y90551185D01*
X81220490Y90542586D01*
X81236019Y90519613D01*
X81260367Y90484605D01*
X81291898Y90439898D01*
X81328980Y90387831D01*
X81354634Y90352054D01*
X81394619Y90296801D01*
X81430550Y90247853D01*
X81460725Y90207475D01*
X81483437Y90177930D01*
X81496984Y90161484D01*
X81500053Y90158874D01*
X81499484Y90169732D01*
X81495543Y90197519D01*
X81488771Y90238913D01*
X81479707Y90290591D01*
X81470434Y90341034D01*
X81459222Y90399310D01*
X81448837Y90450462D01*
X81440019Y90491067D01*
X81437750Y90500344D01*
X81762490Y90500344D01*
X81762610Y90489083D01*
X81766132Y90461346D01*
X81772491Y90420899D01*
X81781125Y90371508D01*
X81784571Y90352852D01*
X81797441Y90284230D01*
X81807086Y90233330D01*
X81814058Y90197596D01*
X81818912Y90174475D01*
X81822201Y90161411D01*
X81824477Y90155851D01*
X81826295Y90155239D01*
X81827204Y90155991D01*
X81831456Y90166801D01*
X81840464Y90193907D01*
X81853118Y90233831D01*
X81868308Y90283095D01*
X81877666Y90313996D01*
X81893617Y90367678D01*
X81907208Y90414716D01*
X81917405Y90451426D01*
X81923174Y90474124D01*
X81924084Y90479306D01*
X81914838Y90484777D01*
X81890986Y90490640D01*
X81858514Y90496116D01*
X81823408Y90500426D01*
X81791654Y90502790D01*
X81769237Y90502429D01*
X81762490Y90500344D01*
X81437750Y90500344D01*
X81433505Y90517703D01*
X81430336Y90526800D01*
X81418683Y90530156D01*
X81391989Y90534604D01*
X81355613Y90539535D01*
X81314914Y90544342D01*
X81275254Y90548416D01*
X81241990Y90551149D01*
X81220483Y90551934D01*
X81215414Y90551185D01*
X80816945Y90551185D01*
X80807263Y90563235D01*
X80790277Y90582575D01*
X80785287Y90586758D01*
X80771717Y90589007D01*
X80739281Y90592818D01*
X80689666Y90598029D01*
X80624559Y90604483D01*
X80545648Y90612020D01*
X80454620Y90620480D01*
X80353162Y90629705D01*
X80242962Y90639535D01*
X80125707Y90649811D01*
X80026681Y90658355D01*
X79904643Y90668855D01*
X79788062Y90678971D01*
X79678652Y90688547D01*
X79578131Y90697430D01*
X79488214Y90705466D01*
X79410617Y90712500D01*
X79347057Y90718379D01*
X79299249Y90722948D01*
X79268911Y90726053D01*
X79258390Y90727376D01*
X79239340Y90729230D01*
X79234522Y90725895D01*
X78412822Y90725895D01*
X78378920Y90740021D01*
X78307508Y90769704D01*
X78251080Y90793068D01*
X78210808Y90809621D01*
X78187865Y90818869D01*
X78183608Y90820481D01*
X78138727Y90844908D01*
X78101309Y90881586D01*
X78076759Y90924602D01*
X78071612Y90942992D01*
X78068993Y90956352D01*
X78067027Y90968552D01*
X78066540Y90980463D01*
X78068361Y90992954D01*
X78073317Y91006893D01*
X78082237Y91023151D01*
X78095949Y91042597D01*
X78115279Y91066099D01*
X78141056Y91094528D01*
X78148396Y91102128D01*
X78603538Y91102128D01*
X78613310Y91099488D01*
X78640590Y91095578D01*
X78682323Y91090747D01*
X78735457Y91085342D01*
X78796936Y91079709D01*
X78812369Y91078381D01*
X78863887Y91073995D01*
X78913434Y91069753D01*
X78962799Y91065497D01*
X79013772Y91061068D01*
X79068142Y91056307D01*
X79127699Y91051056D01*
X79194231Y91045155D01*
X79269528Y91038445D01*
X79355379Y91030768D01*
X79453574Y91021964D01*
X79565902Y91011875D01*
X79694152Y91000341D01*
X79840114Y90987204D01*
X79933867Y90978763D01*
X80062335Y90967201D01*
X80171764Y90957389D01*
X80263654Y90949224D01*
X80339507Y90942603D01*
X80400826Y90937425D01*
X80449112Y90933586D01*
X80485866Y90930984D01*
X80512592Y90929516D01*
X80530790Y90929081D01*
X80541962Y90929575D01*
X80547610Y90930895D01*
X80549236Y90932941D01*
X80548341Y90935607D01*
X80547591Y90936863D01*
X80535685Y90954697D01*
X80513433Y90986602D01*
X80482022Y91030947D01*
X80442637Y91086101D01*
X80396465Y91150433D01*
X80344693Y91222310D01*
X80288506Y91300103D01*
X80229092Y91382179D01*
X80167636Y91466908D01*
X80105324Y91552657D01*
X80043344Y91637797D01*
X80025979Y91661606D01*
X80416283Y91661606D01*
X80424356Y91646919D01*
X80440772Y91622851D01*
X80454952Y91603145D01*
X80479632Y91568818D01*
X80513279Y91522005D01*
X80554360Y91464837D01*
X80601342Y91399448D01*
X80652694Y91327970D01*
X80706883Y91252536D01*
X80722373Y91230972D01*
X80966823Y90890655D01*
X81133557Y90873968D01*
X81193081Y90868156D01*
X81248148Y90863047D01*
X81294255Y90859038D01*
X81326899Y90856527D01*
X81337703Y90855921D01*
X81375116Y90854561D01*
X81360557Y90924171D01*
X81350637Y90962009D01*
X81338871Y90993175D01*
X81328301Y91010295D01*
X81316672Y91019334D01*
X81289876Y91039136D01*
X81249555Y91068516D01*
X81197353Y91106287D01*
X81134913Y91151266D01*
X81063879Y91202266D01*
X80985894Y91258102D01*
X80902603Y91317589D01*
X80872316Y91339184D01*
X80787679Y91399517D01*
X80707847Y91456447D01*
X80634448Y91508811D01*
X80569112Y91555444D01*
X80513469Y91595183D01*
X80469147Y91626865D01*
X80437777Y91649326D01*
X80420988Y91661404D01*
X80418825Y91662987D01*
X80416283Y91661606D01*
X80025979Y91661606D01*
X79982882Y91720695D01*
X79925123Y91799720D01*
X79871254Y91873241D01*
X79822462Y91939627D01*
X79779933Y91997247D01*
X79744852Y92044468D01*
X79718408Y92079660D01*
X79701785Y92101192D01*
X79696219Y92107545D01*
X79687332Y92100755D01*
X79664822Y92081289D01*
X79630158Y92050498D01*
X79584813Y92009737D01*
X79530255Y91960359D01*
X79467957Y91903716D01*
X79399388Y91841162D01*
X79326019Y91774051D01*
X79249321Y91703735D01*
X79170764Y91631567D01*
X79091820Y91558901D01*
X79013958Y91487090D01*
X78938650Y91417488D01*
X78867365Y91351446D01*
X78801576Y91290320D01*
X78742751Y91235461D01*
X78692363Y91188223D01*
X78651882Y91149959D01*
X78622777Y91122022D01*
X78606521Y91105766D01*
X78603538Y91102128D01*
X78148396Y91102128D01*
X78174108Y91128753D01*
X78215262Y91169642D01*
X78265347Y91218065D01*
X78325189Y91274892D01*
X78395617Y91340992D01*
X78477458Y91417234D01*
X78571541Y91504487D01*
X78678693Y91603621D01*
X78799742Y91715506D01*
X78862198Y91773229D01*
X78969687Y91872459D01*
X79073282Y91967852D01*
X79171935Y92058457D01*
X79264599Y92143322D01*
X79350226Y92221497D01*
X79427768Y92292029D01*
X79496179Y92353968D01*
X79554410Y92406362D01*
X79601415Y92448260D01*
X79636145Y92478710D01*
X79657553Y92496761D01*
X79664110Y92501538D01*
X79714594Y92513626D01*
X79765825Y92506088D01*
X79786903Y92496830D01*
X79800229Y92488180D01*
X79829011Y92468400D01*
X79871962Y92438403D01*
X79927794Y92399104D01*
X79995219Y92351416D01*
X80072950Y92296251D01*
X80159699Y92234524D01*
X80254178Y92167148D01*
X80355100Y92095037D01*
X80461176Y92019103D01*
X80537503Y91964383D01*
X80645563Y91886937D01*
X80748756Y91813118D01*
X80845866Y91743790D01*
X80935672Y91679816D01*
X81016957Y91622060D01*
X81088503Y91571385D01*
X81149090Y91528655D01*
X81197500Y91494732D01*
X81232515Y91470481D01*
X81252916Y91456764D01*
X81257892Y91453908D01*
X81256537Y91464406D01*
X81251623Y91493672D01*
X81243427Y91540205D01*
X81232223Y91602508D01*
X81224336Y91645838D01*
X81546717Y91645838D01*
X81547604Y91635214D01*
X81551895Y91607237D01*
X81559090Y91564807D01*
X81568689Y91510823D01*
X81580195Y91448186D01*
X81586862Y91412645D01*
X81630294Y91182738D01*
X81697326Y91132745D01*
X81738338Y91103141D01*
X81764785Y91086510D01*
X81777684Y91082314D01*
X81778108Y91089873D01*
X81728372Y91211829D01*
X81685871Y91315857D01*
X81650111Y91403151D01*
X81620594Y91474904D01*
X81596823Y91532309D01*
X81578303Y91576560D01*
X81564536Y91608849D01*
X81555026Y91630370D01*
X81549276Y91642315D01*
X81546790Y91645879D01*
X81546717Y91645838D01*
X81224336Y91645838D01*
X81218285Y91679082D01*
X81201888Y91768427D01*
X81183307Y91869044D01*
X81162816Y91979435D01*
X81140691Y92098102D01*
X81117205Y92223544D01*
X81103160Y92298328D01*
X81078886Y92427792D01*
X81055741Y92551926D01*
X81034012Y92669165D01*
X81013982Y92777942D01*
X80995934Y92876691D01*
X80980154Y92963847D01*
X80966926Y93037844D01*
X80956533Y93097116D01*
X80949260Y93140097D01*
X80945391Y93165221D01*
X80944817Y93170799D01*
X80952820Y93206995D01*
X80974631Y93246165D01*
X81006005Y93281312D01*
X81017586Y93290726D01*
X81060568Y93310662D01*
X81109062Y93314535D01*
X81157548Y93303707D01*
G37*
G36*
X111057548Y33803707D02*
G01*
X111100505Y33779542D01*
X111132413Y33743403D01*
X111136035Y33736777D01*
X111142146Y33722878D01*
X111155559Y33691054D01*
X111175792Y33642481D01*
X111202362Y33578334D01*
X111234785Y33499789D01*
X111272579Y33408020D01*
X111315261Y33304202D01*
X111362346Y33189511D01*
X111413353Y33065122D01*
X111467798Y32932210D01*
X111525198Y32791950D01*
X111585070Y32645517D01*
X111646932Y32494086D01*
X111653240Y32478637D01*
X111715354Y32326553D01*
X111775571Y32179206D01*
X111833403Y32037783D01*
X111888362Y31903473D01*
X111939962Y31777464D01*
X111987715Y31660944D01*
X112031134Y31555100D01*
X112069731Y31461121D01*
X112103019Y31380195D01*
X112130510Y31313509D01*
X112151718Y31262252D01*
X112166154Y31227612D01*
X112173332Y31210777D01*
X112173602Y31210184D01*
X112192382Y31151059D01*
X112191690Y31095915D01*
X112181639Y31062898D01*
X112176155Y31046948D01*
X112165408Y31013147D01*
X112149986Y30963423D01*
X112130474Y30899705D01*
X112107459Y30823919D01*
X112081528Y30737995D01*
X112053266Y30643860D01*
X112023260Y30543441D01*
X112005308Y30483144D01*
X111974643Y30380139D01*
X111945478Y30282428D01*
X111918390Y30191919D01*
X111893953Y30110522D01*
X111872740Y30040144D01*
X111855328Y29982693D01*
X111842290Y29940079D01*
X111834202Y29914210D01*
X111831989Y29907587D01*
X111806877Y29867583D01*
X111768264Y29839393D01*
X111720324Y29824203D01*
X111667231Y29823197D01*
X111613160Y29837561D01*
X111602482Y29842438D01*
X111587465Y29849146D01*
X111554607Y29863321D01*
X111505083Y29884472D01*
X111440062Y29912105D01*
X111360719Y29945730D01*
X111268226Y29984853D01*
X111163753Y30028982D01*
X111048475Y30077624D01*
X110923563Y30130287D01*
X110790189Y30186479D01*
X110649526Y30245708D01*
X110502746Y30307480D01*
X110351021Y30371304D01*
X110195523Y30436687D01*
X110037426Y30503137D01*
X109877900Y30570161D01*
X109718119Y30637268D01*
X109559254Y30703963D01*
X109402478Y30769756D01*
X109248964Y30834154D01*
X109099883Y30896664D01*
X108956407Y30956794D01*
X108819709Y31014052D01*
X108690962Y31067945D01*
X108571337Y31117981D01*
X108462007Y31163667D01*
X108364144Y31204511D01*
X108312822Y31225895D01*
X109134522Y31225895D01*
X109134992Y31225334D01*
X109145465Y31220190D01*
X109173399Y31207787D01*
X109217309Y31188746D01*
X109275711Y31163690D01*
X109347120Y31133241D01*
X109430052Y31098021D01*
X109523023Y31058654D01*
X109624550Y31015760D01*
X109733147Y30969963D01*
X109847330Y30921885D01*
X109965616Y30872148D01*
X110086519Y30821374D01*
X110208556Y30770186D01*
X110330243Y30719207D01*
X110450096Y30669058D01*
X110566629Y30620361D01*
X110678359Y30573740D01*
X110783802Y30529816D01*
X110881474Y30489212D01*
X110969890Y30452551D01*
X111047566Y30420453D01*
X111113017Y30393543D01*
X111164761Y30372442D01*
X111201312Y30357772D01*
X111221185Y30350156D01*
X111224480Y30349207D01*
X111219469Y30358107D01*
X111203575Y30381996D01*
X111178007Y30419151D01*
X111143972Y30467850D01*
X111102677Y30526370D01*
X111055332Y30592991D01*
X111003142Y30665989D01*
X110967440Y30715701D01*
X110911957Y30792345D01*
X110859529Y30863857D01*
X110811502Y30928469D01*
X110769220Y30984415D01*
X110734025Y31029926D01*
X110716945Y31051185D01*
X111115414Y31051185D01*
X111120490Y31042586D01*
X111136019Y31019613D01*
X111160367Y30984605D01*
X111191898Y30939898D01*
X111228980Y30887831D01*
X111254634Y30852054D01*
X111294619Y30796801D01*
X111330550Y30747853D01*
X111360725Y30707475D01*
X111383437Y30677930D01*
X111396984Y30661484D01*
X111400053Y30658874D01*
X111399484Y30669732D01*
X111395543Y30697519D01*
X111388771Y30738913D01*
X111379707Y30790591D01*
X111370434Y30841034D01*
X111359222Y30899310D01*
X111348837Y30950462D01*
X111340019Y30991067D01*
X111337750Y31000344D01*
X111662490Y31000344D01*
X111662610Y30989083D01*
X111666132Y30961346D01*
X111672491Y30920899D01*
X111681125Y30871508D01*
X111684571Y30852852D01*
X111697441Y30784230D01*
X111707086Y30733330D01*
X111714058Y30697596D01*
X111718912Y30674475D01*
X111722201Y30661411D01*
X111724477Y30655851D01*
X111726295Y30655239D01*
X111727204Y30655991D01*
X111731456Y30666801D01*
X111740464Y30693907D01*
X111753118Y30733831D01*
X111768308Y30783095D01*
X111777666Y30813996D01*
X111793617Y30867678D01*
X111807208Y30914716D01*
X111817405Y30951426D01*
X111823174Y30974124D01*
X111824084Y30979306D01*
X111814838Y30984777D01*
X111790986Y30990640D01*
X111758514Y30996116D01*
X111723408Y31000426D01*
X111691654Y31002790D01*
X111669237Y31002429D01*
X111662490Y31000344D01*
X111337750Y31000344D01*
X111333505Y31017703D01*
X111330336Y31026800D01*
X111318683Y31030156D01*
X111291989Y31034604D01*
X111255613Y31039535D01*
X111214914Y31044342D01*
X111175254Y31048416D01*
X111141990Y31051149D01*
X111120483Y31051934D01*
X111115414Y31051185D01*
X110716945Y31051185D01*
X110707263Y31063235D01*
X110690277Y31082575D01*
X110685287Y31086758D01*
X110671717Y31089007D01*
X110639281Y31092818D01*
X110589666Y31098029D01*
X110524559Y31104483D01*
X110445648Y31112020D01*
X110354620Y31120480D01*
X110253162Y31129705D01*
X110142962Y31139535D01*
X110025707Y31149811D01*
X109926681Y31158355D01*
X109804643Y31168855D01*
X109688062Y31178971D01*
X109578652Y31188547D01*
X109478131Y31197430D01*
X109388214Y31205466D01*
X109310617Y31212500D01*
X109247057Y31218379D01*
X109199249Y31222948D01*
X109168911Y31226053D01*
X109158390Y31227376D01*
X109139340Y31229230D01*
X109134522Y31225895D01*
X108312822Y31225895D01*
X108278920Y31240021D01*
X108207508Y31269704D01*
X108151080Y31293068D01*
X108110808Y31309621D01*
X108087865Y31318869D01*
X108083608Y31320481D01*
X108038727Y31344908D01*
X108001309Y31381586D01*
X107976759Y31424602D01*
X107971612Y31442992D01*
X107968993Y31456352D01*
X107967027Y31468552D01*
X107966540Y31480463D01*
X107968361Y31492954D01*
X107973317Y31506893D01*
X107982237Y31523151D01*
X107995949Y31542597D01*
X108015279Y31566099D01*
X108041056Y31594528D01*
X108048396Y31602128D01*
X108503538Y31602128D01*
X108513310Y31599488D01*
X108540590Y31595578D01*
X108582323Y31590747D01*
X108635457Y31585342D01*
X108696936Y31579709D01*
X108712369Y31578381D01*
X108763887Y31573995D01*
X108813434Y31569753D01*
X108862799Y31565497D01*
X108913772Y31561068D01*
X108968142Y31556307D01*
X109027699Y31551056D01*
X109094231Y31545155D01*
X109169528Y31538445D01*
X109255379Y31530768D01*
X109353574Y31521964D01*
X109465902Y31511875D01*
X109594152Y31500341D01*
X109740114Y31487204D01*
X109833867Y31478763D01*
X109962335Y31467201D01*
X110071764Y31457389D01*
X110163654Y31449224D01*
X110239507Y31442603D01*
X110300826Y31437425D01*
X110349112Y31433586D01*
X110385866Y31430984D01*
X110412592Y31429516D01*
X110430790Y31429081D01*
X110441962Y31429575D01*
X110447610Y31430895D01*
X110449236Y31432941D01*
X110448341Y31435607D01*
X110447591Y31436863D01*
X110435685Y31454697D01*
X110413433Y31486602D01*
X110382022Y31530947D01*
X110342637Y31586101D01*
X110296465Y31650433D01*
X110244693Y31722310D01*
X110188506Y31800103D01*
X110129092Y31882179D01*
X110067636Y31966908D01*
X110005324Y32052657D01*
X109943344Y32137797D01*
X109925979Y32161606D01*
X110316283Y32161606D01*
X110324356Y32146919D01*
X110340772Y32122851D01*
X110354952Y32103145D01*
X110379632Y32068818D01*
X110413279Y32022005D01*
X110454360Y31964837D01*
X110501342Y31899448D01*
X110552694Y31827970D01*
X110606883Y31752536D01*
X110622373Y31730972D01*
X110866823Y31390655D01*
X111033557Y31373968D01*
X111093081Y31368156D01*
X111148148Y31363047D01*
X111194255Y31359038D01*
X111226899Y31356527D01*
X111237703Y31355921D01*
X111275116Y31354561D01*
X111260557Y31424171D01*
X111250637Y31462009D01*
X111238871Y31493175D01*
X111228301Y31510295D01*
X111216672Y31519334D01*
X111189876Y31539136D01*
X111149555Y31568516D01*
X111097353Y31606287D01*
X111034913Y31651266D01*
X110963879Y31702266D01*
X110885894Y31758102D01*
X110802603Y31817589D01*
X110772316Y31839184D01*
X110687679Y31899517D01*
X110607847Y31956447D01*
X110534448Y32008811D01*
X110469112Y32055444D01*
X110413469Y32095183D01*
X110369147Y32126865D01*
X110337777Y32149326D01*
X110320988Y32161404D01*
X110318825Y32162987D01*
X110316283Y32161606D01*
X109925979Y32161606D01*
X109882882Y32220695D01*
X109825123Y32299720D01*
X109771254Y32373241D01*
X109722462Y32439627D01*
X109679933Y32497247D01*
X109644852Y32544468D01*
X109618408Y32579660D01*
X109601785Y32601192D01*
X109596219Y32607545D01*
X109587332Y32600755D01*
X109564822Y32581289D01*
X109530158Y32550498D01*
X109484813Y32509737D01*
X109430255Y32460359D01*
X109367957Y32403716D01*
X109299388Y32341162D01*
X109226019Y32274051D01*
X109149321Y32203735D01*
X109070764Y32131567D01*
X108991820Y32058901D01*
X108913958Y31987090D01*
X108838650Y31917488D01*
X108767365Y31851446D01*
X108701576Y31790320D01*
X108642751Y31735461D01*
X108592363Y31688223D01*
X108551882Y31649959D01*
X108522777Y31622022D01*
X108506521Y31605766D01*
X108503538Y31602128D01*
X108048396Y31602128D01*
X108074108Y31628753D01*
X108115262Y31669642D01*
X108165347Y31718065D01*
X108225189Y31774892D01*
X108295617Y31840992D01*
X108377458Y31917234D01*
X108471541Y32004487D01*
X108578693Y32103621D01*
X108699742Y32215506D01*
X108762198Y32273229D01*
X108869687Y32372459D01*
X108973282Y32467852D01*
X109071935Y32558457D01*
X109164599Y32643322D01*
X109250226Y32721497D01*
X109327768Y32792029D01*
X109396179Y32853968D01*
X109454410Y32906362D01*
X109501415Y32948260D01*
X109536145Y32978710D01*
X109557553Y32996761D01*
X109564110Y33001538D01*
X109614594Y33013626D01*
X109665825Y33006088D01*
X109686903Y32996830D01*
X109700229Y32988180D01*
X109729011Y32968400D01*
X109771962Y32938403D01*
X109827794Y32899104D01*
X109895219Y32851416D01*
X109972950Y32796251D01*
X110059699Y32734524D01*
X110154178Y32667148D01*
X110255100Y32595037D01*
X110361176Y32519103D01*
X110437503Y32464383D01*
X110545563Y32386937D01*
X110648756Y32313118D01*
X110745866Y32243790D01*
X110835672Y32179816D01*
X110916957Y32122060D01*
X110988503Y32071385D01*
X111049090Y32028655D01*
X111097500Y31994732D01*
X111132515Y31970481D01*
X111152916Y31956764D01*
X111157892Y31953908D01*
X111156537Y31964406D01*
X111151623Y31993672D01*
X111143427Y32040205D01*
X111132223Y32102508D01*
X111124336Y32145838D01*
X111446717Y32145838D01*
X111447604Y32135214D01*
X111451895Y32107237D01*
X111459090Y32064807D01*
X111468689Y32010823D01*
X111480195Y31948186D01*
X111486862Y31912645D01*
X111530294Y31682738D01*
X111597326Y31632745D01*
X111638338Y31603141D01*
X111664785Y31586510D01*
X111677684Y31582314D01*
X111678108Y31589873D01*
X111628372Y31711829D01*
X111585871Y31815857D01*
X111550111Y31903151D01*
X111520594Y31974904D01*
X111496823Y32032309D01*
X111478303Y32076560D01*
X111464536Y32108849D01*
X111455026Y32130370D01*
X111449276Y32142315D01*
X111446790Y32145879D01*
X111446717Y32145838D01*
X111124336Y32145838D01*
X111118285Y32179082D01*
X111101888Y32268427D01*
X111083307Y32369044D01*
X111062816Y32479435D01*
X111040691Y32598102D01*
X111017205Y32723544D01*
X111003160Y32798328D01*
X110978886Y32927792D01*
X110955741Y33051926D01*
X110934012Y33169165D01*
X110913982Y33277942D01*
X110895934Y33376691D01*
X110880154Y33463847D01*
X110866926Y33537844D01*
X110856533Y33597116D01*
X110849260Y33640097D01*
X110845391Y33665221D01*
X110844817Y33670799D01*
X110852820Y33706995D01*
X110874631Y33746165D01*
X110906005Y33781312D01*
X110917586Y33790726D01*
X110960568Y33810662D01*
X111009062Y33814535D01*
X111057548Y33803707D01*
G37*
%TD*%
D11*
%TO.C,J3*%
X77896750Y85557258D03*
X77896750Y88267258D03*
X78296750Y85557258D03*
X78296750Y88267258D03*
X78696750Y85557258D03*
X78696750Y88267258D03*
X79096750Y85557258D03*
X79096750Y88267258D03*
X79496750Y85557258D03*
X79496750Y88267258D03*
X79896750Y85557258D03*
X79896750Y88267258D03*
X80296750Y85557258D03*
X80296750Y88267258D03*
X80696750Y85557258D03*
X80696750Y88267258D03*
X81096750Y85557258D03*
X81096750Y88267258D03*
X81496750Y85557258D03*
X81496750Y88267258D03*
X81896750Y85557258D03*
X81896750Y88267258D03*
X82296750Y85557258D03*
X82296750Y88267258D03*
X82696750Y85557258D03*
X82696750Y88267258D03*
X83096750Y85557258D03*
X83096750Y88267258D03*
X83496750Y85557258D03*
X83496750Y88267258D03*
X83896750Y85557258D03*
X83896750Y88267258D03*
X84296750Y85557258D03*
X84296750Y88267258D03*
X84696750Y85557258D03*
X84696750Y88267258D03*
X85096750Y85557258D03*
X85096750Y88267258D03*
X85496750Y85557258D03*
X85496750Y88267258D03*
X85896750Y85557258D03*
X85896750Y88267258D03*
X86296750Y85557258D03*
X86296750Y88267258D03*
X86696750Y85557258D03*
X86696750Y88267258D03*
X87096750Y85557258D03*
X87096750Y88267258D03*
X87496750Y85557258D03*
X87496750Y88267258D03*
X87896750Y85557258D03*
X87896750Y88267258D03*
X88296750Y85557258D03*
X88296750Y88267258D03*
X88696750Y85557258D03*
X88696750Y88267258D03*
X89096750Y85557258D03*
X89096750Y88267258D03*
X89496750Y85557258D03*
X89496750Y88267258D03*
X89896750Y85557258D03*
X89896750Y88267258D03*
X90296750Y85557258D03*
X90296750Y88267258D03*
X90696750Y85557258D03*
X90696750Y88267258D03*
X91096750Y85557258D03*
X91096750Y88267258D03*
X91496750Y85557258D03*
X91496750Y88267258D03*
D12*
X77421750Y85557258D03*
X77421750Y88267258D03*
X91971750Y85557258D03*
X91971750Y88267258D03*
%TD*%
D11*
%TO.C,J1*%
X18644110Y85557258D03*
X18644110Y88267258D03*
X19044110Y85557258D03*
X19044110Y88267258D03*
X19444110Y85557258D03*
X19444110Y88267258D03*
X19844110Y85557258D03*
X19844110Y88267258D03*
X20244110Y85557258D03*
X20244110Y88267258D03*
X20644110Y85557258D03*
X20644110Y88267258D03*
X21044110Y85557258D03*
X21044110Y88267258D03*
X21444110Y85557258D03*
X21444110Y88267258D03*
X21844110Y85557258D03*
X21844110Y88267258D03*
X22244110Y85557258D03*
X22244110Y88267258D03*
X22644110Y85557258D03*
X22644110Y88267258D03*
X23044110Y85557258D03*
X23044110Y88267258D03*
X23444110Y85557258D03*
X23444110Y88267258D03*
X23844110Y85557258D03*
X23844110Y88267258D03*
X24244110Y85557258D03*
X24244110Y88267258D03*
X24644110Y85557258D03*
X24644110Y88267258D03*
X25044110Y85557258D03*
X25044110Y88267258D03*
X25444110Y85557258D03*
X25444110Y88267258D03*
X25844110Y85557258D03*
X25844110Y88267258D03*
X26244110Y85557258D03*
X26244110Y88267258D03*
X26644110Y85557258D03*
X26644110Y88267258D03*
X27044110Y85557258D03*
X27044110Y88267258D03*
X27444110Y85557258D03*
X27444110Y88267258D03*
X27844110Y85557258D03*
X27844110Y88267258D03*
X28244110Y85557258D03*
X28244110Y88267258D03*
X28644110Y85557258D03*
X28644110Y88267258D03*
X29044110Y85557258D03*
X29044110Y88267258D03*
X29444110Y85557258D03*
X29444110Y88267258D03*
X29844110Y85557258D03*
X29844110Y88267258D03*
X30244110Y85557258D03*
X30244110Y88267258D03*
X30644110Y85557258D03*
X30644110Y88267258D03*
X31044110Y85557258D03*
X31044110Y88267258D03*
X31444110Y85557258D03*
X31444110Y88267258D03*
X31844110Y85557258D03*
X31844110Y88267258D03*
X32244110Y85557258D03*
X32244110Y88267258D03*
D12*
X18169110Y85557258D03*
X18169110Y88267258D03*
X32719110Y85557258D03*
X32719110Y88267258D03*
%TD*%
D11*
%TO.C,J2*%
X47896750Y85557258D03*
X47896750Y88267258D03*
X48296750Y85557258D03*
X48296750Y88267258D03*
X48696750Y85557258D03*
X48696750Y88267258D03*
X49096750Y85557258D03*
X49096750Y88267258D03*
X49496750Y85557258D03*
X49496750Y88267258D03*
X49896750Y85557258D03*
X49896750Y88267258D03*
X50296750Y85557258D03*
X50296750Y88267258D03*
X50696750Y85557258D03*
X50696750Y88267258D03*
X51096750Y85557258D03*
X51096750Y88267258D03*
X51496750Y85557258D03*
X51496750Y88267258D03*
X51896750Y85557258D03*
X51896750Y88267258D03*
X52296750Y85557258D03*
X52296750Y88267258D03*
X52696750Y85557258D03*
X52696750Y88267258D03*
X53096750Y85557258D03*
X53096750Y88267258D03*
X53496750Y85557258D03*
X53496750Y88267258D03*
X53896750Y85557258D03*
X53896750Y88267258D03*
X54296750Y85557258D03*
X54296750Y88267258D03*
X54696750Y85557258D03*
X54696750Y88267258D03*
X55096750Y85557258D03*
X55096750Y88267258D03*
X55496750Y85557258D03*
X55496750Y88267258D03*
X55896750Y85557258D03*
X55896750Y88267258D03*
X56296750Y85557258D03*
X56296750Y88267258D03*
X56696750Y85557258D03*
X56696750Y88267258D03*
X57096750Y85557258D03*
X57096750Y88267258D03*
X57496750Y85557258D03*
X57496750Y88267258D03*
X57896750Y85557258D03*
X57896750Y88267258D03*
X58296750Y85557258D03*
X58296750Y88267258D03*
X58696750Y85557258D03*
X58696750Y88267258D03*
X59096750Y85557258D03*
X59096750Y88267258D03*
X59496750Y85557258D03*
X59496750Y88267258D03*
X59896750Y85557258D03*
X59896750Y88267258D03*
X60296750Y85557258D03*
X60296750Y88267258D03*
X60696750Y85557258D03*
X60696750Y88267258D03*
X61096750Y85557258D03*
X61096750Y88267258D03*
X61496750Y85557258D03*
X61496750Y88267258D03*
D12*
X47421750Y85557258D03*
X47421750Y88267258D03*
X61971750Y85557258D03*
X61971750Y88267258D03*
%TD*%
D11*
%TO.C,J4*%
X107896750Y85557258D03*
X107896750Y88267258D03*
X108296750Y85557258D03*
X108296750Y88267258D03*
X108696750Y85557258D03*
X108696750Y88267258D03*
X109096750Y85557258D03*
X109096750Y88267258D03*
X109496750Y85557258D03*
X109496750Y88267258D03*
X109896750Y85557258D03*
X109896750Y88267258D03*
X110296750Y85557258D03*
X110296750Y88267258D03*
X110696750Y85557258D03*
X110696750Y88267258D03*
X111096750Y85557258D03*
X111096750Y88267258D03*
X111496750Y85557258D03*
X111496750Y88267258D03*
X111896750Y85557258D03*
X111896750Y88267258D03*
X112296750Y85557258D03*
X112296750Y88267258D03*
X112696750Y85557258D03*
X112696750Y88267258D03*
X113096750Y85557258D03*
X113096750Y88267258D03*
X113496750Y85557258D03*
X113496750Y88267258D03*
X113896750Y85557258D03*
X113896750Y88267258D03*
X114296750Y85557258D03*
X114296750Y88267258D03*
X114696750Y85557258D03*
X114696750Y88267258D03*
X115096750Y85557258D03*
X115096750Y88267258D03*
X115496750Y85557258D03*
X115496750Y88267258D03*
X115896750Y85557258D03*
X115896750Y88267258D03*
X116296750Y85557258D03*
X116296750Y88267258D03*
X116696750Y85557258D03*
X116696750Y88267258D03*
X117096750Y85557258D03*
X117096750Y88267258D03*
X117496750Y85557258D03*
X117496750Y88267258D03*
X117896750Y85557258D03*
X117896750Y88267258D03*
X118296750Y85557258D03*
X118296750Y88267258D03*
X118696750Y85557258D03*
X118696750Y88267258D03*
X119096750Y85557258D03*
X119096750Y88267258D03*
X119496750Y85557258D03*
X119496750Y88267258D03*
X119896750Y85557258D03*
X119896750Y88267258D03*
X120296750Y85557258D03*
X120296750Y88267258D03*
X120696750Y85557258D03*
X120696750Y88267258D03*
X121096750Y85557258D03*
X121096750Y88267258D03*
X121496750Y85557258D03*
X121496750Y88267258D03*
D12*
X107421750Y85557258D03*
X107421750Y88267258D03*
X121971750Y85557258D03*
X121971750Y88267258D03*
%TD*%
D11*
%TO.C,J9*%
X18681370Y26063629D03*
X18681370Y28773629D03*
X19081370Y26063629D03*
X19081370Y28773629D03*
X19481370Y26063629D03*
X19481370Y28773629D03*
X19881370Y26063629D03*
X19881370Y28773629D03*
X20281370Y26063629D03*
X20281370Y28773629D03*
X20681370Y26063629D03*
X20681370Y28773629D03*
X21081370Y26063629D03*
X21081370Y28773629D03*
X21481370Y26063629D03*
X21481370Y28773629D03*
X21881370Y26063629D03*
X21881370Y28773629D03*
X22281370Y26063629D03*
X22281370Y28773629D03*
X22681370Y26063629D03*
X22681370Y28773629D03*
X23081370Y26063629D03*
X23081370Y28773629D03*
X23481370Y26063629D03*
X23481370Y28773629D03*
X23881370Y26063629D03*
X23881370Y28773629D03*
X24281370Y26063629D03*
X24281370Y28773629D03*
X24681370Y26063629D03*
X24681370Y28773629D03*
X25081370Y26063629D03*
X25081370Y28773629D03*
X25481370Y26063629D03*
X25481370Y28773629D03*
X25881370Y26063629D03*
X25881370Y28773629D03*
X26281370Y26063629D03*
X26281370Y28773629D03*
X26681370Y26063629D03*
X26681370Y28773629D03*
X27081370Y26063629D03*
X27081370Y28773629D03*
X27481370Y26063629D03*
X27481370Y28773629D03*
X27881370Y26063629D03*
X27881370Y28773629D03*
X28281370Y26063629D03*
X28281370Y28773629D03*
X28681370Y26063629D03*
X28681370Y28773629D03*
X29081370Y26063629D03*
X29081370Y28773629D03*
X29481370Y26063629D03*
X29481370Y28773629D03*
X29881370Y26063629D03*
X29881370Y28773629D03*
X30281370Y26063629D03*
X30281370Y28773629D03*
X30681370Y26063629D03*
X30681370Y28773629D03*
X31081370Y26063629D03*
X31081370Y28773629D03*
X31481370Y26063629D03*
X31481370Y28773629D03*
X31881370Y26063629D03*
X31881370Y28773629D03*
X32281370Y26063629D03*
X32281370Y28773629D03*
D12*
X18206370Y26063629D03*
X18206370Y28773629D03*
X32756370Y26063629D03*
X32756370Y28773629D03*
%TD*%
D11*
%TO.C,J10*%
X47934010Y26063629D03*
X47934010Y28773629D03*
X48334010Y26063629D03*
X48334010Y28773629D03*
X48734010Y26063629D03*
X48734010Y28773629D03*
X49134010Y26063629D03*
X49134010Y28773629D03*
X49534010Y26063629D03*
X49534010Y28773629D03*
X49934010Y26063629D03*
X49934010Y28773629D03*
X50334010Y26063629D03*
X50334010Y28773629D03*
X50734010Y26063629D03*
X50734010Y28773629D03*
X51134010Y26063629D03*
X51134010Y28773629D03*
X51534010Y26063629D03*
X51534010Y28773629D03*
X51934010Y26063629D03*
X51934010Y28773629D03*
X52334010Y26063629D03*
X52334010Y28773629D03*
X52734010Y26063629D03*
X52734010Y28773629D03*
X53134010Y26063629D03*
X53134010Y28773629D03*
X53534010Y26063629D03*
X53534010Y28773629D03*
X53934010Y26063629D03*
X53934010Y28773629D03*
X54334010Y26063629D03*
X54334010Y28773629D03*
X54734010Y26063629D03*
X54734010Y28773629D03*
X55134010Y26063629D03*
X55134010Y28773629D03*
X55534010Y26063629D03*
X55534010Y28773629D03*
X55934010Y26063629D03*
X55934010Y28773629D03*
X56334010Y26063629D03*
X56334010Y28773629D03*
X56734010Y26063629D03*
X56734010Y28773629D03*
X57134010Y26063629D03*
X57134010Y28773629D03*
X57534010Y26063629D03*
X57534010Y28773629D03*
X57934010Y26063629D03*
X57934010Y28773629D03*
X58334010Y26063629D03*
X58334010Y28773629D03*
X58734010Y26063629D03*
X58734010Y28773629D03*
X59134010Y26063629D03*
X59134010Y28773629D03*
X59534010Y26063629D03*
X59534010Y28773629D03*
X59934010Y26063629D03*
X59934010Y28773629D03*
X60334010Y26063629D03*
X60334010Y28773629D03*
X60734010Y26063629D03*
X60734010Y28773629D03*
X61134010Y26063629D03*
X61134010Y28773629D03*
X61534010Y26063629D03*
X61534010Y28773629D03*
D12*
X47459010Y26063629D03*
X47459010Y28773629D03*
X62009010Y26063629D03*
X62009010Y28773629D03*
%TD*%
D11*
%TO.C,J7*%
X77915380Y55557258D03*
X77915380Y58267258D03*
X78315380Y55557258D03*
X78315380Y58267258D03*
X78715380Y55557258D03*
X78715380Y58267258D03*
X79115380Y55557258D03*
X79115380Y58267258D03*
X79515380Y55557258D03*
X79515380Y58267258D03*
X79915380Y55557258D03*
X79915380Y58267258D03*
X80315380Y55557258D03*
X80315380Y58267258D03*
X80715380Y55557258D03*
X80715380Y58267258D03*
X81115380Y55557258D03*
X81115380Y58267258D03*
X81515380Y55557258D03*
X81515380Y58267258D03*
X81915380Y55557258D03*
X81915380Y58267258D03*
X82315380Y55557258D03*
X82315380Y58267258D03*
X82715380Y55557258D03*
X82715380Y58267258D03*
X83115380Y55557258D03*
X83115380Y58267258D03*
X83515380Y55557258D03*
X83515380Y58267258D03*
X83915380Y55557258D03*
X83915380Y58267258D03*
X84315380Y55557258D03*
X84315380Y58267258D03*
X84715380Y55557258D03*
X84715380Y58267258D03*
X85115380Y55557258D03*
X85115380Y58267258D03*
X85515380Y55557258D03*
X85515380Y58267258D03*
X85915380Y55557258D03*
X85915380Y58267258D03*
X86315380Y55557258D03*
X86315380Y58267258D03*
X86715380Y55557258D03*
X86715380Y58267258D03*
X87115380Y55557258D03*
X87115380Y58267258D03*
X87515380Y55557258D03*
X87515380Y58267258D03*
X87915380Y55557258D03*
X87915380Y58267258D03*
X88315380Y55557258D03*
X88315380Y58267258D03*
X88715380Y55557258D03*
X88715380Y58267258D03*
X89115380Y55557258D03*
X89115380Y58267258D03*
X89515380Y55557258D03*
X89515380Y58267258D03*
X89915380Y55557258D03*
X89915380Y58267258D03*
X90315380Y55557258D03*
X90315380Y58267258D03*
X90715380Y55557258D03*
X90715380Y58267258D03*
X91115380Y55557258D03*
X91115380Y58267258D03*
X91515380Y55557258D03*
X91515380Y58267258D03*
D12*
X77440380Y55557258D03*
X77440380Y58267258D03*
X91990380Y55557258D03*
X91990380Y58267258D03*
%TD*%
D11*
%TO.C,J11*%
X77934010Y26063629D03*
X77934010Y28773629D03*
X78334010Y26063629D03*
X78334010Y28773629D03*
X78734010Y26063629D03*
X78734010Y28773629D03*
X79134010Y26063629D03*
X79134010Y28773629D03*
X79534010Y26063629D03*
X79534010Y28773629D03*
X79934010Y26063629D03*
X79934010Y28773629D03*
X80334010Y26063629D03*
X80334010Y28773629D03*
X80734010Y26063629D03*
X80734010Y28773629D03*
X81134010Y26063629D03*
X81134010Y28773629D03*
X81534010Y26063629D03*
X81534010Y28773629D03*
X81934010Y26063629D03*
X81934010Y28773629D03*
X82334010Y26063629D03*
X82334010Y28773629D03*
X82734010Y26063629D03*
X82734010Y28773629D03*
X83134010Y26063629D03*
X83134010Y28773629D03*
X83534010Y26063629D03*
X83534010Y28773629D03*
X83934010Y26063629D03*
X83934010Y28773629D03*
X84334010Y26063629D03*
X84334010Y28773629D03*
X84734010Y26063629D03*
X84734010Y28773629D03*
X85134010Y26063629D03*
X85134010Y28773629D03*
X85534010Y26063629D03*
X85534010Y28773629D03*
X85934010Y26063629D03*
X85934010Y28773629D03*
X86334010Y26063629D03*
X86334010Y28773629D03*
X86734010Y26063629D03*
X86734010Y28773629D03*
X87134010Y26063629D03*
X87134010Y28773629D03*
X87534010Y26063629D03*
X87534010Y28773629D03*
X87934010Y26063629D03*
X87934010Y28773629D03*
X88334010Y26063629D03*
X88334010Y28773629D03*
X88734010Y26063629D03*
X88734010Y28773629D03*
X89134010Y26063629D03*
X89134010Y28773629D03*
X89534010Y26063629D03*
X89534010Y28773629D03*
X89934010Y26063629D03*
X89934010Y28773629D03*
X90334010Y26063629D03*
X90334010Y28773629D03*
X90734010Y26063629D03*
X90734010Y28773629D03*
X91134010Y26063629D03*
X91134010Y28773629D03*
X91534010Y26063629D03*
X91534010Y28773629D03*
D12*
X77459010Y26063629D03*
X77459010Y28773629D03*
X92009010Y26063629D03*
X92009010Y28773629D03*
%TD*%
D11*
%TO.C,J12*%
X107934010Y26063629D03*
X107934010Y28773629D03*
X108334010Y26063629D03*
X108334010Y28773629D03*
X108734010Y26063629D03*
X108734010Y28773629D03*
X109134010Y26063629D03*
X109134010Y28773629D03*
X109534010Y26063629D03*
X109534010Y28773629D03*
X109934010Y26063629D03*
X109934010Y28773629D03*
X110334010Y26063629D03*
X110334010Y28773629D03*
X110734010Y26063629D03*
X110734010Y28773629D03*
X111134010Y26063629D03*
X111134010Y28773629D03*
X111534010Y26063629D03*
X111534010Y28773629D03*
X111934010Y26063629D03*
X111934010Y28773629D03*
X112334010Y26063629D03*
X112334010Y28773629D03*
X112734010Y26063629D03*
X112734010Y28773629D03*
X113134010Y26063629D03*
X113134010Y28773629D03*
X113534010Y26063629D03*
X113534010Y28773629D03*
X113934010Y26063629D03*
X113934010Y28773629D03*
X114334010Y26063629D03*
X114334010Y28773629D03*
X114734010Y26063629D03*
X114734010Y28773629D03*
X115134010Y26063629D03*
X115134010Y28773629D03*
X115534010Y26063629D03*
X115534010Y28773629D03*
X115934010Y26063629D03*
X115934010Y28773629D03*
X116334010Y26063629D03*
X116334010Y28773629D03*
X116734010Y26063629D03*
X116734010Y28773629D03*
X117134010Y26063629D03*
X117134010Y28773629D03*
X117534010Y26063629D03*
X117534010Y28773629D03*
X117934010Y26063629D03*
X117934010Y28773629D03*
X118334010Y26063629D03*
X118334010Y28773629D03*
X118734010Y26063629D03*
X118734010Y28773629D03*
X119134010Y26063629D03*
X119134010Y28773629D03*
X119534010Y26063629D03*
X119534010Y28773629D03*
X119934010Y26063629D03*
X119934010Y28773629D03*
X120334010Y26063629D03*
X120334010Y28773629D03*
X120734010Y26063629D03*
X120734010Y28773629D03*
X121134010Y26063629D03*
X121134010Y28773629D03*
X121534010Y26063629D03*
X121534010Y28773629D03*
D12*
X107459010Y26063629D03*
X107459010Y28773629D03*
X122009010Y26063629D03*
X122009010Y28773629D03*
%TD*%
D11*
%TO.C,J8*%
X107915380Y55557258D03*
X107915380Y58267258D03*
X108315380Y55557258D03*
X108315380Y58267258D03*
X108715380Y55557258D03*
X108715380Y58267258D03*
X109115380Y55557258D03*
X109115380Y58267258D03*
X109515380Y55557258D03*
X109515380Y58267258D03*
X109915380Y55557258D03*
X109915380Y58267258D03*
X110315380Y55557258D03*
X110315380Y58267258D03*
X110715380Y55557258D03*
X110715380Y58267258D03*
X111115380Y55557258D03*
X111115380Y58267258D03*
X111515380Y55557258D03*
X111515380Y58267258D03*
X111915380Y55557258D03*
X111915380Y58267258D03*
X112315380Y55557258D03*
X112315380Y58267258D03*
X112715380Y55557258D03*
X112715380Y58267258D03*
X113115380Y55557258D03*
X113115380Y58267258D03*
X113515380Y55557258D03*
X113515380Y58267258D03*
X113915380Y55557258D03*
X113915380Y58267258D03*
X114315380Y55557258D03*
X114315380Y58267258D03*
X114715380Y55557258D03*
X114715380Y58267258D03*
X115115380Y55557258D03*
X115115380Y58267258D03*
X115515380Y55557258D03*
X115515380Y58267258D03*
X115915380Y55557258D03*
X115915380Y58267258D03*
X116315380Y55557258D03*
X116315380Y58267258D03*
X116715380Y55557258D03*
X116715380Y58267258D03*
X117115380Y55557258D03*
X117115380Y58267258D03*
X117515380Y55557258D03*
X117515380Y58267258D03*
X117915380Y55557258D03*
X117915380Y58267258D03*
X118315380Y55557258D03*
X118315380Y58267258D03*
X118715380Y55557258D03*
X118715380Y58267258D03*
X119115380Y55557258D03*
X119115380Y58267258D03*
X119515380Y55557258D03*
X119515380Y58267258D03*
X119915380Y55557258D03*
X119915380Y58267258D03*
X120315380Y55557258D03*
X120315380Y58267258D03*
X120715380Y55557258D03*
X120715380Y58267258D03*
X121115380Y55557258D03*
X121115380Y58267258D03*
X121515380Y55557258D03*
X121515380Y58267258D03*
D12*
X107440380Y55557258D03*
X107440380Y58267258D03*
X121990380Y55557258D03*
X121990380Y58267258D03*
%TD*%
D11*
%TO.C,J5*%
X18662740Y55557258D03*
X18662740Y58267258D03*
X19062740Y55557258D03*
X19062740Y58267258D03*
X19462740Y55557258D03*
X19462740Y58267258D03*
X19862740Y55557258D03*
X19862740Y58267258D03*
X20262740Y55557258D03*
X20262740Y58267258D03*
X20662740Y55557258D03*
X20662740Y58267258D03*
X21062740Y55557258D03*
X21062740Y58267258D03*
X21462740Y55557258D03*
X21462740Y58267258D03*
X21862740Y55557258D03*
X21862740Y58267258D03*
X22262740Y55557258D03*
X22262740Y58267258D03*
X22662740Y55557258D03*
X22662740Y58267258D03*
X23062740Y55557258D03*
X23062740Y58267258D03*
X23462740Y55557258D03*
X23462740Y58267258D03*
X23862740Y55557258D03*
X23862740Y58267258D03*
X24262740Y55557258D03*
X24262740Y58267258D03*
X24662740Y55557258D03*
X24662740Y58267258D03*
X25062740Y55557258D03*
X25062740Y58267258D03*
X25462740Y55557258D03*
X25462740Y58267258D03*
X25862740Y55557258D03*
X25862740Y58267258D03*
X26262740Y55557258D03*
X26262740Y58267258D03*
X26662740Y55557258D03*
X26662740Y58267258D03*
X27062740Y55557258D03*
X27062740Y58267258D03*
X27462740Y55557258D03*
X27462740Y58267258D03*
X27862740Y55557258D03*
X27862740Y58267258D03*
X28262740Y55557258D03*
X28262740Y58267258D03*
X28662740Y55557258D03*
X28662740Y58267258D03*
X29062740Y55557258D03*
X29062740Y58267258D03*
X29462740Y55557258D03*
X29462740Y58267258D03*
X29862740Y55557258D03*
X29862740Y58267258D03*
X30262740Y55557258D03*
X30262740Y58267258D03*
X30662740Y55557258D03*
X30662740Y58267258D03*
X31062740Y55557258D03*
X31062740Y58267258D03*
X31462740Y55557258D03*
X31462740Y58267258D03*
X31862740Y55557258D03*
X31862740Y58267258D03*
X32262740Y55557258D03*
X32262740Y58267258D03*
D12*
X18187740Y55557258D03*
X18187740Y58267258D03*
X32737740Y55557258D03*
X32737740Y58267258D03*
%TD*%
D11*
%TO.C,J6*%
X47915380Y55557258D03*
X47915380Y58267258D03*
X48315380Y55557258D03*
X48315380Y58267258D03*
X48715380Y55557258D03*
X48715380Y58267258D03*
X49115380Y55557258D03*
X49115380Y58267258D03*
X49515380Y55557258D03*
X49515380Y58267258D03*
X49915380Y55557258D03*
X49915380Y58267258D03*
X50315380Y55557258D03*
X50315380Y58267258D03*
X50715380Y55557258D03*
X50715380Y58267258D03*
X51115380Y55557258D03*
X51115380Y58267258D03*
X51515380Y55557258D03*
X51515380Y58267258D03*
X51915380Y55557258D03*
X51915380Y58267258D03*
X52315380Y55557258D03*
X52315380Y58267258D03*
X52715380Y55557258D03*
X52715380Y58267258D03*
X53115380Y55557258D03*
X53115380Y58267258D03*
X53515380Y55557258D03*
X53515380Y58267258D03*
X53915380Y55557258D03*
X53915380Y58267258D03*
X54315380Y55557258D03*
X54315380Y58267258D03*
X54715380Y55557258D03*
X54715380Y58267258D03*
X55115380Y55557258D03*
X55115380Y58267258D03*
X55515380Y55557258D03*
X55515380Y58267258D03*
X55915380Y55557258D03*
X55915380Y58267258D03*
X56315380Y55557258D03*
X56315380Y58267258D03*
X56715380Y55557258D03*
X56715380Y58267258D03*
X57115380Y55557258D03*
X57115380Y58267258D03*
X57515380Y55557258D03*
X57515380Y58267258D03*
X57915380Y55557258D03*
X57915380Y58267258D03*
X58315380Y55557258D03*
X58315380Y58267258D03*
X58715380Y55557258D03*
X58715380Y58267258D03*
X59115380Y55557258D03*
X59115380Y58267258D03*
X59515380Y55557258D03*
X59515380Y58267258D03*
X59915380Y55557258D03*
X59915380Y58267258D03*
X60315380Y55557258D03*
X60315380Y58267258D03*
X60715380Y55557258D03*
X60715380Y58267258D03*
X61115380Y55557258D03*
X61115380Y58267258D03*
X61515380Y55557258D03*
X61515380Y58267258D03*
D12*
X47440380Y55557258D03*
X47440380Y58267258D03*
X61990380Y55557258D03*
X61990380Y58267258D03*
%TD*%
M02*
