%TF.GenerationSoftware,KiCad,Pcbnew,(6.0.0)*%
%TF.CreationDate,2022-09-21T12:03:09-04:00*%
%TF.ProjectId,eib-64-cap,6569622d-3634-42d6-9361-702e6b696361,A*%
%TF.SameCoordinates,Original*%
%TF.FileFunction,Profile,NP*%
%FSLAX46Y46*%
G04 Gerber Fmt 4.6, Leading zero omitted, Abs format (unit mm)*
G04 Created by KiCad (PCBNEW (6.0.0)) date 2022-09-21 12:03:09*
%MOMM*%
%LPD*%
G01*
G04 APERTURE LIST*
%TA.AperFunction,Profile*%
%ADD10C,0.050000*%
%TD*%
%TA.AperFunction,Profile*%
%ADD11C,0.100000*%
%TD*%
G04 APERTURE END LIST*
D10*
X181815379Y-92687743D02*
G75*
G03*
X179715379Y-93987742I-1047912J-653372D01*
G01*
X131315381Y-104987741D02*
G75*
G03*
X133315380Y-103587743I958196J759718D01*
G01*
X90121370Y-122381371D02*
G75*
G03*
X90121370Y-122381371I-200000J0D01*
G01*
X149336750Y-62887742D02*
G75*
G03*
X149336750Y-62887742I-200000J0D01*
G01*
X118015380Y-61506371D02*
G75*
G03*
X118015380Y-61506371I-200000J0D01*
G01*
X134996750Y-75937742D02*
G75*
G03*
X134996750Y-75937742I-200000J0D01*
G01*
X165434010Y-138581371D02*
G75*
G03*
X181834010Y-122181371I6101805J10298195D01*
G01*
X101296751Y-74987741D02*
G75*
G03*
X103296750Y-73587743I958196J759718D01*
G01*
X89262740Y-61906371D02*
G75*
G03*
X89262740Y-61906371I-200000J0D01*
G01*
X76162740Y-109087742D02*
G75*
G03*
X92562740Y-92687742I6101805J10298195D01*
G01*
X75744110Y-75937742D02*
G75*
G03*
X75744110Y-75937742I-200000J0D01*
G01*
X77462740Y-106987742D02*
G75*
G03*
X76162740Y-109087742I-671362J-1036776D01*
G01*
X146296751Y-60587742D02*
G75*
G03*
X133296750Y-73587743I-4800001J-8200000D01*
G01*
X88232740Y-91097742D02*
G75*
G03*
X88232740Y-91097742I-200000J0D01*
G01*
X179336750Y-62887742D02*
G75*
G03*
X179336750Y-62887742I-200000J0D01*
G01*
X87044110Y-60587743D02*
G75*
G03*
X88344110Y-58487742I671342J1036789D01*
G01*
X166734011Y-136481369D02*
G75*
G03*
X179734008Y-123481371I4799999J8199998D01*
G01*
X77444110Y-76987742D02*
G75*
G03*
X76144110Y-79087742I-671362J-1036776D01*
G01*
X76144110Y-79087742D02*
G75*
G03*
X92544110Y-62687742I6101805J10298195D01*
G01*
X77481371Y-136481369D02*
G75*
G03*
X90481368Y-123481371I4799999J8199998D01*
G01*
X134034010Y-134331371D02*
G75*
G03*
X134034010Y-134331371I-200000J0D01*
G01*
X177615380Y-88487742D02*
G75*
G03*
X161315380Y-104987742I-6091861J-10283192D01*
G01*
X101334010Y-134481371D02*
G75*
G03*
X103334010Y-133081372I958196J759719D01*
G01*
X105596750Y-76437742D02*
G75*
G03*
X105596750Y-76437742I-200000J0D01*
G01*
X166715380Y-106987742D02*
G75*
G03*
X165415380Y-109087742I-671362J-1036776D01*
G01*
X104996750Y-75937742D02*
G75*
G03*
X104996750Y-75937742I-200000J0D01*
G01*
X117634010Y-117981371D02*
G75*
G03*
X101334010Y-134481371I-6091861J-10283192D01*
G01*
X101315381Y-104987741D02*
G75*
G03*
X103315380Y-103587743I958196J759718D01*
G01*
X176315381Y-90587742D02*
G75*
G03*
X163315380Y-103587743I-4800001J-8200000D01*
G01*
X178915380Y-62406371D02*
G75*
G03*
X178915380Y-62406371I-200000J0D01*
G01*
X177634010Y-117981371D02*
G75*
G03*
X161334010Y-134481371I-6091861J-10283192D01*
G01*
X116296751Y-60587742D02*
G75*
G03*
X103296750Y-73587743I-4800001J-8200000D01*
G01*
X119336750Y-62887742D02*
G75*
G03*
X119336750Y-62887742I-200000J0D01*
G01*
X177504010Y-120591371D02*
G75*
G03*
X177504010Y-120591371I-200000J0D01*
G01*
X72062740Y-104987742D02*
G75*
G03*
X74062740Y-103587743I958196J759719D01*
G01*
X166696750Y-76987742D02*
G75*
G03*
X165396750Y-79087742I-671362J-1036776D01*
G01*
X161315381Y-104987741D02*
G75*
G03*
X163315380Y-103587743I958196J759718D01*
G01*
X75762740Y-105937742D02*
G75*
G03*
X75762740Y-105937742I-200000J0D01*
G01*
X106715381Y-106987740D02*
G75*
G03*
X119715378Y-93987742I4799999J8199998D01*
G01*
X116334010Y-120081372D02*
G75*
G03*
X117634010Y-117981371I671342J1036789D01*
G01*
X134484010Y-134881371D02*
G75*
G03*
X134484010Y-134881371I-200000J0D01*
G01*
X135434010Y-138581371D02*
G75*
G03*
X151834010Y-122181371I6101805J10298195D01*
G01*
X136734011Y-136481369D02*
G75*
G03*
X149734008Y-123481371I4799999J8199998D01*
G01*
X88381370Y-117981371D02*
G75*
G03*
X72081370Y-134481371I-6091861J-10283192D01*
G01*
X165034010Y-135431371D02*
G75*
G03*
X165034010Y-135431371I-200000J0D01*
G01*
X104484010Y-134881371D02*
G75*
G03*
X104484010Y-134881371I-200000J0D01*
G01*
X176296751Y-60587742D02*
G75*
G03*
X163296750Y-73587743I-4800001J-8200000D01*
G01*
X146296750Y-60587743D02*
G75*
G03*
X147596750Y-58487742I671342J1036789D01*
G01*
X135015380Y-105937742D02*
G75*
G03*
X135015380Y-105937742I-200000J0D01*
G01*
X118534010Y-91906371D02*
G75*
G03*
X118534010Y-91906371I-200000J0D01*
G01*
X106734010Y-136481371D02*
G75*
G03*
X105434010Y-138581371I-671362J-1036776D01*
G01*
X135034010Y-135431371D02*
G75*
G03*
X135034010Y-135431371I-200000J0D01*
G01*
X149374010Y-122381371D02*
G75*
G03*
X149374010Y-122381371I-200000J0D01*
G01*
X89300000Y-121400000D02*
G75*
G03*
X89300000Y-121400000I-200000J0D01*
G01*
X118952640Y-121900000D02*
G75*
G03*
X118952640Y-121900000I-200000J0D01*
G01*
X92544109Y-62687743D02*
G75*
G03*
X90444109Y-63987742I-1047912J-653372D01*
G01*
X89700000Y-121900000D02*
G75*
G03*
X89700000Y-121900000I-200000J0D01*
G01*
X89681370Y-92406371D02*
G75*
G03*
X89681370Y-92406371I-200000J0D01*
G01*
X148015380Y-61506371D02*
G75*
G03*
X148015380Y-61506371I-200000J0D01*
G01*
X88800000Y-121000000D02*
G75*
G03*
X88800000Y-121000000I-200000J0D01*
G01*
X118915380Y-62406371D02*
G75*
G03*
X118915380Y-62406371I-200000J0D01*
G01*
X75231370Y-134881371D02*
G75*
G03*
X75231370Y-134881371I-200000J0D01*
G01*
X77481370Y-136481371D02*
G75*
G03*
X76181370Y-138581371I-671362J-1036776D01*
G01*
X87062740Y-90587743D02*
G75*
G03*
X88362740Y-88487742I671342J1036789D01*
G01*
X179355380Y-92887742D02*
G75*
G03*
X179355380Y-92887742I-200000J0D01*
G01*
X89662740Y-62406371D02*
G75*
G03*
X89662740Y-62406371I-200000J0D01*
G01*
X179374010Y-122381371D02*
G75*
G03*
X179374010Y-122381371I-200000J0D01*
G01*
X105615380Y-106437742D02*
G75*
G03*
X105615380Y-106437742I-200000J0D01*
G01*
X104015380Y-104837742D02*
G75*
G03*
X104015380Y-104837742I-200000J0D01*
G01*
X121834009Y-122181372D02*
G75*
G03*
X119734009Y-123481371I-1047912J-653372D01*
G01*
X164015380Y-104837742D02*
G75*
G03*
X164015380Y-104837742I-200000J0D01*
G01*
X178934010Y-92406371D02*
G75*
G03*
X178934010Y-92406371I-200000J0D01*
G01*
X117485380Y-91097742D02*
G75*
G03*
X117485380Y-91097742I-200000J0D01*
G01*
X116334011Y-120081371D02*
G75*
G03*
X103334010Y-133081372I-4800001J-8200000D01*
G01*
X87044111Y-60587742D02*
G75*
G03*
X74044110Y-73587743I-4800001J-8200000D01*
G01*
D11*
X56800000Y-154700000D02*
X197200000Y-154700000D01*
X197200000Y-154700000D02*
X197200000Y-43500000D01*
X197200000Y-43500000D02*
X56800000Y-43500000D01*
X56800000Y-43500000D02*
X56800000Y-154700000D01*
D10*
X164034010Y-134331371D02*
G75*
G03*
X164034010Y-134331371I-200000J0D01*
G01*
X177485380Y-91097742D02*
G75*
G03*
X177485380Y-91097742I-200000J0D01*
G01*
X75781370Y-135431371D02*
G75*
G03*
X75781370Y-135431371I-200000J0D01*
G01*
X106734011Y-136481369D02*
G75*
G03*
X119734008Y-123481371I4799999J8199998D01*
G01*
X116315381Y-90587742D02*
G75*
G03*
X103315380Y-103587743I-4800001J-8200000D01*
G01*
X74762740Y-104837742D02*
G75*
G03*
X74762740Y-104837742I-200000J0D01*
G01*
X76381370Y-135931371D02*
G75*
G03*
X76381370Y-135931371I-200000J0D01*
G01*
X178034010Y-91506371D02*
G75*
G03*
X178034010Y-91506371I-200000J0D01*
G01*
X135596750Y-76437742D02*
G75*
G03*
X135596750Y-76437742I-200000J0D01*
G01*
X117615380Y-88487742D02*
G75*
G03*
X101315380Y-104987742I-6091861J-10283192D01*
G01*
X76181370Y-138581371D02*
G75*
G03*
X92581370Y-122181371I6101805J10298195D01*
G01*
X74744110Y-74837742D02*
G75*
G03*
X74744110Y-74837742I-200000J0D01*
G01*
X90102740Y-92887742D02*
G75*
G03*
X90102740Y-92887742I-200000J0D01*
G01*
X72081371Y-134481370D02*
G75*
G03*
X74081370Y-133081372I958196J759718D01*
G01*
X151796749Y-62687743D02*
G75*
G03*
X149696749Y-63987742I-1047912J-653372D01*
G01*
X106696751Y-76987740D02*
G75*
G03*
X119696748Y-63987742I4799999J8199998D01*
G01*
X118052640Y-121000000D02*
G75*
G03*
X118052640Y-121000000I-200000J0D01*
G01*
X76344110Y-76437742D02*
G75*
G03*
X76344110Y-76437742I-200000J0D01*
G01*
X116315380Y-90587743D02*
G75*
G03*
X117615380Y-88487742I671342J1036789D01*
G01*
X148052640Y-121000000D02*
G75*
G03*
X148052640Y-121000000I-200000J0D01*
G01*
X178015380Y-61506371D02*
G75*
G03*
X178015380Y-61506371I-200000J0D01*
G01*
X135634010Y-135931371D02*
G75*
G03*
X135634010Y-135931371I-200000J0D01*
G01*
X119355380Y-92887742D02*
G75*
G03*
X119355380Y-92887742I-200000J0D01*
G01*
X166715381Y-106987740D02*
G75*
G03*
X179715378Y-93987742I4799999J8199998D01*
G01*
X75212740Y-105387742D02*
G75*
G03*
X75212740Y-105387742I-200000J0D01*
G01*
X135615380Y-106437742D02*
G75*
G03*
X135615380Y-106437742I-200000J0D01*
G01*
X178052640Y-121000000D02*
G75*
G03*
X178052640Y-121000000I-200000J0D01*
G01*
X131296751Y-74987741D02*
G75*
G03*
X133296750Y-73587743I958196J759718D01*
G01*
X117466750Y-61097742D02*
G75*
G03*
X117466750Y-61097742I-200000J0D01*
G01*
X147466750Y-61097742D02*
G75*
G03*
X147466750Y-61097742I-200000J0D01*
G01*
X88362740Y-88487742D02*
G75*
G03*
X72062740Y-104987742I-6091861J-10283192D01*
G01*
X146315381Y-90587742D02*
G75*
G03*
X133315380Y-103587743I-4800001J-8200000D01*
G01*
X92562739Y-92687743D02*
G75*
G03*
X90462739Y-93987742I-1047912J-653372D01*
G01*
X88344110Y-58487742D02*
G75*
G03*
X72044110Y-74987742I-6091861J-10283192D01*
G01*
X87081371Y-120081371D02*
G75*
G03*
X74081370Y-133081372I-4800001J-8200000D01*
G01*
X121815379Y-92687743D02*
G75*
G03*
X119715379Y-93987742I-1047912J-653372D01*
G01*
X147485380Y-91097742D02*
G75*
G03*
X147485380Y-91097742I-200000J0D01*
G01*
X165415380Y-109087742D02*
G75*
G03*
X181815380Y-92687742I6101805J10298195D01*
G01*
X147615380Y-88487742D02*
G75*
G03*
X131315380Y-104987742I-6091861J-10283192D01*
G01*
X103996750Y-74837742D02*
G75*
G03*
X103996750Y-74837742I-200000J0D01*
G01*
X131334010Y-134481371D02*
G75*
G03*
X133334010Y-133081372I958196J759719D01*
G01*
X117504010Y-120591371D02*
G75*
G03*
X117504010Y-120591371I-200000J0D01*
G01*
X176296750Y-60587743D02*
G75*
G03*
X177596750Y-58487742I671342J1036789D01*
G01*
X118515380Y-61906371D02*
G75*
G03*
X118515380Y-61906371I-200000J0D01*
G01*
X76362740Y-106437742D02*
G75*
G03*
X76362740Y-106437742I-200000J0D01*
G01*
X181796749Y-62687743D02*
G75*
G03*
X179696749Y-63987742I-1047912J-653372D01*
G01*
X118034010Y-91506371D02*
G75*
G03*
X118034010Y-91506371I-200000J0D01*
G01*
X147504010Y-120591371D02*
G75*
G03*
X147504010Y-120591371I-200000J0D01*
G01*
X166696751Y-76987740D02*
G75*
G03*
X179696748Y-63987742I4799999J8199998D01*
G01*
X116296750Y-60587743D02*
G75*
G03*
X117596750Y-58487742I671342J1036789D01*
G01*
X89281370Y-91906371D02*
G75*
G03*
X89281370Y-91906371I-200000J0D01*
G01*
X178534010Y-91906371D02*
G75*
G03*
X178534010Y-91906371I-200000J0D01*
G01*
X105034010Y-135431371D02*
G75*
G03*
X105034010Y-135431371I-200000J0D01*
G01*
X119374010Y-122381371D02*
G75*
G03*
X119374010Y-122381371I-200000J0D01*
G01*
X74781370Y-134331371D02*
G75*
G03*
X74781370Y-134331371I-200000J0D01*
G01*
X165015380Y-105937742D02*
G75*
G03*
X165015380Y-105937742I-200000J0D01*
G01*
X147634010Y-117981371D02*
G75*
G03*
X131334010Y-134481371I-6091861J-10283192D01*
G01*
X134446750Y-75387742D02*
G75*
G03*
X134446750Y-75387742I-200000J0D01*
G01*
X88251370Y-120591371D02*
G75*
G03*
X88251370Y-120591371I-200000J0D01*
G01*
X163996750Y-74837742D02*
G75*
G03*
X163996750Y-74837742I-200000J0D01*
G01*
X118934010Y-92406371D02*
G75*
G03*
X118934010Y-92406371I-200000J0D01*
G01*
X148952640Y-121900000D02*
G75*
G03*
X148952640Y-121900000I-200000J0D01*
G01*
X134465380Y-105387742D02*
G75*
G03*
X134465380Y-105387742I-200000J0D01*
G01*
X146315380Y-90587743D02*
G75*
G03*
X147615380Y-88487742I671342J1036789D01*
G01*
X92581369Y-122181372D02*
G75*
G03*
X90481369Y-123481371I-1047912J-653372D01*
G01*
X105015380Y-105937742D02*
G75*
G03*
X105015380Y-105937742I-200000J0D01*
G01*
X165615380Y-106437742D02*
G75*
G03*
X165615380Y-106437742I-200000J0D01*
G01*
X87062741Y-90587742D02*
G75*
G03*
X74062740Y-103587743I-4800001J-8200000D01*
G01*
X87081370Y-120081372D02*
G75*
G03*
X88381370Y-117981371I671342J1036789D01*
G01*
X164446750Y-75387742D02*
G75*
G03*
X164446750Y-75387742I-200000J0D01*
G01*
X146334011Y-120081371D02*
G75*
G03*
X133334010Y-133081372I-4800001J-8200000D01*
G01*
X147596750Y-58487742D02*
G75*
G03*
X131296750Y-74987742I-6091861J-10283192D01*
G01*
X134015380Y-104837742D02*
G75*
G03*
X134015380Y-104837742I-200000J0D01*
G01*
X90084110Y-62887742D02*
G75*
G03*
X90084110Y-62887742I-200000J0D01*
G01*
X106696750Y-76987742D02*
G75*
G03*
X105396750Y-79087742I-671362J-1036776D01*
G01*
X104034010Y-134331371D02*
G75*
G03*
X104034010Y-134331371I-200000J0D01*
G01*
X72044110Y-74987742D02*
G75*
G03*
X74044110Y-73587743I958196J759719D01*
G01*
X148034010Y-91506371D02*
G75*
G03*
X148034010Y-91506371I-200000J0D01*
G01*
X177466750Y-61097742D02*
G75*
G03*
X177466750Y-61097742I-200000J0D01*
G01*
X105396750Y-79087742D02*
G75*
G03*
X121796750Y-62687742I6101805J10298195D01*
G01*
X75194110Y-75387742D02*
G75*
G03*
X75194110Y-75387742I-200000J0D01*
G01*
X88214110Y-61097742D02*
G75*
G03*
X88214110Y-61097742I-200000J0D01*
G01*
X117596750Y-58487742D02*
G75*
G03*
X101296750Y-74987742I-6091861J-10283192D01*
G01*
X178515380Y-61906371D02*
G75*
G03*
X178515380Y-61906371I-200000J0D01*
G01*
X164465380Y-105387742D02*
G75*
G03*
X164465380Y-105387742I-200000J0D01*
G01*
X136696750Y-76987742D02*
G75*
G03*
X135396750Y-79087742I-671362J-1036776D01*
G01*
X105434010Y-138581371D02*
G75*
G03*
X121834010Y-122181371I6101805J10298195D01*
G01*
X148515380Y-61906371D02*
G75*
G03*
X148515380Y-61906371I-200000J0D01*
G01*
X178552640Y-121400000D02*
G75*
G03*
X178552640Y-121400000I-200000J0D01*
G01*
X105634010Y-135931371D02*
G75*
G03*
X105634010Y-135931371I-200000J0D01*
G01*
X165634010Y-135931371D02*
G75*
G03*
X165634010Y-135931371I-200000J0D01*
G01*
X149355380Y-92887742D02*
G75*
G03*
X149355380Y-92887742I-200000J0D01*
G01*
X135396750Y-79087742D02*
G75*
G03*
X151796750Y-62687742I6101805J10298195D01*
G01*
X135415380Y-109087742D02*
G75*
G03*
X151815380Y-92687742I6101805J10298195D01*
G01*
X151815379Y-92687743D02*
G75*
G03*
X149715379Y-93987742I-1047912J-653372D01*
G01*
X136696751Y-76987740D02*
G75*
G03*
X149696748Y-63987742I4799999J8199998D01*
G01*
X148915380Y-62406371D02*
G75*
G03*
X148915380Y-62406371I-200000J0D01*
G01*
X177596750Y-58487742D02*
G75*
G03*
X161296750Y-74987742I-6091861J-10283192D01*
G01*
X104465380Y-105387742D02*
G75*
G03*
X104465380Y-105387742I-200000J0D01*
G01*
X164996750Y-75937742D02*
G75*
G03*
X164996750Y-75937742I-200000J0D01*
G01*
X121796749Y-62687743D02*
G75*
G03*
X119696749Y-63987742I-1047912J-653372D01*
G01*
X165396750Y-79087742D02*
G75*
G03*
X181796750Y-62687742I6101805J10298195D01*
G01*
X178952640Y-121900000D02*
G75*
G03*
X178952640Y-121900000I-200000J0D01*
G01*
X176334011Y-120081371D02*
G75*
G03*
X163334010Y-133081372I-4800001J-8200000D01*
G01*
X165596750Y-76437742D02*
G75*
G03*
X165596750Y-76437742I-200000J0D01*
G01*
X88781370Y-91506371D02*
G75*
G03*
X88781370Y-91506371I-200000J0D01*
G01*
X151834009Y-122181372D02*
G75*
G03*
X149734009Y-123481371I-1047912J-653372D01*
G01*
X176334010Y-120081372D02*
G75*
G03*
X177634010Y-117981371I671342J1036789D01*
G01*
X77444111Y-76987740D02*
G75*
G03*
X90444108Y-63987742I4799999J8199998D01*
G01*
X104446750Y-75387742D02*
G75*
G03*
X104446750Y-75387742I-200000J0D01*
G01*
X164484010Y-134881371D02*
G75*
G03*
X164484010Y-134881371I-200000J0D01*
G01*
X181834009Y-122181372D02*
G75*
G03*
X179734009Y-123481371I-1047912J-653372D01*
G01*
X148934010Y-92406371D02*
G75*
G03*
X148934010Y-92406371I-200000J0D01*
G01*
X118552640Y-121400000D02*
G75*
G03*
X118552640Y-121400000I-200000J0D01*
G01*
X105415380Y-109087742D02*
G75*
G03*
X121815380Y-92687742I6101805J10298195D01*
G01*
X148534010Y-91906371D02*
G75*
G03*
X148534010Y-91906371I-200000J0D01*
G01*
X136715380Y-106987742D02*
G75*
G03*
X135415380Y-109087742I-671362J-1036776D01*
G01*
X136715381Y-106987740D02*
G75*
G03*
X149715378Y-93987742I4799999J8199998D01*
G01*
X148552640Y-121400000D02*
G75*
G03*
X148552640Y-121400000I-200000J0D01*
G01*
X166734010Y-136481371D02*
G75*
G03*
X165434010Y-138581371I-671362J-1036776D01*
G01*
X133996750Y-74837742D02*
G75*
G03*
X133996750Y-74837742I-200000J0D01*
G01*
X88762740Y-61506371D02*
G75*
G03*
X88762740Y-61506371I-200000J0D01*
G01*
X106715380Y-106987742D02*
G75*
G03*
X105415380Y-109087742I-671362J-1036776D01*
G01*
X176315380Y-90587743D02*
G75*
G03*
X177615380Y-88487742I671342J1036789D01*
G01*
X77462741Y-106987740D02*
G75*
G03*
X90462738Y-93987742I4799999J8199998D01*
G01*
X146334010Y-120081372D02*
G75*
G03*
X147634010Y-117981371I671342J1036789D01*
G01*
X136734010Y-136481371D02*
G75*
G03*
X135434010Y-138581371I-671362J-1036776D01*
G01*
X161334010Y-134481371D02*
G75*
G03*
X163334010Y-133081372I958196J759719D01*
G01*
X161296751Y-74987741D02*
G75*
G03*
X163296750Y-73587743I958196J759718D01*
G01*
M02*
