%TF.GenerationSoftware,KiCad,Pcbnew,10.0.1*%
%TF.CreationDate,2026-09-22T08:01:42-04:00*%
%TF.ProjectId,eib-64-cap,6569622d-3634-42d6-9361-702e6b696361,B*%
%TF.SameCoordinates,PX362b300PY93888e0*%
%TF.FileFunction,Drillmap*%
%TF.FilePolarity,Positive*%
%FSLAX45Y45*%
G04 Gerber Fmt 4.5, Leading zero omitted, Abs format (unit mm)*
G04 Created by KiCad (PCBNEW 10.0.1) date 2026-09-22 08:01:42*
%MOMM*%
%LPD*%
G01*
G04 APERTURE LIST*
%ADD10C,0.100000*%
%ADD11C,0.050000*%
%ADD12C,0.200000*%
G04 APERTURE END LIST*
D10*
X0Y11120000D02*
X14040000Y11120000D01*
X14040000Y0D01*
X0Y0D01*
X0Y11120000D01*
D11*
X1524411Y7971226D02*
G75*
G02*
X3154411Y9621226I1020814J621681D01*
G01*
X1526274Y4971226D02*
G75*
G02*
X3156274Y6621226I1020814J621681D01*
G01*
X1528137Y2021863D02*
G75*
G02*
X3158137Y3671863I1020814J621681D01*
G01*
X1724411Y8111226D02*
G75*
G02*
X1524412Y7971227I-104181J-64026D01*
G01*
X1724411Y8111226D02*
G75*
G02*
X3024411Y9411226I820000J480000D01*
G01*
X1726274Y5111226D02*
G75*
G02*
X1526271Y4971224I-104184J-64026D01*
G01*
X1726274Y5111226D02*
G75*
G02*
X3026274Y6411226I820000J480000D01*
G01*
X1728137Y2161863D02*
G75*
G02*
X1528138Y2021863I-104180J-64028D01*
G01*
X1728137Y2161863D02*
G75*
G02*
X3028137Y3461863I820000J480000D01*
G01*
X1794411Y7986226D02*
G75*
G02*
X1754411Y7986226I-20000J0D01*
G01*
X1754411Y7986226D02*
G75*
G02*
X1794411Y7986226I20000J0D01*
G01*
X1796274Y4986226D02*
G75*
G02*
X1756274Y4986226I-20000J0D01*
G01*
X1756274Y4986226D02*
G75*
G02*
X1796274Y4986226I20000J0D01*
G01*
X1798137Y2036863D02*
G75*
G02*
X1758137Y2036863I-20000J0D01*
G01*
X1758137Y2036863D02*
G75*
G02*
X1798137Y2036863I20000J0D01*
G01*
X1839411Y7931226D02*
G75*
G02*
X1799411Y7931226I-20000J0D01*
G01*
X1799411Y7931226D02*
G75*
G02*
X1839411Y7931226I20000J0D01*
G01*
X1841274Y4931226D02*
G75*
G02*
X1801274Y4931226I-20000J0D01*
G01*
X1801274Y4931226D02*
G75*
G02*
X1841274Y4931226I20000J0D01*
G01*
X1843137Y1981863D02*
G75*
G02*
X1803137Y1981863I-20000J0D01*
G01*
X1803137Y1981863D02*
G75*
G02*
X1843137Y1981863I20000J0D01*
G01*
X1894411Y7876226D02*
G75*
G02*
X1854411Y7876226I-20000J0D01*
G01*
X1854411Y7876226D02*
G75*
G02*
X1894411Y7876226I20000J0D01*
G01*
X1896274Y4876226D02*
G75*
G02*
X1856274Y4876226I-20000J0D01*
G01*
X1856274Y4876226D02*
G75*
G02*
X1896274Y4876226I20000J0D01*
G01*
X1898137Y1926863D02*
G75*
G02*
X1858137Y1926863I-20000J0D01*
G01*
X1858137Y1926863D02*
G75*
G02*
X1898137Y1926863I20000J0D01*
G01*
X1954411Y7826226D02*
G75*
G02*
X1914411Y7826226I-20000J0D01*
G01*
X1914411Y7826226D02*
G75*
G02*
X1954411Y7826226I20000J0D01*
G01*
X1934411Y7561226D02*
G75*
G02*
X2064410Y7771224I62859J106324D01*
G01*
X1956274Y4826226D02*
G75*
G02*
X1916274Y4826226I-20000J0D01*
G01*
X1916274Y4826226D02*
G75*
G02*
X1956274Y4826226I20000J0D01*
G01*
X1936274Y4561226D02*
G75*
G02*
X2066277Y4771230I62866J106324D01*
G01*
X1958137Y1876863D02*
G75*
G02*
X1918137Y1876863I-20000J0D01*
G01*
X1918137Y1876863D02*
G75*
G02*
X1958137Y1876863I20000J0D01*
G01*
X1938137Y1611863D02*
G75*
G02*
X2068137Y1821863I62864J106322D01*
G01*
X3141411Y9360226D02*
G75*
G02*
X3101411Y9360226I-20000J0D01*
G01*
X3101411Y9360226D02*
G75*
G02*
X3141411Y9360226I20000J0D01*
G01*
X3143274Y6360226D02*
G75*
G02*
X3103274Y6360226I-20000J0D01*
G01*
X3103274Y6360226D02*
G75*
G02*
X3143274Y6360226I20000J0D01*
G01*
X3145137Y3410863D02*
G75*
G02*
X3105137Y3410863I-20000J0D01*
G01*
X3105137Y3410863D02*
G75*
G02*
X3145137Y3410863I20000J0D01*
G01*
X3154411Y9621226D02*
G75*
G02*
X3024411Y9411226I-62866J-106321D01*
G01*
X3156274Y6621226D02*
G75*
G02*
X3026274Y6411226I-62866J-106321D01*
G01*
X3158137Y3671863D02*
G75*
G02*
X3028135Y3461859I-62867J-106323D01*
G01*
X3196274Y9319363D02*
G75*
G02*
X3156274Y9319363I-20000J0D01*
G01*
X3156274Y9319363D02*
G75*
G02*
X3196274Y9319363I20000J0D01*
G01*
X3198137Y6319363D02*
G75*
G02*
X3158137Y6319363I-20000J0D01*
G01*
X3158137Y6319363D02*
G75*
G02*
X3198137Y6319363I20000J0D01*
G01*
X3200000Y3370000D02*
G75*
G02*
X3160000Y3370000I-20000J0D01*
G01*
X3160000Y3370000D02*
G75*
G02*
X3200000Y3370000I20000J0D01*
G01*
X3246274Y9279363D02*
G75*
G02*
X3206274Y9279363I-20000J0D01*
G01*
X3206274Y9279363D02*
G75*
G02*
X3246274Y9279363I20000J0D01*
G01*
X3248137Y6279363D02*
G75*
G02*
X3208137Y6279363I-20000J0D01*
G01*
X3208137Y6279363D02*
G75*
G02*
X3248137Y6279363I20000J0D01*
G01*
X3250000Y3330000D02*
G75*
G02*
X3210000Y3330000I-20000J0D01*
G01*
X3210000Y3330000D02*
G75*
G02*
X3250000Y3330000I20000J0D01*
G01*
X3286274Y9229363D02*
G75*
G02*
X3246274Y9229363I-20000J0D01*
G01*
X3246274Y9229363D02*
G75*
G02*
X3286274Y9229363I20000J0D01*
G01*
X3288137Y6229363D02*
G75*
G02*
X3248137Y6229363I-20000J0D01*
G01*
X3248137Y6229363D02*
G75*
G02*
X3288137Y6229363I20000J0D01*
G01*
X3290000Y3280000D02*
G75*
G02*
X3250000Y3280000I-20000J0D01*
G01*
X3250000Y3280000D02*
G75*
G02*
X3290000Y3280000I20000J0D01*
G01*
X3328411Y9181226D02*
G75*
G02*
X3288411Y9181226I-20000J0D01*
G01*
X3288411Y9181226D02*
G75*
G02*
X3328411Y9181226I20000J0D01*
G01*
X3330274Y6181226D02*
G75*
G02*
X3290274Y6181226I-20000J0D01*
G01*
X3290274Y6181226D02*
G75*
G02*
X3330274Y6181226I20000J0D01*
G01*
X3332137Y3231863D02*
G75*
G02*
X3292137Y3231863I-20000J0D01*
G01*
X3292137Y3231863D02*
G75*
G02*
X3332137Y3231863I20000J0D01*
G01*
X3364411Y9071226D02*
G75*
G02*
X2064411Y7771226I-820000J-480000D01*
G01*
X3364411Y9071226D02*
G75*
G02*
X3574413Y9201227I105209J64664D01*
G01*
X3366274Y6071226D02*
G75*
G02*
X2066274Y4771226I-820000J-480000D01*
G01*
X3366274Y6071226D02*
G75*
G02*
X3576271Y6201224I105206J64664D01*
G01*
X3368137Y3121863D02*
G75*
G02*
X2068137Y1821863I-820000J-480000D01*
G01*
X3368137Y3121863D02*
G75*
G02*
X3578138Y3251863I105209J64663D01*
G01*
X3574411Y9201226D02*
G75*
G02*
X1934411Y7561226I-1029819J-610181D01*
G01*
X3576274Y6201226D02*
G75*
G02*
X1936274Y4561226I-1029819J-610181D01*
G01*
X3578137Y3251863D02*
G75*
G02*
X1938137Y1611863I-1029819J-610181D01*
G01*
X4449675Y7971226D02*
G75*
G02*
X6079675Y9621226I1020814J621681D01*
G01*
X4451538Y4971226D02*
G75*
G02*
X6081538Y6621226I1020814J621681D01*
G01*
X4453401Y2021863D02*
G75*
G02*
X6083401Y3671863I1020814J621681D01*
G01*
X4649675Y8111226D02*
G75*
G02*
X4449671Y7971223I-104185J-64026D01*
G01*
X4649675Y8111226D02*
G75*
G02*
X5949675Y9411226I820000J480000D01*
G01*
X4651538Y5111226D02*
G75*
G02*
X4451543Y4971230I-104178J-64026D01*
G01*
X4651538Y5111226D02*
G75*
G02*
X5951538Y6411226I820000J480000D01*
G01*
X4653401Y2161863D02*
G75*
G02*
X4453402Y2021863I-104180J-64028D01*
G01*
X4653401Y2161863D02*
G75*
G02*
X5953401Y3461863I820000J480000D01*
G01*
X4719675Y7986226D02*
G75*
G02*
X4679675Y7986226I-20000J0D01*
G01*
X4679675Y7986226D02*
G75*
G02*
X4719675Y7986226I20000J0D01*
G01*
X4721538Y4986226D02*
G75*
G02*
X4681538Y4986226I-20000J0D01*
G01*
X4681538Y4986226D02*
G75*
G02*
X4721538Y4986226I20000J0D01*
G01*
X4723401Y2036863D02*
G75*
G02*
X4683401Y2036863I-20000J0D01*
G01*
X4683401Y2036863D02*
G75*
G02*
X4723401Y2036863I20000J0D01*
G01*
X4764675Y7931226D02*
G75*
G02*
X4724675Y7931226I-20000J0D01*
G01*
X4724675Y7931226D02*
G75*
G02*
X4764675Y7931226I20000J0D01*
G01*
X4766538Y4931226D02*
G75*
G02*
X4726538Y4931226I-20000J0D01*
G01*
X4726538Y4931226D02*
G75*
G02*
X4766538Y4931226I20000J0D01*
G01*
X4768401Y1981863D02*
G75*
G02*
X4728401Y1981863I-20000J0D01*
G01*
X4728401Y1981863D02*
G75*
G02*
X4768401Y1981863I20000J0D01*
G01*
X4819675Y7876226D02*
G75*
G02*
X4779675Y7876226I-20000J0D01*
G01*
X4779675Y7876226D02*
G75*
G02*
X4819675Y7876226I20000J0D01*
G01*
X4821538Y4876226D02*
G75*
G02*
X4781538Y4876226I-20000J0D01*
G01*
X4781538Y4876226D02*
G75*
G02*
X4821538Y4876226I20000J0D01*
G01*
X4823401Y1926863D02*
G75*
G02*
X4783401Y1926863I-20000J0D01*
G01*
X4783401Y1926863D02*
G75*
G02*
X4823401Y1926863I20000J0D01*
G01*
X4879675Y7826226D02*
G75*
G02*
X4839675Y7826226I-20000J0D01*
G01*
X4839675Y7826226D02*
G75*
G02*
X4879675Y7826226I20000J0D01*
G01*
X4859675Y7561226D02*
G75*
G02*
X4989677Y7771229I62865J106324D01*
G01*
X4881538Y4826226D02*
G75*
G02*
X4841538Y4826226I-20000J0D01*
G01*
X4841538Y4826226D02*
G75*
G02*
X4881538Y4826226I20000J0D01*
G01*
X4861538Y4561226D02*
G75*
G02*
X4991539Y4771227I62862J106324D01*
G01*
X4883401Y1876863D02*
G75*
G02*
X4843401Y1876863I-20000J0D01*
G01*
X4843401Y1876863D02*
G75*
G02*
X4883401Y1876863I20000J0D01*
G01*
X4863401Y1611863D02*
G75*
G02*
X4993401Y1821863I62864J106322D01*
G01*
X6066675Y9360226D02*
G75*
G02*
X6026675Y9360226I-20000J0D01*
G01*
X6026675Y9360226D02*
G75*
G02*
X6066675Y9360226I20000J0D01*
G01*
X6068538Y6360226D02*
G75*
G02*
X6028538Y6360226I-20000J0D01*
G01*
X6028538Y6360226D02*
G75*
G02*
X6068538Y6360226I20000J0D01*
G01*
X6070401Y3410863D02*
G75*
G02*
X6030401Y3410863I-20000J0D01*
G01*
X6030401Y3410863D02*
G75*
G02*
X6070401Y3410863I20000J0D01*
G01*
X6079675Y9621226D02*
G75*
G02*
X5949671Y9411220I-62865J-106326D01*
G01*
X6081538Y6621226D02*
G75*
G02*
X5951532Y6411217I-62868J-106326D01*
G01*
X6083401Y3671863D02*
G75*
G02*
X5953402Y3461865I-62861J-106323D01*
G01*
X6121538Y9319363D02*
G75*
G02*
X6081538Y9319363I-20000J0D01*
G01*
X6081538Y9319363D02*
G75*
G02*
X6121538Y9319363I20000J0D01*
G01*
X6123401Y6319363D02*
G75*
G02*
X6083401Y6319363I-20000J0D01*
G01*
X6083401Y6319363D02*
G75*
G02*
X6123401Y6319363I20000J0D01*
G01*
X6125264Y3370000D02*
G75*
G02*
X6085264Y3370000I-20000J0D01*
G01*
X6085264Y3370000D02*
G75*
G02*
X6125264Y3370000I20000J0D01*
G01*
X6171538Y9279363D02*
G75*
G02*
X6131538Y9279363I-20000J0D01*
G01*
X6131538Y9279363D02*
G75*
G02*
X6171538Y9279363I20000J0D01*
G01*
X6173401Y6279363D02*
G75*
G02*
X6133401Y6279363I-20000J0D01*
G01*
X6133401Y6279363D02*
G75*
G02*
X6173401Y6279363I20000J0D01*
G01*
X6175264Y3330000D02*
G75*
G02*
X6135264Y3330000I-20000J0D01*
G01*
X6135264Y3330000D02*
G75*
G02*
X6175264Y3330000I20000J0D01*
G01*
X6211538Y9229363D02*
G75*
G02*
X6171538Y9229363I-20000J0D01*
G01*
X6171538Y9229363D02*
G75*
G02*
X6211538Y9229363I20000J0D01*
G01*
X6213401Y6229363D02*
G75*
G02*
X6173401Y6229363I-20000J0D01*
G01*
X6173401Y6229363D02*
G75*
G02*
X6213401Y6229363I20000J0D01*
G01*
X6215264Y3280000D02*
G75*
G02*
X6175264Y3280000I-20000J0D01*
G01*
X6175264Y3280000D02*
G75*
G02*
X6215264Y3280000I20000J0D01*
G01*
X6253675Y9181226D02*
G75*
G02*
X6213675Y9181226I-20000J0D01*
G01*
X6213675Y9181226D02*
G75*
G02*
X6253675Y9181226I20000J0D01*
G01*
X6255538Y6181226D02*
G75*
G02*
X6215538Y6181226I-20000J0D01*
G01*
X6215538Y6181226D02*
G75*
G02*
X6255538Y6181226I20000J0D01*
G01*
X6257401Y3231863D02*
G75*
G02*
X6217401Y3231863I-20000J0D01*
G01*
X6217401Y3231863D02*
G75*
G02*
X6257401Y3231863I20000J0D01*
G01*
X6289675Y9071226D02*
G75*
G02*
X4989675Y7771226I-820000J-480000D01*
G01*
X6289675Y9071226D02*
G75*
G02*
X6499671Y9201223I105205J64664D01*
G01*
X6291538Y6071226D02*
G75*
G02*
X4991538Y4771226I-820000J-480000D01*
G01*
X6291538Y6071226D02*
G75*
G02*
X6501544Y6201230I105212J64664D01*
G01*
X6293401Y3121863D02*
G75*
G02*
X4993401Y1821863I-820000J-480000D01*
G01*
X6293401Y3121863D02*
G75*
G02*
X6503405Y3251866I105209J64667D01*
G01*
X6499675Y9201226D02*
G75*
G02*
X4859675Y7561226I-1029819J-610181D01*
G01*
X6501538Y6201226D02*
G75*
G02*
X4861538Y4561226I-1029819J-610181D01*
G01*
X6503401Y3251863D02*
G75*
G02*
X4863401Y1611863I-1029819J-610181D01*
G01*
X7449675Y7971226D02*
G75*
G02*
X9079675Y9621226I1020814J621681D01*
G01*
X7451538Y4971226D02*
G75*
G02*
X9081538Y6621226I1020814J621681D01*
G01*
X7453401Y2021863D02*
G75*
G02*
X9083401Y3671863I1020814J621681D01*
G01*
X7649675Y8111226D02*
G75*
G02*
X7449671Y7971223I-104185J-64026D01*
G01*
X7649675Y8111226D02*
G75*
G02*
X8949675Y9411226I820000J480000D01*
G01*
X7651538Y5111226D02*
G75*
G02*
X7451543Y4971230I-104178J-64026D01*
G01*
X7651538Y5111226D02*
G75*
G02*
X8951538Y6411226I820000J480000D01*
G01*
X7653401Y2161863D02*
G75*
G02*
X7453396Y2021859I-104181J-64033D01*
G01*
X7653401Y2161863D02*
G75*
G02*
X8953401Y3461863I820000J480000D01*
G01*
X7719675Y7986226D02*
G75*
G02*
X7679675Y7986226I-20000J0D01*
G01*
X7679675Y7986226D02*
G75*
G02*
X7719675Y7986226I20000J0D01*
G01*
X7721538Y4986226D02*
G75*
G02*
X7681538Y4986226I-20000J0D01*
G01*
X7681538Y4986226D02*
G75*
G02*
X7721538Y4986226I20000J0D01*
G01*
X7723401Y2036863D02*
G75*
G02*
X7683401Y2036863I-20000J0D01*
G01*
X7683401Y2036863D02*
G75*
G02*
X7723401Y2036863I20000J0D01*
G01*
X7764675Y7931226D02*
G75*
G02*
X7724675Y7931226I-20000J0D01*
G01*
X7724675Y7931226D02*
G75*
G02*
X7764675Y7931226I20000J0D01*
G01*
X7766538Y4931226D02*
G75*
G02*
X7726538Y4931226I-20000J0D01*
G01*
X7726538Y4931226D02*
G75*
G02*
X7766538Y4931226I20000J0D01*
G01*
X7768401Y1981863D02*
G75*
G02*
X7728401Y1981863I-20000J0D01*
G01*
X7728401Y1981863D02*
G75*
G02*
X7768401Y1981863I20000J0D01*
G01*
X7819675Y7876226D02*
G75*
G02*
X7779675Y7876226I-20000J0D01*
G01*
X7779675Y7876226D02*
G75*
G02*
X7819675Y7876226I20000J0D01*
G01*
X7821538Y4876226D02*
G75*
G02*
X7781538Y4876226I-20000J0D01*
G01*
X7781538Y4876226D02*
G75*
G02*
X7821538Y4876226I20000J0D01*
G01*
X7823401Y1926863D02*
G75*
G02*
X7783401Y1926863I-20000J0D01*
G01*
X7783401Y1926863D02*
G75*
G02*
X7823401Y1926863I20000J0D01*
G01*
X7879675Y7826226D02*
G75*
G02*
X7839675Y7826226I-20000J0D01*
G01*
X7839675Y7826226D02*
G75*
G02*
X7879675Y7826226I20000J0D01*
G01*
X7859675Y7561226D02*
G75*
G02*
X7989677Y7771229I62865J106324D01*
G01*
X7881538Y4826226D02*
G75*
G02*
X7841538Y4826226I-20000J0D01*
G01*
X7841538Y4826226D02*
G75*
G02*
X7881538Y4826226I20000J0D01*
G01*
X7861538Y4561226D02*
G75*
G02*
X7991539Y4771227I62862J106324D01*
G01*
X7883401Y1876863D02*
G75*
G02*
X7843401Y1876863I-20000J0D01*
G01*
X7843401Y1876863D02*
G75*
G02*
X7883401Y1876863I20000J0D01*
G01*
X7863401Y1611863D02*
G75*
G02*
X7993403Y1821865I62859J106327D01*
G01*
X9066675Y9360226D02*
G75*
G02*
X9026675Y9360226I-20000J0D01*
G01*
X9026675Y9360226D02*
G75*
G02*
X9066675Y9360226I20000J0D01*
G01*
X9068538Y6360226D02*
G75*
G02*
X9028538Y6360226I-20000J0D01*
G01*
X9028538Y6360226D02*
G75*
G02*
X9068538Y6360226I20000J0D01*
G01*
X9070401Y3410863D02*
G75*
G02*
X9030401Y3410863I-20000J0D01*
G01*
X9030401Y3410863D02*
G75*
G02*
X9070401Y3410863I20000J0D01*
G01*
X9079675Y9621226D02*
G75*
G02*
X8949671Y9411220I-62865J-106326D01*
G01*
X9081538Y6621226D02*
G75*
G02*
X8951533Y6411217I-62868J-106326D01*
G01*
X9083401Y3671863D02*
G75*
G02*
X8953402Y3461865I-62861J-106323D01*
G01*
X9121538Y9319363D02*
G75*
G02*
X9081538Y9319363I-20000J0D01*
G01*
X9081538Y9319363D02*
G75*
G02*
X9121538Y9319363I20000J0D01*
G01*
X9123401Y6319363D02*
G75*
G02*
X9083401Y6319363I-20000J0D01*
G01*
X9083401Y6319363D02*
G75*
G02*
X9123401Y6319363I20000J0D01*
G01*
X9125264Y3370000D02*
G75*
G02*
X9085264Y3370000I-20000J0D01*
G01*
X9085264Y3370000D02*
G75*
G02*
X9125264Y3370000I20000J0D01*
G01*
X9171538Y9279363D02*
G75*
G02*
X9131538Y9279363I-20000J0D01*
G01*
X9131538Y9279363D02*
G75*
G02*
X9171538Y9279363I20000J0D01*
G01*
X9173401Y6279363D02*
G75*
G02*
X9133401Y6279363I-20000J0D01*
G01*
X9133401Y6279363D02*
G75*
G02*
X9173401Y6279363I20000J0D01*
G01*
X9175264Y3330000D02*
G75*
G02*
X9135264Y3330000I-20000J0D01*
G01*
X9135264Y3330000D02*
G75*
G02*
X9175264Y3330000I20000J0D01*
G01*
X9211538Y9229363D02*
G75*
G02*
X9171538Y9229363I-20000J0D01*
G01*
X9171538Y9229363D02*
G75*
G02*
X9211538Y9229363I20000J0D01*
G01*
X9213401Y6229363D02*
G75*
G02*
X9173401Y6229363I-20000J0D01*
G01*
X9173401Y6229363D02*
G75*
G02*
X9213401Y6229363I20000J0D01*
G01*
X9215264Y3280000D02*
G75*
G02*
X9175264Y3280000I-20000J0D01*
G01*
X9175264Y3280000D02*
G75*
G02*
X9215264Y3280000I20000J0D01*
G01*
X9253675Y9181226D02*
G75*
G02*
X9213675Y9181226I-20000J0D01*
G01*
X9213675Y9181226D02*
G75*
G02*
X9253675Y9181226I20000J0D01*
G01*
X9255538Y6181226D02*
G75*
G02*
X9215538Y6181226I-20000J0D01*
G01*
X9215538Y6181226D02*
G75*
G02*
X9255538Y6181226I20000J0D01*
G01*
X9257401Y3231863D02*
G75*
G02*
X9217401Y3231863I-20000J0D01*
G01*
X9217401Y3231863D02*
G75*
G02*
X9257401Y3231863I20000J0D01*
G01*
X9289675Y9071226D02*
G75*
G02*
X7989675Y7771226I-820000J-480000D01*
G01*
X9289675Y9071226D02*
G75*
G02*
X9499671Y9201223I105205J64664D01*
G01*
X9291538Y6071226D02*
G75*
G02*
X7991538Y4771226I-820000J-480000D01*
G01*
X9291538Y6071226D02*
G75*
G02*
X9501544Y6201230I105212J64664D01*
G01*
X9293401Y3121863D02*
G75*
G02*
X7993401Y1821863I-820000J-480000D01*
G01*
X9293401Y3121863D02*
G75*
G02*
X9503405Y3251866I105209J64667D01*
G01*
X9499675Y9201226D02*
G75*
G02*
X7859675Y7561226I-1029819J-610181D01*
G01*
X9501538Y6201226D02*
G75*
G02*
X7861538Y4561226I-1029819J-610181D01*
G01*
X9503401Y3251863D02*
G75*
G02*
X7863401Y1611863I-1029819J-610181D01*
G01*
X10449675Y7971226D02*
G75*
G02*
X12079675Y9621226I1020814J621681D01*
G01*
X10451538Y4971226D02*
G75*
G02*
X12081538Y6621226I1020814J621681D01*
G01*
X10453401Y2021863D02*
G75*
G02*
X12083401Y3671863I1020814J621681D01*
G01*
X10649675Y8111226D02*
G75*
G02*
X10449671Y7971223I-104185J-64026D01*
G01*
X10649675Y8111226D02*
G75*
G02*
X11949675Y9411226I820000J480000D01*
G01*
X10651538Y5111226D02*
G75*
G02*
X10451543Y4971230I-104178J-64026D01*
G01*
X10651538Y5111226D02*
G75*
G02*
X11951538Y6411226I820000J480000D01*
G01*
X10653401Y2161863D02*
G75*
G02*
X10453396Y2021859I-104181J-64033D01*
G01*
X10653401Y2161863D02*
G75*
G02*
X11953401Y3461863I820000J480000D01*
G01*
X10719675Y7986226D02*
G75*
G02*
X10679675Y7986226I-20000J0D01*
G01*
X10679675Y7986226D02*
G75*
G02*
X10719675Y7986226I20000J0D01*
G01*
X10721538Y4986226D02*
G75*
G02*
X10681538Y4986226I-20000J0D01*
G01*
X10681538Y4986226D02*
G75*
G02*
X10721538Y4986226I20000J0D01*
G01*
X10723401Y2036863D02*
G75*
G02*
X10683401Y2036863I-20000J0D01*
G01*
X10683401Y2036863D02*
G75*
G02*
X10723401Y2036863I20000J0D01*
G01*
X10764675Y7931226D02*
G75*
G02*
X10724675Y7931226I-20000J0D01*
G01*
X10724675Y7931226D02*
G75*
G02*
X10764675Y7931226I20000J0D01*
G01*
X10766538Y4931226D02*
G75*
G02*
X10726538Y4931226I-20000J0D01*
G01*
X10726538Y4931226D02*
G75*
G02*
X10766538Y4931226I20000J0D01*
G01*
X10768401Y1981863D02*
G75*
G02*
X10728401Y1981863I-20000J0D01*
G01*
X10728401Y1981863D02*
G75*
G02*
X10768401Y1981863I20000J0D01*
G01*
X10819675Y7876226D02*
G75*
G02*
X10779675Y7876226I-20000J0D01*
G01*
X10779675Y7876226D02*
G75*
G02*
X10819675Y7876226I20000J0D01*
G01*
X10821538Y4876226D02*
G75*
G02*
X10781538Y4876226I-20000J0D01*
G01*
X10781538Y4876226D02*
G75*
G02*
X10821538Y4876226I20000J0D01*
G01*
X10823401Y1926863D02*
G75*
G02*
X10783401Y1926863I-20000J0D01*
G01*
X10783401Y1926863D02*
G75*
G02*
X10823401Y1926863I20000J0D01*
G01*
X10879675Y7826226D02*
G75*
G02*
X10839675Y7826226I-20000J0D01*
G01*
X10839675Y7826226D02*
G75*
G02*
X10879675Y7826226I20000J0D01*
G01*
X10859675Y7561226D02*
G75*
G02*
X10989677Y7771229I62865J106324D01*
G01*
X10881538Y4826226D02*
G75*
G02*
X10841538Y4826226I-20000J0D01*
G01*
X10841538Y4826226D02*
G75*
G02*
X10881538Y4826226I20000J0D01*
G01*
X10861538Y4561226D02*
G75*
G02*
X10991539Y4771227I62862J106324D01*
G01*
X10883401Y1876863D02*
G75*
G02*
X10843401Y1876863I-20000J0D01*
G01*
X10843401Y1876863D02*
G75*
G02*
X10883401Y1876863I20000J0D01*
G01*
X10863401Y1611863D02*
G75*
G02*
X10993403Y1821865I62859J106327D01*
G01*
X12066675Y9360226D02*
G75*
G02*
X12026675Y9360226I-20000J0D01*
G01*
X12026675Y9360226D02*
G75*
G02*
X12066675Y9360226I20000J0D01*
G01*
X12068538Y6360226D02*
G75*
G02*
X12028538Y6360226I-20000J0D01*
G01*
X12028538Y6360226D02*
G75*
G02*
X12068538Y6360226I20000J0D01*
G01*
X12070401Y3410863D02*
G75*
G02*
X12030401Y3410863I-20000J0D01*
G01*
X12030401Y3410863D02*
G75*
G02*
X12070401Y3410863I20000J0D01*
G01*
X12079675Y9621226D02*
G75*
G02*
X11949671Y9411220I-62865J-106326D01*
G01*
X12081538Y6621226D02*
G75*
G02*
X11951532Y6411217I-62868J-106326D01*
G01*
X12083401Y3671863D02*
G75*
G02*
X11953402Y3461865I-62861J-106323D01*
G01*
X12121538Y9319363D02*
G75*
G02*
X12081538Y9319363I-20000J0D01*
G01*
X12081538Y9319363D02*
G75*
G02*
X12121538Y9319363I20000J0D01*
G01*
X12123401Y6319363D02*
G75*
G02*
X12083401Y6319363I-20000J0D01*
G01*
X12083401Y6319363D02*
G75*
G02*
X12123401Y6319363I20000J0D01*
G01*
X12125264Y3370000D02*
G75*
G02*
X12085264Y3370000I-20000J0D01*
G01*
X12085264Y3370000D02*
G75*
G02*
X12125264Y3370000I20000J0D01*
G01*
X12171538Y9279363D02*
G75*
G02*
X12131538Y9279363I-20000J0D01*
G01*
X12131538Y9279363D02*
G75*
G02*
X12171538Y9279363I20000J0D01*
G01*
X12173401Y6279363D02*
G75*
G02*
X12133401Y6279363I-20000J0D01*
G01*
X12133401Y6279363D02*
G75*
G02*
X12173401Y6279363I20000J0D01*
G01*
X12175264Y3330000D02*
G75*
G02*
X12135264Y3330000I-20000J0D01*
G01*
X12135264Y3330000D02*
G75*
G02*
X12175264Y3330000I20000J0D01*
G01*
X12211538Y9229363D02*
G75*
G02*
X12171538Y9229363I-20000J0D01*
G01*
X12171538Y9229363D02*
G75*
G02*
X12211538Y9229363I20000J0D01*
G01*
X12213401Y6229363D02*
G75*
G02*
X12173401Y6229363I-20000J0D01*
G01*
X12173401Y6229363D02*
G75*
G02*
X12213401Y6229363I20000J0D01*
G01*
X12215264Y3280000D02*
G75*
G02*
X12175264Y3280000I-20000J0D01*
G01*
X12175264Y3280000D02*
G75*
G02*
X12215264Y3280000I20000J0D01*
G01*
X12253675Y9181226D02*
G75*
G02*
X12213675Y9181226I-20000J0D01*
G01*
X12213675Y9181226D02*
G75*
G02*
X12253675Y9181226I20000J0D01*
G01*
X12255538Y6181226D02*
G75*
G02*
X12215538Y6181226I-20000J0D01*
G01*
X12215538Y6181226D02*
G75*
G02*
X12255538Y6181226I20000J0D01*
G01*
X12257401Y3231863D02*
G75*
G02*
X12217401Y3231863I-20000J0D01*
G01*
X12217401Y3231863D02*
G75*
G02*
X12257401Y3231863I20000J0D01*
G01*
X12289675Y9071226D02*
G75*
G02*
X10989675Y7771226I-820000J-480000D01*
G01*
X12289675Y9071226D02*
G75*
G02*
X12499671Y9201223I105205J64664D01*
G01*
X12291538Y6071226D02*
G75*
G02*
X10991538Y4771226I-820000J-480000D01*
G01*
X12291538Y6071226D02*
G75*
G02*
X12501544Y6201230I105212J64664D01*
G01*
X12293401Y3121863D02*
G75*
G02*
X10993401Y1821863I-820000J-480000D01*
G01*
X12293401Y3121863D02*
G75*
G02*
X12503405Y3251866I105209J64667D01*
G01*
X12499675Y9201226D02*
G75*
G02*
X10859675Y7561226I-1029819J-610181D01*
G01*
X12501538Y6201226D02*
G75*
G02*
X10861538Y4561226I-1029819J-610181D01*
G01*
X12503401Y3251863D02*
G75*
G02*
X10863401Y1611863I-1029819J-610181D01*
G01*
D12*
X255777Y-316484D02*
X255777Y-116484D01*
X255777Y-116484D02*
X303396Y-116484D01*
X303396Y-116484D02*
X331967Y-126008D01*
X331967Y-126008D02*
X351015Y-145055D01*
X351015Y-145055D02*
X360539Y-164103D01*
X360539Y-164103D02*
X370062Y-202198D01*
X370062Y-202198D02*
X370062Y-230769D01*
X370062Y-230769D02*
X360539Y-268865D01*
X360539Y-268865D02*
X351015Y-287912D01*
X351015Y-287912D02*
X331967Y-306960D01*
X331967Y-306960D02*
X303396Y-316484D01*
X303396Y-316484D02*
X255777Y-316484D01*
X455777Y-316484D02*
X455777Y-183150D01*
X455777Y-221246D02*
X465301Y-202198D01*
X465301Y-202198D02*
X474824Y-192674D01*
X474824Y-192674D02*
X493872Y-183150D01*
X493872Y-183150D02*
X512920Y-183150D01*
X579586Y-316484D02*
X579586Y-183150D01*
X579586Y-116484D02*
X570063Y-126008D01*
X570063Y-126008D02*
X579586Y-135531D01*
X579586Y-135531D02*
X589110Y-126008D01*
X589110Y-126008D02*
X579586Y-116484D01*
X579586Y-116484D02*
X579586Y-135531D01*
X703396Y-316484D02*
X684348Y-306960D01*
X684348Y-306960D02*
X674824Y-287912D01*
X674824Y-287912D02*
X674824Y-116484D01*
X808158Y-316484D02*
X789110Y-306960D01*
X789110Y-306960D02*
X779586Y-287912D01*
X779586Y-287912D02*
X779586Y-116484D01*
X1036729Y-316484D02*
X1036729Y-116484D01*
X1036729Y-116484D02*
X1103396Y-259341D01*
X1103396Y-259341D02*
X1170063Y-116484D01*
X1170063Y-116484D02*
X1170063Y-316484D01*
X1351015Y-316484D02*
X1351015Y-211722D01*
X1351015Y-211722D02*
X1341491Y-192674D01*
X1341491Y-192674D02*
X1322444Y-183150D01*
X1322444Y-183150D02*
X1284348Y-183150D01*
X1284348Y-183150D02*
X1265301Y-192674D01*
X1351015Y-306960D02*
X1331967Y-316484D01*
X1331967Y-316484D02*
X1284348Y-316484D01*
X1284348Y-316484D02*
X1265301Y-306960D01*
X1265301Y-306960D02*
X1255777Y-287912D01*
X1255777Y-287912D02*
X1255777Y-268865D01*
X1255777Y-268865D02*
X1265301Y-249817D01*
X1265301Y-249817D02*
X1284348Y-240293D01*
X1284348Y-240293D02*
X1331967Y-240293D01*
X1331967Y-240293D02*
X1351015Y-230769D01*
X1446253Y-183150D02*
X1446253Y-383150D01*
X1446253Y-192674D02*
X1465301Y-183150D01*
X1465301Y-183150D02*
X1503396Y-183150D01*
X1503396Y-183150D02*
X1522443Y-192674D01*
X1522443Y-192674D02*
X1531967Y-202198D01*
X1531967Y-202198D02*
X1541491Y-221246D01*
X1541491Y-221246D02*
X1541491Y-278389D01*
X1541491Y-278389D02*
X1531967Y-297436D01*
X1531967Y-297436D02*
X1522443Y-306960D01*
X1522443Y-306960D02*
X1503396Y-316484D01*
X1503396Y-316484D02*
X1465301Y-316484D01*
X1465301Y-316484D02*
X1446253Y-306960D01*
X1627205Y-297436D02*
X1636729Y-306960D01*
X1636729Y-306960D02*
X1627205Y-316484D01*
X1627205Y-316484D02*
X1617682Y-306960D01*
X1617682Y-306960D02*
X1627205Y-297436D01*
X1627205Y-297436D02*
X1627205Y-316484D01*
X1627205Y-192674D02*
X1636729Y-202198D01*
X1636729Y-202198D02*
X1627205Y-211722D01*
X1627205Y-211722D02*
X1617682Y-202198D01*
X1617682Y-202198D02*
X1627205Y-192674D01*
X1627205Y-192674D02*
X1627205Y-211722D01*
M02*
