%TF.GenerationSoftware,KiCad,Pcbnew,10.0.1*%
%TF.CreationDate,2026-09-22T08:01:43-04:00*%
%TF.ProjectId,eib-64-cap,6569622d-3634-42d6-9361-702e6b696361,B*%
%TF.SameCoordinates,PX362b300PY93888e0*%
%TF.FileFunction,Paste,Top*%
%TF.FilePolarity,Positive*%
%FSLAX46Y46*%
G04 Gerber Fmt 4.6, Leading zero omitted, Abs format (unit mm)*
G04 Created by KiCad (PCBNEW 10.0.1) date 2026-09-22 08:01:43*
%MOMM*%
%LPD*%
G01*
G04 APERTURE LIST*
%ADD10R,0.230000X0.660000*%
%ADD11R,0.350000X0.660000*%
G04 APERTURE END LIST*
D10*
%TO.C,J3*%
X77896750Y85557258D03*
X77896750Y88267258D03*
X78296750Y85557258D03*
X78296750Y88267258D03*
X78696750Y85557258D03*
X78696750Y88267258D03*
X79096750Y85557258D03*
X79096750Y88267258D03*
X79496750Y85557258D03*
X79496750Y88267258D03*
X79896750Y85557258D03*
X79896750Y88267258D03*
X80296750Y85557258D03*
X80296750Y88267258D03*
X80696750Y85557258D03*
X80696750Y88267258D03*
X81096750Y85557258D03*
X81096750Y88267258D03*
X81496750Y85557258D03*
X81496750Y88267258D03*
X81896750Y85557258D03*
X81896750Y88267258D03*
X82296750Y85557258D03*
X82296750Y88267258D03*
X82696750Y85557258D03*
X82696750Y88267258D03*
X83096750Y85557258D03*
X83096750Y88267258D03*
X83496750Y85557258D03*
X83496750Y88267258D03*
X83896750Y85557258D03*
X83896750Y88267258D03*
X84296750Y85557258D03*
X84296750Y88267258D03*
X84696750Y85557258D03*
X84696750Y88267258D03*
X85096750Y85557258D03*
X85096750Y88267258D03*
X85496750Y85557258D03*
X85496750Y88267258D03*
X85896750Y85557258D03*
X85896750Y88267258D03*
X86296750Y85557258D03*
X86296750Y88267258D03*
X86696750Y85557258D03*
X86696750Y88267258D03*
X87096750Y85557258D03*
X87096750Y88267258D03*
X87496750Y85557258D03*
X87496750Y88267258D03*
X87896750Y85557258D03*
X87896750Y88267258D03*
X88296750Y85557258D03*
X88296750Y88267258D03*
X88696750Y85557258D03*
X88696750Y88267258D03*
X89096750Y85557258D03*
X89096750Y88267258D03*
X89496750Y85557258D03*
X89496750Y88267258D03*
X89896750Y85557258D03*
X89896750Y88267258D03*
X90296750Y85557258D03*
X90296750Y88267258D03*
X90696750Y85557258D03*
X90696750Y88267258D03*
X91096750Y85557258D03*
X91096750Y88267258D03*
X91496750Y85557258D03*
X91496750Y88267258D03*
D11*
X77421750Y85557258D03*
X77421750Y88267258D03*
X91971750Y85557258D03*
X91971750Y88267258D03*
%TD*%
D10*
%TO.C,J1*%
X18644110Y85557258D03*
X18644110Y88267258D03*
X19044110Y85557258D03*
X19044110Y88267258D03*
X19444110Y85557258D03*
X19444110Y88267258D03*
X19844110Y85557258D03*
X19844110Y88267258D03*
X20244110Y85557258D03*
X20244110Y88267258D03*
X20644110Y85557258D03*
X20644110Y88267258D03*
X21044110Y85557258D03*
X21044110Y88267258D03*
X21444110Y85557258D03*
X21444110Y88267258D03*
X21844110Y85557258D03*
X21844110Y88267258D03*
X22244110Y85557258D03*
X22244110Y88267258D03*
X22644110Y85557258D03*
X22644110Y88267258D03*
X23044110Y85557258D03*
X23044110Y88267258D03*
X23444110Y85557258D03*
X23444110Y88267258D03*
X23844110Y85557258D03*
X23844110Y88267258D03*
X24244110Y85557258D03*
X24244110Y88267258D03*
X24644110Y85557258D03*
X24644110Y88267258D03*
X25044110Y85557258D03*
X25044110Y88267258D03*
X25444110Y85557258D03*
X25444110Y88267258D03*
X25844110Y85557258D03*
X25844110Y88267258D03*
X26244110Y85557258D03*
X26244110Y88267258D03*
X26644110Y85557258D03*
X26644110Y88267258D03*
X27044110Y85557258D03*
X27044110Y88267258D03*
X27444110Y85557258D03*
X27444110Y88267258D03*
X27844110Y85557258D03*
X27844110Y88267258D03*
X28244110Y85557258D03*
X28244110Y88267258D03*
X28644110Y85557258D03*
X28644110Y88267258D03*
X29044110Y85557258D03*
X29044110Y88267258D03*
X29444110Y85557258D03*
X29444110Y88267258D03*
X29844110Y85557258D03*
X29844110Y88267258D03*
X30244110Y85557258D03*
X30244110Y88267258D03*
X30644110Y85557258D03*
X30644110Y88267258D03*
X31044110Y85557258D03*
X31044110Y88267258D03*
X31444110Y85557258D03*
X31444110Y88267258D03*
X31844110Y85557258D03*
X31844110Y88267258D03*
X32244110Y85557258D03*
X32244110Y88267258D03*
D11*
X18169110Y85557258D03*
X18169110Y88267258D03*
X32719110Y85557258D03*
X32719110Y88267258D03*
%TD*%
D10*
%TO.C,J2*%
X47896750Y85557258D03*
X47896750Y88267258D03*
X48296750Y85557258D03*
X48296750Y88267258D03*
X48696750Y85557258D03*
X48696750Y88267258D03*
X49096750Y85557258D03*
X49096750Y88267258D03*
X49496750Y85557258D03*
X49496750Y88267258D03*
X49896750Y85557258D03*
X49896750Y88267258D03*
X50296750Y85557258D03*
X50296750Y88267258D03*
X50696750Y85557258D03*
X50696750Y88267258D03*
X51096750Y85557258D03*
X51096750Y88267258D03*
X51496750Y85557258D03*
X51496750Y88267258D03*
X51896750Y85557258D03*
X51896750Y88267258D03*
X52296750Y85557258D03*
X52296750Y88267258D03*
X52696750Y85557258D03*
X52696750Y88267258D03*
X53096750Y85557258D03*
X53096750Y88267258D03*
X53496750Y85557258D03*
X53496750Y88267258D03*
X53896750Y85557258D03*
X53896750Y88267258D03*
X54296750Y85557258D03*
X54296750Y88267258D03*
X54696750Y85557258D03*
X54696750Y88267258D03*
X55096750Y85557258D03*
X55096750Y88267258D03*
X55496750Y85557258D03*
X55496750Y88267258D03*
X55896750Y85557258D03*
X55896750Y88267258D03*
X56296750Y85557258D03*
X56296750Y88267258D03*
X56696750Y85557258D03*
X56696750Y88267258D03*
X57096750Y85557258D03*
X57096750Y88267258D03*
X57496750Y85557258D03*
X57496750Y88267258D03*
X57896750Y85557258D03*
X57896750Y88267258D03*
X58296750Y85557258D03*
X58296750Y88267258D03*
X58696750Y85557258D03*
X58696750Y88267258D03*
X59096750Y85557258D03*
X59096750Y88267258D03*
X59496750Y85557258D03*
X59496750Y88267258D03*
X59896750Y85557258D03*
X59896750Y88267258D03*
X60296750Y85557258D03*
X60296750Y88267258D03*
X60696750Y85557258D03*
X60696750Y88267258D03*
X61096750Y85557258D03*
X61096750Y88267258D03*
X61496750Y85557258D03*
X61496750Y88267258D03*
D11*
X47421750Y85557258D03*
X47421750Y88267258D03*
X61971750Y85557258D03*
X61971750Y88267258D03*
%TD*%
D10*
%TO.C,J4*%
X107896750Y85557258D03*
X107896750Y88267258D03*
X108296750Y85557258D03*
X108296750Y88267258D03*
X108696750Y85557258D03*
X108696750Y88267258D03*
X109096750Y85557258D03*
X109096750Y88267258D03*
X109496750Y85557258D03*
X109496750Y88267258D03*
X109896750Y85557258D03*
X109896750Y88267258D03*
X110296750Y85557258D03*
X110296750Y88267258D03*
X110696750Y85557258D03*
X110696750Y88267258D03*
X111096750Y85557258D03*
X111096750Y88267258D03*
X111496750Y85557258D03*
X111496750Y88267258D03*
X111896750Y85557258D03*
X111896750Y88267258D03*
X112296750Y85557258D03*
X112296750Y88267258D03*
X112696750Y85557258D03*
X112696750Y88267258D03*
X113096750Y85557258D03*
X113096750Y88267258D03*
X113496750Y85557258D03*
X113496750Y88267258D03*
X113896750Y85557258D03*
X113896750Y88267258D03*
X114296750Y85557258D03*
X114296750Y88267258D03*
X114696750Y85557258D03*
X114696750Y88267258D03*
X115096750Y85557258D03*
X115096750Y88267258D03*
X115496750Y85557258D03*
X115496750Y88267258D03*
X115896750Y85557258D03*
X115896750Y88267258D03*
X116296750Y85557258D03*
X116296750Y88267258D03*
X116696750Y85557258D03*
X116696750Y88267258D03*
X117096750Y85557258D03*
X117096750Y88267258D03*
X117496750Y85557258D03*
X117496750Y88267258D03*
X117896750Y85557258D03*
X117896750Y88267258D03*
X118296750Y85557258D03*
X118296750Y88267258D03*
X118696750Y85557258D03*
X118696750Y88267258D03*
X119096750Y85557258D03*
X119096750Y88267258D03*
X119496750Y85557258D03*
X119496750Y88267258D03*
X119896750Y85557258D03*
X119896750Y88267258D03*
X120296750Y85557258D03*
X120296750Y88267258D03*
X120696750Y85557258D03*
X120696750Y88267258D03*
X121096750Y85557258D03*
X121096750Y88267258D03*
X121496750Y85557258D03*
X121496750Y88267258D03*
D11*
X107421750Y85557258D03*
X107421750Y88267258D03*
X121971750Y85557258D03*
X121971750Y88267258D03*
%TD*%
D10*
%TO.C,J9*%
X18681370Y26063629D03*
X18681370Y28773629D03*
X19081370Y26063629D03*
X19081370Y28773629D03*
X19481370Y26063629D03*
X19481370Y28773629D03*
X19881370Y26063629D03*
X19881370Y28773629D03*
X20281370Y26063629D03*
X20281370Y28773629D03*
X20681370Y26063629D03*
X20681370Y28773629D03*
X21081370Y26063629D03*
X21081370Y28773629D03*
X21481370Y26063629D03*
X21481370Y28773629D03*
X21881370Y26063629D03*
X21881370Y28773629D03*
X22281370Y26063629D03*
X22281370Y28773629D03*
X22681370Y26063629D03*
X22681370Y28773629D03*
X23081370Y26063629D03*
X23081370Y28773629D03*
X23481370Y26063629D03*
X23481370Y28773629D03*
X23881370Y26063629D03*
X23881370Y28773629D03*
X24281370Y26063629D03*
X24281370Y28773629D03*
X24681370Y26063629D03*
X24681370Y28773629D03*
X25081370Y26063629D03*
X25081370Y28773629D03*
X25481370Y26063629D03*
X25481370Y28773629D03*
X25881370Y26063629D03*
X25881370Y28773629D03*
X26281370Y26063629D03*
X26281370Y28773629D03*
X26681370Y26063629D03*
X26681370Y28773629D03*
X27081370Y26063629D03*
X27081370Y28773629D03*
X27481370Y26063629D03*
X27481370Y28773629D03*
X27881370Y26063629D03*
X27881370Y28773629D03*
X28281370Y26063629D03*
X28281370Y28773629D03*
X28681370Y26063629D03*
X28681370Y28773629D03*
X29081370Y26063629D03*
X29081370Y28773629D03*
X29481370Y26063629D03*
X29481370Y28773629D03*
X29881370Y26063629D03*
X29881370Y28773629D03*
X30281370Y26063629D03*
X30281370Y28773629D03*
X30681370Y26063629D03*
X30681370Y28773629D03*
X31081370Y26063629D03*
X31081370Y28773629D03*
X31481370Y26063629D03*
X31481370Y28773629D03*
X31881370Y26063629D03*
X31881370Y28773629D03*
X32281370Y26063629D03*
X32281370Y28773629D03*
D11*
X18206370Y26063629D03*
X18206370Y28773629D03*
X32756370Y26063629D03*
X32756370Y28773629D03*
%TD*%
D10*
%TO.C,J10*%
X47934010Y26063629D03*
X47934010Y28773629D03*
X48334010Y26063629D03*
X48334010Y28773629D03*
X48734010Y26063629D03*
X48734010Y28773629D03*
X49134010Y26063629D03*
X49134010Y28773629D03*
X49534010Y26063629D03*
X49534010Y28773629D03*
X49934010Y26063629D03*
X49934010Y28773629D03*
X50334010Y26063629D03*
X50334010Y28773629D03*
X50734010Y26063629D03*
X50734010Y28773629D03*
X51134010Y26063629D03*
X51134010Y28773629D03*
X51534010Y26063629D03*
X51534010Y28773629D03*
X51934010Y26063629D03*
X51934010Y28773629D03*
X52334010Y26063629D03*
X52334010Y28773629D03*
X52734010Y26063629D03*
X52734010Y28773629D03*
X53134010Y26063629D03*
X53134010Y28773629D03*
X53534010Y26063629D03*
X53534010Y28773629D03*
X53934010Y26063629D03*
X53934010Y28773629D03*
X54334010Y26063629D03*
X54334010Y28773629D03*
X54734010Y26063629D03*
X54734010Y28773629D03*
X55134010Y26063629D03*
X55134010Y28773629D03*
X55534010Y26063629D03*
X55534010Y28773629D03*
X55934010Y26063629D03*
X55934010Y28773629D03*
X56334010Y26063629D03*
X56334010Y28773629D03*
X56734010Y26063629D03*
X56734010Y28773629D03*
X57134010Y26063629D03*
X57134010Y28773629D03*
X57534010Y26063629D03*
X57534010Y28773629D03*
X57934010Y26063629D03*
X57934010Y28773629D03*
X58334010Y26063629D03*
X58334010Y28773629D03*
X58734010Y26063629D03*
X58734010Y28773629D03*
X59134010Y26063629D03*
X59134010Y28773629D03*
X59534010Y26063629D03*
X59534010Y28773629D03*
X59934010Y26063629D03*
X59934010Y28773629D03*
X60334010Y26063629D03*
X60334010Y28773629D03*
X60734010Y26063629D03*
X60734010Y28773629D03*
X61134010Y26063629D03*
X61134010Y28773629D03*
X61534010Y26063629D03*
X61534010Y28773629D03*
D11*
X47459010Y26063629D03*
X47459010Y28773629D03*
X62009010Y26063629D03*
X62009010Y28773629D03*
%TD*%
D10*
%TO.C,J7*%
X77915380Y55557258D03*
X77915380Y58267258D03*
X78315380Y55557258D03*
X78315380Y58267258D03*
X78715380Y55557258D03*
X78715380Y58267258D03*
X79115380Y55557258D03*
X79115380Y58267258D03*
X79515380Y55557258D03*
X79515380Y58267258D03*
X79915380Y55557258D03*
X79915380Y58267258D03*
X80315380Y55557258D03*
X80315380Y58267258D03*
X80715380Y55557258D03*
X80715380Y58267258D03*
X81115380Y55557258D03*
X81115380Y58267258D03*
X81515380Y55557258D03*
X81515380Y58267258D03*
X81915380Y55557258D03*
X81915380Y58267258D03*
X82315380Y55557258D03*
X82315380Y58267258D03*
X82715380Y55557258D03*
X82715380Y58267258D03*
X83115380Y55557258D03*
X83115380Y58267258D03*
X83515380Y55557258D03*
X83515380Y58267258D03*
X83915380Y55557258D03*
X83915380Y58267258D03*
X84315380Y55557258D03*
X84315380Y58267258D03*
X84715380Y55557258D03*
X84715380Y58267258D03*
X85115380Y55557258D03*
X85115380Y58267258D03*
X85515380Y55557258D03*
X85515380Y58267258D03*
X85915380Y55557258D03*
X85915380Y58267258D03*
X86315380Y55557258D03*
X86315380Y58267258D03*
X86715380Y55557258D03*
X86715380Y58267258D03*
X87115380Y55557258D03*
X87115380Y58267258D03*
X87515380Y55557258D03*
X87515380Y58267258D03*
X87915380Y55557258D03*
X87915380Y58267258D03*
X88315380Y55557258D03*
X88315380Y58267258D03*
X88715380Y55557258D03*
X88715380Y58267258D03*
X89115380Y55557258D03*
X89115380Y58267258D03*
X89515380Y55557258D03*
X89515380Y58267258D03*
X89915380Y55557258D03*
X89915380Y58267258D03*
X90315380Y55557258D03*
X90315380Y58267258D03*
X90715380Y55557258D03*
X90715380Y58267258D03*
X91115380Y55557258D03*
X91115380Y58267258D03*
X91515380Y55557258D03*
X91515380Y58267258D03*
D11*
X77440380Y55557258D03*
X77440380Y58267258D03*
X91990380Y55557258D03*
X91990380Y58267258D03*
%TD*%
D10*
%TO.C,J11*%
X77934010Y26063629D03*
X77934010Y28773629D03*
X78334010Y26063629D03*
X78334010Y28773629D03*
X78734010Y26063629D03*
X78734010Y28773629D03*
X79134010Y26063629D03*
X79134010Y28773629D03*
X79534010Y26063629D03*
X79534010Y28773629D03*
X79934010Y26063629D03*
X79934010Y28773629D03*
X80334010Y26063629D03*
X80334010Y28773629D03*
X80734010Y26063629D03*
X80734010Y28773629D03*
X81134010Y26063629D03*
X81134010Y28773629D03*
X81534010Y26063629D03*
X81534010Y28773629D03*
X81934010Y26063629D03*
X81934010Y28773629D03*
X82334010Y26063629D03*
X82334010Y28773629D03*
X82734010Y26063629D03*
X82734010Y28773629D03*
X83134010Y26063629D03*
X83134010Y28773629D03*
X83534010Y26063629D03*
X83534010Y28773629D03*
X83934010Y26063629D03*
X83934010Y28773629D03*
X84334010Y26063629D03*
X84334010Y28773629D03*
X84734010Y26063629D03*
X84734010Y28773629D03*
X85134010Y26063629D03*
X85134010Y28773629D03*
X85534010Y26063629D03*
X85534010Y28773629D03*
X85934010Y26063629D03*
X85934010Y28773629D03*
X86334010Y26063629D03*
X86334010Y28773629D03*
X86734010Y26063629D03*
X86734010Y28773629D03*
X87134010Y26063629D03*
X87134010Y28773629D03*
X87534010Y26063629D03*
X87534010Y28773629D03*
X87934010Y26063629D03*
X87934010Y28773629D03*
X88334010Y26063629D03*
X88334010Y28773629D03*
X88734010Y26063629D03*
X88734010Y28773629D03*
X89134010Y26063629D03*
X89134010Y28773629D03*
X89534010Y26063629D03*
X89534010Y28773629D03*
X89934010Y26063629D03*
X89934010Y28773629D03*
X90334010Y26063629D03*
X90334010Y28773629D03*
X90734010Y26063629D03*
X90734010Y28773629D03*
X91134010Y26063629D03*
X91134010Y28773629D03*
X91534010Y26063629D03*
X91534010Y28773629D03*
D11*
X77459010Y26063629D03*
X77459010Y28773629D03*
X92009010Y26063629D03*
X92009010Y28773629D03*
%TD*%
D10*
%TO.C,J12*%
X107934010Y26063629D03*
X107934010Y28773629D03*
X108334010Y26063629D03*
X108334010Y28773629D03*
X108734010Y26063629D03*
X108734010Y28773629D03*
X109134010Y26063629D03*
X109134010Y28773629D03*
X109534010Y26063629D03*
X109534010Y28773629D03*
X109934010Y26063629D03*
X109934010Y28773629D03*
X110334010Y26063629D03*
X110334010Y28773629D03*
X110734010Y26063629D03*
X110734010Y28773629D03*
X111134010Y26063629D03*
X111134010Y28773629D03*
X111534010Y26063629D03*
X111534010Y28773629D03*
X111934010Y26063629D03*
X111934010Y28773629D03*
X112334010Y26063629D03*
X112334010Y28773629D03*
X112734010Y26063629D03*
X112734010Y28773629D03*
X113134010Y26063629D03*
X113134010Y28773629D03*
X113534010Y26063629D03*
X113534010Y28773629D03*
X113934010Y26063629D03*
X113934010Y28773629D03*
X114334010Y26063629D03*
X114334010Y28773629D03*
X114734010Y26063629D03*
X114734010Y28773629D03*
X115134010Y26063629D03*
X115134010Y28773629D03*
X115534010Y26063629D03*
X115534010Y28773629D03*
X115934010Y26063629D03*
X115934010Y28773629D03*
X116334010Y26063629D03*
X116334010Y28773629D03*
X116734010Y26063629D03*
X116734010Y28773629D03*
X117134010Y26063629D03*
X117134010Y28773629D03*
X117534010Y26063629D03*
X117534010Y28773629D03*
X117934010Y26063629D03*
X117934010Y28773629D03*
X118334010Y26063629D03*
X118334010Y28773629D03*
X118734010Y26063629D03*
X118734010Y28773629D03*
X119134010Y26063629D03*
X119134010Y28773629D03*
X119534010Y26063629D03*
X119534010Y28773629D03*
X119934010Y26063629D03*
X119934010Y28773629D03*
X120334010Y26063629D03*
X120334010Y28773629D03*
X120734010Y26063629D03*
X120734010Y28773629D03*
X121134010Y26063629D03*
X121134010Y28773629D03*
X121534010Y26063629D03*
X121534010Y28773629D03*
D11*
X107459010Y26063629D03*
X107459010Y28773629D03*
X122009010Y26063629D03*
X122009010Y28773629D03*
%TD*%
D10*
%TO.C,J8*%
X107915380Y55557258D03*
X107915380Y58267258D03*
X108315380Y55557258D03*
X108315380Y58267258D03*
X108715380Y55557258D03*
X108715380Y58267258D03*
X109115380Y55557258D03*
X109115380Y58267258D03*
X109515380Y55557258D03*
X109515380Y58267258D03*
X109915380Y55557258D03*
X109915380Y58267258D03*
X110315380Y55557258D03*
X110315380Y58267258D03*
X110715380Y55557258D03*
X110715380Y58267258D03*
X111115380Y55557258D03*
X111115380Y58267258D03*
X111515380Y55557258D03*
X111515380Y58267258D03*
X111915380Y55557258D03*
X111915380Y58267258D03*
X112315380Y55557258D03*
X112315380Y58267258D03*
X112715380Y55557258D03*
X112715380Y58267258D03*
X113115380Y55557258D03*
X113115380Y58267258D03*
X113515380Y55557258D03*
X113515380Y58267258D03*
X113915380Y55557258D03*
X113915380Y58267258D03*
X114315380Y55557258D03*
X114315380Y58267258D03*
X114715380Y55557258D03*
X114715380Y58267258D03*
X115115380Y55557258D03*
X115115380Y58267258D03*
X115515380Y55557258D03*
X115515380Y58267258D03*
X115915380Y55557258D03*
X115915380Y58267258D03*
X116315380Y55557258D03*
X116315380Y58267258D03*
X116715380Y55557258D03*
X116715380Y58267258D03*
X117115380Y55557258D03*
X117115380Y58267258D03*
X117515380Y55557258D03*
X117515380Y58267258D03*
X117915380Y55557258D03*
X117915380Y58267258D03*
X118315380Y55557258D03*
X118315380Y58267258D03*
X118715380Y55557258D03*
X118715380Y58267258D03*
X119115380Y55557258D03*
X119115380Y58267258D03*
X119515380Y55557258D03*
X119515380Y58267258D03*
X119915380Y55557258D03*
X119915380Y58267258D03*
X120315380Y55557258D03*
X120315380Y58267258D03*
X120715380Y55557258D03*
X120715380Y58267258D03*
X121115380Y55557258D03*
X121115380Y58267258D03*
X121515380Y55557258D03*
X121515380Y58267258D03*
D11*
X107440380Y55557258D03*
X107440380Y58267258D03*
X121990380Y55557258D03*
X121990380Y58267258D03*
%TD*%
D10*
%TO.C,J5*%
X18662740Y55557258D03*
X18662740Y58267258D03*
X19062740Y55557258D03*
X19062740Y58267258D03*
X19462740Y55557258D03*
X19462740Y58267258D03*
X19862740Y55557258D03*
X19862740Y58267258D03*
X20262740Y55557258D03*
X20262740Y58267258D03*
X20662740Y55557258D03*
X20662740Y58267258D03*
X21062740Y55557258D03*
X21062740Y58267258D03*
X21462740Y55557258D03*
X21462740Y58267258D03*
X21862740Y55557258D03*
X21862740Y58267258D03*
X22262740Y55557258D03*
X22262740Y58267258D03*
X22662740Y55557258D03*
X22662740Y58267258D03*
X23062740Y55557258D03*
X23062740Y58267258D03*
X23462740Y55557258D03*
X23462740Y58267258D03*
X23862740Y55557258D03*
X23862740Y58267258D03*
X24262740Y55557258D03*
X24262740Y58267258D03*
X24662740Y55557258D03*
X24662740Y58267258D03*
X25062740Y55557258D03*
X25062740Y58267258D03*
X25462740Y55557258D03*
X25462740Y58267258D03*
X25862740Y55557258D03*
X25862740Y58267258D03*
X26262740Y55557258D03*
X26262740Y58267258D03*
X26662740Y55557258D03*
X26662740Y58267258D03*
X27062740Y55557258D03*
X27062740Y58267258D03*
X27462740Y55557258D03*
X27462740Y58267258D03*
X27862740Y55557258D03*
X27862740Y58267258D03*
X28262740Y55557258D03*
X28262740Y58267258D03*
X28662740Y55557258D03*
X28662740Y58267258D03*
X29062740Y55557258D03*
X29062740Y58267258D03*
X29462740Y55557258D03*
X29462740Y58267258D03*
X29862740Y55557258D03*
X29862740Y58267258D03*
X30262740Y55557258D03*
X30262740Y58267258D03*
X30662740Y55557258D03*
X30662740Y58267258D03*
X31062740Y55557258D03*
X31062740Y58267258D03*
X31462740Y55557258D03*
X31462740Y58267258D03*
X31862740Y55557258D03*
X31862740Y58267258D03*
X32262740Y55557258D03*
X32262740Y58267258D03*
D11*
X18187740Y55557258D03*
X18187740Y58267258D03*
X32737740Y55557258D03*
X32737740Y58267258D03*
%TD*%
D10*
%TO.C,J6*%
X47915380Y55557258D03*
X47915380Y58267258D03*
X48315380Y55557258D03*
X48315380Y58267258D03*
X48715380Y55557258D03*
X48715380Y58267258D03*
X49115380Y55557258D03*
X49115380Y58267258D03*
X49515380Y55557258D03*
X49515380Y58267258D03*
X49915380Y55557258D03*
X49915380Y58267258D03*
X50315380Y55557258D03*
X50315380Y58267258D03*
X50715380Y55557258D03*
X50715380Y58267258D03*
X51115380Y55557258D03*
X51115380Y58267258D03*
X51515380Y55557258D03*
X51515380Y58267258D03*
X51915380Y55557258D03*
X51915380Y58267258D03*
X52315380Y55557258D03*
X52315380Y58267258D03*
X52715380Y55557258D03*
X52715380Y58267258D03*
X53115380Y55557258D03*
X53115380Y58267258D03*
X53515380Y55557258D03*
X53515380Y58267258D03*
X53915380Y55557258D03*
X53915380Y58267258D03*
X54315380Y55557258D03*
X54315380Y58267258D03*
X54715380Y55557258D03*
X54715380Y58267258D03*
X55115380Y55557258D03*
X55115380Y58267258D03*
X55515380Y55557258D03*
X55515380Y58267258D03*
X55915380Y55557258D03*
X55915380Y58267258D03*
X56315380Y55557258D03*
X56315380Y58267258D03*
X56715380Y55557258D03*
X56715380Y58267258D03*
X57115380Y55557258D03*
X57115380Y58267258D03*
X57515380Y55557258D03*
X57515380Y58267258D03*
X57915380Y55557258D03*
X57915380Y58267258D03*
X58315380Y55557258D03*
X58315380Y58267258D03*
X58715380Y55557258D03*
X58715380Y58267258D03*
X59115380Y55557258D03*
X59115380Y58267258D03*
X59515380Y55557258D03*
X59515380Y58267258D03*
X59915380Y55557258D03*
X59915380Y58267258D03*
X60315380Y55557258D03*
X60315380Y58267258D03*
X60715380Y55557258D03*
X60715380Y58267258D03*
X61115380Y55557258D03*
X61115380Y58267258D03*
X61515380Y55557258D03*
X61515380Y58267258D03*
D11*
X47440380Y55557258D03*
X47440380Y58267258D03*
X61990380Y55557258D03*
X61990380Y58267258D03*
%TD*%
M02*
