<?xml version="1.0" encoding="UTF-8" standalone="no"?>
<svg
   width="669.36615"
   height="253.46791"
   viewBox="0 0 669.36615 253.46791"
   version="1.1"
   preserveAspectRatio="xMidYMid"
   id="svg17559"
   sodipodi:docname="handles.svg"
   xml:space="preserve"
   inkscape:version="1.2.1 (9c6d41e410, 2022-07-14)"
   inkscape:export-filename="..\..\public\eib-64-cap\resources\handles.png"
   inkscape:export-xdpi="1.99"
   inkscape:export-ydpi="1.99"
   xmlns:inkscape="http://www.inkscape.org/namespaces/inkscape"
   xmlns:sodipodi="http://sodipodi.sourceforge.net/DTD/sodipodi-0.dtd"
   xmlns="http://www.w3.org/2000/svg"
   xmlns:svg="http://www.w3.org/2000/svg"><defs
     id="defs17563" /><sodipodi:namedview
     id="namedview17561"
     pagecolor="#ffffff"
     bordercolor="#666666"
     borderopacity="1.0"
     inkscape:showpageshadow="2"
     inkscape:pageopacity="0.0"
     inkscape:pagecheckerboard="0"
     inkscape:deskcolor="#d1d1d1"
     showgrid="false"
     inkscape:zoom="0.70710678"
     inkscape:cx="70.710678"
     inkscape:cy="162.63456"
     inkscape:window-width="1920"
     inkscape:window-height="1017"
     inkscape:window-x="-8"
     inkscape:window-y="-8"
     inkscape:window-maximized="1"
     inkscape:current-layer="svg17559" /><path
     d="m 130.56008,12.5603 c -4.80377,2.13039 -9.96618,3.57023 -15.38457,4.2178 5.53061,-3.31522 9.77755,-8.56455 11.77757,-14.81914 -5.17532,3.06927 -10.90794,5.29851 -17.00924,6.50005 C 105.05745,3.25314 98.09606,0 90.39208,0 75.59871,0 63.60529,11.99296 63.60529,26.78537 c 0,2.09935 0.23734,4.14377 0.69389,6.10416 C 42.03727,31.77251 22.30021,21.10861 9.089,4.90311 6.78335,8.85921 5.46242,13.4605 5.46242,18.36933 c 0,9.29283 4.72927,17.49158 11.91654,22.29487 -4.39116,-0.13897 -8.5211,-1.34386 -12.13288,-3.35009 -0.002,0.11175 -0.002,0.22398 -0.002,0.33669 0,12.97815 9.23314,23.80442 21.48684,26.26481 -2.24787,0.61223 -4.61419,0.93936 -7.05738,0.93936 -1.7259,0 -3.40404,-0.16762 -5.0392,-0.48043 3.40834,10.64194 13.3005,18.38604 25.02172,18.60238 -9.16723,7.18393 -20.71701,11.46621 -33.26632,11.46621 -2.1619,0 -4.29421,-0.12655 -6.38974,-0.37393 11.85398,7.59988 25.93387,12.03402 41.06057,12.03402 49.26886,0 76.21086,-40.81558 76.21086,-76.21181 0,-1.16143 -0.0258,-2.31664 -0.0774,-3.46518 5.23308,-3.77653 9.77467,-8.49434 13.36592,-13.86593"
     fill="#55acee"
     id="path17555"
     style="fill:#1a1a1a;stroke-width:0.51" /><g
     style="fill:none"
     id="g17631"
     transform="matrix(0.50690792,0,0,0.49377841,49.02196,-101.42944)"><path
       fill-rule="evenodd"
       clip-rule="evenodd"
       d="M 20.23658,492 C -43.984131,492 -96,544.01587 -96,608.23658 c 0,51.43468 33.272721,94.87811 79.476761,110.27945 5.811828,1.01707 7.9912645,-2.47002 7.9912645,-5.52124 0,-2.76061 -0.145295,-11.91424 -0.145295,-21.64906 -29.2044415,5.37594 -36.7598185,-7.11949 -39.0845505,-13.6578 -1.307661,-3.3418 -6.974195,-13.65779 -11.914249,-16.41841 -4.06828,-2.17944 -9.880109,-7.55538 -0.145296,-7.70068 9.153631,-0.14529 15.691938,8.42716 17.871374,11.91425 10.461292,17.58079 27.1703,12.64073 33.8539035,9.58952 1.017071,-7.55538 4.068281,-12.64073 7.41008196,-15.54664 C -26.548644,656.62005 -53.573649,646.59465 -53.573649,602.13416 c 0,-12.64073 4.504168,-23.10202 11.914249,-31.23858 -1.162365,-2.90592 -5.230646,-14.82017 1.162366,-30.8027 0,0 9.734814,-3.05121 31.9650595,11.91425 9.29892696,-2.61532 19.1790345,-3.92298 29.0591445,-3.92298 9.88011,0 19.76022,1.30766 29.05914,3.92298 22.23025,-15.11075 31.96506,-11.91425 31.96506,-11.91425 6.39302,15.98253 2.32474,27.89678 1.16237,30.8027 7.41008,8.13656 11.91425,18.45255 11.91425,31.23858 0,44.60579 -27.1703,54.48589 -53.03294,57.39181 4.21358,3.63239 7.84597,10.60659 7.84597,21.50377 0,15.54664 -0.1453,28.04207 -0.1453,31.96505 0,3.05122 2.17944,6.68361 7.99127,5.52124 45.91345,-15.40134 79.18617,-58.99006 79.18617,-110.27945 C 136.47316,544.01587 84.45729,492 20.23658,492 Z"
       fill="#1b1f23"
       id="path17622"
       style="stroke-width:14.5296" /></g><text
     xml:space="preserve"
     style="font-style:normal;font-variant:normal;font-weight:normal;font-stretch:normal;font-size:96px;line-height:1.25;font-family:Arial;-inkscape-font-specification:Arial;letter-spacing:0px;word-spacing:0px;fill:#000000;fill-opacity:1;stroke:none;stroke-width:2.62971"
     x="153.55388"
     y="230.11104"
     id="text17687"><tspan
       sodipodi:role="line"
       id="tspan17685"
       x="153.55388"
       y="230.11104"
       style="font-size:96px;stroke-width:2.62971">open-ephys</tspan></text><text
     xml:space="preserve"
     style="font-style:normal;font-variant:normal;font-weight:normal;font-stretch:normal;font-size:85.3333px;line-height:1.25;font-family:Arial;-inkscape-font-specification:Arial;letter-spacing:0px;word-spacing:0px;fill:#000000;fill-opacity:1;stroke:none;stroke-width:2.62971"
     x="140.11638"
     y="82.218399"
     id="text17687-3"><tspan
       sodipodi:role="line"
       id="tspan17685-3"
       x="140.11638"
       y="82.218399"
       style="font-size:85.3333px;stroke-width:2.62971">@OpenEphys</tspan></text></svg>
