%TF.GenerationSoftware,KiCad,Pcbnew,(6.0.0)*%
%TF.CreationDate,2022-09-21T12:03:09-04:00*%
%TF.ProjectId,eib-64-cap,6569622d-3634-42d6-9361-702e6b696361,A*%
%TF.SameCoordinates,Original*%
%TF.FileFunction,Legend,Top*%
%TF.FilePolarity,Positive*%
%FSLAX46Y46*%
G04 Gerber Fmt 4.6, Leading zero omitted, Abs format (unit mm)*
G04 Created by KiCad (PCBNEW (6.0.0)) date 2022-09-21 12:03:09*
%MOMM*%
%LPD*%
G01*
G04 APERTURE LIST*
%ADD10C,0.300000*%
%ADD11C,0.250000*%
%ADD12C,0.100000*%
G04 APERTURE END LIST*
D10*
X175031370Y-141856371D02*
X192031370Y-141856371D01*
X192031370Y-141856371D02*
X192031370Y-151206371D01*
X192031370Y-151206371D02*
X175031370Y-151206371D01*
X175031370Y-151206371D02*
X175031370Y-141856371D01*
D11*
X176567084Y-143684228D02*
X177067084Y-143684228D01*
X177281370Y-144469942D02*
X176567084Y-144469942D01*
X176567084Y-142969942D01*
X177281370Y-142969942D01*
X177924227Y-144469942D02*
X177924227Y-142969942D01*
X179138512Y-143684228D02*
X179352798Y-143755656D01*
X179424227Y-143827085D01*
X179495655Y-143969942D01*
X179495655Y-144184228D01*
X179424227Y-144327085D01*
X179352798Y-144398513D01*
X179209941Y-144469942D01*
X178638512Y-144469942D01*
X178638512Y-142969942D01*
X179138512Y-142969942D01*
X179281370Y-143041371D01*
X179352798Y-143112799D01*
X179424227Y-143255656D01*
X179424227Y-143398513D01*
X179352798Y-143541371D01*
X179281370Y-143612799D01*
X179138512Y-143684228D01*
X178638512Y-143684228D01*
X180138512Y-143898513D02*
X181281370Y-143898513D01*
X182638512Y-142969942D02*
X182352798Y-142969942D01*
X182209941Y-143041371D01*
X182138512Y-143112799D01*
X181995655Y-143327085D01*
X181924227Y-143612799D01*
X181924227Y-144184228D01*
X181995655Y-144327085D01*
X182067084Y-144398513D01*
X182209941Y-144469942D01*
X182495655Y-144469942D01*
X182638512Y-144398513D01*
X182709941Y-144327085D01*
X182781370Y-144184228D01*
X182781370Y-143827085D01*
X182709941Y-143684228D01*
X182638512Y-143612799D01*
X182495655Y-143541371D01*
X182209941Y-143541371D01*
X182067084Y-143612799D01*
X181995655Y-143684228D01*
X181924227Y-143827085D01*
X184067084Y-143469942D02*
X184067084Y-144469942D01*
X183709941Y-142898513D02*
X183352798Y-143969942D01*
X184281370Y-143969942D01*
X186852798Y-144327085D02*
X186781370Y-144398513D01*
X186567084Y-144469942D01*
X186424227Y-144469942D01*
X186209941Y-144398513D01*
X186067084Y-144255656D01*
X185995655Y-144112799D01*
X185924227Y-143827085D01*
X185924227Y-143612799D01*
X185995655Y-143327085D01*
X186067084Y-143184228D01*
X186209941Y-143041371D01*
X186424227Y-142969942D01*
X186567084Y-142969942D01*
X186781370Y-143041371D01*
X186852798Y-143112799D01*
X188138512Y-144469942D02*
X188138512Y-143684228D01*
X188067084Y-143541371D01*
X187924227Y-143469942D01*
X187638512Y-143469942D01*
X187495655Y-143541371D01*
X188138512Y-144398513D02*
X187995655Y-144469942D01*
X187638512Y-144469942D01*
X187495655Y-144398513D01*
X187424227Y-144255656D01*
X187424227Y-144112799D01*
X187495655Y-143969942D01*
X187638512Y-143898513D01*
X187995655Y-143898513D01*
X188138512Y-143827085D01*
X188852798Y-143469942D02*
X188852798Y-144969942D01*
X188852798Y-143541371D02*
X188995655Y-143469942D01*
X189281370Y-143469942D01*
X189424227Y-143541371D01*
X189495655Y-143612799D01*
X189567084Y-143755656D01*
X189567084Y-144184228D01*
X189495655Y-144327085D01*
X189424227Y-144398513D01*
X189281370Y-144469942D01*
X188995655Y-144469942D01*
X188852798Y-144398513D01*
X180709941Y-146884942D02*
X180209941Y-146170656D01*
X179852798Y-146884942D02*
X179852798Y-145384942D01*
X180424227Y-145384942D01*
X180567084Y-145456371D01*
X180638512Y-145527799D01*
X180709941Y-145670656D01*
X180709941Y-145884942D01*
X180638512Y-146027799D01*
X180567084Y-146099228D01*
X180424227Y-146170656D01*
X179852798Y-146170656D01*
X181924227Y-146813513D02*
X181781370Y-146884942D01*
X181495655Y-146884942D01*
X181352798Y-146813513D01*
X181281370Y-146670656D01*
X181281370Y-146099228D01*
X181352798Y-145956371D01*
X181495655Y-145884942D01*
X181781370Y-145884942D01*
X181924227Y-145956371D01*
X181995655Y-146099228D01*
X181995655Y-146242085D01*
X181281370Y-146384942D01*
X182495655Y-145884942D02*
X182852798Y-146884942D01*
X183209941Y-145884942D01*
X183781370Y-146742085D02*
X183852798Y-146813513D01*
X183781370Y-146884942D01*
X183709941Y-146813513D01*
X183781370Y-146742085D01*
X183781370Y-146884942D01*
X185567084Y-146456371D02*
X186281370Y-146456371D01*
X185424227Y-146884942D02*
X185924227Y-145384942D01*
X186424227Y-146884942D01*
X179352798Y-147799942D02*
X179352798Y-148871371D01*
X179281370Y-149085656D01*
X179138512Y-149228513D01*
X178924227Y-149299942D01*
X178781370Y-149299942D01*
X180067084Y-149299942D02*
X180067084Y-147799942D01*
X180638512Y-147799942D01*
X180781370Y-147871371D01*
X180852798Y-147942799D01*
X180924227Y-148085656D01*
X180924227Y-148299942D01*
X180852798Y-148442799D01*
X180781370Y-148514228D01*
X180638512Y-148585656D01*
X180067084Y-148585656D01*
X181567084Y-149299942D02*
X181567084Y-147799942D01*
X182424227Y-149299942D01*
X182424227Y-147799942D01*
X184352798Y-147799942D02*
X184209941Y-148085656D01*
X184924227Y-147942799D02*
X184995655Y-147871371D01*
X185138512Y-147799942D01*
X185495655Y-147799942D01*
X185638512Y-147871371D01*
X185709941Y-147942799D01*
X185781370Y-148085656D01*
X185781370Y-148228513D01*
X185709941Y-148442799D01*
X184852798Y-149299942D01*
X185781370Y-149299942D01*
X186352798Y-147942799D02*
X186424227Y-147871371D01*
X186567084Y-147799942D01*
X186924227Y-147799942D01*
X187067084Y-147871371D01*
X187138512Y-147942799D01*
X187209941Y-148085656D01*
X187209941Y-148228513D01*
X187138512Y-148442799D01*
X186281370Y-149299942D01*
X187209941Y-149299942D01*
D12*
%TO.C,J12*%
X163734010Y-128081371D02*
X163734010Y-126481371D01*
X179334010Y-128081371D02*
X179334010Y-126481371D01*
%TO.C,J11*%
X133734010Y-128081371D02*
X133734010Y-126481371D01*
X149334010Y-128081371D02*
X149334010Y-126481371D01*
%TO.C,J10*%
X103734010Y-128081371D02*
X103734010Y-126481371D01*
X119334010Y-128081371D02*
X119334010Y-126481371D01*
%TO.C,J9*%
X74481370Y-128081371D02*
X74481370Y-126481371D01*
X90081370Y-128081371D02*
X90081370Y-126481371D01*
%TO.C,J8*%
X163715380Y-98587742D02*
X163715380Y-96987742D01*
X179315380Y-98587742D02*
X179315380Y-96987742D01*
%TO.C,J7*%
X133715380Y-98587742D02*
X133715380Y-96987742D01*
X149315380Y-98587742D02*
X149315380Y-96987742D01*
%TO.C,J6*%
X103715380Y-98587742D02*
X103715380Y-96987742D01*
X119315380Y-98587742D02*
X119315380Y-96987742D01*
%TO.C,J5*%
X74462740Y-98587742D02*
X74462740Y-96987742D01*
X90062740Y-98587742D02*
X90062740Y-96987742D01*
%TO.C,J4*%
X163696750Y-68587742D02*
X163696750Y-66987742D01*
X179296750Y-68587742D02*
X179296750Y-66987742D01*
%TO.C,J3*%
X133696750Y-68587742D02*
X133696750Y-66987742D01*
X149296750Y-68587742D02*
X149296750Y-66987742D01*
%TO.C,J2*%
X103696750Y-68587742D02*
X103696750Y-66987742D01*
X119296750Y-68587742D02*
X119296750Y-66987742D01*
%TO.C,J1*%
X90044110Y-68587742D02*
X90044110Y-66987742D01*
X74444110Y-68587742D02*
X74444110Y-66987742D01*
%TD*%
M02*
